<?xml version="1.0" encoding="UTF-8" standalone="no"?>
<!-- Generator: Gravit.io -->
<svg xmlns="http://www.w3.org/2000/svg" xmlns:xlink="http://www.w3.org/1999/xlink" style="isolation:isolate" viewBox="0 0 150 150" width="150pt" height="150pt"><defs><clipPath id="_clipPath_ip2vSyN5Qs8JQWEBu4ah86O0SPkAHxTs"><rect width="150" height="150"/></clipPath></defs><g clip-path="url(#_clipPath_ip2vSyN5Qs8JQWEBu4ah86O0SPkAHxTs)"><rect width="150" height="150" style="fill:rgb(0,0,0)" fill-opacity="0"/><g><path d=" M 131.799 67.494 C 131.693 68.572 131.59 69.649 131.493 70.728 C 131.374 70.752 131.255 70.776 131.136 70.8 C 130.536 69.885 129.943 68.981 129.365 68.101 C 129.561 68.18 129.806 68.182 130.105 68.095 C 130.656 67.934 131.193 67.726 131.799 67.494 L 131.799 67.494 L 131.799 67.494 L 131.799 67.494 L 131.799 67.494 Z  M 124.523 71.144 C 126.552 71.058 128.634 70.969 130.756 70.878 C 130.078 71.028 129.399 71.154 128.716 71.176 C 127.32 71.221 125.922 71.183 124.523 71.144 L 124.523 71.144 L 124.523 71.144 L 124.523 71.144 L 124.523 71.144 L 124.523 71.144 L 124.523 71.144 L 124.523 71.144 Z  M 72.959 49.744 Q 73.056 50.086 73.143 50.477 L 73.143 50.477 L 74.515 56.586 L 78.635 55.127 L 78.963 56.587 L 65.243 60.323 L 65.243 60.323 Q 65.598 56.368 67.187 52.993 L 67.187 52.993 L 67.187 52.993 Q 67.863 51.557 68.764 50.366 L 68.764 50.366 Q 71.192 49.753 72.959 49.744 L 72.959 49.744 L 72.959 49.744 L 72.959 49.744 L 72.959 49.744 L 72.959 49.744 L 72.959 49.744 Z  M 50.691 142.225 C 53.881 142.224 56.066 144.465 58.867 144.377 C 58.786 147.189 58.235 147.657 55.617 147.461 C 54.039 147.342 52.399 147.506 50.89 147.16 C 48.263 146.558 45.636 147.318 43.012 146.867 C 40.295 146.4 37.494 146.336 34.777 145.869 C 28.929 144.864 23.112 143.694 17.276 142.628 C 13.517 141.94 9.741 141.311 5.972 140.667 C 5.275 140.548 4.565 140.501 3.868 140.382 C 0.034 139.731 -0.613 138.901 -0.302 135.369 C 0.087 130.91 0.317 126.438 0.784 121.986 C 1.101 118.948 2.188 118.646 5.148 120.114 C 14.65 124.83 24.189 129.48 33.753 134.084 C 36.62 135.463 39.632 136.576 42.552 137.865 C 45.01 138.949 47.444 140.081 49.847 141.267 C 50.301 141.492 50.557 142.065 50.691 142.225 L 50.691 142.225 L 50.691 142.225 L 50.691 142.225 Z  M 130.221 11.424 C 127.243 14.69 124.357 17.839 121.491 21.001 C 120.632 21.948 119.823 22.933 118.982 23.893 C 118.267 24.707 117.532 24.852 116.377 24.415 C 109.555 21.837 102.695 19.351 95.836 16.862 C 92.655 15.707 89.48 14.524 86.234 13.536 C 84.75 13.083 83.106 13.069 81.065 12.792 C 81.575 12.025 81.899 11.417 82.341 10.898 C 83.614 9.403 84.93 7.94 86.237 6.472 C 87.893 4.619 89.499 3.013 92.59 3.119 C 96.427 3.251 100.305 2.914 104.14 2.552 C 107.868 2.2 111.065 3.703 114.37 4.756 C 118.54 6.085 122.63 7.648 126.695 9.242 C 127.952 9.736 129.013 10.662 130.221 11.424 L 130.221 11.424 L 130.221 11.424 Z  M 122.456 28.14 C 127.986 22.33 133.262 16.79 138.674 11.103 C 142.372 13.957 146.324 17.006 150.37 20.129 C 146.25 25.205 142.163 30.237 138.049 35.307 C 132.96 32.968 127.797 30.595 122.456 28.14 L 122.456 28.14 Z  M 91.085 53.695 L 97.654 51.37 L 97.592 51.092 L 99.71 50.342 L 95.626 32.146 L 95.626 32.146 Q 94.371 31.798 93.098 31.539 L 92.542 29.062 L 92.542 29.062 Q 85.695 27.161 78.305 27.916 Q 70.728 27.108 62.531 29.341 L 62.531 29.341 L 62.531 29.341 Q 51.026 32.474 44.355 42.358 L 44.355 42.358 L 44.355 42.358 Q 41.9 45.996 40.619 50.332 Q 36.739 57.847 37.218 67.955 L 31.304 69.565 L 32.273 73.882 L 29.248 74.705 L 31.64 85.363 L 35.832 84.221 L 36.526 87.313 L 35.359 87.631 L 36.328 91.947 L 36.328 91.947 L 33.303 92.771 L 35.695 103.429 L 39.887 102.287 L 40.835 106.513 L 45.836 105.151 Q 51.659 117.16 60.689 121.071 Q 70.226 128.575 84.247 124.757 L 84.247 124.757 L 84.247 124.757 Q 92.264 122.574 97.941 117.754 Q 98.264 117.588 98.581 117.416 Q 107.684 113.23 112.907 104.674 L 112.907 104.674 L 109.758 101.696 Q 109.791 101.643 109.823 101.59 L 109.823 101.59 L 100.763 93.023 L 100.763 93.023 Q 99.094 95.544 97.231 97.459 L 92.539 93.023 L 92.539 93.023 Q 87.302 100.932 80.163 102.876 L 80.163 102.876 L 80.163 102.876 Q 79.628 103.021 79.106 103.141 Q 77.817 102.746 76.686 102.063 L 76.686 102.063 L 76.686 102.063 Q 76.153 101.741 75.64 101.357 Q 74.392 99.751 73.293 97.674 L 88.625 93.499 L 88.111 91.207 L 94.793 89.387 L 94.694 88.946 L 96.849 88.359 L 94.457 77.701 L 92.203 78.315 L 92.203 78.315 L 91.373 74.617 L 83.623 76.728 L 83.403 75.75 L 84.57 75.433 L 84.055 73.14 L 90.738 71.321 L 90.639 70.88 L 92.794 70.293 L 90.402 59.635 L 88.148 60.249 L 87.402 56.928 L 91.486 55.482 L 91.085 53.695 L 91.085 53.695 L 91.085 53.695 L 91.085 53.695 L 91.085 53.695 L 91.085 53.695 L 91.085 53.695 Z  M 132.762 57.397 C 133 54.982 133.23 52.567 133.455 50.151 C 133.779 46.702 134.046 43.248 134.227 39.793 C 134.252 39.305 133.782 38.595 133.277 38.327 C 130.853 37.04 128.363 35.835 125.851 34.667 C 122.057 32.903 118.422 30.75 114.376 29.546 C 103.411 26.281 92.269 23.42 81.189 20.42 C 79.014 19.831 76.804 18.894 74.603 18.883 C 68.267 18.853 61.93 19.335 55.59 19.394 C 45.478 19.489 36.001 21.702 26.795 24.924 C 26.091 25.17 25.273 25.601 24.971 26.128 C 24.305 27.284 23.866 28.542 23.458 29.785 C 22.369 33.095 21.161 36.389 20.336 39.745 C 18.88 45.655 17.576 51.592 16.393 57.544 C 15.189 63.609 14.211 69.704 13.029 76.378 C 11.631 87.682 10.147 99.578 8.734 111.48 C 8.684 111.898 9.169 112.569 9.636 112.788 C 17.168 116.327 24.7 119.862 32.306 123.289 C 36.489 125.173 40.682 127.118 45.095 128.566 C 51.874 130.792 58.889 132.526 65.73 134.636 C 70.613 136.143 75.419 137.333 80.539 135.47 C 80.962 135.317 81.46 135.31 81.921 135.225 C 89.841 133.759 97.769 132.312 105.677 130.798 C 106.676 130.607 107.84 130.25 108.463 129.643 C 109.879 128.262 111.189 126.758 112.21 125.159 C 113.884 122.54 115.381 119.837 116.794 117.114 C 120.557 109.864 125.562 103.064 127.538 95.169 C 127.732 94.394 127.927 93.62 128.125 92.848 C 123.72 90.295 119.342 87.693 114.928 85.156 C 111.736 83.322 108.541 81.47 105.216 79.903 C 104.094 79.374 103.544 78.839 103.596 78.06 L 103.596 78.06 L 103.596 78.06 C 103.453 77.985 103.307 77.916 103.16 77.847 C 101.45 77.04 101.068 76.222 102.099 74.551 L 102.099 74.551 L 102.099 74.551 C 103.602 74.513 105.115 74.473 106.641 74.429 C 105.566 73.766 105.35 73.022 106.046 71.757 L 106.046 71.757 C 105.561 71.777 105.074 71.798 104.585 71.819 L 104.585 71.819 L 104.585 71.819 C 105.017 71.025 105.196 70.274 105.672 69.886 C 105.782 69.795 105.893 69.705 106.005 69.615 C 104.883 69.662 103.711 69.712 102.529 69.763 L 102.529 69.763 L 102.529 69.763 C 102.961 68.969 103.14 68.218 103.616 67.83 C 107.742 64.46 111.92 61.152 116.09 57.836 C 116.277 57.688 116.498 57.584 116.927 57.353 C 118.02 56.487 119.111 55.62 120.202 54.752 C 120.449 54.555 120.759 54.436 121.461 54.048 C 121.511 54.125 121.561 54.201 121.611 54.277 C 122.221 53.822 123.017 53.888 123.648 54.551 C 124.22 55.153 124.814 55.737 125.395 56.332 L 125.395 56.332 C 125.5 56.412 125.604 56.502 125.704 56.607 C 126.425 57.365 127.18 58.097 127.883 58.869 L 127.883 58.869 C 127.78 58.7 127.694 58.527 127.646 58.344 C 127.5 57.797 127.27 56.991 127.486 56.642 C 127.093 55.92 126.696 55.2 126.298 54.482 C 126.06 54.054 125.711 53.661 125.59 53.204 C 125.436 52.627 125.188 51.763 125.466 51.446 C 126.09 50.731 127.034 50.705 127.76 51.467 C 129.549 53.347 131.54 55.064 132.762 57.397 L 132.762 57.397 L 132.762 57.397 L 132.762 57.397 L 132.762 57.397 Z  M 5.658 38.608 C 6.172 38.077 6.311 37.263 5.882 36.344 C 5.796 36.158 5.783 35.907 5.817 35.698 C 6.254 32.952 6.605 30.183 7.181 27.466 C 7.921 23.974 9.459 20.794 11.546 17.902 C 12.499 16.584 13.54 15.325 14.619 14.107 C 14.896 13.794 15.621 13.469 15.879 13.614 C 17.953 14.781 19.966 16.058 22.117 17.374 C 20.611 19.943 19.189 22.3 17.842 24.7 C 17.371 25.54 17.128 26.507 16.7 27.375 C 16.513 27.753 15.997 27.981 15.844 28.363 C 14.654 31.34 13.404 34.302 12.409 37.345 C 11.918 38.85 11.948 40.522 11.702 42.111 C 10.894 47.313 10.508 52.546 10.446 57.807 C 10.436 58.725 10.406 58.725 9.183 59.155 C 8.975 58.782 8.708 58.415 8.556 58.005 C 6.878 53.522 5.468 48.988 5.693 44.103 C 5.747 42.912 5.719 41.731 5.939 40.544 C 6.041 39.998 5.784 39.388 5.658 38.608 Z " fill-rule="evenodd" fill="rgb(255,194,72)"/><path d=" M 106.211 74.551 C 111.152 74.429 116.196 74.273 121.242 74.194 C 123.733 74.154 126.228 74.341 128.717 74.26 C 130.048 74.216 131.363 73.779 132.697 73.603 C 133.518 73.495 134.361 73.513 135.193 73.53 C 136.245 73.551 137.296 73.683 138.347 73.667 C 139.225 73.654 139.584 73.851 139.568 74.862 C 139.515 78.221 139.741 81.592 139.536 84.938 C 139.465 86.108 138.486 87.238 137.867 88.356 C 136.983 89.951 136.323 91.783 134.289 92.323 C 133.823 92.447 133.189 92.543 132.818 92.329 C 127.523 89.281 122.28 86.144 116.984 83.1 C 113.792 81.266 110.597 79.414 107.272 77.847 C 105.562 77.04 105.18 76.222 106.211 74.551 L 106.211 74.551 L 106.211 74.551 Z  M 106.641 69.763 C 107.073 68.968 107.252 68.218 107.728 67.83 C 111.854 64.46 116.032 61.152 120.202 57.836 C 120.449 57.639 120.759 57.52 121.461 57.132 C 123.984 60.978 126.487 64.792 129.12 68.804 C 121.482 69.13 114.293 69.437 106.641 69.763 L 106.641 69.763 L 106.641 69.763 Z  M 134.927 65.016 C 133.866 65.414 133.031 65.785 132.161 66.039 C 131.017 66.373 130.665 65.395 130.259 64.686 C 128.908 62.33 127.615 59.941 126.298 57.566 C 126.06 57.138 125.711 56.745 125.59 56.288 C 125.436 55.711 125.188 54.847 125.466 54.53 C 126.09 53.816 127.034 53.789 127.76 54.551 C 129.848 56.744 132.21 58.717 133.316 61.694 C 133.729 62.804 134.348 63.837 134.927 65.016 L 134.927 65.016 Z  M 69.168 44.786 L 69.168 44.786 L 69.168 44.786 Q 62.678 46.554 59.923 52.407 L 59.923 52.407 L 59.923 52.407 Q 57.167 58.26 58.122 65.862 L 58.122 65.862 L 83.138 59.049 L 85.53 69.707 L 37.74 82.721 L 35.348 72.063 L 43.726 69.782 L 43.726 69.782 Q 41.727 54.742 48.399 44.856 L 48.399 44.856 L 48.399 44.856 Q 55.07 34.972 66.575 31.839 L 66.575 31.839 L 66.575 31.839 Q 78.08 28.706 88.362 31.56 L 88.362 31.56 L 92.446 49.756 L 80.614 53.944 L 79.243 47.835 L 79.243 47.835 Q 78.806 45.886 78.144 45.169 L 78.144 45.169 L 78.144 45.169 Q 77.482 44.453 75.213 44.106 L 75.213 44.106 L 75.213 44.106 Q 72.944 43.758 69.168 44.786 L 69.168 44.786 Z  M 50.173 98.505 L 41.795 100.787 L 39.403 90.129 L 87.193 77.115 L 89.585 87.773 L 64.805 94.521 L 64.805 94.521 Q 67.942 101.804 72.505 104.561 L 72.505 104.561 L 72.505 104.561 Q 77.068 107.318 84.207 105.374 L 84.207 105.374 L 84.207 105.374 Q 91.346 103.43 96.583 95.521 L 96.583 95.521 L 105.643 104.088 L 105.643 104.088 Q 98.777 115.336 85.207 119.031 L 85.207 119.031 L 85.207 119.031 Q 61.017 125.618 50.173 98.505 L 50.173 98.505 L 50.173 98.505 Z " fill-rule="evenodd" fill="rgb(46,46,46)"/></g></g></svg>