<?xml version="1.0" encoding="UTF-8" standalone="no"?>
<!-- Generator: Gravit.io -->
<svg xmlns="http://www.w3.org/2000/svg" xmlns:xlink="http://www.w3.org/1999/xlink" style="isolation:isolate" viewBox="0 0 150 150" width="150pt" height="150pt"><defs><clipPath id="_clipPath_j9762ev2PyYb3FliPw5JUJi5Wh0hL90a"><rect width="150" height="150"/></clipPath></defs><g clip-path="url(#_clipPath_j9762ev2PyYb3FliPw5JUJi5Wh0hL90a)"><rect width="150" height="150" style="fill:rgb(0,0,0)" fill-opacity="0"/><g><path d=" M 78.142 74.174 L 58.761 91.535 L 58.761 91.535 L 56.526 62.409 L 31.266 47.738 L 58.276 36.613 L 64.423 8.055 L 83.35 30.305 L 84.23 30.215 L 84.23 30.215 C 84.612 29.809 85.103 29.498 85.825 29.352 C 87.532 29.007 89.207 28.451 90.86 27.888 C 92.468 27.341 94.036 27.669 95.605 27.786 C 97.548 27.931 99.48 28.184 101.404 28.455 L 112.409 27.327 L 97.098 52.203 L 108.91 78.92 L 91.828 74.783 C 91.339 74.942 90.853 75.106 90.368 75.271 C 88.76 75.818 87.192 75.491 85.623 75.374 C 83.644 75.226 81.676 74.966 79.715 74.69 C 79.179 74.614 78.675 74.373 78.142 74.174 Z  M 81.114 15.441 C 81.866 15.564 82.805 16.154 83.319 17.257 C 83.728 18.14 83.902 19.163 84.126 20.139 C 84.179 20.371 84.08 20.699 83.956 20.921 C 83.565 21.616 83.043 22.238 82.735 22.968 C 82.304 23.983 81.458 24.055 81.004 23.521 C 80.074 22.426 79.18 21.16 78.723 19.782 C 78.523 19.181 79.397 18.11 79.842 17.29 C 80.137 16.749 80.534 16.274 81.114 15.441 L 81.114 15.441 L 81.114 15.441 L 81.114 15.441 L 81.114 15.441 L 81.114 15.441 Z  M 87.108 26.535 C 87.001 27.367 86.158 27.835 85.485 27.438 C 84.839 27.058 84.189 26.678 83.539 26.306 C 82.904 25.944 82.59 25.377 82.92 24.671 C 83.24 23.985 83.65 23.033 84.189 22.865 C 84.75 22.689 85.675 23.125 86.159 23.619 C 86.983 24.459 87.245 25.456 87.108 26.535 L 87.108 26.535 L 87.108 26.535 L 87.108 26.535 L 87.108 26.535 L 87.108 26.535 Z  M 78.065 76.778 C 78.021 77.058 77.912 77.428 77.933 77.789 C 77.945 78.029 78.097 78.402 78.27 78.462 C 80.059 79.076 81.832 79.808 83.676 80.174 C 86.35 80.706 89.095 80.811 91.787 80.225 C 93.683 79.815 95.528 79.189 97.379 78.559 C 90.796 79.466 84.397 78.701 78.065 76.778 L 78.065 76.778 L 78.065 76.778 L 78.065 76.778 L 78.065 76.778 Z  M 35.84 41.5 C 35.806 41.473 35.767 41.445 35.727 41.414 C 35.363 41.139 35.295 40.601 35.598 40.259 C 35.685 40.16 35.778 40.078 35.888 40.032 C 39.552 38.483 43.19 36.855 46.93 35.515 C 49.473 34.602 52.031 33.835 54.151 32.063 C 54.184 32.036 54.22 32.012 54.258 31.994 C 54.78 31.739 55.385 32.214 55.339 32.794 C 55.33 32.918 55.303 33.033 55.248 33.131 C 54.978 33.612 54.524 34.046 54.052 34.349 C 53.126 34.941 52.178 35.55 51.159 35.938 C 46.546 37.701 41.907 39.391 37.273 41.099 C 36.87 41.246 36.444 41.332 35.84 41.5 L 35.84 41.5 L 35.84 41.5 L 35.84 41.5 Z " fill-rule="evenodd" fill="rgb(23,23,23)"/><path d=" M 77.295 121.785 C 75.706 120.498 74.691 118.838 72.59 119.175 C 72.062 119.258 71.291 119.338 71.106 119.678 C 70.887 120.08 70.984 120.938 71.293 121.29 C 72.227 122.346 73.239 123.395 74.41 124.153 C 74.925 124.49 76.157 124.398 76.597 123.993 C 77.107 123.529 77.098 122.503 77.295 121.785 Z  M 11.474 66.521 C 14.198 69.817 16.461 72.788 18.979 75.527 C 20.936 77.654 23.179 79.529 25.367 81.436 C 26.052 82.032 26.921 82.844 27.933 82.036 C 28.854 81.302 29.099 79.116 28.848 78.224 C 27.887 74.794 25.578 72.157 23.718 69.265 C 21.852 66.356 19.774 63.586 17.851 60.712 C 17.394 60.031 16.4 59.479 17.091 58.325 C 17.677 57.34 18.324 57.063 19.119 57.874 C 21.677 60.489 24.165 63.171 26.69 65.818 C 27.867 67.053 29.048 68.284 30.259 69.486 C 31.631 70.851 33.023 72.196 34.436 73.519 C 34.99 74.038 35.588 74.763 36.409 73.896 C 37.218 73.042 38.753 72.42 37.955 70.875 C 35.472 66.07 32.552 61.541 29.056 57.399 C 28.79 57.083 28.384 56.795 28.3 56.434 C 28.18 55.901 28.078 55.156 28.351 54.787 C 28.769 54.223 29.527 54.063 30.15 54.706 C 31.936 56.549 33.753 58.369 35.495 60.253 C 38.367 63.357 41.258 66.444 44.007 69.649 C 46.473 72.528 48.665 75.621 49.274 79.498 C 49.404 80.315 49.366 81.267 49.064 82.018 C 48.358 83.757 47.407 85.395 46.644 87.112 C 46.495 87.45 46.584 88.117 46.831 88.373 C 53.033 94.821 59.189 101.317 65.544 107.612 C 68.48 110.522 71.924 112.911 74.948 115.74 C 77.085 117.739 79.04 119.976 80.827 122.299 C 82.43 124.377 81.803 126.543 79.437 127.646 C 75.11 129.665 72.247 129.082 69.371 125.134 C 61.059 113.725 52.951 102.148 43.026 92.021 C 42.493 91.479 42.141 91.094 41.205 91.668 C 38.08 93.582 34.585 93.676 31.17 92.813 C 29.932 92.501 28.786 91.328 27.878 90.299 C 22.973 84.754 18.102 79.176 13.344 73.504 C 12.147 72.076 11.311 70.309 10.524 68.599 C 10.343 68.207 11.048 67.405 11.474 66.521 Z " fill="rgb(23,23,23)"/><path d=" M 125.686 104.072 C 125.603 104.413 125.52 104.753 125.436 105.094 C 124.628 108.381 123.445 111.607 122.378 114.849 C 121.979 116.067 121.549 117.299 120.897 118.431 C 120.601 118.947 119.799 119.37 119.11 119.611 C 110.093 122.766 100.81 124.933 90.906 125.027 C 88.706 125.047 86.506 125.12 84.306 125.2 C 84.461 123.612 83.952 121.972 82.838 120.523 C 80.777 117.85 78.751 115.591 76.641 113.616 C 75.19 112.261 73.661 111.011 72.185 109.804 C 70.442 108.378 68.794 107.031 67.297 105.546 C 64.225 102.505 61.166 99.38 58.149 96.26 L 58.149 96.26 L 61.981 91.845 L 76.049 79.244 C 76.104 79.454 76.222 79.677 76.352 79.723 C 78.142 80.337 79.915 81.069 81.759 81.435 C 83.84 81.848 85.964 82.004 88.073 81.758 C 90.026 81.972 92.001 81.909 93.947 81.486 C 95.843 81.076 97.688 80.449 99.538 79.82 C 97.808 80.058 96.09 80.181 94.384 80.186 C 94.743 80.064 95.102 79.942 95.462 79.82 C 94.315 79.978 93.175 80.085 92.039 80.143 L 92.039 80.143 C 88.057 79.97 84.128 79.224 80.225 78.039 L 80.225 78.039 L 80.225 78.039 L 80.225 78.039 L 80.225 78.039 C 80.181 78.319 80.071 78.689 80.093 79.05 C 80.093 79.058 80.094 79.067 80.097 79.078 C 79.091 78.857 78.088 78.601 77.086 78.315 L 78.196 77.321 C 79.37 77.739 80.549 78.137 81.759 78.377 C 84.433 78.909 87.178 79.014 89.87 78.428 C 90.87 78.212 91.856 77.935 92.833 77.617 L 92.833 77.617 C 93.205 77.557 93.576 77.49 93.947 77.409 C 94.22 77.35 94.492 77.286 94.763 77.219 L 106.993 80.18 L 106.956 80.096 L 110.005 81.049 L 110.005 81.049 C 109.58 81.918 109.155 82.787 108.733 83.654 C 108.025 85.105 107.313 86.555 106.597 88.01 L 104.583 92.114 L 106.543 93.555 C 106.841 93.776 107.136 93.989 107.421 94.195 C 107.711 94.404 107.994 94.61 108.267 94.813 C 108.032 95.419 107.784 95.978 107.493 96.449 C 104.526 101.225 101.395 106.15 98.187 111.092 C 96.362 113.902 95.862 116.341 99.349 119.104 C 100.113 119.707 100.977 120.007 101.571 120.153 C 102.091 120.281 102.589 120.378 103.071 120.47 C 103.58 120.569 104.062 120.664 104.498 120.779 C 104.82 120.868 105.15 120.936 105.481 120.984 C 109.132 121.512 112.62 119.615 114.163 116.264 C 116.172 111.902 117.869 107.222 119.355 101.961 C 119.448 101.627 119.544 101.296 119.645 100.963 L 125.686 104.072 Z  M 64.38 123.633 C 54.007 120.833 43.587 118.139 33.326 115.084 C 29.363 113.904 25.802 111.795 22.086 110.067 C 19.626 108.923 17.187 107.743 14.812 106.483 C 14.318 106.22 13.858 105.525 13.882 105.047 C 14.059 101.662 14.321 98.279 14.638 94.901 C 15.058 90.395 15.493 85.889 15.931 81.384 C 18.652 84.562 21.752 88.109 25.398 92.232 C 26.639 93.636 28.173 95.137 30.159 95.638 C 34.303 96.688 38.058 96.394 41.329 94.763 C 49.799 103.539 57.103 113.605 64.172 123.346 C 64.242 123.441 64.311 123.537 64.38 123.633 Z  M 17.086 69.181 C 17.199 68.04 17.305 66.899 17.409 65.758 C 17.413 65.722 17.416 65.687 17.421 65.651 C 17.509 65.776 17.595 65.899 17.68 66.02 C 18.786 67.595 19.93 69.223 20.972 70.841 C 21.462 71.606 21.977 72.345 22.474 73.057 C 23.583 74.653 24.644 76.173 25.323 77.804 C 23.712 76.402 22.191 75.043 20.825 73.556 C 19.558 72.18 18.335 70.713 17.086 69.181 Z  M 19.43 54.806 C 19.761 53.473 20.1 52.141 20.434 50.807 C 22.369 43.073 27.271 36.413 30.957 29.312 C 32.341 26.644 33.807 23.997 35.447 21.432 C 36.447 19.866 37.731 18.393 39.118 17.04 C 39.728 16.446 40.868 16.096 41.846 15.909 C 48.292 14.675 54.75 13.486 61.206 12.295 L 57.464 29.678 C 57.329 29.25 56.845 28.968 56.418 29.177 C 56.38 29.196 56.343 29.219 56.311 29.247 C 55.415 29.995 54.441 30.565 53.418 31.031 C 53.42 31.02 53.421 31.009 53.422 30.997 C 53.468 30.417 52.863 29.942 52.341 30.197 C 52.303 30.215 52.267 30.239 52.234 30.266 C 50.114 32.038 47.556 32.805 45.013 33.718 C 41.273 35.058 37.635 36.686 33.971 38.235 C 33.861 38.281 33.768 38.363 33.681 38.461 C 33.378 38.804 33.446 39.342 33.81 39.617 C 33.85 39.648 33.889 39.675 33.923 39.703 L 33.923 39.703 L 33.923 39.703 L 33.923 39.703 L 33.923 39.703 C 34.527 39.535 34.953 39.449 35.356 39.302 C 36.147 39.01 36.937 38.72 37.728 38.431 C 37.769 38.494 37.824 38.55 37.887 38.598 C 37.927 38.629 37.966 38.656 38 38.684 L 38 38.684 L 38 38.684 L 38 38.684 L 38 38.684 C 38.603 38.516 39.03 38.43 39.433 38.283 C 43.534 36.771 47.639 35.274 51.725 33.722 C 49.712 35.217 47.356 35.935 45.013 36.776 C 41.273 38.116 37.635 39.744 33.971 41.293 C 33.861 41.339 33.768 41.421 33.681 41.519 C 33.378 41.862 33.446 42.4 33.81 42.675 C 33.85 42.706 33.889 42.733 33.923 42.76 L 33.923 42.76 L 33.923 42.76 L 33.923 42.76 C 34.527 42.593 34.953 42.507 35.356 42.359 C 36.177 42.057 36.998 41.755 37.819 41.455 C 37.798 41.475 37.778 41.497 37.758 41.519 C 37.512 41.798 37.51 42.205 37.714 42.495 L 30.923 45.293 L 30.923 45.293 L 24.917 46.803 L 29.566 49.125 L 29.566 49.125 L 54.609 63.67 L 56.843 92.795 L 56.843 94.907 C 55.323 93.33 53.815 91.757 52.322 90.201 C 51.381 89.219 50.439 88.236 49.496 87.256 C 49.663 86.914 49.836 86.568 50.015 86.212 C 50.51 85.226 51.02 84.207 51.462 83.115 C 52.11 81.522 51.985 79.884 51.853 79.048 C 51.112 74.33 48.437 70.692 45.919 67.758 C 43.481 64.915 40.911 62.139 38.425 59.456 L 37.336 58.279 C 36.034 56.87 34.683 55.488 33.376 54.152 C 32.897 53.662 32.419 53.171 31.942 52.68 C 30.616 51.315 28.647 50.992 27.045 51.881 C 26.524 52.17 26.077 52.565 25.713 53.056 C 24.591 54.57 25.021 56.463 25.163 57.087 C 25.408 58.16 26.078 58.827 26.439 59.187 C 26.476 59.223 26.512 59.257 26.533 59.279 C 28.863 62.041 30.969 65.02 32.911 68.311 C 32.612 68.015 32.312 67.72 32.014 67.424 C 30.777 66.194 29.552 64.914 28.501 63.81 C 27.645 62.917 26.797 62.015 25.947 61.116 C 24.307 59.379 22.608 57.584 20.901 55.839 C 20.424 55.352 19.927 55.016 19.43 54.806 Z  M 70.81 10.431 C 74.25 10.218 77.593 11.106 80.974 12.149 C 81.696 12.372 82.419 12.59 83.148 12.797 C 82.63 13.535 82.273 13.976 82.001 14.473 C 81.832 14.786 81.6 15.135 81.408 15.473 C 81.407 15.469 81.404 15.464 81.402 15.46 C 80.888 14.357 79.949 13.767 79.197 13.644 L 79.197 13.644 L 79.197 13.644 L 79.197 13.644 L 79.197 13.644 L 79.197 13.644 L 79.197 13.644 C 78.617 14.477 78.22 14.952 77.925 15.493 C 77.596 16.099 77.033 16.841 76.842 17.431 L 70.81 10.431 Z  M 84.479 13.194 C 90.054 14.821 95.699 16.293 101.185 18.095 C 105.508 19.513 109.614 21.418 113.711 23.264 C 114.402 23.575 115.092 23.887 115.779 24.202 L 115.779 24.202 C 115.369 24.254 114.773 24.386 114.077 24.561 L 103.564 25.638 C 101.639 25.368 99.707 25.115 97.765 24.97 C 96.196 24.852 94.628 24.525 93.02 25.072 C 92.289 25.321 91.554 25.568 90.81 25.784 C 90.236 25.797 89.659 25.867 89.077 26.051 C 88.925 25.634 88.674 25.242 88.319 24.879 C 88.273 24.833 88.224 24.787 88.172 24.742 C 88.698 24.758 89.188 24.34 89.268 23.719 L 89.268 23.719 L 89.268 23.719 L 89.268 23.719 L 89.268 23.719 L 89.268 23.719 L 89.268 23.719 L 89.268 23.719 L 89.268 23.719 C 89.405 22.64 89.143 21.643 88.319 20.802 C 87.835 20.309 86.91 19.873 86.349 20.049 C 86.234 20.084 86.125 20.156 86.025 20.266 C 85.924 19.79 85.802 19.324 85.63 18.887 C 85.796 18.629 85.966 18.372 86.116 18.105 C 86.239 17.883 86.339 17.554 86.286 17.322 C 86.062 16.347 85.888 15.323 85.479 14.441 C 85.226 13.897 84.869 13.479 84.479 13.194 Z  M 140.707 30.61 C 141.193 30.242 141.46 29.462 141.592 28.2 C 142.049 23.84 142.274 19.459 142.656 15.092 C 142.96 11.632 142.326 10.819 138.571 10.182 C 137.888 10.065 137.193 10.02 136.51 9.903 C 132.818 9.272 129.12 8.656 125.438 7.982 C 119.722 6.937 114.024 5.792 108.296 4.807 C 105.635 4.35 102.891 4.288 100.23 3.83 C 97.66 3.388 95.087 4.133 92.514 3.543 C 91.035 3.204 89.429 3.365 87.883 3.248 C 85.319 3.056 84.78 3.514 84.701 6.268 C 87.444 6.182 89.584 8.377 92.709 8.376 L 92.709 8.376 L 92.709 8.376 L 92.709 8.376 L 92.709 8.376 L 92.709 8.376 L 92.709 8.376 C 92.84 8.533 93.09 9.095 93.535 9.315 C 95.889 10.476 98.273 11.585 100.681 12.648 C 103.54 13.91 106.491 15 109.299 16.351 C 117.397 20.249 125.478 24.181 133.529 28.164 C 133.751 27.663 134.016 27.242 134.232 26.894 C 134.316 26.763 134.397 26.632 134.474 26.501 L 135.318 25.042 L 137.123 22.071 L 138.842 23.951 C 139.497 24.666 139.921 25.558 140.06 26.516 L 140.206 27.542 C 140.299 28.166 140.404 28.787 140.507 29.409 C 140.574 29.807 140.642 30.207 140.707 30.61 Z  M 116.468 24.512 C 121.693 26.889 126.887 29.312 132.075 31.745 C 131.644 32.835 131.198 33.953 130.739 35.033 C 130.334 35.983 129.899 36.915 129.438 37.902 C 128.983 38.874 128.515 39.879 128.076 40.907 C 127.111 43.168 126.158 45.437 125.207 47.705 C 123.699 51.302 122.14 55.021 120.551 58.641 C 118.725 62.797 116.743 66.99 114.823 71.045 L 113.965 72.862 C 113.269 74.337 112.553 75.822 111.836 77.298 L 110.365 74.511 L 100.306 51.76 L 114.569 28.587 L 116.468 24.512 Z  M 24.134 138.049 C 27.052 134.85 29.878 131.766 32.686 128.669 C 33.527 127.742 34.32 126.776 35.143 125.836 C 35.844 125.039 36.563 124.897 37.694 125.325 C 44.377 127.85 51.095 130.285 57.814 132.723 C 60.93 133.854 64.039 135.013 67.219 135.981 C 68.673 136.425 70.283 136.438 72.282 136.709 C 71.782 137.461 71.465 138.056 71.033 138.565 C 69.786 140.029 68.496 141.462 67.216 142.9 C 65.594 144.715 64.021 146.287 60.994 146.183 C 57.235 146.054 53.437 146.384 49.681 146.739 C 46.029 147.084 42.898 145.612 39.66 144.58 C 35.575 143.279 31.57 141.748 27.588 140.187 C 26.357 139.703 25.317 138.796 24.134 138.049 L 24.134 138.049 L 24.134 138.049 L 24.134 138.049 L 24.134 138.049 L 24.134 138.049 Z  M 7.722 33.547 C 7.552 32.173 7.107 31.027 7.347 30.05 C 7.951 27.596 12.313 26.143 15.043 27.236 C 16.686 27.894 18.455 28.26 20.05 29.007 C 20.888 29.399 21.504 30.306 22.15 31.031 C 24.153 33.281 21.809 36.354 20.647 36.673 C 17.043 37.665 13.24 38.155 9.814 35.927 C 8.921 35.347 8.345 34.276 7.722 33.547 L 7.722 33.547 L 7.722 33.547 L 7.722 33.547 L 7.722 33.547 Z  M 15.387 16.863 C 14.082 13.206 15.761 12.032 19.724 11.59 C 22.821 11.244 26.702 16.055 27.352 18.208 C 28.144 20.833 26.368 22.852 23.616 22.99 C 19.799 23.181 16.862 20.994 15.387 16.863 L 15.387 16.863 L 15.387 16.863 L 15.387 16.863 Z  M 9.592 124.405 C 15.236 120.765 20.284 117.455 25.377 114.256 C 27.104 113.172 28.11 115.066 29.176 116.198 C 30.308 117.402 29.862 118.606 29.036 119.959 C 26.851 123.532 24.864 127.293 22.673 130.861 C 22.113 131.772 21.067 132.209 20.286 132.933 C 19.999 133.197 19.809 133.648 19.618 134.051 C 19.345 134.617 19.234 135.499 18.844 135.758 C 15.914 137.691 15.669 137.85 14.079 134.425 C 12.592 131.216 11.178 127.959 9.592 124.405 L 9.592 124.405 L 9.592 124.405 Z  M 138.571 106.31 C 133.682 113.079 129.215 119.263 124.688 125.529 C 123.572 124.155 123.849 122.577 124.372 121.071 C 126.054 116.228 128.931 112.018 131.63 107.718 C 132.149 106.893 134.02 106.682 135.308 106.864 C 136.171 106.988 137.109 106.581 138.571 106.31 L 138.571 106.31 Z  M 56.71 33.184 L 57.285 30.513 C 57.011 30.915 56.618 31.272 56.212 31.533 C 55.286 32.125 54.338 32.734 53.319 33.122 C 53.199 33.168 53.079 33.214 52.958 33.258 C 53.242 33.396 53.45 33.706 53.422 34.055 C 53.413 34.179 53.386 34.293 53.331 34.392 C 53.061 34.873 52.607 35.307 52.135 35.609 C 52.092 35.637 52.048 35.665 52.004 35.694 C 53.542 35.121 55.009 34.412 56.311 33.324 C 56.343 33.296 56.38 33.273 56.418 33.254 C 56.514 33.207 56.613 33.185 56.71 33.184 L 56.71 33.184 L 56.71 33.184 L 56.71 33.184 Z  M 85.182 23.65 C 85.238 24.001 85.238 24.365 85.191 24.738 L 85.191 24.738 L 85.191 24.738 L 85.191 24.738 L 85.191 24.738 L 85.191 24.738 L 85.191 24.738 C 85.147 25.082 84.977 25.364 84.739 25.539 C 84.855 25.72 84.949 25.907 85.012 26.102 C 85.03 26.046 85.053 25.989 85.08 25.932 C 85.4 25.246 85.81 24.294 86.349 24.125 C 86.472 24.087 86.612 24.078 86.766 24.106 C 86.41 23.899 86.055 23.693 85.698 23.489 C 85.594 23.429 85.497 23.364 85.416 23.292 C 85.334 23.41 85.258 23.53 85.182 23.65 L 85.182 23.65 L 85.182 23.65 L 85.182 23.65 Z  M 83.07 76.581 C 83.102 76.587 83.134 76.592 83.166 76.597 C 83.156 76.593 83.146 76.59 83.136 76.586 C 83.114 76.587 83.092 76.585 83.07 76.581 L 83.07 76.581 L 83.07 76.581 L 83.07 76.581 L 83.07 76.581 Z " fill-rule="evenodd" fill="rgb(255,194,72)"/><path d=" M 107.101 110.699 C 106.173 110.542 105.396 110.85 104.941 111.554 C 104.316 112.522 104.159 114.09 104.812 114.727 C 105.301 115.203 106.023 115.59 106.683 115.666 C 106.98 115.701 107.438 114.922 107.71 114.446 C 107.982 113.96 108.111 113.396 108.308 112.867 C 108.733 111.73 108.266 110.892 107.101 110.699 Z  M 130.354 51.22 C 129.926 52.124 129.429 53 129.081 53.935 C 128.19 56.33 127.44 58.78 126.492 61.152 C 124.162 66.988 121.764 72.795 119.373 78.605 C 118.169 81.535 116.866 84.423 115.721 87.374 C 115.04 89.127 115.291 89.418 117.022 89.641 C 123.373 77.493 127.833 64.695 130.354 51.22 Z  M 128.196 102.16 C 124.73 100.376 121.359 98.64 117.834 96.825 C 117.382 98.305 116.916 99.751 116.504 101.213 C 115.162 105.961 113.537 110.596 111.469 115.09 C 110.295 117.636 107.601 118.658 105.208 118.011 C 104.223 117.746 103.207 117.612 102.217 117.369 C 101.828 117.273 101.419 117.111 101.109 116.863 C 99.233 115.379 99.238 114.789 100.582 112.723 C 103.743 107.854 106.857 102.959 109.918 98.029 C 110.603 96.927 111.032 95.654 111.482 94.426 C 111.578 94.162 111.36 93.628 111.115 93.422 C 110.226 92.681 109.265 92.026 108.221 91.255 C 109.254 89.148 110.283 87.063 111.303 84.975 C 113.058 81.369 114.838 77.774 116.55 74.15 C 118.793 69.401 121.056 64.663 123.167 59.856 C 125.755 53.967 128.18 48.009 130.706 42.093 C 131.55 40.114 132.528 38.195 133.369 36.218 C 134.308 34.015 135.143 31.769 136.06 29.558 C 136.285 29.01 136.646 28.52 136.946 28.003 C 137.056 28.004 137.165 28.004 137.275 28.005 C 137.574 30.06 138.025 32.108 138.142 34.174 C 138.519 40.872 138.637 47.563 138.268 54.283 C 137.967 59.742 137.82 65.201 136.926 70.608 C 136.5 73.175 136.22 75.786 135.552 78.291 C 134.393 82.643 132.985 86.927 131.679 91.24 C 130.786 94.198 129.902 97.159 128.99 100.111 C 128.783 100.784 128.485 101.427 128.196 102.16 Z " fill="rgb(23,23,23)"/></g></g></svg>