<?xml version="1.0" encoding="UTF-8" standalone="no"?>
<!-- Generator: Gravit.io -->
<svg xmlns="http://www.w3.org/2000/svg" xmlns:xlink="http://www.w3.org/1999/xlink" style="isolation:isolate" viewBox="0 0 150 150" width="150pt" height="150pt"><defs><clipPath id="_clipPath_o5CY9ilBiGF77wZWvXFrLUNmnsAyD0su"><rect width="150" height="150"/></clipPath></defs><g clip-path="url(#_clipPath_o5CY9ilBiGF77wZWvXFrLUNmnsAyD0su)"><rect width="150" height="150" style="fill:rgb(0,0,0)" fill-opacity="0"/><g><path d=" M 129.984 104.231 C 130.821 102.851 132.205 101.612 133.554 101.652 C 135.185 101.701 136.59 102.109 138.043 103.491 C 138.765 102.368 139.625 101.434 140.09 100.218 C 140.901 98.091 141.622 95.856 142.106 93.549 C 142.859 89.977 144.073 86.498 143.46 82.525 C 143.292 81.436 143.108 80.334 143.059 79.239 C 142.951 76.926 142.023 75.082 140.722 73.743 C 138.585 71.541 137.105 68.721 135.644 65.848 C 134.029 62.672 134.206 59.038 133.832 55.563 C 133.613 53.502 133.986 51.563 134.739 49.774 C 135.044 49.044 135.364 48.247 135.44 47.426 C 135.751 44.048 135.545 40.688 134.438 37.183 L 134.438 37.183 L 134.438 37.183 L 134.438 37.183 L 134.438 37.183 L 134.438 37.183 C 131.974 37.682 130.362 35.858 129.375 33.164 C 128.725 31.389 128.244 29.337 128.2 27.428 C 128.081 22.222 123.135 17.795 120.357 16.787 C 119.717 16.556 119.475 16.79 119.294 17.624 C 118.551 21.034 116.765 23.201 114.097 23.557 C 110.932 23.977 108.101 22.312 105.66 19.437 C 103.827 17.282 101.592 16.099 99.32 15.84 C 96.77 15.548 94.2 16.009 91.644 16.205 C 91.007 16.254 90.469 16.461 90.053 16.928 L 116.724 43.588 C 117.369 44.233 117.656 45.026 117.655 45.804 L 117.655 45.804 C 117.654 46.311 117.53 46.812 117.305 47.263 C 117.543 47.723 117.656 48.216 117.655 48.704 L 117.655 48.704 C 117.652 50.325 116.392 51.878 114.492 51.878 L 114.492 51.878 L 111.211 51.878 C 110.103 51.878 109.203 52.773 109.197 53.881 L 109.197 87.452 L 129.148 103.289 C 129.513 103.579 129.792 103.897 129.984 104.231 Z  M 127.694 111.632 C 126.234 114.794 123.955 117.026 121.294 118.903 C 120.593 119.397 119.898 119.804 119.192 120.066 L 119.192 113.966 C 119.192 112.798 120.385 111.85 121.856 111.85 L 126.196 111.85 L 126.196 111.85 C 126.739 111.85 127.243 111.774 127.694 111.632 Z  M 96.359 138.523 C 96.193 138.662 96.027 138.8 95.858 138.934 C 94.647 139.898 93.3 140.615 91.957 141.272 C 89.267 142.592 86.403 141.986 83.582 141.72 C 83.356 141.699 83.08 141.463 82.922 141.222 C 80.576 137.699 77.506 136.925 74.267 136.607 C 69.894 136.179 66.064 137.753 62.684 141.039 C 61.029 142.649 59.524 144.528 57.806 146.009 C 56.734 146.933 55.421 147.449 54.166 147.961 C 51.412 149.084 48.582 148.314 45.761 147.763 C 40.918 146.817 36.333 144.688 31.915 141.781 C 30.645 140.946 29.4 140.029 28.178 139.071 C 27.954 138.897 27.748 138.31 27.781 137.971 C 28.191 133.624 27.644 129.329 26.8 125.073 C 26.367 122.873 25.757 120.714 25.149 118.57 C 24.381 115.857 22.998 113.78 21.472 111.848 C 21.506 111.85 21.541 111.85 21.577 111.85 L 25.894 111.85 L 25.894 111.85 C 27.231 111.85 28.336 112.631 28.529 113.648 L 28.388 125.698 L 28.388 125.698 C 28.399 125.699 28.411 125.7 28.422 125.701 L 28.388 128.598 L 28.388 128.598 C 38.055 129.291 48.368 132.023 59.387 134.453 L 63.353 135.374 C 66.203 136.023 65.182 135.689 68.132 136.34 L 68.086 131.554 L 68.086 131.554 L 68.086 119.203 C 68.086 116.683 70.133 114.636 72.654 114.636 L 75.13 114.636 C 77.646 114.642 79.686 116.686 79.686 119.203 L 79.686 137.963 C 82.808 138.293 85.981 138.506 89.205 138.559 L 89.205 138.559 C 91.286 138.593 93.324 138.573 95.292 138.486 C 95.647 138.5 96.003 138.512 96.359 138.523 Z  M 17.718 107.251 C 15.858 104.977 13.996 102.697 12.332 100.201 C 11.268 98.603 10.544 96.386 10.144 94.323 C 9.155 89.219 8.441 84.042 8.649 78.81 C 8.719 77.052 9.118 75.273 8.917 73.563 C 8.629 71.148 9.638 70.138 10.834 68.987 C 13.947 65.988 15.881 61.889 16.665 56.871 C 17.054 54.38 17.527 51.814 17.421 49.28 C 17.217 44.464 17.43 39.409 14.451 35.347 C 14.234 35.053 14.253 34.109 14.447 33.729 C 15.195 32.253 16.002 30.814 16.895 29.487 C 18.017 27.824 19.155 26.146 20.449 24.724 C 24.878 19.851 29.344 14.975 34.956 12.43 C 36.975 11.517 39.174 11.188 41.303 10.663 C 41.61 10.586 42.031 10.822 42.332 11.067 C 44.225 12.616 46.024 14.436 48.009 15.707 C 49.158 16.44 50.601 16.481 51.904 16.543 C 54.542 16.666 56.825 15.681 58.551 12.981 C 59.25 11.888 60.122 10.677 61.116 10.303 C 62.174 9.902 63.479 9.731 64.587 10.065 L 31.049 43.588 L 31.049 43.588 C 30.404 44.233 30.116 45.026 30.118 45.804 L 30.118 45.804 C 30.118 46.311 30.243 46.812 30.467 47.263 C 30.229 47.723 30.117 48.216 30.118 48.704 L 30.118 48.704 C 30.121 50.325 31.38 51.878 33.281 51.878 L 36.545 51.878 L 36.545 51.878 C 37.552 51.878 38.385 52.616 38.535 53.58 L 38.43 64.921 L 38.43 64.921 C 38.439 64.922 38.448 64.922 38.457 64.923 L 38.43 67.821 L 38.43 67.821 C 38.473 67.824 38.516 67.828 38.559 67.832 L 38.559 87.466 L 18.624 103.289 L 18.624 103.289 C 17.771 103.966 17.391 104.799 17.392 105.616 L 17.392 105.616 C 17.394 106.123 17.542 106.623 17.817 107.075 C 17.781 107.133 17.747 107.191 17.718 107.251 Z  M 19.135 127.252 C 18.967 127.095 18.613 126.771 18.264 126.433 C 18.026 126.2 17.806 125.935 17.565 125.702 C 15.468 123.66 13.376 121.605 11.262 119.592 C 10.352 118.726 9.413 117.904 8.453 117.145 C 7.59 116.465 7.359 115.438 7.911 114.442 C 8.785 112.866 9.603 111.227 10.541 109.72 C 10.732 109.414 11.389 109.397 11.769 109.553 C 14.297 110.581 16.156 112.934 17.813 115.502 C 19.289 117.791 20.566 120.298 21.92 122.716 C 22.029 122.905 22.136 123.152 22.138 123.368 C 22.153 124.427 20.2 127.167 19.135 127.252 L 19.135 127.252 L 19.135 127.252 L 19.135 127.252 L 19.135 127.252 L 19.135 127.252 Z  M 11.816 51.085 C 12.032 53.229 11.915 55.055 10.964 56.668 C 10.497 57.466 10.33 58.574 9.87 59.382 C 9.587 59.878 8.978 60.417 8.571 60.326 C 7.89 60.168 7.253 59.527 6.601 59.074 C 6.571 59.054 6.614 58.88 6.585 58.803 C 6.326 58.13 5.306 58.052 5.658 56.908 C 6.096 55.486 6.547 54.071 7.006 52.661 C 7.208 52.034 7.388 51.371 7.683 50.829 C 7.83 50.559 8.226 50.37 8.495 50.412 C 9.59 50.577 10.677 50.844 11.816 51.085 L 11.816 51.085 L 11.816 51.085 L 11.816 51.085 L 11.816 51.085 Z  M 140.767 66.767 C 139.322 63.755 137.547 60.999 137.587 57.253 C 137.598 56.344 138.362 55.493 138.923 56.033 C 139.507 56.596 139.877 56.23 140.378 56.154 C 140.752 56.099 141.374 56.278 141.55 56.627 C 142.559 58.629 143.47 60.712 144.415 62.775 C 143.24 64.059 142.075 65.336 140.767 66.767 L 140.767 66.767 L 140.767 66.767 L 140.767 66.767 Z  M 58.909 5.12 C 57.834 6.583 56.911 7.928 55.899 9.149 C 55.687 9.402 55.061 9.396 54.778 9.17 C 53.252 7.95 51.774 6.623 50.215 5.275 C 51.132 3.951 51.964 2.753 52.858 1.463 C 54.781 2.626 56.751 3.815 58.909 5.12 L 58.909 5.12 L 58.909 5.12 Z  M 7.141 46.153 C 7.598 43.712 8.016 41.478 8.447 39.171 C 9.832 39.09 11.221 38.684 12.161 40.905 C 12.862 42.566 13.224 44.128 12.513 45.787 C 12.391 46.071 12.11 46.411 11.895 46.407 C 10.357 46.372 8.818 46.254 7.141 46.153 L 7.141 46.153 Z " fill-rule="evenodd" fill="rgb(81,168,206)"/><g><path d=" M 83.972 135.995 C 87.094 136.325 90.267 136.538 93.492 136.591 L 93.492 136.591 C 101.29 136.72 108.477 136.082 114.778 135.1 L 114.778 111.998 L 114.778 111.998 C 114.778 110.829 115.971 109.882 117.442 109.882 L 121.782 109.882 L 121.782 109.882 C 124.296 109.882 125.962 108.251 125.967 106.548 L 125.967 106.548 C 125.968 105.731 125.588 104.898 124.735 104.22 L 104.784 88.383 L 104.784 51.912 C 104.79 50.805 105.689 49.909 106.798 49.909 L 110.078 49.909 L 110.078 49.909 C 111.979 49.909 113.238 48.356 113.241 46.735 L 113.241 46.735 C 113.243 45.958 112.955 45.164 112.31 44.52 L 76.056 8.28 L 76.056 8.28 C 75.439 7.664 74.631 7.356 73.824 7.356 L 73.824 7.356 C 73.016 7.356 72.209 7.664 71.592 8.28 L 35.335 44.52 L 35.335 44.52 C 34.69 45.164 34.403 45.958 34.404 46.735 L 34.404 46.735 C 34.407 48.356 35.666 49.909 37.567 49.909 L 40.831 49.909 L 40.831 49.909 C 41.942 49.909 42.841 50.808 42.845 51.916 L 42.845 51.916 C 42.845 51.924 42.845 51.933 42.845 51.942 L 42.716 65.852 L 42.716 65.852 C 42.759 65.856 42.802 65.86 42.845 65.864 L 42.845 88.398 L 22.911 104.22 L 22.911 104.22 C 22.058 104.898 21.677 105.731 21.679 106.548 L 21.679 106.548 C 21.683 108.251 23.349 109.882 25.863 109.882 L 30.181 109.882 L 30.181 109.882 C 31.65 109.882 32.84 110.826 32.845 111.99 L 32.845 111.99 C 32.845 111.999 32.845 112.008 32.845 112.018 L 32.674 126.63 L 32.674 126.63 C 42.341 127.322 52.655 130.055 63.673 132.485 L 63.673 117.235 C 63.673 114.714 65.719 112.668 68.24 112.668 L 79.405 112.668 C 81.926 112.668 83.972 114.714 83.972 117.235 L 83.972 135.995 Z " fill="rgb(23,23,23)"/><g><circle vector-effect="non-scaling-stroke" cx="73.82261010286383" cy="51.22787170765926" r="13.533112422401828" fill="rgb(255,255,255)"/><path d=" M 73.823 60.332 C 78.83 60.332 82.927 56.235 82.927 51.228 C 82.927 46.22 78.83 42.123 73.823 42.123 C 68.815 42.123 64.718 46.22 64.718 51.228 C 64.718 56.235 68.815 60.332 73.823 60.332 Z  M 73.823 39.847 C 80.082 39.847 85.203 44.968 85.203 51.228 C 85.203 57.487 80.082 62.609 73.823 62.609 C 67.563 62.609 62.442 57.487 62.442 51.228 C 62.442 44.968 67.563 39.847 73.823 39.847 Z  M 79.513 50.659 L 79.513 52.366 L 72.685 52.366 L 72.685 45.537 L 74.392 45.537 L 74.392 50.659 L 79.513 50.659 Z " fill="rgb(23,23,23)"/></g></g></g></g></svg>