<?xml version="1.0" encoding="UTF-8" standalone="no"?>
<!-- Generator: Gravit.io -->
<svg xmlns="http://www.w3.org/2000/svg" xmlns:xlink="http://www.w3.org/1999/xlink" style="isolation:isolate" viewBox="0 0 150 150" width="150pt" height="150pt"><defs><clipPath id="_clipPath_UM2csbviFDP8cAbu1w92N2vvzzEW2Z4R"><rect width="150" height="150"/></clipPath></defs><g clip-path="url(#_clipPath_UM2csbviFDP8cAbu1w92N2vvzzEW2Z4R)"><rect width="150" height="150" style="fill:rgb(0,0,0)" fill-opacity="0"/><g><path d=" M 19.267 20.029 C 19.757 19.261 19.767 18.094 19.305 17.259 C 19.175 17.023 19.042 16.804 18.897 16.601 C 17.285 14.351 15.406 14.89 13.489 15.39 C 11.596 15.882 10.147 17.356 8.721 18.96 C 6.383 21.588 4.139 24.355 2.329 27.717 C 1.28 29.665 0.292 31.705 0.253 34.303 C 0.247 34.694 0.486 35.424 0.657 35.457 C 3.25 35.971 5.851 36.644 8.449 36.73 C 9.701 36.772 11.015 35.833 12.174 35.004 C 12.701 34.626 12.922 33.441 13.277 32.618 C 14.71 29.299 16.11 25.952 17.59 22.676 C 18.033 21.696 18.699 20.917 19.258 20.041 C 19.261 20.037 19.264 20.033 19.267 20.029 L 19.267 20.029 L 19.267 20.029 L 19.267 20.029 L 19.267 20.029 L 19.267 20.029 L 19.267 20.029 L 19.267 20.029 Z  M 8.309 43.522 C 8.062 41.599 7.06 41.737 6.049 41.725 C 5.422 41.717 4.76 41.63 4.172 41.336 C 2.903 40.702 1.838 41.363 0.798 42.099 C 0.217 42.51 -0.07 43.244 0.014 44.305 C 0.137 45.854 0.272 47.259 1.214 48.427 C 2.24 49.699 3.318 49.506 4.453 49.243 C 6.594 48.747 8.832 45.291 8.309 43.522 L 8.309 43.522 L 8.309 43.522 L 8.309 43.522 L 8.309 43.522 L 8.309 43.522 L 8.309 43.522 L 8.309 43.522 Z  M 124.288 62.02 C 127.618 60.816 131.01 59.56 134.423 58.367 C 136.108 57.778 137.859 57.373 139.531 56.75 C 140.425 56.417 141.198 55.765 142.056 55.322 C 142.585 55.05 143.164 54.876 143.736 54.704 C 144.458 54.487 145.211 54.359 145.921 54.112 C 146.516 53.904 146.816 53.986 147.088 54.817 C 147.995 57.578 149.094 60.287 149.894 63.071 C 150.173 64.045 149.824 65.189 149.716 66.242 C 149.562 67.745 149.626 69.392 148.393 70.289 C 148.11 70.495 147.706 70.715 147.393 70.623 C 142.933 69.312 138.483 67.917 134.022 66.609 C 131.335 65.822 128.639 65.02 125.936 64.481 C 124.545 64.203 124.056 63.619 124.288 62.02 L 124.288 62.02 L 124.288 62.02 L 124.288 62.02 L 124.288 62.02 L 124.288 62.02 L 124.288 62.02 Z  M 40.025 142.604 C 35.691 141.918 32.136 139.361 28.525 137.018 C 27.696 136.479 27.713 135.765 28.35 135.276 C 30.118 133.919 31.894 132.568 33.742 131.344 C 35.41 130.239 37.199 129.341 38.893 128.278 C 39.652 127.801 40.088 128.093 40.81 128.773 C 43.158 130.985 42.359 133.388 41.928 135.651 C 41.474 138.027 40.679 140.271 40.025 142.604 L 40.025 142.604 L 40.025 142.604 L 40.025 142.604 L 40.025 142.604 L 40.025 142.604 Z  M 107.612 133.192 C 105.615 130.526 103.811 128.148 102.037 125.732 C 101.436 124.913 101.93 124.16 102.161 123.458 C 102.406 122.712 102.87 122.823 103.436 123.123 C 104.933 123.919 106.464 124.588 107.959 125.388 C 108.341 125.592 108.632 126.113 108.982 126.457 C 109.11 126.585 109.286 126.638 109.447 126.698 C 109.674 126.784 109.985 126.748 110.125 126.932 C 111.176 128.311 111.263 128.427 110.339 129.664 C 109.472 130.821 108.58 131.944 107.612 133.192 L 107.612 133.192 L 107.612 133.192 L 107.612 133.192 L 107.612 133.192 Z  M 123.238 58.005 C 123.309 57.258 123.22 56.604 123.435 56.18 C 125.299 52.499 127.216 48.858 129.125 45.211 C 129.238 44.994 129.416 44.828 129.785 44.353 C 132.582 46.936 135.356 49.499 138.275 52.195 C 133.166 54.169 128.356 56.027 123.238 58.005 L 123.238 58.005 L 123.238 58.005 L 123.238 58.005 Z  M 141.166 47.795 C 140.555 48.358 140.09 48.848 139.569 49.251 C 138.884 49.78 138.37 49.059 137.894 48.569 C 136.313 46.943 134.763 45.276 133.2 43.626 C 132.918 43.33 132.57 43.085 132.359 42.739 C 132.092 42.301 131.681 41.649 131.781 41.328 C 132.006 40.603 132.641 40.37 133.349 40.832 C 135.386 42.16 137.548 43.247 139.137 45.436 C 139.729 46.252 140.44 46.959 141.166 47.795 L 141.166 47.795 L 141.166 47.795 Z  M 146.328 75.52 C 141.769 73.515 137.602 71.683 133.38 69.828 C 133.202 70.88 133.813 71.612 134.531 72.231 C 136.843 74.222 139.593 75.519 142.277 76.917 C 142.793 77.185 143.835 76.721 144.456 76.233 C 144.871 75.904 145.483 75.827 146.328 75.52 L 146.328 75.52 Z  M 18.814 57.438 C 18.737 57.542 18.64 57.645 18.534 57.752 C 17.215 59.087 15.867 60.415 14.743 61.951 C 13.741 63.321 12.655 64.844 12.284 66.518 C 11.86 68.436 12.055 70.603 12.211 72.649 C 12.458 75.857 12.825 79.066 13.275 82.256 C 13.712 85.355 14.143 88.479 14.899 91.5 C 15.542 94.075 16.546 96.568 17.571 99.004 C 18.56 101.35 19.517 103.821 20.953 105.809 C 24.356 110.516 28.003 115.002 31.613 119.514 C 34.227 122.776 37.608 123.383 41.162 122.974 C 42.091 122.866 42.988 122.389 43.862 121.978 C 44.476 121.689 44.813 121.841 44.986 122.553 C 45.243 123.611 45.391 124.713 45.751 125.726 C 46.413 127.576 46.836 129.662 48.819 130.472 C 49.071 130.575 49.356 130.93 49.429 131.223 C 49.724 132.418 50.498 132.959 51.427 133.349 C 52.844 133.943 54.23 134.69 55.681 135.107 C 57.083 135.509 58.553 135.54 59.985 135.809 C 60.695 135.941 61.383 136.411 62.08 136.441 C 65.498 136.589 68.935 136.872 72.331 136.668 C 77.053 136.381 81.768 135.854 86.44 135.124 C 88.517 134.799 90.72 134.137 92.431 132.882 C 94.252 131.548 95.792 129.516 97.026 127.45 C 98.312 125.295 99.176 122.78 100.055 120.337 C 100.727 118.471 100.693 118.262 102.495 118.66 C 103.921 118.974 105.29 119.654 106.708 120.036 C 108.484 120.514 110.199 121.149 111.954 119.675 C 114.751 117.325 116.807 114.312 118.565 110.99 C 120.524 107.291 122.423 103.549 124.281 99.78 C 125.75 96.802 127.355 93.872 128.459 90.708 C 129.465 87.823 129.884 84.652 130.549 81.603 C 130.601 81.365 130.619 81.076 130.55 80.847 C 130.274 79.938 129.765 79.056 129.69 78.142 C 129.406 74.683 127.845 72.053 125.609 69.827 C 123.099 67.33 120.024 66.132 117.004 64.814 C 116.519 64.602 116.065 64.295 115.595 64.031 C 116.438 62.509 117.4 61.258 117.893 59.788 C 119.148 56.044 119.391 52.018 119.698 48.023 C 119.921 45.117 119.12 42.377 118.489 39.607 C 118.426 39.328 118.236 39.065 118.064 38.833 C 116.197 36.319 114.3 33.831 112.454 31.298 C 110.255 28.283 108.031 25.285 105.135 23.107 C 100.448 19.581 95.68 16.199 90.998 12.665 C 87.845 10.285 84.565 9.248 80.937 10.427 C 80.433 10.591 79.847 10.629 79.441 10.951 C 76.607 13.196 73.787 15.465 71.018 17.81 C 70.35 18.376 69.93 18.294 69.514 17.582 C 68.981 16.669 68.647 15.545 67.974 14.815 C 66.211 12.899 64.737 10.704 62.463 9.287 C 60.963 8.352 59.524 7.745 57.955 7.552 C 53.925 7.056 50.01 7.843 46.058 8.495 C 42.038 9.159 38.841 12.145 34.857 12.764 C 34.821 12.769 34.791 12.805 34.757 12.825 C 31.636 14.706 28.61 16.674 26.325 19.881 C 23.521 23.815 20.859 27.835 18.81 32.264 C 20.359 30.637 22.117 29.166 23.756 27.606 C 24.049 27.325 24.392 27.093 24.869 26.715 L 24.869 26.715 C 24.886 26.729 24.902 26.744 24.918 26.758 C 24.93 26.744 24.947 26.73 24.966 26.715 L 26.025 25.95 C 28.778 28.362 34.011 33.58 36.728 35.968 C 37.095 36.29 37.457 36.617 37.814 36.949 C 38.248 36.774 38.633 36.413 38.949 36.192 C 40.117 35.376 41.031 34.185 42.054 33.157 C 42.382 32.828 42.694 32.466 43.065 32.198 C 43.762 31.324 44.476 30.469 45.2 29.626 C 46.627 27.961 48.202 26.427 49.866 25.071 C 50.697 24.396 51.846 24.152 52.889 23.877 C 63.687 21.039 74.065 22.781 84.192 27.513 C 85.578 28.161 86.918 28.896 88.181 29.745 C 92.009 31.579 95.467 34.097 97.965 37.787 C 102.23 44.095 106.287 50.602 109.372 57.792 C 109.801 58.793 110.559 59.632 110.913 60.659 C 111.232 61.604 111.641 62.576 111.943 63.55 C 112.12 63.724 112.322 63.922 112.532 64.129 C 113.42 65.002 114.932 68.445 114.436 69.803 C 113.649 71.957 114.209 74.05 113.18 76.101 C 112.002 78.449 111.616 81.621 110.099 83.826 C 109.692 84.418 109.458 84.843 109.438 85.179 C 111.389 85.934 113.347 86.677 115.28 87.467 C 116.34 87.898 117.332 88.471 118.294 89.064 C 118.49 89.184 118.666 89.326 118.811 89.488 C 118.856 89.505 118.899 89.523 118.943 89.54 C 120.003 89.972 120.996 90.544 121.957 91.138 C 123.126 91.857 123.59 93.327 122.947 94.51 C 121.483 97.2 120.054 99.919 118.383 102.502 C 118.276 102.668 118.165 102.832 118.054 102.994 C 117 104.934 115.922 106.863 114.72 108.723 C 112.741 111.781 109.814 113.904 106.644 115.67 C 105.667 116.214 105.036 115.594 104.473 115.077 C 102.549 113.311 100.679 111.489 98.769 109.709 C 97.868 108.871 96.973 108.018 95.981 107.285 C 95.848 107.187 95.707 107.095 95.56 107.01 L 90.7 114.516 L 90.7 114.516 L 90.7 114.516 C 89.863 114.36 89.061 114.746 88.035 115.589 C 85.193 117.921 82.387 120.358 79.348 122.321 C 77.749 123.356 75.719 123.787 73.847 123.953 C 70.124 124.284 66.373 124.379 62.64 124.28 C 60.763 124.234 58.911 123.426 57.026 123.179 C 53.847 122.758 51.127 121.181 48.472 119.329 C 47.452 118.62 46.323 118.11 45.303 117.402 C 41.723 114.92 38.654 111.725 35.667 108.429 C 33.247 105.759 30.872 103.038 28.526 100.284 C 27.997 99.666 27.53 98.879 27.296 98.074 C 27.271 97.99 27.247 97.907 27.226 97.823 C 26.741 97.264 26.259 96.701 25.779 96.137 C 25.25 95.52 24.782 94.732 24.548 93.926 C 23.671 90.912 22.92 87.853 22.08 84.829 C 21.76 83.679 21.267 82.585 20.978 81.428 C 20.851 80.921 20.845 80.378 20.816 79.84 C 20.236 78.904 20.189 77.749 20.073 76.619 C 20.025 76.476 19.977 76.334 19.927 76.192 C 19.73 75.636 19.632 75.106 19.614 74.564 C 19.444 74.164 19.201 73.792 18.852 73.464 C 18.43 73.063 19.149 70.393 18.852 69.881 C 18.551 69.363 18.441 68.437 18.852 67.807 C 19.45 66.892 19.304 65.707 19.741 64.697 C 20.127 63.804 19.239 63.927 19.741 63.083 C 20.849 61.22 19.273 62.513 20.428 60.672 C 20.474 60.602 20.53 60.54 20.579 60.472 C 20.889 60.027 21.393 59.511 21.718 59.061 C 20.758 58.509 19.789 57.969 18.814 57.438 Z " fill-rule="evenodd" fill="rgb(255,127,80)"/><path d=" M 102.207 93.241 C 104.453 93.968 106.708 94.686 108.887 95.549 C 110.024 95.998 110.978 96.808 112.144 97.535 L 112.144 97.535 C 110.377 99.459 108.761 101.219 107.023 103.113 C 106.574 102.714 106.126 102.29 105.654 101.894 C 103.698 100.259 101.754 98.609 99.77 97.006 L 102.207 93.241 Z  M 43.483 36.345 C 43.112 36.613 42.8 36.975 42.472 37.304 C 41.449 38.332 40.535 39.523 39.367 40.338 C 38.723 40.789 37.794 41.82 36.831 41.017 C 35.685 40.059 34.605 39.027 33.483 38.042 C 30.766 35.654 28.04 33.274 25.287 30.862 L 25.287 30.862 C 24.81 31.24 24.467 31.472 24.174 31.753 C 22.119 33.709 19.878 35.523 18.082 37.672 C 15.718 40.5 13.596 43.531 11.584 46.595 C 10.337 48.499 10.7 48.868 12.55 49.804 C 16.171 51.634 19.769 53.511 23.249 55.555 C 24.175 56.099 24.894 57.227 25.189 58.277 C 25.332 58.78 24.264 59.726 23.744 60.472 C 23.695 60.54 23.639 60.601 23.593 60.672 C 22.439 62.513 24.014 61.22 22.906 63.083 C 22.404 63.927 23.293 63.804 22.906 64.697 C 22.469 65.707 22.615 66.892 22.018 67.807 C 21.606 68.437 21.717 69.363 22.018 69.881 C 22.314 70.393 21.595 73.063 22.018 73.464 C 22.366 73.793 22.61 74.163 22.78 74.564 C 22.797 75.106 22.895 75.636 23.092 76.192 C 23.142 76.333 23.191 76.476 23.239 76.619 C 23.354 77.749 23.401 78.904 23.982 79.84 C 24.01 80.378 24.017 80.921 24.143 81.428 C 24.433 82.585 24.925 83.679 25.245 84.829 C 26.085 87.853 26.836 90.912 27.713 93.927 C 27.948 94.732 28.415 95.519 28.944 96.137 C 31.29 98.891 33.665 101.612 36.085 104.282 C 39.071 107.578 42.141 110.773 45.721 113.255 C 46.741 113.963 47.87 114.473 48.89 115.182 C 51.545 117.034 54.265 118.611 57.444 119.032 C 59.329 119.279 61.181 120.087 63.058 120.133 C 66.791 120.232 70.542 120.137 74.265 119.806 C 76.137 119.64 78.167 119.209 79.765 118.174 C 82.805 116.211 85.611 113.774 88.453 111.442 C 89.478 110.599 90.281 110.213 91.118 110.369 L 91.118 110.369 L 91.118 110.369 L 95.978 102.863 C 96.125 102.948 96.266 103.04 96.399 103.138 C 97.391 103.871 98.286 104.724 99.187 105.562 C 101.097 107.342 102.967 109.164 104.891 110.93 C 105.454 111.447 106.084 112.067 107.062 111.523 C 110.232 109.757 113.159 107.634 115.138 104.576 C 116.808 101.993 118.238 99.273 119.702 96.583 C 120.345 95.4 119.881 93.93 118.712 93.211 C 117.75 92.618 116.757 92.045 115.698 91.614 C 112.977 90.502 110.206 89.482 107.465 88.409 C 105.905 87.799 105.858 87.344 106.854 85.899 C 108.371 83.695 108.756 80.522 109.934 78.175 C 110.964 76.124 110.404 74.031 111.191 71.876 C 111.687 70.518 110.174 67.075 109.287 66.202 C 109.076 65.995 108.874 65.797 108.697 65.624 C 108.395 64.65 107.987 63.678 107.667 62.732 C 107.314 61.706 106.556 60.867 106.127 59.866 C 103.041 52.676 98.985 46.168 94.72 39.86 C 92.15 36.065 88.566 33.51 84.61 31.66 C 74.483 26.928 64.105 25.186 53.307 28.024 C 52.264 28.299 51.115 28.543 50.284 29.218 C 48.62 30.574 47.045 32.108 45.618 33.772 C 44.894 34.616 44.18 35.471 43.483 36.345 Z  M 60.788 34.352 C 61.107 34.554 61.431 34.749 61.757 34.94 C 62.55 35.405 63.343 35.868 64.141 36.326 C 65.083 36.506 66.021 36.748 66.954 37.031 C 70.787 38.194 74.572 39.603 78.346 41.006 L 78.346 41.006 L 78.346 41.006 C 83.704 42.99 88.444 46.351 93.191 49.685 C 93.534 49.926 94.033 49.881 94.456 49.97 C 94.321 49.476 94.2 48.983 94.051 48.496 C 94.014 48.382 93.895 48.3 93.805 48.21 C 89.67 43.977 85.191 40.327 79.987 37.939 C 73.742 35.073 67.323 34.053 60.788 34.352 Z  M 69.334 109.665 C 68.651 109.352 67.972 109.034 67.298 108.706 C 58.465 107.916 50.051 105.501 42.132 100.781 C 44.352 102.794 46.564 104.8 48.955 106.5 C 52.347 108.918 56.155 110.297 60.076 110.975 C 62.78 111.444 65.568 111.305 68.321 111.359 C 68.587 111.362 68.98 110.87 69.115 110.506 L 69.115 110.506 L 69.115 110.506 C 69.216 110.239 69.276 109.953 69.334 109.665 Z  M 32.123 49.167 C 33.975 46.715 33.942 46.756 31.709 45.11 C 29.476 43.469 26.897 42.226 25.248 39.891 C 25.018 39.568 23.734 39.556 23.355 39.879 C 22.166 40.894 21.15 42.117 20.14 43.314 C 19.99 43.489 20.107 44.085 20.31 44.27 C 21.427 45.283 22.564 46.283 23.783 47.181 C 25.181 48.211 26.646 49.165 28.131 50.087 C 30.357 51.471 30.406 51.44 32.123 49.167 L 32.123 49.167 Z " fill-rule="evenodd" fill="rgb(35,35,35)"/></g></g></svg>