<?xml version="1.0" encoding="UTF-8" standalone="no"?>
<!-- Generator: Gravit.io -->
<svg xmlns="http://www.w3.org/2000/svg" xmlns:xlink="http://www.w3.org/1999/xlink" style="isolation:isolate" viewBox="0 0 150 150" width="150pt" height="150pt"><defs><clipPath id="_clipPath_HGYtSlrFwkrIzeCT4V5g17ShK2pDNjIg"><rect width="150" height="150"/></clipPath></defs><g clip-path="url(#_clipPath_HGYtSlrFwkrIzeCT4V5g17ShK2pDNjIg)"><rect width="150" height="150" style="fill:rgb(0,0,0)" fill-opacity="0"/><g><path d=" M 135.902 140.463 C 133.649 143.678 131.49 146.759 129.215 150 C 128.255 147.761 127.345 145.878 126.614 143.894 C 125.129 139.854 123.732 135.762 122.312 131.683 C 121.195 128.478 121.239 128.524 123.417 126.232 C 124.434 125.158 125.139 124.929 126.123 126.353 C 129.262 130.907 132.494 135.356 135.687 139.854 C 135.795 140.008 135.826 140.241 135.902 140.463 L 135.902 140.463 L 135.902 140.463 L 135.902 140.463 L 135.902 140.463 L 135.902 140.463 L 135.902 140.463 L 135.902 140.463 Z  M 29.158 0 C 30.655 3.454 32.282 6.855 33.629 10.421 C 34.944 13.897 37.358 16.729 37.689 20.792 C 36.929 21.178 36.28 21.509 35.63 21.84 C 35.593 21.745 35.559 21.653 35.522 21.558 C 35.254 22.026 34.981 22.491 34.683 23.005 C 34.907 23.152 35.125 23.293 35.343 23.437 C 35.288 23.555 35.233 23.729 35.204 23.722 C 34.828 23.634 34.315 23.68 34.102 23.391 C 33.103 22.016 32.159 20.576 31.249 19.106 C 30.899 18.543 30.736 17.81 30.407 17.22 C 28.369 13.573 26.384 9.874 24.217 6.348 C 23.465 5.127 23.733 4.485 24.488 3.83 C 25.969 2.544 27.502 1.352 29.158 0 L 29.158 0 L 29.158 0 L 29.158 0 L 29.158 0 L 29.158 0 L 29.158 0 L 29.158 0 Z  M 17.535 19.519 C 18.724 16.985 19.878 14.523 21.167 11.769 C 22.595 14.372 23.941 16.795 25.264 19.244 C 25.879 20.389 26.355 21.669 27.06 22.714 C 27.723 23.699 28.614 24.439 29.379 25.32 C 29.758 25.752 30.084 26.256 30.318 26.574 C 29.763 27.336 29.374 27.818 29.035 28.351 C 27.967 30.024 27.173 30.106 25.721 28.548 C 23.152 25.785 20.601 22.992 18.048 20.206 C 17.853 19.993 17.693 19.731 17.535 19.519 L 17.535 19.519 L 17.535 19.519 L 17.535 19.519 L 17.535 19.519 L 17.535 19.519 L 17.535 19.519 Z  M 116.295 146.124 C 115.533 141.943 114.794 137.893 114.005 133.565 C 114.831 133.055 115.838 132.433 117.176 131.604 C 118.512 135.494 119.822 139.308 121.147 143.168 C 119.577 144.127 118.015 145.076 116.295 146.124 L 116.295 146.124 L 116.295 146.124 L 116.295 146.124 L 116.295 146.124 L 116.295 146.124 Z  M 130.54 119.639 C 131.348 118.29 132.321 116.663 133.396 114.862 C 135.674 117.114 137.898 119.311 140.218 121.603 C 139.379 123.142 138.569 124.628 137.704 126.219 C 135.671 125.522 134.432 123.472 132.873 122.025 C 132.105 121.315 131.392 120.513 130.54 119.639 L 130.54 119.639 L 130.54 119.639 L 130.54 119.639 L 130.54 119.639 Z  M 20.606 112.959 C 21.141 113.699 21.153 114.825 20.648 115.63 C 20.506 115.857 20.361 116.069 20.203 116.264 C 18.442 118.435 16.391 117.915 14.297 117.433 C 12.23 116.958 10.648 115.536 9.09 113.989 C 6.538 111.455 4.088 108.786 2.111 105.543 C 0.966 103.663 -0.114 101.696 -0.156 99.19 C -0.163 98.812 0.098 98.109 0.285 98.076 C 3.116 97.581 5.956 96.931 8.793 96.849 C 10.161 96.809 11.596 97.714 12.861 98.514 C 13.437 98.878 13.678 100.022 14.066 100.816 C 15.63 104.017 17.159 107.245 18.775 110.405 C 19.258 111.35 19.986 112.101 20.597 112.946 C 20.6 112.95 20.603 112.954 20.606 112.959 L 20.606 112.959 L 20.606 112.959 L 20.606 112.959 Z  M 135.266 22.875 C 135.384 22.765 135.497 22.51 135.482 22.343 C 135.349 20.962 136.138 20.975 136.879 20.882 C 140.392 20.443 143.844 20.81 146.943 22.785 C 148.273 23.633 149.561 25.154 150.225 26.782 C 150.813 28.224 150.041 30.115 149.275 31.61 C 147.901 34.293 145.554 34.335 143.427 34.74 C 142.912 34.837 142.239 33.872 141.707 33.299 C 139.021 30.403 134.72 23.386 135.266 22.875 L 135.266 22.875 L 135.266 22.875 Z  M 8.641 90.297 C 8.371 92.152 7.277 92.019 6.173 92.031 C 5.489 92.039 4.765 92.123 4.123 92.406 C 2.737 93.017 1.574 92.38 0.439 91.67 C -0.195 91.274 -0.508 90.566 -0.417 89.542 C -0.283 88.049 -0.136 86.693 0.893 85.566 C 2.014 84.339 3.191 84.525 4.43 84.779 C 6.768 85.257 9.212 88.591 8.641 90.297 L 8.641 90.297 Z  M 16.945 80.437 C 16.697 74.316 17.095 68.209 18.548 62.17 C 20.317 54.812 22.771 47.82 26.168 41.353 C 26.495 40.732 27.375 40.588 27.82 40.014 C 30.168 36.982 32.398 33.817 34.791 30.843 C 35.964 29.385 37.392 28.228 38.715 26.956 C 39.051 26.632 39.389 26.314 39.729 25.998 C 39.687 26.518 39.632 27.295 39.983 28.137 L 40.222 28.71 C 40.957 30.479 41.716 32.309 42.73 34.085 C 44.25 36.748 47.435 39.017 51.003 40.128 C 50.77 40.839 50.693 43.67 50.783 44.392 C 50.904 45.356 51.054 46.318 51.199 47.248 C 51.433 48.746 51.653 50.159 51.76 51.571 C 51.803 52.151 51.886 52.699 51.967 53.231 C 52.14 54.376 52.086 58.475 52.086 58.475 C 52.179 58.699 52.34 60.11 52.38 60.524 C 52.579 62.571 52.791 64.617 53.003 66.665 C 53.105 67.652 53.207 68.642 53.309 69.63 C 53.413 70.646 53.514 71.664 53.616 72.681 C 53.815 74.664 54.014 76.647 54.226 78.632 C 54.369 79.971 54.924 80.822 55.601 81.352 C 55.171 81.683 54.731 82.155 54.503 82.821 C 51.831 80.026 49.03 77.307 46.32 74.678 L 45.12 73.513 C 43.685 72.117 42.201 70.752 40.764 69.433 C 40.238 68.949 39.712 68.465 39.188 67.979 C 37.731 66.631 35.662 66.404 34.042 67.419 C 33.515 67.75 33.072 68.186 32.719 68.718 C 31.635 70.358 32.189 72.306 32.371 72.948 C 32.686 74.052 33.421 74.71 33.817 75.065 C 33.858 75.101 33.897 75.134 33.92 75.156 C 36.502 77.903 38.862 80.89 41.068 84.21 C 40.74 83.919 40.411 83.629 40.084 83.336 C 38.727 82.124 37.379 80.859 36.222 79.767 C 35.282 78.884 34.347 77.992 33.412 77.103 C 31.606 75.384 29.737 73.608 27.861 71.885 C 26.049 70.22 24.071 70.459 22.826 71.24 C 22.106 71.691 21.517 72.362 21.029 73.29 C 20.327 74.626 19.935 76.67 22.072 78.834 C 22.13 78.892 22.186 78.948 22.212 78.975 C 23.155 80.231 24.128 81.471 25.072 82.672 C 26.312 84.251 27.594 85.883 28.77 87.511 C 29.323 88.281 29.9 89.022 30.458 89.737 C 31.702 91.337 32.893 92.862 33.69 94.524 C 31.934 93.152 30.274 91.821 28.768 90.348 C 26.922 88.545 25.146 86.573 23.268 84.486 C 22.399 83.518 21.502 82.526 20.561 81.5 L 20.052 80.947 C 19.208 80.033 17.92 79.905 16.945 80.437 L 16.945 80.437 Z  M 18.31 92.659 C 18.79 94.811 19.437 96.928 20.152 98.96 C 21.38 102.45 22.9 105.824 24.596 109.009 C 25.729 111.14 27.31 112.963 28.851 114.71 C 30.163 116.197 31.707 117.386 33.15 118.699 C 36.03 121.324 38.907 123.948 41.791 126.566 C 41.928 126.691 42.11 126.752 42.275 126.826 C 46.869 128.809 51.403 131.049 56.073 132.706 C 56.78 132.957 57.489 133.2 58.2 133.437 C 58.816 132.898 59.434 132.352 60.034 131.807 C 60.832 131.08 61.604 130.329 62.419 129.534 C 63.222 128.749 64.054 127.94 64.917 127.153 C 65.165 126.927 65.413 126.701 65.662 126.476 C 61.13 121.181 56.39 116.031 51.31 111.301 C 47.993 113.183 44.097 113.698 39.721 112.835 C 37.625 112.423 35.942 110.945 34.572 109.551 C 27.99 102.864 23.015 97.7 18.44 92.804 C 18.396 92.756 18.352 92.708 18.31 92.659 L 18.31 92.659 Z  M 94.89 134.575 C 96.819 134.116 98.756 133.708 100.691 133.296 C 106.552 132.049 111.935 129.255 116.971 125.512 C 119.456 123.663 121.933 121.638 124.016 119.186 C 126.922 115.767 129.457 111.884 132.137 108.182 C 132.423 107.785 132.652 107.308 132.849 106.83 C 133.212 105.955 133.459 105 133.88 104.174 C 134.666 102.619 135.618 101.187 136.365 99.607 C 137.067 98.117 137.656 96.534 138.19 94.942 C 139.463 91.154 141.057 87.443 141.817 83.502 C 142.913 77.798 143.01 71.905 142.608 66.005 C 142.179 62.426 141.916 58.805 141.27 55.286 C 140.759 52.518 139.844 49.845 138.997 47.182 C 137.102 41.228 134.372 36.142 130.967 31.778 C 130.523 33.241 129.908 34.615 129.313 35.948 C 129.146 36.322 128.979 36.698 128.816 37.073 C 128.603 37.564 128.328 37.965 128.107 38.287 C 128 38.445 127.896 38.593 127.842 38.696 C 126.728 40.803 124.879 42.17 123.247 43.375 C 122.761 43.735 122.299 44.077 121.877 44.423 C 121.32 44.876 119.63 46.258 117.19 45.97 C 117.18 45.969 117.171 45.968 117.162 45.967 C 117.39 47.757 117.274 49.404 116.808 50.994 C 116.411 52.353 116.118 53.735 115.808 55.199 C 115.667 55.865 115.526 56.532 115.375 57.195 L 112.106 71.528 C 111.933 72.289 111.762 73.049 111.593 73.809 C 111.279 75.209 110.958 76.658 110.615 78.086 C 110.312 79.357 109.99 80.593 109.649 81.903 C 109.551 82.28 109.451 82.659 109.352 83.042 C 109.548 83.177 109.73 83.353 109.897 83.561 C 110.781 84.663 110.493 85.768 110.305 86.499 L 110.255 86.682 C 110.141 87.128 110.029 87.578 109.921 88.034 C 110.091 88.153 110.26 88.27 110.426 88.386 C 110.732 88.6 111.033 88.809 111.327 89.009 C 111.845 88.568 112.312 88.13 112.676 87.68 C 116.371 83.104 120.156 78.314 123.93 73.442 C 126.077 70.672 128.313 69.337 132.244 71.829 C 133.103 72.375 133.697 73.125 134.046 73.662 C 134.351 74.13 134.619 74.59 134.876 75.034 C 135.149 75.502 135.408 75.945 135.673 76.336 C 135.872 76.623 136.053 76.926 136.214 77.236 C 137.993 80.66 137.323 84.759 134.544 87.438 C 130.929 90.925 126.892 94.214 122.209 97.495 C 121.911 97.703 121.617 97.911 121.323 98.125 L 129.97 106.338 L 127.409 108.536 C 127.223 108.696 127.043 108.854 126.869 109.009 C 126.441 109.392 125.998 109.786 125.485 110.163 C 123.61 111.547 121.724 112.915 119.841 114.285 L 117.637 115.889 C 116.512 116.707 115.392 117.534 114.273 118.362 C 111.627 120.318 108.891 122.342 106.099 124.236 C 104.325 125.439 102.464 126.418 100.661 127.367 C 100.016 127.705 99.372 128.043 98.733 128.392 C 96.548 129.586 94.306 130.648 92.053 131.619 C 92.998 132.539 93.941 133.523 94.89 134.575 L 94.89 134.575 Z  M 95.59 98.243 C 93.69 98.064 91.776 97.858 89.921 97.657 C 85.867 97.22 81.675 96.767 77.605 96.586 C 72.534 96.362 67.478 95.821 62.591 95.3 C 62.242 95.263 61.894 95.225 61.546 95.188 C 61.645 96.128 61.647 97.366 61.22 98.602 C 60.82 99.764 60.345 100.855 59.884 101.909 C 59.718 102.29 59.556 102.66 59.401 103.025 C 60.438 103.994 61.475 104.966 62.51 105.936 C 66.685 109.849 70.972 113.865 75.29 117.792 C 76.816 116.398 78.34 115.003 79.838 113.609 C 83.313 110.372 86.771 106.969 90.114 103.676 L 91.613 102.202 C 92.94 100.898 94.272 99.566 95.59 98.243 L 95.59 98.243 Z " fill-rule="evenodd" fill="rgb(81,168,206)"/><path d=" M 78.276 124.502 L 78.276 124.502 C 89.739 117.623 100.04 109.281 109.211 99.501 C 108.394 97.868 108.02 97.721 106.524 98.998 C 104.004 101.146 101.601 103.428 99.122 105.627 C 94.208 109.991 89.3 114.361 84.339 118.673 C 82.323 120.427 80.162 122.012 78.104 123.718 C 77.978 123.823 77.854 123.93 77.743 124.051 C 77.92 124.202 78.099 124.351 78.276 124.502 Z  M 105.837 92.216 C 106.479 91.563 107.124 90.909 107.771 90.253 C 108.893 91.019 109.87 91.742 110.909 92.364 C 111.196 92.536 111.799 92.567 112.027 92.381 C 113.084 91.513 114.194 90.65 115.046 89.594 C 118.86 84.871 122.621 80.109 126.34 75.309 C 127.918 73.269 128.498 73.061 130.611 74.403 C 130.962 74.623 131.263 74.971 131.492 75.322 C 132.073 76.216 132.556 77.174 133.157 78.055 C 134.62 80.195 134.54 83.208 132.43 85.245 C 128.705 88.836 124.688 92.039 120.46 95.001 C 119.159 95.911 117.892 96.871 116.585 97.827 C 119.593 100.682 122.469 103.413 125.426 106.222 L 125.426 106.222 C 124.801 106.76 124.27 107.275 123.677 107.712 C 121.075 109.63 118.455 111.524 115.842 113.425 C 112.032 116.202 108.287 119.069 104.388 121.714 C 102.144 123.237 99.662 124.413 97.274 125.719 C 93.775 127.629 90.126 129.191 86.447 130.693 C 86.699 130.894 86.948 131.098 87.195 131.305 C 89.532 133.269 91.693 135.49 93.685 137.812 C 95.47 139.887 94.937 142.178 92.534 143.46 C 88.138 145.804 85.122 145.356 81.907 141.403 C 80.084 139.162 78.268 136.914 76.438 134.679 C 71.595 136.488 66.679 138.052 61.711 139.478 C 59.631 140.075 57.451 140.335 55.32 140.748 C 55.281 140.64 55.242 140.532 55.204 140.424 C 55.611 139.949 55.971 139.424 56.435 139.013 C 58.302 137.345 60.232 135.746 62.084 134.06 C 63.747 132.548 65.305 130.92 66.969 129.404 C 67.941 128.518 68.917 127.634 69.901 126.761 C 64.486 120.323 58.847 114.084 52.616 108.37 C 52.03 107.835 51.642 107.454 50.699 108.103 C 47.55 110.272 43.913 110.564 40.307 109.855 C 39 109.598 37.741 108.44 36.738 107.419 C 31.318 101.915 25.934 96.374 20.661 90.729 C 19.334 89.308 18.364 87.514 17.449 85.777 C 17.239 85.378 17.929 84.504 18.324 83.558 L 18.324 83.558 L 18.324 83.558 C 21.345 86.841 23.868 89.81 26.644 92.523 C 28.801 94.631 31.243 96.46 33.628 98.324 C 34.375 98.908 35.326 99.705 36.336 98.807 C 37.254 97.99 37.387 95.699 37.076 94.785 C 35.884 91.264 33.331 88.646 31.233 85.736 C 29.127 82.809 26.808 80.038 24.644 77.151 C 24.13 76.467 23.064 75.947 23.719 74.707 C 24.275 73.648 24.934 73.324 25.807 74.124 C 28.618 76.706 31.359 79.362 34.137 81.98 C 35.433 83.201 36.732 84.417 38.06 85.602 C 39.565 86.948 41.09 88.272 42.636 89.571 C 43.243 90.081 43.905 90.803 44.713 89.855 C 45.508 88.92 47.072 88.186 46.155 86.621 C 43.302 81.753 40.007 77.197 36.134 73.076 C 35.839 72.761 35.401 72.484 35.293 72.113 C 35.138 71.564 34.99 70.794 35.254 70.393 C 35.658 69.783 36.439 69.575 37.123 70.209 C 39.088 72.03 41.082 73.825 43.002 75.691 C 46.166 78.765 49.35 81.821 52.393 85.007 C 55.122 87.869 57.578 90.969 58.428 94.975 C 58.609 95.819 58.623 96.813 58.349 97.612 C 57.711 99.464 56.811 101.223 56.112 103.054 C 55.975 103.414 56.105 104.104 56.377 104.357 C 62.659 110.227 68.902 116.141 75.3 121.882 C 77.517 119.881 79.727 117.872 81.913 115.837 C 85.933 112.095 89.832 108.227 93.749 104.375 C 96.494 101.675 99.195 98.927 101.908 96.193 C 99.99 96.043 98.134 95.901 96.281 95.729 C 90.068 95.151 83.864 94.29 77.648 94.014 C 71.659 93.747 65.738 93.038 59.793 92.42 C 58.713 92.306 58.371 91.965 58.284 91.058 C 58.065 88.764 57.766 86.47 57.371 84.189 C 57.249 83.484 57.543 83.309 58.147 83.014 C 61.21 81.51 64.622 81.905 67.96 81.899 C 74.991 81.889 82.015 82.281 89.028 82.938 C 91.978 83.213 94.973 83.305 97.856 83.877 C 100.668 84.434 103.481 84.277 106.271 84.666 C 107.708 84.865 107.624 84.843 107.318 86.042 C 106.793 88.092 106.318 90.154 105.837 92.216 L 105.837 92.216 Z  M 126.588 82.445 C 126.113 81.583 126.149 80.709 126.688 80.017 C 127.429 79.066 128.923 78.371 129.778 78.796 C 130.416 79.115 131.047 79.695 131.349 80.32 C 131.487 80.601 130.875 81.322 130.498 81.754 C 130.113 82.191 129.6 82.513 129.145 82.89 C 128.169 83.701 127.18 83.529 126.588 82.445 L 126.588 82.445 Z  M 60.007 37.705 C 58.654 37.904 57.364 38.193 56.048 38.269 C 52.063 38.5 47.206 36.151 45.423 33.025 C 44.382 31.2 43.609 29.264 42.81 27.351 C 42.607 26.861 42.762 26.272 42.757 25.729 C 42.756 25.596 42.821 25.452 42.772 25.335 C 41.864 23.199 42.696 21.13 42.929 19.065 C 43.323 15.566 44.828 12.399 47.285 9.619 C 49.028 7.647 51.225 6.004 54.017 5.439 C 56.047 5.027 58.336 4.858 60.514 5.609 C 63.045 6.484 65.583 7.367 67.401 9.231 C 68.457 10.311 69.353 11.508 70.294 12.666 C 70.441 12.852 70.447 13.117 70.52 13.348 C 70.661 13.289 70.802 13.233 70.944 13.174 C 71.688 12.157 72.379 11.105 73.19 10.128 C 76.155 6.558 80.071 4.077 85.169 3.186 C 86.875 2.888 88.836 2.771 90.492 3.192 C 93.731 4.014 96.909 5.242 99.07 7.663 C 100.123 8.848 100.875 10.267 101.531 11.654 C 102.169 13.008 102.509 14.456 102.932 15.713 C 103.948 15.01 104.996 14.155 106.187 13.482 C 109.628 11.545 113.47 11.887 117.212 12.853 C 121.606 13.985 124.595 16.783 127.048 19.998 C 128.704 22.17 128.611 24.586 128.443 26.993 C 128.355 28.273 128.481 29.608 128.126 30.825 C 127.598 32.628 126.749 34.354 125.99 36.098 C 125.767 36.612 125.362 37.059 125.096 37.56 C 123.955 39.718 121.652 40.98 119.759 42.526 C 119.063 43.095 116.599 44.723 112.721 42.509 C 111.845 42.01 111.593 42.653 111.162 43.119 C 111.68 43.465 112.126 43.896 112.677 44.103 C 113.673 44.476 114.023 45.094 114.145 45.947 C 114.356 47.419 114.312 48.837 113.891 50.282 C 113.281 52.363 112.904 54.5 112.422 56.613 C 111.334 61.389 110.241 66.167 109.153 70.946 C 108.657 73.122 108.188 75.308 107.669 77.479 C 107.235 79.294 106.748 81.098 106.254 83.019 C 104.492 82.811 102.795 82.595 101.097 82.414 C 96.899 81.968 92.702 81.542 88.507 81.101 C 84.8 80.711 81.099 80.229 77.386 79.945 C 74.798 79.749 72.193 79.837 69.597 79.768 C 68.202 79.732 66.804 79.579 65.412 79.576 C 63.256 79.573 61.105 79.629 58.955 79.706 C 57.66 79.753 57.338 79.591 57.22 78.492 C 56.9 75.495 56.61 72.498 56.304 69.501 C 55.995 66.469 55.672 63.438 55.377 60.405 C 55.32 59.82 54.9 53.365 54.761 51.502 C 54.578 49.069 54.077 46.645 53.773 44.212 C 53.703 43.656 53.738 41.017 53.954 40.843 C 54.491 40.409 55.23 40.146 55.924 39.88 C 56.294 39.735 56.734 39.676 57.15 39.662 C 58.724 39.608 59.517 38.787 60.007 37.705 L 60.007 37.705 L 60.007 37.705 Z  M 89.976 137.473 C 88.248 136.22 87.099 134.547 84.929 135.015 C 84.383 135.131 83.584 135.257 83.411 135.622 C 83.205 136.053 83.354 136.941 83.695 137.291 C 84.727 138.339 85.84 139.376 87.102 140.1 C 87.657 140.422 88.936 140.258 89.372 139.811 C 89.877 139.299 89.811 138.231 89.976 137.473 L 89.976 137.473 L 89.976 137.473 Z " fill-rule="evenodd" fill="rgb(23,23,23)"/></g></g></svg>