<?xml version="1.0" encoding="UTF-8" standalone="no"?>
<!-- Generator: Gravit.io -->
<svg xmlns="http://www.w3.org/2000/svg" xmlns:xlink="http://www.w3.org/1999/xlink" style="isolation:isolate" viewBox="0 0 150 150" width="150pt" height="150pt"><defs><clipPath id="_clipPath_Ohn1ea5j0TV6n9JIzgIalk2B2NA0grvU"><rect width="150" height="150"/></clipPath></defs><g clip-path="url(#_clipPath_Ohn1ea5j0TV6n9JIzgIalk2B2NA0grvU)"><rect width="150" height="150" style="fill:rgb(0,0,0)" fill-opacity="0"/><g><path d=" M 137.85 83.833 C 139.281 83.782 140.435 82.91 141.616 82.204 C 142.782 81.506 144.099 80.691 144.786 79.512 C 146.027 77.379 146.903 74.965 147.822 72.613 C 148.319 71.341 148.596 69.959 148.959 68.622 C 149.706 65.865 150.252 63.08 149.88 60.164 C 149.564 57.691 149.314 55.206 148.961 52.74 C 147.889 45.255 146.476 37.909 142.444 31.557 C 140.82 28.997 139.51 26.16 137.206 24.238 C 132.854 20.609 127.78 19.83 122.568 19.628 C 121.805 19.599 121.191 19.566 120.772 18.509 C 119.084 14.245 116.655 10.563 113.434 7.586 C 110.576 4.944 107.061 3.762 103.713 2.264 C 101.143 1.113 98.381 1.725 95.788 2.247 C 92.488 2.912 89.6 4.814 87.132 7.399 C 86.555 8.003 86.077 8.031 85.386 7.764 C 83.442 7.014 81.511 6.094 79.503 5.716 C 77.493 5.337 75.367 5.235 73.434 6.421 C 73.251 6.533 73.066 6.659 72.867 6.715 C 71.977 6.969 71.056 7.119 70.191 7.453 C 67.241 8.59 64.918 10.878 62.439 12.885 C 60.651 14.332 59.308 16.204 58.272 18.344 C 57.831 19.254 57.194 19.913 56.244 19.804 C 56.235 15.789 47.306 16.636 45.02 17.279 L 45.02 17.279 L 45.02 17.279 L 45.02 17.279 L 45.02 17.279 L 45.02 17.279 L 45.02 17.279 L 45.02 17.279 C 44.636 17.387 42.895 17.925 42.454 18.175 C 41.291 18.835 40.166 19.599 39.086 20.421 C 34.709 23.752 31.838 28.351 29.97 33.88 C 29.261 35.978 29.318 38.418 27.741 40.163 C 26.973 41.013 26.53 42.274 25.701 43.004 C 24.643 43.936 23.26 44.39 22.166 45.28 C 20.253 46.836 18.134 48.274 16.673 50.287 C 13.733 54.337 12.279 58.946 13.474 64.408 C 14.105 67.29 14.964 69.894 16.63 72.162 C 17.435 73.259 17.443 73.569 16.425 74.48 C 15.571 75.245 14.643 75.906 13.773 76.652 C 12.17 78.026 10.815 79.639 9.844 81.662 C 9.397 82.593 8.669 83.317 8.553 84.489 C 8.488 85.133 7.948 85.706 7.828 86.358 C 7.676 87.185 7.763 88.064 7.693 88.915 C 7.317 93.492 8.453 97.562 10.871 101.23 C 12.684 103.982 15.261 105.603 17.81 107.271 C 19.03 108.069 20.21 109.074 21.532 109.515 C 23.116 110.042 24.843 110.007 26.489 110.338 C 27.116 110.464 27.883 110.757 28.243 111.275 C 28.796 112.07 29.156 113.091 29.415 114.077 C 31.025 120.215 34.329 125.118 38.458 129.3 C 41.379 132.259 44.82 134.06 48.965 133.175 C 49.249 133.114 49.665 133.345 49.902 133.586 C 51.037 134.743 52.157 135.861 53.095 137.305 C 54.141 138.913 55.705 140.165 57.197 141.32 C 60.418 143.814 64.12 144.939 67.961 145.156 C 70.488 145.299 73.067 145.056 75.574 144.624 C 77.563 144.282 79.714 143.811 81.365 142.635 C 83.429 141.165 85.098 138.962 86.841 136.969 C 87.335 136.404 87.7 136.193 88.395 136.255 C 90.965 136.484 93.564 136.928 96.113 136.711 C 98.936 136.472 101.683 135.564 104.21 134.137 C 105.47 133.425 106.674 132.591 107.822 131.669 C 108.405 131.201 108.981 130.715 109.53 130.197 C 110.08 129.678 111.86 127.798 112.405 126.798 C 113.131 125.464 114.162 121.575 114.108 120.842 C 114.012 119.559 114.763 118.447 115.9 118.267 C 122.871 117.164 128.315 112.881 132.851 107.245 C 137.113 101.95 138.707 95.545 137.117 88.402 C 136.991 87.836 136.855 87.274 136.722 86.71 C 135.972 87.57 134.864 88.136 133.522 88.136 L 129.056 88.136 L 129.056 88.136 C 127.743 88.136 126.646 89.052 126.368 90.279 L 126.476 101.953 L 126.476 101.953 L 126.476 101.953 L 126.476 101.953 L 126.476 101.953 L 126.476 101.953 C 126.451 101.955 126.427 101.957 126.402 101.959 L 126.476 109.953 L 126.476 109.953 C 115.476 110.945 103.667 115.152 90.968 118.515 L 90.968 116.86 C 88.991 117.422 86.991 117.979 84.968 118.515 L 84.968 110.515 L 84.968 110.515 L 84.968 105.945 C 84.968 103.908 83.317 102.258 81.28 102.258 L 80.533 102.258 L 80.533 102.258 L 80.533 102.258 C 78.496 102.258 76.845 103.908 76.845 105.945 L 76.845 113.638 L 76.845 113.638 L 76.845 121.638 L 76.845 121.638 C 72.514 122.358 68.087 122.835 63.561 122.929 L 63.561 122.929 C 61.948 122.962 60.36 122.956 58.817 122.894 C 58.399 122.908 57.98 122.92 57.561 122.929 L 57.561 122.929 C 49.493 123.097 42.058 122.266 35.54 120.987 L 35.54 112.987 L 35.54 112.987 L 35.54 90.892 C 35.54 89.37 34.306 88.136 32.783 88.136 L 28.294 88.136 L 28.294 88.136 C 25.693 88.136 23.97 86.01 23.965 83.792 L 23.965 83.792 C 23.964 82.728 24.357 81.642 25.24 80.76 L 26.324 79.676 C 24.859 78.931 23.968 77.386 23.965 75.792 L 23.965 75.792 C 23.964 74.728 24.357 73.642 25.24 72.76 L 74.852 23.168 L 74.852 23.168 C 75.471 22.55 76.23 22.158 77.026 21.993 L 77.026 21.993 L 77.852 21.168 L 77.852 21.168 C 78.697 20.325 79.802 19.903 80.906 19.903 L 80.906 19.903 C 82.012 19.903 83.117 20.325 83.961 21.168 L 84.786 21.993 L 84.786 21.993 C 85.583 22.158 86.342 22.55 86.961 23.168 L 99.338 35.54 L 99.338 33.313 L 99.338 33.313 L 99.338 29.024 L 99.338 21.024 L 99.338 21.024 C 99.338 19.45 100.615 18.175 102.187 18.175 L 102.187 18.175 L 102.467 18.175 L 102.467 18.175 C 102.828 17.016 103.91 16.175 105.187 16.175 L 105.187 16.175 L 113.613 16.175 L 113.613 16.175 C 114.89 16.175 115.972 17.016 116.333 18.175 L 116.333 18.175 L 116.333 18.175 L 116.613 18.175 L 116.613 18.175 C 118.185 18.175 119.462 19.45 119.462 21.024 L 119.462 21.024 L 119.462 29.024 L 119.462 29.024 L 119.462 42.581 L 119.462 50.581 L 119.462 50.581 C 119.462 52.073 118.409 53.117 117.181 53.374 L 136.577 72.76 L 136.577 72.76 C 137.459 73.642 137.853 74.728 137.851 75.792 L 137.851 75.792 C 137.848 77.386 136.957 78.931 135.492 79.676 L 136.577 80.76 L 136.577 80.76 C 137.459 81.642 137.853 82.728 137.851 83.792 L 137.851 83.792 C 137.851 83.806 137.851 83.819 137.85 83.833 Z  M 122.407 1.128 C 123.59 -0.306 124.946 -0.192 126.347 0.473 C 127.152 0.855 127.561 1.569 127.828 2.575 C 128.385 4.676 129.117 6.724 129.856 8.757 C 130.36 10.146 129.733 12.144 128.485 12.766 C 126.887 13.562 124.026 13.103 122.904 11.627 C 122.142 10.625 121.671 9.34 121.094 8.168 C 120.725 7.419 120.303 6.677 120.085 5.87 C 119.936 5.317 119.9 4.507 120.16 4.077 C 120.803 3.013 121.646 2.101 122.407 1.128 L 122.407 1.128 L 122.407 1.128 L 122.407 1.128 L 122.407 1.128 L 122.407 1.128 L 122.407 1.128 L 122.407 1.128 Z  M 45.107 140.517 C 47.32 138.592 49.609 138.813 51.072 141.15 C 52.337 143.854 51.62 145.991 51.597 148.094 C 51.591 148.553 51.085 149.17 50.67 149.429 C 48.989 150.48 46.393 150.019 45.082 148.546 C 43.88 147.196 43.239 143.599 43.988 141.98 C 44.245 141.424 44.728 141.001 45.107 140.517 L 45.107 140.517 L 45.107 140.517 L 45.107 140.517 L 45.107 140.517 L 45.107 140.517 L 45.107 140.517 Z  M 0.849 76.522 C 0.505 75.723 0.055 75.121 0.005 74.479 C -0.119 72.867 1.964 71.085 3.635 71.185 C 4.642 71.244 5.662 71.101 6.659 71.225 C 7.182 71.289 7.68 71.712 8.161 72.018 C 9.653 72.969 8.954 75.316 8.387 75.749 C 6.626 77.095 4.667 78.176 2.413 77.533 C 1.825 77.365 1.318 76.835 0.849 76.522 L 0.849 76.522 L 0.849 76.522 L 0.849 76.522 L 0.849 76.522 L 0.849 76.522 Z  M 123.417 130.549 C 122.025 131.848 120.946 131.579 119.893 131.293 C 119.517 131.192 119.169 130.912 118.839 130.663 C 116.895 129.202 116.839 128.618 117.96 126.358 C 118.598 125.072 119.525 124.318 120.68 123.88 C 121.074 123.73 121.608 123.867 122.029 124.031 C 122.281 124.129 122.525 124.254 122.766 124.39 C 123.792 124.97 124.474 126.153 124.456 127.445 C 124.438 128.736 124.017 130.012 123.417 130.549 L 123.417 130.549 L 123.417 130.549 L 123.417 130.549 L 123.417 130.549 Z  M 1.918 64.825 C 0.544 62.877 1.234 61.819 3.288 60.733 C 4.893 59.884 7.867 62 8.612 63.171 C 9.52 64.598 8.933 66.189 7.476 66.841 C 5.455 67.745 3.471 67.025 1.918 64.825 L 1.918 64.825 L 1.918 64.825 L 1.918 64.825 Z  M 138.912 4.81 C 140.303 6.283 139.725 10.38 137.856 10.889 C 137.545 10.974 137.114 11.012 136.875 10.836 C 135.058 9.495 134.798 5.818 136.363 4.115 C 137.22 3.182 137.865 3.357 138.912 4.81 L 138.912 4.81 L 138.912 4.81 Z  M 136.949 18.997 C 135.545 19.357 134.08 18.794 133.021 17.343 C 132.364 16.443 132.602 15.253 133.542 14.769 C 135.133 13.951 136.735 14.364 137.855 15.73 C 138.764 16.839 138.256 18.662 136.949 18.997 L 136.949 18.997 Z " fill-rule="evenodd" fill="rgb(255,194,72)"/><path d=" M 105.187 21.175 C 103.615 21.175 102.338 22.45 102.338 24.024 L 102.338 24.024 L 102.338 36.313 C 102.338 37.021 102.603 37.704 103.079 38.229 L 103.079 38.229 L 111.505 47.498 C 113.256 49.423 116.462 48.185 116.462 45.581 L 116.462 45.581 L 116.462 24.024 C 116.462 22.45 115.185 21.175 113.613 21.175 L 113.613 21.175 L 105.187 21.175 Z  M 77.852 26.168 L 28.24 75.76 C 27.357 76.642 26.964 77.728 26.965 78.792 L 26.965 78.792 C 26.97 81.01 28.693 83.136 31.294 83.136 L 31.294 83.136 L 35.783 83.136 C 37.306 83.136 38.54 84.37 38.54 85.892 L 38.54 85.892 L 38.54 115.986 C 45.058 117.266 52.493 118.097 60.561 117.929 L 60.561 117.929 C 65.087 117.835 69.514 117.358 73.845 116.638 L 73.845 116.638 L 73.845 100.945 C 73.845 98.908 75.496 97.258 77.533 97.258 L 77.533 97.258 L 84.28 97.258 C 86.317 97.258 87.968 98.908 87.968 100.945 L 87.968 100.945 L 87.968 113.515 C 100.667 110.152 112.476 105.945 123.476 104.953 L 123.476 104.953 L 123.299 85.917 C 123.299 85.905 123.299 85.893 123.299 85.881 L 123.299 85.881 C 123.305 84.365 124.535 83.136 126.056 83.136 L 126.056 83.136 L 130.522 83.136 C 133.123 83.136 134.847 81.01 134.851 78.792 L 134.851 78.792 C 134.853 77.728 134.459 76.642 133.577 75.76 L 133.577 75.76 L 83.961 26.168 C 83.117 25.325 82.012 24.903 80.906 24.903 L 80.906 24.903 C 79.802 24.903 78.697 25.325 77.852 26.168 Z " fill-rule="evenodd" fill="rgb(23,23,23)"/></g></g></svg>