<?xml version="1.0" encoding="UTF-8" standalone="no"?>
<!-- Generator: Gravit.io -->
<svg xmlns="http://www.w3.org/2000/svg" xmlns:xlink="http://www.w3.org/1999/xlink" style="isolation:isolate" viewBox="0 0 150 150" width="150pt" height="150pt"><defs><clipPath id="_clipPath_vlVc0RNEjJ0GXIvhz8eWjfB2AhjCVC8j"><rect width="150" height="150"/></clipPath></defs><g clip-path="url(#_clipPath_vlVc0RNEjJ0GXIvhz8eWjfB2AhjCVC8j)"><rect width="150" height="150" style="fill:rgb(0,0,0)" fill-opacity="0"/><g><path d=" M 94.398 104.446 C 94.312 103.985 94.26 103.515 94.242 103.042 L 93.763 90.28 L 92.128 100.061 C 92.095 100.257 92.066 100.452 92.04 100.648 L 91.763 93.28 L 90.128 103.061 C 89.912 104.341 89.843 105.644 89.936 106.935 C 89.802 108.93 90.033 110.943 90.597 112.842 L 92.21 118.129 C 92.963 118.709 93.952 119.164 94.829 119.775 C 94.673 118.974 94.597 118.346 94.572 118.113 L 94.417 117.503 L 94.417 117.503 L 94.417 117.503 C 94.556 117.591 94.694 117.681 94.829 117.775 C 94.673 116.974 94.597 116.346 94.572 116.113 L 92.525 108.027 C 92.4 107.53 92.315 107.02 92.268 106.505 L 92.268 106.505 C 92.354 106.957 92.467 107.402 92.597 107.842 L 94.21 113.129 C 94.285 113.186 94.362 113.243 94.446 113.295 C 94.493 113.479 94.543 113.661 94.597 113.842 L 96.21 119.129 C 96.963 119.709 97.952 120.164 98.829 120.775 C 98.673 119.974 98.597 119.346 98.572 119.113 L 96.525 111.027 C 96.4 110.53 96.315 110.02 96.268 109.505 C 96.354 109.957 96.467 110.402 96.597 110.842 L 98.21 116.129 L 98.21 116.129 L 98.21 116.129 L 98.21 116.129 L 98.21 116.129 C 98.963 116.709 99.952 117.164 100.829 117.775 C 100.673 116.974 100.597 116.346 100.572 116.113 L 98.525 108.027 C 98.363 107.382 98.268 106.715 98.242 106.042 L 97.763 93.28 L 96.128 103.061 C 96.095 103.257 96.066 103.452 96.04 103.648 L 95.763 96.28 L 94.398 104.446 L 94.398 104.446 Z  M 123.556 124.553 C 126.708 126.87 129.941 129.216 133.138 131.611 C 134.716 132.793 136.188 134.118 137.785 135.273 C 138.64 135.891 139.675 136.254 140.595 136.79 C 141.161 137.12 141.68 137.539 142.193 137.953 C 142.841 138.476 143.435 139.068 144.1 139.567 C 144.657 139.984 144.786 140.282 144.286 140.906 C 142.625 142.983 141.134 145.203 139.385 147.199 C 138.774 147.896 137.614 148.13 136.685 148.529 C 135.359 149.099 134.058 149.927 132.523 149.279 C 132.171 149.131 131.728 148.884 131.599 148.571 C 129.761 144.098 127.999 139.595 126.158 135.123 C 125.049 132.429 123.945 129.722 122.623 127.13 C 121.944 125.797 122.101 125.1 123.556 124.553 L 123.556 124.553 L 123.556 124.553 L 123.556 124.553 L 123.556 124.553 L 123.556 124.553 L 123.556 124.553 L 123.556 124.553 L 123.556 124.553 L 123.556 124.553 L 123.556 124.553 L 123.556 124.553 L 123.556 124.553 L 123.556 124.553 L 123.556 124.553 L 123.556 124.553 Z  M 2.951 89.379 C 0.687 85.308 0.455 81.035 0.011 76.814 C -0.09 75.844 0.503 75.524 1.317 75.846 C 3.576 76.741 5.834 77.645 8.036 78.671 C 10.024 79.597 11.922 80.724 13.892 81.691 C 14.776 82.125 14.822 82.639 14.738 83.583 C 14.465 86.65 11.986 87.083 9.86 87.77 C 7.627 88.49 5.28 88.853 2.951 89.379 L 2.951 89.379 L 2.951 89.379 L 2.951 89.379 L 2.951 89.379 L 2.951 89.379 L 2.951 89.379 L 2.951 89.379 L 2.951 89.379 L 2.951 89.379 L 2.951 89.379 L 2.951 89.379 L 2.951 89.379 L 2.951 89.379 L 2.951 89.379 Z  M 55.207 1.552 C 56.121 5.932 56.968 9.857 57.747 13.796 C 58.01 15.132 56.788 15.526 55.97 16.077 C 55.101 16.662 54.53 16.176 53.949 15.411 C 52.417 13.387 50.745 11.468 49.217 9.44 C 48.827 8.922 48.787 8.146 48.54 7.507 C 48.451 7.272 48.242 7.075 48.058 6.884 C 47.802 6.614 47.342 6.404 47.275 6.1 C 46.777 3.82 46.737 3.63 48.902 3.072 C 50.931 2.551 52.972 2.088 55.207 1.552 L 55.207 1.552 L 55.207 1.552 L 55.207 1.552 L 55.207 1.552 L 55.207 1.552 L 55.207 1.552 L 55.207 1.552 L 55.207 1.552 L 55.207 1.552 L 55.207 1.552 L 55.207 1.552 L 55.207 1.552 Z  M 126.144 121.764 C 126.799 121.476 127.275 121.093 127.761 121.08 C 131.976 120.97 136.194 120.923 140.411 120.867 C 140.661 120.864 140.912 120.939 141.54 121.036 C 141.257 124.666 140.975 128.266 140.68 132.053 C 135.741 128.557 131.092 125.267 126.144 121.764 L 126.144 121.764 L 126.144 121.764 L 126.144 121.764 L 126.144 121.764 L 126.144 121.764 L 126.144 121.764 L 126.144 121.764 L 126.144 121.764 L 126.144 121.764 L 126.144 121.764 Z  M 146.151 132.494 C 145.294 132.23 144.591 132.057 143.923 131.795 C 143.045 131.45 143.299 130.668 143.388 130.027 C 143.683 127.898 144.032 125.776 144.357 123.651 C 144.416 123.268 144.388 122.853 144.533 122.508 C 144.716 122.072 144.98 121.412 145.307 121.347 C 146.044 121.202 146.648 121.643 146.733 122.472 C 146.978 124.856 147.501 127.235 146.751 129.635 C 146.472 130.529 146.359 131.476 146.151 132.494 L 146.151 132.494 L 146.151 132.494 L 146.151 132.494 L 146.151 132.494 L 146.151 132.494 L 146.151 132.494 L 146.151 132.494 L 146.151 132.494 Z  M 62.705 13.94 C 61.539 9.031 60.474 4.545 59.395 0 C 60.464 0.032 61.077 0.781 61.559 1.615 C 63.11 4.298 63.901 7.276 64.802 10.209 C 64.974 10.772 64.332 11.712 63.74 12.229 C 63.343 12.575 63.158 13.165 62.705 13.94 L 62.705 13.94 L 62.705 13.94 L 62.705 13.94 L 62.705 13.94 L 62.705 13.94 L 62.705 13.94 Z  M 21.362 107.427 C 21.434 107.631 21.52 107.826 21.632 108.005 C 23.678 111.246 25.625 114.577 27.951 117.611 C 31.188 121.83 34.62 125.913 38.194 129.85 C 39.783 131.6 41.733 133.288 43.863 134.207 C 46.129 135.185 48.799 135.535 51.302 135.582 C 53.911 135.632 56.554 135.1 59.145 134.62 C 61.124 134.254 61.277 134.112 62.09 135.99 C 62.734 137.475 63.036 139.102 63.619 140.617 C 64.349 142.513 64.91 144.437 67.25 145.28 C 70.982 146.625 74.794 146.932 78.676 146.8 C 82.998 146.653 87.319 146.43 91.635 146.154 C 95.045 145.936 98.503 145.87 101.838 145.216 C 104.878 144.62 107.783 143.328 110.743 142.33 C 110.974 142.252 111.226 142.115 111.372 141.93 C 111.954 141.193 112.364 140.255 113.078 139.701 C 115.777 137.608 116.974 134.771 117.407 131.523 C 117.892 127.879 116.937 124.398 116.117 120.905 C 115.985 120.345 115.953 119.762 115.874 119.187 L 115.874 119.187 L 115.874 119.187 L 115.874 119.187 L 115.874 119.187 L 115.874 119.187 C 117.676 119.161 119.328 119.389 120.864 119.067 C 124.777 118.246 128.282 116.339 131.802 114.508 C 134.362 113.176 136.134 110.984 138.039 108.934 C 138.231 108.727 138.33 108.412 138.413 108.13 C 139.321 105.071 140.187 101.999 141.123 98.949 C 142.236 95.318 143.32 91.672 143.294 87.839 C 143.252 81.635 143.04 75.432 143.009 69.228 C 142.988 65.05 141.769 61.466 138.484 58.733 C 138.028 58.353 137.624 57.831 137.099 57.626 C 133.431 56.192 129.752 54.784 126.042 53.463 C 125.147 53.144 124.949 52.712 125.277 51.95 C 125.308 51.878 125.341 51.806 125.382 51.735 C 123.832 50.457 122.429 49.636 120.804 48.869 C 120.029 49.056 119.324 49.516 118.838 50.208 L 114.236 59.528 C 114.236 59.528 114.236 59.528 114.236 59.536 L 112.524 63.02 L 111.995 64.099 C 111.995 64.106 111.995 64.106 111.995 64.106 L 111.099 65.91 L 110.398 67.327 L 109.155 69.846 C 108.53 71.394 108.068 72.728 107.69 73.898 C 106.689 77.015 106.327 78.967 105.359 80.742 L 102.982 105.794 C 102.741 108.337 102.941 110.909 103.568 113.346 C 104.728 114.169 106.362 114.743 107.222 116.131 C 108.114 117.569 108.669 119.537 107.482 120.531 C 108.157 120.938 108.788 121.431 109.222 122.131 C 110.469 124.142 111.057 127.188 107.195 127.188 L 102.982 126.969 C 102.22 126.969 101.588 126.618 101.059 126.077 L 100.81 126.064 C 100.416 126.713 99.606 127.157 98.138 127.157 L 96.846 127.091 L 93.881 126.935 C 93.105 126.935 92.458 126.589 91.921 126.043 L 89.881 125.935 C 86.504 125.935 85.582 119.395 85.443 118.17 L 85.443 118.16 C 84.685 115.098 83.08 108.561 83.062 108.042 L 83.466 90.494 L 83.551 86.755 C 79.98 85.932 75.385 84.483 68.989 82.539 C 66.995 81.934 64.184 80.599 60.914 79.13 C 60.987 79.364 61.003 79.598 60.975 79.822 L 60.969 79.86 C 60.841 80.883 59.861 81.491 58.656 81.182 L 57.696 80.938 C 54.879 85.865 51.423 91.66 45.006 97.776 C 42.546 100.124 41.515 99.789 40.123 101.646 C 40.024 101.778 39.947 101.923 39.904 102.077 C 40.466 103.564 41.18 105.246 42.044 106.767 C 43.867 109.326 45.799 110.292 47.01 111.486 C 48.185 112.641 48.016 114.831 46.579 115.468 C 47.52 116.282 48.367 116.852 49.01 117.486 C 50.4 118.852 49.909 121.666 47.68 121.666 L 45.519 121.587 C 44.667 121.587 43.663 121.521 42.72 120.631 L 41.519 120.587 C 40.027 120.587 38.071 120.385 36.787 115.912 C 36.458 114.772 36.104 113.952 35.805 113.378 C 34.429 111.783 30.787 103.035 29.275 100.723 C 29.071 100.41 29.119 99.88 29.258 99.32 L 23.181 102.307 L 21.362 107.427 L 21.362 107.427 Z  M 18.878 89.045 C 19.279 88.421 19.756 87.828 20.183 87.221 C 20.409 86.901 20.664 86.601 20.934 86.312 C 20.234 87.384 19.539 88.279 18.878 89.045 L 18.878 89.045 Z  M 22.46 83.803 C 22.388 83.697 22.263 83.593 22.103 83.488 C 21.207 82.897 20.239 82.319 19.559 81.517 C 16.963 78.444 15.322 74.994 16.377 70.848 C 17.715 65.611 19.016 60.355 20.571 55.182 C 20.85 55.272 21.111 55.352 21.356 55.425 C 22.676 55.793 23.952 56.111 25.214 56.381 C 25.266 56.398 25.311 56.412 25.356 56.425 C 26.506 56.745 27.621 57.028 28.719 57.265 C 28.716 57.278 28.712 57.293 28.709 57.307 C 28.648 57.417 28.587 57.527 28.527 57.64 C 25.843 62.671 25.332 69.414 25.127 73.211 C 24.887 75.162 24.566 76.973 24.18 78.646 C 24.024 79.321 23.858 79.97 23.694 80.597 L 23.694 80.605 C 23.612 80.902 23.529 81.189 23.438 81.478 C 23.341 81.81 23.241 82.136 23.14 82.458 C 22.917 82.929 22.69 83.375 22.46 83.803 L 22.46 83.803 Z  M 22.149 51.032 C 22.297 50.75 22.448 50.469 22.623 50.198 C 22.885 50.283 23.127 50.357 23.356 50.425 C 25.046 50.895 26.661 51.285 28.266 51.583 C 27.889 51.572 27.506 51.556 27.12 51.538 C 25.564 51.464 23.949 51.29 22.377 51.068 C 22.299 51.056 22.222 51.044 22.149 51.032 L 22.149 51.032 Z  M 25.05 46.159 C 26.271 44.201 27.563 42.264 29.081 40.549 C 31.116 38.25 33.443 36.196 35.744 34.151 C 38.113 32.046 40.551 30.007 43.065 28.08 C 44.669 26.852 46.348 25.524 48.213 24.902 C 49.843 24.358 51.8 24.557 53.576 24.759 C 55.568 24.985 57.53 25.53 59.478 26.044 C 60.332 26.269 60.914 26.293 61.427 25.434 C 62.826 23.084 64.432 20.846 65.695 18.428 C 66.974 15.985 69.288 15.407 71.537 14.66 C 79.538 12.003 87.717 12.369 95.943 13.201 C 100.064 13.618 103.622 15.376 107.169 17.268 C 107.208 17.289 107.257 17.298 107.284 17.328 C 108.017 18.136 108.835 18.83 109.709 19.451 C 109.625 19.536 109.544 19.624 109.465 19.714 L 104.327 22.198 C 102.651 23.357 102.443 25.081 102.834 26.953 L 102.327 27.198 C 100.435 28.506 100.414 30.534 101.032 32.686 C 98.159 35.997 95.398 39.06 92.678 41.696 C 91.493 42.848 90.317 43.929 89.13 44.917 L 89.122 44.917 C 88.668 44.875 88.225 44.849 87.764 44.833 C 84.33 44.711 80.823 45.097 77.24 46.011 C 76.755 46.134 76.26 46.241 75.766 46.324 C 72.636 46.9 69.45 46.827 66.247 46.67 C 65.111 46.613 63.967 46.545 62.831 46.496 C 62.508 46.48 62.196 46.472 61.891 46.456 C 55.567 46.16 51.517 45.789 47.654 45.764 C 46.955 45.764 46.262 45.772 45.564 45.789 C 43.422 45.855 41.215 46.053 38.614 46.447 L 38.604 46.447 C 38.523 46.464 38.44 46.472 38.359 46.488 C 38.161 46.496 37.955 46.506 37.749 46.514 C 36.809 46.545 35.806 46.587 34.769 46.613 C 34.396 46.613 34.018 46.621 33.64 46.621 C 32.182 46.644 30.675 46.613 29.12 46.538 C 27.785 46.475 26.406 46.338 25.05 46.159 L 25.05 46.159 Z  M 135.243 48.812 C 135.255 48.762 135.268 48.714 135.281 48.665 C 135.437 48.075 135.615 47.48 135.603 46.868 C 135.597 46.642 135.55 46.417 135.48 46.199 C 135.572 46.815 135.3 47.474 134.665 47.773 L 134.164 48.004 C 134.112 48.029 134.057 48.054 133.998 48.079 C 134.228 48.219 134.461 48.355 134.694 48.49 C 134.877 48.597 135.06 48.704 135.243 48.812 L 135.243 48.812 L 135.243 48.812 Z " fill-rule="evenodd" fill="rgb(81,168,206)"/><path d=" M 94.21 115.673 L 92.597 110.386 C 91.855 107.89 91.691 105.198 92.128 102.605 L 93.763 92.824 L 94.242 105.586 C 94.268 106.259 94.363 106.926 94.525 107.571 L 96.572 115.657 C 96.597 115.89 96.673 116.518 96.829 117.319 C 95.952 116.708 94.963 116.252 94.21 115.673 Z  M 147.906 33.643 C 148.482 32.663 147.94 31.41 146.836 31.155 C 146.169 30.91 145.535 30.686 144.934 30.472 C 141.228 29.164 138.626 28.372 135.744 27.319 C 132.393 26.084 133.274 22.684 130.186 21.144 C 128.672 20.386 126.679 19.826 124.513 19.479 C 123.64 19.349 122.734 19.242 121.82 19.174 C 119.407 18.994 116.921 19.06 114.722 19.372 C 112.65 19.671 110.807 20.726 109.465 22.258 L 104.327 24.742 C 101.878 26.435 102.563 29.334 103.671 32.139 C 99.822 36.661 96.215 40.812 92.678 44.24 C 91.493 45.392 90.317 46.473 89.13 47.46 L 89.122 47.46 C 88.668 47.419 88.225 47.393 87.764 47.377 C 84.33 47.255 80.823 47.641 77.24 48.555 C 76.755 48.678 76.26 48.785 75.766 48.868 C 72.636 49.444 69.45 49.37 66.247 49.214 C 65.111 49.157 63.967 49.089 62.831 49.04 C 62.508 49.024 62.196 49.016 61.891 49 C 55.567 48.703 51.517 48.333 47.654 48.308 C 46.955 48.308 46.262 48.316 45.564 48.333 C 43.422 48.399 41.215 48.597 38.614 48.99 L 38.604 48.99 C 38.523 49.008 38.44 49.016 38.359 49.032 C 38.161 49.04 37.955 49.05 37.749 49.058 C 36.809 49.089 35.806 49.131 34.769 49.157 C 34.396 49.157 34.018 49.165 33.64 49.165 C 32.182 49.188 30.675 49.157 29.12 49.081 C 27.564 49.008 25.949 48.834 24.377 48.612 C 23.495 48.472 22.77 48.341 21.98 48.159 C 21.181 47.979 20.391 47.765 19.609 47.526 C 16.472 46.562 13.466 45.089 10.98 43.219 C 9.727 42.289 8.608 41.267 7.637 40.214 L 7.274 39.811 L 7.11 39.628 L 6.936 39.423 C 6.714 39.136 6.483 38.862 6.269 38.583 C 5.865 38.031 5.471 37.52 5.125 36.978 C 4.416 35.915 3.824 34.894 3.322 33.964 C 2.811 33.041 2.391 32.226 2.053 31.543 C 1.378 30.185 1 29.401 1 29.401 C 1 29.401 1.271 30.225 1.756 31.676 C 1.996 32.39 2.3 33.263 2.688 34.261 C 3.066 35.256 3.528 36.369 4.104 37.562 C 4.309 38.015 4.565 38.476 4.82 38.946 C 4.812 38.953 4.82 38.961 4.836 38.971 C 4.911 39.128 4.992 39.274 5.075 39.423 C 5.255 39.719 5.445 40.024 5.628 40.337 L 5.776 40.569 L 5.94 40.824 L 6.269 41.301 C 7.15 42.568 8.205 43.836 9.424 45.03 C 11.845 47.427 14.914 49.493 18.242 51.041 C 19.073 51.421 19.922 51.783 20.779 52.104 C 21.634 52.424 22.572 52.737 23.356 52.969 C 25.125 53.462 26.814 53.865 28.494 54.17 C 29.3 54.319 30.099 54.451 30.873 54.558 C 30.759 54.764 30.642 54.97 30.527 55.184 C 27.843 60.215 27.332 66.958 27.127 70.755 C 26.887 72.706 26.566 74.517 26.18 76.19 C 26.024 76.865 25.858 77.514 25.694 78.141 L 25.694 78.149 C 25.612 78.446 25.529 78.733 25.438 79.022 C 24.492 82.24 23.314 84.869 22.087 87.016 L 22.079 87.024 C 18.58 93.168 14.701 95.252 14.701 95.252 C 14.718 95.638 12.405 105.271 10.865 111.605 C 10.758 112.048 10.661 112.448 10.562 112.852 L 10.51 112.846 C 10.51 112.846 9.95 114.424 9.521 117.074 C 9.06 119.932 10.869 122.511 12.434 122.511 L 15.577 122.523 C 17.915 122.523 18.635 119.958 17.61 118.21 C 16.585 116.464 15.391 115.865 16.019 113.483 L 15.985 113.479 L 21.181 98.851 L 28.205 95.399 L 32.546 93.267 C 32.298 93.934 32.075 94.508 31.883 95.04 C 31.604 95.818 30.824 97.576 31.275 98.267 C 32.787 100.579 36.429 109.327 37.805 110.922 C 38.104 111.496 38.458 112.316 38.787 113.456 C 40.071 117.929 42.027 118.131 43.519 118.131 L 45.68 118.21 C 47.909 118.21 48.4 115.395 47.01 114.03 C 45.799 112.836 43.867 111.87 42.044 109.311 C 40.002 105.719 38.804 101.224 38.034 99.983 C 37.69 99.425 37.73 98.714 38.123 98.19 C 39.515 96.333 40.546 96.667 43.006 94.32 C 49.423 88.204 52.879 82.409 55.696 77.482 L 56.656 77.726 C 57.861 78.034 58.841 77.427 58.969 76.404 L 58.975 76.366 C 59.037 75.869 58.886 75.325 58.589 74.828 C 63.694 76.9 68.163 79.226 70.989 80.083 C 77.385 82.027 81.98 83.476 85.551 84.299 L 85.466 88.038 L 85.062 105.586 C 85.08 106.105 86.685 112.642 87.443 115.704 L 87.443 115.714 C 87.582 116.939 88.504 123.479 91.881 123.479 L 94.846 123.635 L 96.138 123.701 C 97.726 123.701 98.543 123.182 98.897 122.446 C 99.458 123.085 100.14 123.512 100.982 123.512 L 105.195 123.732 C 109.057 123.732 108.469 120.686 107.222 118.675 C 106.288 117.169 104.443 116.621 103.264 115.684 L 101.761 110.588 C 100.984 107.947 100.718 105.125 100.982 102.338 L 103.359 77.286 C 104.327 75.511 104.689 73.559 105.69 70.442 C 106.068 69.272 106.53 67.938 107.155 66.39 L 108.398 63.871 L 109.099 62.454 L 109.995 60.65 C 109.995 60.65 109.995 60.65 109.995 60.642 L 110.524 59.564 L 112.236 56.08 C 112.236 56.072 112.236 56.072 112.236 56.072 L 116.838 46.752 C 117.77 45.426 119.506 44.949 120.988 45.582 C 124.193 46.966 126.332 48.086 129.363 51.041 C 130.36 51.585 132.106 51.306 133.398 50.861 C 133.677 50.762 133.941 50.655 134.164 50.548 L 134.665 50.317 C 135.3 50.018 135.572 49.359 135.481 48.743 C 135.55 48.961 135.597 49.186 135.603 49.412 C 135.615 50.024 135.437 50.619 135.281 51.209 C 135.124 51.799 134.988 52.415 135.087 53.016 C 135.116 53.194 135.172 53.379 135.31 53.493 C 135.578 53.717 135.981 53.569 136.28 53.39 C 136.478 53.272 136.674 53.143 136.862 53.006 C 137.022 52.888 137.187 52.753 137.244 52.563 C 137.286 52.43 137.27 52.288 137.254 52.151 C 137.185 51.56 137.117 50.97 137.048 50.38 C 136.987 49.859 136.925 49.337 136.759 48.84 C 136.456 47.939 135.821 47.181 135.087 46.578 C 134.825 46.364 134.54 46.182 134.259 45.996 L 134.392 45.677 L 134.115 45.895 C 133.65 45.596 133.173 45.313 132.694 45.034 C 131.516 44.353 130.354 43.64 129.234 42.869 C 128.808 42.574 128.385 42.269 127.912 42.057 C 127.482 41.865 127.003 41.776 126.54 41.837 C 126.33 41.645 126.148 41.443 126.02 41.234 C 125.723 40.741 125.642 40.222 125.723 39.803 C 125.764 39.529 125.879 39.3 126.027 39.136 L 126.053 39.102 C 127.124 37.924 128.745 37.431 130.285 37.794 L 138.94 40.363 C 140.059 40.519 141.236 40.23 142.349 39.662 C 143.402 39.128 144.407 38.344 145.254 37.471 C 145.626 37.093 145.963 36.697 146.26 36.303 C 146.515 35.965 146.745 35.626 146.943 35.29 L 147.141 34.951 L 147.906 33.643 Z " fill="rgb(23,23,23)"/></g></g></svg>