<?xml version="1.0" encoding="UTF-8" standalone="no"?>
<!-- Generator: Gravit.io -->
<svg xmlns="http://www.w3.org/2000/svg" xmlns:xlink="http://www.w3.org/1999/xlink" style="isolation:isolate" viewBox="0 0 150 150" width="150pt" height="150pt"><defs><clipPath id="_clipPath_NCZ1etqDo79mhjpUYOtZRJ6vx94l57I0"><rect width="150" height="150"/></clipPath></defs><g clip-path="url(#_clipPath_NCZ1etqDo79mhjpUYOtZRJ6vx94l57I0)"><rect width="150" height="150" style="fill:rgb(0,0,0)" fill-opacity="0"/><g><path d=" M 135.335 72.785 C 135.699 73.706 136.111 74.611 136.542 75.509 C 137.427 77.354 138.118 79.15 138.089 81.249 C 138.077 82.04 138.272 82.854 138.464 83.631 C 139.657 88.432 140.159 93.298 139.751 98.231 L 139.751 98.231 L 139.751 98.231 L 139.751 98.231 L 139.751 98.231 L 139.751 98.231 L 139.751 98.231 L 139.751 98.231 C 139.674 99.198 139.259 101.822 139.17 102.124 C 138.505 104.402 137.863 106.697 137.039 108.907 C 136.431 110.543 135.251 111.975 134.881 113.65 C 134.397 115.825 133.387 117.59 132.164 119.203 C 130.476 121.427 128.605 123.485 126.781 125.585 C 124.935 123.455 123.029 121.381 121.159 119.509 C 119.102 117.452 116.413 114.991 113.378 112.324 C 115.008 106.939 115.6 101.064 115.546 94.752 C 115.677 86.296 114.554 77.035 113.198 67.127 C 115.074 69.358 116.814 72.12 119.04 76.526 C 119.468 77.436 119.897 78.35 120.345 79.317 C 120.371 79.304 120.396 79.29 120.429 79.271 C 121.014 80.48 121.629 81.782 122.286 83.199 C 122.772 82.94 123.39 82.582 124.154 82.073 C 124.177 82.122 124.202 82.175 124.227 82.229 C 125.839 81.367 128.911 79.427 132.789 75.545 C 133.781 74.552 134.644 73.617 135.335 72.785 Z  M 132.267 56.342 C 132.239 56.136 132.211 55.931 132.184 55.726 C 131.829 53.032 132.715 50.731 133.921 48.528 C 134.778 46.963 135.705 45.444 136.572 43.886 C 136.772 43.527 137.019 43.066 136.967 42.695 C 136.625 40.293 136.204 37.903 135.744 35.104 C 135.297 35.854 135.009 36.177 134.889 36.564 C 133.652 40.577 130.569 42.575 127.487 44.541 C 126.955 44.879 126.216 45.02 125.591 44.965 C 123.598 44.786 122.329 44.917 121.356 45.658 L 129.802 54.11 C 130.58 54.889 131.414 55.638 132.267 56.342 Z  M 118.241 42.541 C 118.472 41.903 118.756 41.268 119.096 40.636 C 120.463 38.093 121.499 35.312 122.459 32.544 C 122.777 31.629 122.353 30.421 122.349 29.348 C 122.334 24.605 120.639 20.343 119.232 15.946 C 117.811 11.505 114.955 8.178 112.602 4.448 C 112.032 3.548 111.445 2.663 110.865 1.772 C 110.705 1.802 110.543 1.832 110.38 1.862 C 110.393 2.833 110.341 3.811 110.436 4.775 C 110.647 6.971 111.142 9.164 111.136 11.351 C 111.132 14.431 109.222 16.53 107.329 18.478 C 105.863 19.986 104.364 21.542 102.647 22.654 C 99.069 24.969 96.763 28.694 93.49 31.805 C 92.122 30.922 90.603 30.042 89.185 28.994 C 87.653 27.862 87.439 25.88 87.119 24.166 C 86.851 22.727 87.236 21.156 87.313 19.642 C 87.333 19.268 87.389 18.846 87.263 18.518 C 86.588 16.766 85.989 14.959 85.116 13.324 C 84.23 11.661 83.056 10.177 81.95 8.53 C 81.762 10.705 81.661 12.736 81.4 14.74 C 80.904 18.544 78.517 21.249 76.657 24.254 C 74.025 28.506 71.568 33.887 71.328 39.055 C 71.221 41.4 72.237 45.391 72.237 45.391 C 72.237 45.391 70.241 43.925 69.788 43.475 C 68.211 41.698 67.098 40.671 68.016 37.713 C 68.918 34.798 69.044 32.681 67.671 30.275 C 66.743 28.643 65.713 27.076 64.572 25.23 C 63.729 27.114 63.202 28.766 62.323 30.151 C 61.908 30.804 61.477 31.449 61.026 32.076 C 61.11 32.078 61.194 32.082 61.279 32.086 C 61.479 32.072 61.678 32.063 61.874 32.063 C 62.387 32.063 63.706 34.025 64.22 34.067 C 61.064 36.778 57.654 40.072 55.018 42.761 C 54.817 43.578 54.613 44.399 54.405 45.29 C 54.147 44.888 53.923 44.484 53.737 44.079 C 53.023 44.813 52.419 45.454 51.91 46.009 L 51.91 46.009 L 56.218 50.282 L 53.182 52.882 L 61.07 60.775 C 62.338 62.044 63.537 63.316 64.681 64.581 C 69.089 62.945 74.506 60.271 77.807 57.659 L 77.807 57.659 C 81.059 60.234 85.522 62.868 89.484 64.523 C 90.612 63.277 91.794 62.024 93.042 60.775 L 101.223 53.207 L 100.563 52.364 L 99.282 51.082 L 99.438 50.925 L 98.186 49.325 L 102.181 45.959 L 102.181 45.959 C 99.391 43.057 94.915 38.673 90.943 35.224 C 90.447 34.837 89.948 34.43 89.452 34.004 C 89.965 33.962 93.267 32.063 93.78 32.063 C 94.985 32.063 96.205 32.18 97.421 32.414 C 97.316 32.32 97.204 32.224 97.091 32.126 C 97.604 32.084 98.119 32.063 98.633 32.063 C 104.356 32.063 110.413 34.708 114.838 39.136 L 118.241 42.541 Z  M 54.358 32.089 C 54.464 31.734 54.563 31.376 54.653 31.016 C 56.022 25.522 55.296 20.217 53.494 14.878 C 52.151 10.895 49.484 8.213 46.837 5.416 C 45.693 4.207 44.554 2.992 43.412 1.779 C 43.278 1.827 43.141 1.876 43.006 1.924 C 43.098 2.616 43.089 3.345 43.297 3.995 C 45.076 9.569 45.205 15.146 44.048 20.872 C 42.941 26.349 39.994 30.183 36.048 33.489 C 33.015 36.03 31.366 39.77 30.747 43.797 C 30.531 45.202 30.416 46.629 30.35 48.066 L 39.274 39.136 C 43.41 34.996 48.974 32.415 54.358 32.089 Z  M 26.225 52.194 C 25.638 51.276 24.913 50.448 24.094 49.655 C 22.146 47.765 20.412 45.612 18.335 43.295 C 18.827 45.542 19.228 47.398 19.642 49.25 C 20.263 52.043 20.498 54.811 20.329 57.555 C 21.697 56.511 23.074 55.347 24.31 54.11 L 26.225 52.194 Z  M 17.192 70.518 C 16.63 72.377 16.067 74.236 15.492 76.089 C 14.017 80.84 14.421 85.677 15.059 90.531 C 15.302 92.375 15.691 94.215 15.753 96.064 C 15.91 100.779 17.519 105.078 18.89 109.457 C 20.384 114.23 22.82 118.438 25.63 122.402 C 25.834 122.691 26.798 123.879 27.785 125.059 C 29.49 123.116 31.236 121.227 32.954 119.509 C 35.01 117.452 37.699 114.991 40.734 112.325 C 39.104 106.94 38.512 101.065 38.566 94.753 C 38.438 86.442 39.521 77.353 40.846 67.634 C 38.326 71.3 35.661 76.781 32.194 84.262 C 31.812 84.057 31.381 83.678 30.883 83.138 C 30.874 83.157 30.865 83.178 30.855 83.199 C 29.242 82.338 26.171 80.397 22.294 76.516 C 19.917 74.136 18.28 72.092 17.192 70.518 Z  M 36.295 132.838 C 44.118 138.668 52.847 142.383 61.732 145.71 C 62.804 146.111 63.942 146.691 65.013 146.628 C 66.924 146.515 68.702 147.529 70.557 147.312 C 78.785 146.346 87.035 145.44 95.019 143.024 C 100.872 141.254 106.277 138.317 111.553 135.109 C 113.375 134.001 115.195 132.89 117.015 131.778 C 116.338 131.003 115.661 130.305 114.992 129.674 C 113.239 128.023 111.015 126.18 108.414 124.128 C 104.589 130.334 98.624 135.654 89.648 139.953 C 85.893 141.924 81.555 143.694 76.57 145.257 L 76.57 145.257 C 60.339 140.169 50.97 132.877 45.882 123.781 C 43.617 125.585 41.664 127.222 40.09 128.704 C 38.838 129.885 37.557 131.302 36.295 132.838 Z  M 140.155 61.833 C 140.061 61.725 139.977 61.581 139.904 61.41 C 139.6 60.687 139.083 60.071 138.696 59.383 C 138.574 59.163 138.475 58.838 138.528 58.608 C 138.749 57.642 138.921 56.628 139.326 55.754 C 139.835 54.662 140.765 54.078 141.508 53.956 L 141.508 53.956 L 141.508 53.956 L 141.508 53.956 L 141.508 53.956 L 141.508 53.956 C 142.083 54.781 142.476 55.251 142.768 55.787 C 143.208 56.599 144.073 57.66 143.874 58.255 C 143.422 59.62 142.537 60.873 141.617 61.958 C 141.322 62.305 140.86 62.393 140.458 62.124 C 140.477 62.091 140.491 62.064 140.504 62.038 C 140.399 61.977 140.287 61.911 140.155 61.833 Z  M 139.834 63.586 C 139.847 63.488 139.827 63.381 139.79 63.27 C 139.755 63.332 139.707 63.406 139.658 63.482 C 139.717 63.517 139.776 63.552 139.834 63.586 Z  M 20.659 133.665 L 20.659 133.665 C 18.475 130.797 16.577 127.731 15.126 124.361 C 11.458 115.835 10.737 106.931 11.818 97.816 C 11.91 97.026 12.389 96.284 12.686 95.516 C 12.797 95.551 12.91 95.578 13.021 95.613 C 13.001 96.005 13.017 96.4 12.952 96.788 C 12.176 101.523 12.672 106.187 13.995 110.737 C 15.156 114.726 16.543 118.66 17.923 122.582 C 19.041 125.77 20.571 128.737 22.284 131.605 C 21.709 132.32 21.15 133.022 20.659 133.665 Z  M 122.045 138.099 C 120.467 138.675 118.849 139.171 117.262 139.72 C 116.998 139.809 116.466 139.503 116.228 139.227 C 115.863 138.814 115.648 138.267 115.438 137.89 L 115.438 137.89 C 117.109 137.245 118.749 136.553 120.355 135.812 C 120.934 136.552 121.501 137.321 122.045 138.099 Z  M 132.233 132.119 C 133.269 131.215 134.238 130.229 135.128 129.158 C 137.018 126.887 138.643 124.405 140.273 121.914 C 137.272 125.007 134.027 127.704 130.565 130.063 C 131.151 130.766 131.71 131.458 132.233 132.119 Z  M 6.845 53.995 C 5.707 55.224 5.905 56.426 7.178 57.621 C 8.492 58.858 9.78 60.132 11.094 61.368 C 11.282 61.545 11.573 61.707 11.803 61.693 C 12.702 61.638 13.956 59.175 13.537 58.298 C 12.753 56.648 12 54.974 11.103 53.396 C 10.803 52.865 7.532 53.252 6.845 53.995 L 6.845 53.995 L 6.845 53.995 L 6.845 53.995 L 6.845 53.995 L 6.845 53.995 L 6.845 53.995 L 6.845 53.995 Z  M 127.346 23.877 C 127.518 25.065 127.526 26.319 127.917 27.415 C 128.177 28.14 128.935 28.743 129.595 29.159 C 129.747 29.254 130.569 28.436 130.823 27.893 C 131.477 26.496 131.987 25.015 132.557 23.57 C 132.925 22.638 132.807 21.945 131.848 21.492 C 131.285 21.225 130.779 20.806 130.263 20.428 C 129.103 19.579 128.137 19.818 127.669 21.213 C 127.386 22.047 127.281 23.868 127.346 23.877 L 127.346 23.877 L 127.346 23.877 L 127.346 23.877 L 127.346 23.877 L 127.346 23.877 L 127.346 23.877 Z  M 89.492 23.711 C 89.351 24.223 89.396 24.777 89.615 25.26 C 89.716 25.481 89.81 25.656 89.945 25.779 C 90.617 26.397 91.34 26.958 92.081 27.477 C 93.079 28.177 94.006 27.67 94.137 26.381 C 94.186 25.905 94.204 25.42 94.191 24.94 C 94.123 22.783 91.904 20.973 90.316 21.976 C 89.873 22.257 89.685 23.009 89.492 23.711 L 89.492 23.711 L 89.492 23.711 L 89.492 23.711 L 89.492 23.711 Z  M 110.953 64.653 C 110.318 65.29 109.379 66.229 108.362 67.247 C 108.364 67.261 108.366 67.274 108.367 67.287 C 110.73 67.182 112.355 66.947 112.968 66.851 C 112.665 66.487 112.357 66.144 112.042 65.809 L 110.953 64.653 L 110.953 64.653 Z  M 43.189 64.682 L 43.189 64.682 L 43.041 64.839 C 42.483 65.431 41.929 66.11 41.369 66.881 C 42.094 66.993 43.622 67.192 45.746 67.287 C 45.747 67.274 45.749 67.26 45.751 67.247 C 44.814 66.309 43.775 65.269 43.189 64.682 L 43.189 64.682 Z " fill-rule="evenodd" fill="rgb(255,127,80)"/><path d=" M 102.46 68.894 C 107.199 64.151 111.615 59.73 111.615 59.73 L 113.2 61.414 C 116.477 64.897 119.059 69.261 123.612 79.089 C 125.251 78.213 128.373 76.241 132.314 72.296 C 136.449 68.157 138.381 65.016 139.17 63.499 C 136.974 62.227 132.008 59.16 128.292 55.442 L 113.083 40.222 C 108.586 35.721 102.429 33.034 96.612 33.034 C 96.09 33.034 95.567 33.055 95.045 33.098 C 100.994 38.208 104.463 42.4 105.752 44.069 L 106.959 45.633 L 102.203 50.391 L 104.942 53.13 L 95.862 62.216 C 94.156 63.923 92.573 65.636 91.093 67.33 C 86.433 66.127 81.551 64.038 77.148 60.552 C 72.745 64.038 67.863 66.127 63.203 67.33 C 61.723 65.636 60.14 63.923 58.434 62.216 L 49.354 53.13 L 52.091 50.391 L 47.337 45.633 L 48.544 44.069 C 49.833 42.4 53.302 38.208 59.251 33.098 C 58.728 33.055 58.205 33.034 57.684 33.034 C 51.867 33.034 45.71 35.721 41.213 40.222 L 26.004 55.442 C 22.288 59.16 17.322 62.227 15.126 63.499 C 15.915 65.016 17.847 68.157 21.982 72.296 C 25.923 76.241 29.044 78.213 30.683 79.089 C 35.237 69.261 37.819 64.897 41.096 61.414 L 42.681 59.73 C 42.681 59.73 47.097 64.151 51.836 68.894 C 46.543 69.032 42.924 68.356 42.924 68.356 C 40.52 85.888 38.796 101.442 43.191 114.174 C 39.909 117.048 36.992 119.708 34.789 121.911 C 26.482 130.223 17.51 142.463 15.126 145.776 C 15.757 146.425 16.893 147.348 18.616 147.87 C 19.396 148.108 20.192 148.228 20.979 148.228 C 21.657 148.228 22.202 148.136 22.547 148.055 C 24.438 144.724 31.628 132.423 38.097 126.325 C 40.093 124.446 42.688 122.323 45.736 119.937 C 50.856 129.368 60.414 136.917 77.148 142.163 L 77.148 142.163 C 93.881 136.917 103.439 129.368 108.56 119.937 C 111.608 122.323 114.203 124.446 116.198 126.325 C 122.668 132.423 129.858 144.724 131.747 148.055 C 132.093 148.136 132.639 148.228 133.317 148.228 C 134.104 148.228 134.899 148.108 135.679 147.87 C 137.401 147.348 138.539 146.425 139.17 145.776 C 136.786 142.463 127.814 130.223 119.507 121.911 C 117.304 119.708 114.387 117.048 111.104 114.174 C 115.499 101.442 113.776 85.888 111.373 68.356 C 111.373 68.356 107.754 69.032 102.46 68.894 L 102.46 68.894 Z " fill-rule="evenodd" fill="rgb(23,23,23)"/><path d=" M 77.147 136.179 C 44.422 125.336 43.818 105.397 47.828 74.388 C 48.757 74.439 49.789 74.47 50.899 74.47 C 58.085 74.47 68.139 73.175 77.147 67.385 C 86.157 73.175 96.211 74.47 103.397 74.47 C 104.507 74.47 105.536 74.439 106.468 74.388 C 110.478 105.397 109.874 125.336 77.147 136.179 Z " fill="rgb(254,254,254)"/></g></g></svg>