<?xml version="1.0" encoding="UTF-8" standalone="no"?>
<!-- Generator: Gravit.io -->
<svg xmlns="http://www.w3.org/2000/svg" xmlns:xlink="http://www.w3.org/1999/xlink" style="isolation:isolate" viewBox="0 0 24 24" width="24pt" height="24pt"><defs><clipPath id="_clipPath_GfKLOyxMXu3CRoIYobjOcqW8pwSIJ6ZY"><rect width="24" height="24"/></clipPath></defs><g clip-path="url(#_clipPath_GfKLOyxMXu3CRoIYobjOcqW8pwSIJ6ZY)"><path d=" M 12.5 1.5 C 10.73 1.5 9.17 2.67 8.67 4.37 C 8.14 4.13 7.58 4 7 4 C 4.791 4 3 5.791 3 8 C 3 9.82 4.24 11.41 6 11.87 L 6 19 L 19 19 L 19 11.87 C 20.76 11.41 22 9.82 22 8 C 22 5.791 20.209 4 18 4 C 17.42 4 16.86 4.13 16.33 4.37 C 15.83 2.67 14.27 1.5 12.5 1.5 Z  M 12 10.5 L 13 10.5 L 13 17.5 L 12 17.5 L 12 10.5 Z  M 9 12.5 L 10 12.5 L 10 17.5 L 9 17.5 L 9 12.5 Z  M 15 12.5 L 16 12.5 L 16 17.5 L 15 17.5 L 15 12.5 Z  M 6 20 L 6 21 C 6 21.552 6.448 22 7 22 L 18 22 C 18.552 22 19 21.552 19 21 L 19 20 L 6 20 Z " fill="rgb(255,127,80)"/></g></svg>