<?xml version="1.0" encoding="UTF-8" standalone="no"?>
<!-- Generator: Gravit.io -->
<svg xmlns="http://www.w3.org/2000/svg" xmlns:xlink="http://www.w3.org/1999/xlink" style="isolation:isolate" viewBox="0 0 150 150" width="150pt" height="150pt"><defs><clipPath id="_clipPath_69UgoyHjWecJHclEqclLxKfYRQKD8DHO"><rect width="150" height="150"/></clipPath></defs><g clip-path="url(#_clipPath_69UgoyHjWecJHclEqclLxKfYRQKD8DHO)"><rect width="150" height="150" style="fill:rgb(0,0,0)" fill-opacity="0"/><g><path d=" M 114.341 136.234 C 114.89 135.828 115.437 135.42 115.98 135.001 C 117.814 133.587 119.563 132.044 121.375 130.593 C 121.694 130.338 125.691 125.503 126.141 124.868 C 129.052 120.765 131.575 116.409 133.122 111.469 C 134.542 106.936 136.209 102.486 136.372 97.605 C 136.436 95.691 136.839 93.786 137.091 91.877 C 137.751 86.853 138.17 81.846 136.642 76.929 C 135.4 72.922 134.209 68.895 132.956 64.893 C 131.332 59.724 131.155 54.481 132.344 49.146 C 132.773 47.229 133.188 45.308 133.697 42.982 C 131.545 45.381 129.75 47.609 127.731 49.565 C 125.98 51.262 124.638 53.113 124.136 55.617 C 123.997 56.3 123.865 56.989 123.664 57.652 C 123.252 59 122.298 59.587 120.953 59.98 C 121.118 57.981 121.405 56.236 121.375 54.502 C 121.311 50.827 121.393 47.096 120.84 43.502 C 120.199 39.334 118.49 35.461 115.349 32.831 C 111.261 29.41 108.209 25.441 107.063 19.771 C 105.863 13.844 105.998 8.072 107.84 2.302 C 108.056 1.629 108.046 0.874 108.141 0.158 C 108.002 0.108 107.86 0.057 107.72 0.007 C 106.538 1.263 105.358 2.521 104.173 3.773 C 101.431 6.668 98.669 9.444 97.277 13.567 C 95.411 19.093 94.659 24.585 96.077 30.272 C 96.606 32.386 97.431 34.42 97.829 36.559 C 98.361 39.435 98.113 42.275 96.333 45.048 C 95.915 43.258 95.513 41.742 95.216 40.2 C 94.828 38.181 93.816 36.663 92.507 35.203 C 90.903 33.414 89.441 31.436 88.132 29.377 C 87.221 27.942 86.675 26.233 85.802 24.283 C 84.62 26.193 83.554 27.815 82.592 29.505 C 81.169 31.995 81.3 34.186 82.235 37.204 C 83.185 40.266 82.032 41.328 80.398 43.168 C 79.93 43.634 77.862 45.152 77.862 45.152 C 77.862 45.152 78.915 41.02 78.803 38.594 C 78.555 33.244 76.01 27.673 73.283 23.272 C 71.357 20.161 68.884 17.361 68.371 13.423 C 68.1 11.349 67.995 9.247 67.8 6.996 C 66.655 8.7 65.438 10.236 64.521 11.958 C 63.617 13.65 62.996 15.521 62.297 17.335 C 62.167 17.674 62.225 18.111 62.245 18.498 C 62.326 20.065 62.724 21.692 62.446 23.181 C 62.115 24.955 61.893 27.007 60.306 28.179 C 58.837 29.263 57.264 30.174 55.847 31.089 C 52.457 27.868 50.068 24.012 46.362 21.616 C 44.583 20.465 43.03 18.854 41.512 17.293 C 39.551 15.276 37.572 13.104 37.568 9.916 C 37.562 7.651 38.075 5.382 38.293 3.108 C 38.392 2.111 38.337 1.099 38.351 0.093 C 38.183 0.062 38.014 0.031 37.848 0 C 37.248 0.923 36.64 1.839 36.05 2.77 C 33.612 6.632 30.653 10.076 29.181 14.672 C 27.724 19.223 25.969 23.636 25.952 28.545 C 25.949 29.656 25.509 30.907 25.839 31.853 C 26.833 34.719 27.906 37.597 29.323 40.229 C 31.396 44.086 31.452 47.995 30.231 52.384 C 29.83 51.089 29.562 49.993 29.159 48.959 C 27.671 45.124 26.417 44.368 22.595 44.71 C 21.947 44.768 21.181 44.621 20.631 44.271 C 17.438 42.237 14.245 40.169 12.963 36.014 C 12.838 35.614 12.54 35.28 12.077 34.504 C 11.601 37.401 11.165 39.875 10.811 42.361 C 10.757 42.745 11.013 43.222 11.219 43.593 C 12.118 45.206 13.078 46.779 13.965 48.398 C 15.215 50.68 16.133 53.061 15.765 55.85 C 15.518 57.732 15.232 59.631 15.225 61.519 C 15.208 66.87 13.48 71.689 11.251 76.328 C 10.334 78.237 9.618 80.096 9.648 82.269 C 9.661 83.088 9.459 83.931 9.26 84.736 C 8.024 89.705 7.504 94.741 7.926 99.848 L 7.926 99.848 L 7.926 99.848 L 7.926 99.848 L 7.926 99.848 L 7.926 99.848 L 7.926 99.848 L 7.926 99.848 C 8.007 100.849 8.436 103.565 8.529 103.878 C 9.217 106.236 9.882 108.611 10.736 110.9 C 11.366 112.593 12.588 114.075 12.972 115.809 C 13.473 118.06 14.519 119.887 15.786 121.557 C 17.63 123.985 19.686 126.223 21.674 128.52 C 21.916 128.798 22.281 128.953 22.599 129.147 C 27.157 131.933 31.714 134.724 36.278 137.499 C 36.08 136.779 35.891 136.062 35.706 135.347 C 34.482 130.622 33.409 126.309 32.425 122.161 C 32.111 120.839 31.883 119.519 31.662 118.243 C 31.648 118.162 31.633 118.08 31.619 117.999 C 31.613 117.999 31.607 118 31.601 118 C 31.079 118.053 30.568 118.027 30.084 117.922 C 25.69 116.972 22.141 115.287 19.235 112.771 C 17.627 111.38 15.92 110.007 14.27 108.68 L 13.794 108.298 C 12.139 106.966 11.652 105.057 12.458 103.059 C 14.105 98.981 15.699 94.879 17.176 91.055 C 18.062 88.76 19.847 88.342 20.573 88.268 C 21.278 88.197 22.007 88.31 22.803 88.613 C 24.27 89.171 25.771 89.718 27.253 90.252 C 27.15 89.383 27.046 88.041 27.959 86.899 C 28.202 86.595 28.494 86.34 28.824 86.145 C 28.678 85.731 28.588 85.274 28.561 84.781 C 28.553 84.637 28.473 84.329 28.402 84.057 C 28.277 83.575 28.121 82.975 28.071 82.293 C 27.97 80.915 27.964 79.461 28.054 77.972 C 28.172 76.044 29.895 74.964 30.895 74.63 C 30.993 74.597 31.092 74.568 31.193 74.542 C 31.855 74.374 32.449 74.393 32.841 74.406 C 32.919 74.408 32.997 74.413 33.074 74.411 C 33.294 74.403 33.47 74.383 33.596 74.351 C 33.696 74.326 33.774 74.306 33.941 74.098 C 36.139 71.37 39.082 69.654 41.935 68.206 C 46.795 65.739 51.276 63.623 55.636 61.734 C 56.068 61.548 56.481 61.4 56.881 61.258 C 56.475 60.163 56.022 59.008 55.512 57.768 C 54.329 54.886 54.971 53.014 57.66 51.508 C 60.834 49.73 63.755 48.515 66.589 47.795 C 67.491 47.565 68.404 47.381 69.302 47.248 C 69.967 47.149 70.611 47.113 71.179 47.082 C 71.505 47.064 71.832 47.047 72.157 47.015 L 72.423 46.99 C 72.866 46.948 73.285 46.908 73.587 46.831 L 73.754 46.787 C 75.26 46.404 76.879 46.71 78.195 47.627 C 79.544 48.566 80.413 50.019 80.58 51.612 C 80.648 52.262 80.663 52.869 80.677 53.456 C 80.694 54.139 80.708 54.73 80.799 55.235 C 80.877 55.222 80.955 55.21 81.034 55.198 C 82.591 54.946 84.2 54.687 85.923 54.771 C 89.112 54.926 92.268 55.348 95.49 55.804 C 97.152 56.039 98.791 56.36 100.376 56.67 C 101.261 56.843 102.146 57.017 103.034 57.174 L 103.139 57.193 C 104.557 57.445 105.308 57.635 106.067 58.085 C 106.464 57.884 106.845 57.738 107.23 57.64 C 108.835 57.232 110.983 57.672 112.198 60.133 C 112.459 60.661 112.718 61.191 112.977 61.721 C 113.483 62.758 114.007 63.83 114.535 64.863 C 115.465 66.681 115.082 68.502 113.485 69.858 C 110.611 72.298 107.194 74.179 102.734 75.776 C 100.41 76.607 98.168 77.64 95.793 78.734 C 94.208 79.465 92.568 80.22 90.904 80.909 C 88.902 81.737 86.838 82.424 84.767 82.95 C 84.528 83.011 84.288 83.07 84.048 83.126 C 78.525 84.432 74.028 85.394 69.896 86.155 C 66.073 86.859 62.188 87.446 58.43 88.014 C 57.171 88.204 55.911 88.394 54.652 88.589 C 53.892 88.706 53.161 88.736 52.515 88.762 C 52.35 88.768 52.185 88.775 52.021 88.783 C 51.668 88.8 51.316 88.822 50.964 88.843 C 49.941 88.906 48.883 88.97 47.783 88.945 C 46.706 88.92 45.623 88.883 44.555 88.844 C 47.884 89.529 51.36 90.087 54.823 90.214 C 56.631 90.279 58.426 90.258 60.327 90.234 C 61.848 90.216 63.422 90.196 64.991 90.227 C 65.952 90.246 66.939 90.202 68.009 90.094 C 70.486 89.844 72.928 89.296 75.513 88.716 C 76.514 88.492 77.514 88.267 78.517 88.06 C 81.142 87.519 83.815 86.886 86.401 86.273 C 89.367 85.571 92.434 84.845 95.499 84.238 C 97.708 83.8 99.841 83.039 102.098 82.233 C 103.535 81.721 105.021 81.19 106.551 80.741 C 107.433 80.482 108.311 80.204 109.241 79.91 C 109.679 79.771 110.124 79.63 110.577 79.489 L 113.776 78.492 L 114.422 82.351 C 115.152 82.01 115.895 81.677 116.654 81.365 C 118.106 80.768 119.325 80.397 120.491 80.196 C 120.571 80.182 120.653 80.171 120.736 80.162 C 122.238 80.011 124.004 80.878 124.844 82.18 C 126.673 85.012 128.087 87.342 129.293 89.513 C 130.128 91.016 130.207 92.702 130.18 93.573 C 130.102 96.108 129.669 98.201 128.817 100.161 C 127.742 102.632 125.996 104.346 124.269 105.83 C 122.665 107.207 120.848 108.768 118.905 110.205 C 118.056 110.833 117.171 111.204 116.391 111.532 C 116.188 111.617 115.992 111.699 115.812 111.78 C 115.649 112.126 115.463 112.542 115.446 112.712 C 115.145 117.584 114.917 122.558 114.697 127.368 L 114.57 130.147 C 114.53 130.995 114.508 131.844 114.484 132.693 C 114.453 133.851 114.421 135.037 114.341 136.234 Z  M 145.6 54.058 C 146.778 55.331 146.573 56.575 145.254 57.811 C 143.893 59.092 142.559 60.411 141.198 61.691 C 141.003 61.873 140.702 62.041 140.463 62.027 C 139.533 61.969 138.234 59.42 138.667 58.513 C 139.479 56.804 140.26 55.071 141.189 53.438 C 141.499 52.888 144.888 53.289 145.6 54.058 L 145.6 54.058 L 145.6 54.058 L 145.6 54.058 L 145.6 54.058 L 145.6 54.058 L 145.6 54.058 L 145.6 54.058 Z  M 20.777 22.882 C 20.598 24.111 20.59 25.41 20.185 26.544 C 19.916 27.295 19.13 27.919 18.447 28.349 C 18.289 28.448 17.438 27.601 17.175 27.039 C 16.497 25.592 15.97 24.06 15.378 22.564 C 14.997 21.599 15.12 20.882 16.113 20.413 C 16.696 20.137 17.221 19.703 17.755 19.312 C 18.956 18.432 19.957 18.681 20.442 20.124 C 20.735 20.988 20.844 22.873 20.777 22.882 L 20.777 22.882 L 20.777 22.882 L 20.777 22.882 L 20.777 22.882 L 20.777 22.882 L 20.777 22.882 Z  M 6.106 54.018 C 6.877 54.144 7.84 54.749 8.367 55.879 C 8.786 56.784 8.965 57.833 9.194 58.833 C 9.249 59.071 9.146 59.407 9.02 59.635 C 8.619 60.347 8.083 60.986 7.768 61.734 C 7.326 62.774 6.459 62.848 5.994 62.3 C 5.041 61.178 4.124 59.88 3.656 58.468 C 3.45 57.851 4.346 56.754 4.802 55.912 C 5.104 55.358 5.512 54.871 6.106 54.018 L 6.106 54.018 L 6.106 54.018 L 6.106 54.018 L 6.106 54.018 L 6.106 54.018 Z  M 59.988 22.71 C 60.135 23.24 60.087 23.813 59.861 24.313 C 59.757 24.542 59.659 24.723 59.519 24.851 C 58.823 25.491 58.074 26.071 57.307 26.608 C 56.273 27.333 55.312 26.809 55.176 25.474 C 55.126 24.981 55.107 24.479 55.12 23.982 C 55.192 21.749 57.49 19.876 59.135 20.914 C 59.594 21.205 59.789 21.983 59.988 22.71 L 59.988 22.71 L 59.988 22.71 L 59.988 22.71 L 59.988 22.71 Z  M 12.251 65.391 C 12.142 66.243 11.277 66.723 10.588 66.316 C 9.924 65.926 9.258 65.536 8.592 65.155 C 7.941 64.784 7.619 64.203 7.958 63.479 C 8.286 62.776 8.706 61.8 9.258 61.628 C 9.833 61.448 10.782 61.895 11.278 62.4 C 12.123 63.262 12.392 64.284 12.251 65.391 L 12.251 65.391 L 12.251 65.391 L 12.251 65.391 Z  M 125.171 142.325 C 125.267 141.868 125.235 141.326 125.473 140.96 C 128.774 135.885 132.101 130.819 134.124 125.054 C 135.554 120.995 136.991 116.922 138.193 112.794 C 139.563 108.083 140.077 103.256 139.274 98.354 C 139.206 97.952 139.223 97.544 139.202 97.138 C 139.317 97.102 139.434 97.074 139.549 97.038 C 139.857 97.832 140.352 98.601 140.448 99.418 C 141.568 108.854 140.821 118.071 137.021 126.896 C 134.615 132.484 131.018 137.263 126.871 141.656 C 126.783 141.751 126.701 141.878 126.591 141.915 C 126.122 142.067 125.647 142.188 125.171 142.325 L 125.171 142.325 L 125.171 142.325 Z  M 33.112 140.901 C 32.895 141.291 32.671 141.857 32.294 142.285 C 32.047 142.571 31.496 142.887 31.222 142.794 C 28.403 141.82 25.49 141.009 22.843 139.672 C 19.005 137.737 15.492 135.202 12.716 131.861 C 10.758 129.511 9.074 126.942 7.386 124.363 C 14.684 131.88 23.378 137.143 33.112 140.901 L 33.112 140.901 Z " fill-rule="evenodd" fill="rgb(255,127,80)"/><path d=" M 116.081 98.949 C 116.101 98.997 116.12 99.046 116.14 99.095 C 116.904 98.813 117.741 98.647 118.418 98.225 C 120.161 97.139 121.641 95.797 122.728 93.971 C 123.455 92.748 124.1 91.736 122.944 90.479 C 122.8 90.323 122.764 90.066 122.68 89.855 C 122.132 88.48 121.011 88.117 119.825 89.044 C 117.949 90.511 116.121 92.041 114.305 93.582 C 114.03 93.816 113.792 94.243 113.769 94.596 C 113.7 95.611 113.7 96.638 113.765 97.654 C 113.846 98.924 114.171 99.157 115.403 99.017 C 115.629 98.992 115.855 98.971 116.081 98.949 Z  M 33.461 102.485 C 33.448 102.486 33.435 102.486 33.422 102.487 C 33.407 102.149 33.452 101.794 33.363 101.476 C 33.129 100.634 33.147 99.622 32.028 99.31 C 29.801 98.69 27.59 98.005 25.347 97.451 C 23.375 96.964 23.359 97.027 22.547 98.879 C 21.444 101.397 21.494 101.563 23.855 103.048 C 24.109 103.208 24.383 103.353 24.667 103.447 C 26.736 104.136 28.783 104.921 30.896 105.434 C 31.746 105.641 32.767 105.318 33.648 105.038 C 33.784 104.994 33.587 103.89 33.539 103.277 C 33.519 103.012 33.487 102.749 33.461 102.485 Z  M 31.671 93.427 C 31.511 91.839 31.392 90.419 31.219 89.005 C 31.034 87.501 31.196 87.306 32.706 87.671 C 34.766 88.169 36.801 88.772 38.862 89.263 C 44.43 90.588 50.015 91.88 55.76 92.09 C 59.162 92.215 62.574 92.038 65.979 92.105 C 70.842 92.201 75.47 90.845 80.152 89.879 C 85.827 88.708 91.43 87.187 97.112 86.061 C 101.032 85.284 104.63 83.615 108.42 82.501 C 109.756 82.108 111.081 81.676 112.492 81.236 C 112.674 82.323 112.834 83.321 113.01 84.315 C 113.172 85.224 113.668 85.407 114.482 85.017 C 115.914 84.329 117.342 83.627 118.81 83.024 C 119.849 82.597 120.933 82.221 122.032 82.032 C 122.459 81.959 123.182 82.332 123.433 82.72 C 124.949 85.068 126.425 87.446 127.782 89.888 C 128.186 90.616 128.329 91.587 128.303 92.438 C 128.245 94.323 127.96 96.159 127.181 97.95 C 126.338 99.887 124.932 101.258 123.408 102.567 C 121.712 104.024 120.008 105.481 118.212 106.809 C 117.366 107.434 116.295 107.752 115.331 108.221 C 115.062 108.352 114.68 108.467 114.582 108.692 C 114.183 109.6 113.632 110.533 113.573 111.483 C 113.213 117.307 112.964 123.138 112.694 128.967 C 112.58 131.426 112.6 133.895 112.374 136.343 C 112.259 137.599 111.798 138.839 111.366 140.04 C 111.224 140.435 110.73 140.81 110.31 140.98 C 107.544 142.103 104.796 143.3 101.959 144.212 C 99.383 145.041 96.705 145.559 94.063 146.178 C 89.793 147.179 85.552 148.368 81.232 149.064 C 77.719 149.63 74.104 149.541 70.542 149.831 C 65.71 150.224 60.921 149.916 56.168 149.065 C 52.93 148.486 49.711 147.793 46.494 147.102 C 45.663 146.923 44.878 146.537 44.06 146.285 C 43.028 145.967 42.731 145.09 42.486 144.215 C 41.496 140.672 40.503 137.13 39.581 133.569 C 38.45 129.204 37.355 124.829 36.315 120.442 C 35.861 118.53 35.589 116.575 35.218 114.642 C 34.984 113.426 34.206 113.165 33.137 113.806 C 32.76 114.032 32.181 114.114 31.747 114.02 C 28.221 113.257 24.965 111.915 22.193 109.516 C 20.391 107.957 18.528 106.469 16.672 104.975 C 16.015 104.446 15.886 103.922 16.214 103.108 C 17.829 99.108 19.394 95.087 20.948 91.063 C 21.321 90.098 21.883 89.948 22.808 90.3 C 25.353 91.269 27.922 92.177 30.484 93.101 C 30.792 93.212 31.116 93.276 31.671 93.427 Z " fill="rgb(23,23,23)"/><path d=" M 105.979 62.667 C 106.538 62.359 107.022 62.062 107.531 61.818 C 108.587 61.311 109.24 61.554 109.721 62.604 C 110.459 64.215 111.175 65.837 111.935 67.437 C 112.231 68.06 112.105 68.421 111.554 68.863 C 108.565 71.253 105.202 72.779 101.555 73.965 C 97.432 75.306 93.509 77.253 89.446 78.796 C 87.352 79.591 85.173 80.23 82.978 80.681 C 78.301 81.642 73.605 82.54 68.886 83.267 C 63.83 84.046 58.739 84.608 53.66 85.241 C 52.891 85.337 52.107 85.32 51.329 85.336 C 49.986 85.363 48.639 85.448 47.301 85.377 C 44.046 85.206 40.796 84.926 37.541 84.757 C 35.806 84.668 34.064 84.703 32.325 84.715 C 31.469 84.721 31.003 84.479 30.978 83.496 C 30.956 82.641 30.597 81.797 30.559 80.94 C 30.501 79.633 30.543 78.315 30.66 77.013 C 30.685 76.738 31.186 76.395 31.531 76.291 C 31.947 76.165 32.429 76.262 32.883 76.26 C 34.093 76.255 35.087 75.981 35.968 74.951 C 37.901 72.69 40.52 71.282 43.155 70.04 C 47.67 67.913 52.242 65.892 56.877 64.044 C 57.87 63.648 58.984 63.422 59.938 62.88 C 60.222 62.719 60.532 62.142 60.448 61.874 C 59.866 60.007 59.213 58.16 58.524 56.329 C 57.96 54.833 58.052 54.498 59.471 53.757 C 62.864 51.985 66.393 50.607 70.224 50.152 C 71.122 50.045 72.037 50.079 72.941 50.017 C 73.606 49.971 74.285 49.944 74.927 49.785 C 76.439 49.409 77.993 50.625 78.109 52.162 C 78.247 53.987 77.883 55.86 78.731 57.635 C 79.139 58.489 79.635 58.694 80.513 58.594 C 82.352 58.384 84.222 58.029 86.045 58.171 C 89.149 58.413 92.238 58.924 95.31 59.452 C 97.794 59.878 100.241 60.509 102.71 61.023 C 104.618 61.42 104.622 61.402 105.979 62.667 Z " fill="rgb(23,23,23)"/></g></g></svg>