<?xml version="1.0" encoding="UTF-8" standalone="no"?>
<!-- Generator: Gravit.io -->
<svg xmlns="http://www.w3.org/2000/svg" xmlns:xlink="http://www.w3.org/1999/xlink" style="isolation:isolate" viewBox="0 0 24 24" width="24pt" height="24pt"><defs><clipPath id="_clipPath_uUqLlRZIMcDBkvPiyAesQ20RC0O4l6gs"><rect width="24" height="24"/></clipPath></defs><g clip-path="url(#_clipPath_uUqLlRZIMcDBkvPiyAesQ20RC0O4l6gs)"><path d=" M 12 6.5 C 13.381 6.5 14.5 7.619 14.5 9 C 14.5 10.381 13.381 11.5 12 11.5 C 10.619 11.5 9.5 10.381 9.5 9 C 9.5 7.619 10.619 6.5 12 6.5 Z  M 12 2 C 15.866 2 19 5.134 19 9 C 19 14.25 12 22 12 22 C 12 22 5 14.25 5 9 C 5 5.134 8.134 2 12 2 Z  M 12 4 C 9.239 4 7 6.239 7 9 C 7 10 7 12 12 18.71 C 17 12 17 10 17 9 C 17 6.239 14.761 4 12 4 Z " fill="rgb(255,127,80)"/></g></svg>