<?xml version="1.0" encoding="UTF-8" standalone="no"?>
<!-- Generator: Gravit.io -->
<svg xmlns="http://www.w3.org/2000/svg" xmlns:xlink="http://www.w3.org/1999/xlink" style="isolation:isolate" viewBox="0 0 24 24" width="24pt" height="24pt"><defs><clipPath id="_clipPath_Q7Z3vRFinjltswoeP35vrrHS2r8o7gR8"><rect width="24" height="24"/></clipPath></defs><g clip-path="url(#_clipPath_Q7Z3vRFinjltswoeP35vrrHS2r8o7gR8)"><path d=" M 15 12 L 17 12 C 17 9.239 14.761 7 12 7 L 12 9 C 13.657 9 15 10.343 15 12 Z  M 19 12 L 21 12 C 21 7 16.97 3 12 3 L 12 5 C 15.86 5 19 8.13 19 12 Z  M 20 15.5 C 18.75 15.5 17.55 15.3 16.43 14.93 C 16.08 14.82 15.69 14.9 15.41 15.18 L 13.21 17.38 C 10.38 15.94 8.06 13.62 6.62 10.79 L 8.82 8.59 C 9.1 8.31 9.18 7.92 9.07 7.57 C 8.7 6.45 8.5 5.25 8.5 4 C 8.5 3.448 8.052 3 7.5 3 L 4 3 C 3.448 3 3 3.448 3 4 C 3 13.389 10.611 21 20 21 C 20.552 21 21 20.552 21 20 L 21 16.5 C 21 15.948 20.552 15.5 20 15.5 Z " fill="rgb(252,54,58)"/></g></svg>