<?xml version="1.0" encoding="UTF-8" standalone="no"?>
<!-- Generator: Gravit.io -->
<svg xmlns="http://www.w3.org/2000/svg" xmlns:xlink="http://www.w3.org/1999/xlink" style="isolation:isolate" viewBox="0 0 24 24" width="24pt" height="24pt"><defs><clipPath id="_clipPath_c2BjpULcTSrXxnxCmpVrKFm43UZy4JwU"><rect width="24" height="24"/></clipPath></defs><g clip-path="url(#_clipPath_c2BjpULcTSrXxnxCmpVrKFm43UZy4JwU)"><path d=" M 12.04 2 C 6.58 2 2.13 6.45 2.13 11.91 C 2.13 13.66 2.59 15.36 3.45 16.86 L 2.05 22 L 7.3 20.62 C 8.75 21.41 10.38 21.83 12.04 21.83 C 17.5 21.83 21.95 17.38 21.95 11.92 C 21.95 9.27 20.92 6.78 19.05 4.91 C 17.18 3.03 14.69 2 12.04 2 Z  M 12.05 3.67 C 14.25 3.67 16.31 4.53 17.87 6.09 C 19.42 7.65 20.28 9.72 20.28 11.92 C 20.28 16.46 16.58 20.15 12.04 20.15 C 10.56 20.15 9.11 19.76 7.85 19 L 7.55 18.83 L 4.43 19.65 L 5.26 16.61 L 5.06 16.29 C 4.24 15 3.8 13.47 3.8 11.91 C 3.81 7.37 7.5 3.67 12.05 3.67 Z  M 8.53 7.33 C 8.37 7.33 8.1 7.39 7.87 7.64 C 7.65 7.89 7 8.5 7 9.71 C 7 10.93 7.89 12.1 8 12.27 C 8.14 12.44 9.76 14.94 12.25 16 C 12.84 16.27 13.3 16.42 13.66 16.53 C 14.25 16.72 14.79 16.69 15.22 16.63 C 15.7 16.56 16.68 16.03 16.89 15.45 C 17.1 14.87 17.1 14.38 17.04 14.27 C 16.97 14.17 16.81 14.11 16.56 14 C 16.31 13.86 15.09 13.26 14.87 13.18 C 14.64 13.1 14.5 13.06 14.31 13.3 C 14.15 13.55 13.67 14.11 13.53 14.27 C 13.38 14.44 13.24 14.46 13 14.34 C 12.74 14.21 11.94 13.95 11 13.11 C 10.26 12.45 9.77 11.64 9.62 11.39 C 9.5 11.15 9.61 11 9.73 10.89 C 9.84 10.78 10 10.6 10.1 10.45 C 10.23 10.31 10.27 10.2 10.35 10.04 C 10.43 9.87 10.39 9.73 10.33 9.61 C 10.27 9.5 9.77 8.26 9.56 7.77 C 9.36 7.29 9.16 7.35 9 7.34 C 8.86 7.34 8.7 7.33 8.53 7.33 Z " fill="rgb(37,211,102)"/></g></svg>