<?xml version="1.0" encoding="UTF-8" standalone="no"?>
<!-- Generator: Gravit.io -->
<svg xmlns="http://www.w3.org/2000/svg" xmlns:xlink="http://www.w3.org/1999/xlink" style="isolation:isolate" viewBox="0 0 1280 720" width="1280pt" height="720pt"><defs><clipPath id="_clipPath_hw7HvMkNbsmGw99lIG8ENNB41y8SZQGT"><rect width="1280" height="720"/></clipPath></defs><g clip-path="url(#_clipPath_hw7HvMkNbsmGw99lIG8ENNB41y8SZQGT)"><rect width="1280" height="720" style="fill:rgb(0,0,0)" fill-opacity="0"/><g opacity="0.33"><path d=" M 7.627 -64.393 L 1374.238 -92.289 L 1375.983 2.306 L 1368.857 2.451 L 1334.573 696.983 L 1370.385 696.251 L 1372.132 790.846 L 1372.132 790.846 L 1329.897 791.709 L 1329.872 792.216 L 1323.006 791.85 L -54.695 820 L -56.442 725.405 L -52.133 725.317 L -83.772 -80.535 L 6.84 -84.438 L 7.627 -64.393 Z  M 11.339 30.162 L 1277.958 4.307 L 1243.674 698.84 L 38.56 723.464 L 11.339 30.162 Z " fill-rule="evenodd" fill="rgb(255,255,255)"/></g><path d=" M -77.317 710.152 L -91.881 -13.394 L -91.881 -13.394 L -50.915 -14.219 L -51.194 -73.457 L 1452.789 -80.542 L 1453.194 5.457 L 1364.161 5.876 L 1369.917 716.97 L 1376.388 717.001 L 1375.983 803 L 18.443 796.604 L 18.462 797.549 L -75.519 799.441 L -75.585 796.161 L -128 795.914 L -127.595 709.915 L -77.317 710.152 Z  M 16.711 710.595 L 2.655 12.291 L 1270.162 6.319 L 1270.162 6.319 L 1275.911 716.528 L 16.711 710.595 Z " fill-rule="evenodd" fill="rgb(255,255,255)"/></g></svg>