<?xml version="1.0" encoding="UTF-8" standalone="no"?><!-- Generator: Gravit.io --><svg xmlns="http://www.w3.org/2000/svg" xmlns:xlink="http://www.w3.org/1999/xlink" style="isolation:isolate" viewBox="0 0 200 200" width="200pt" height="200pt"><defs><clipPath id="_clipPath_PknejrcssPuct2rNh31kGVRrsXd5RjMu"><rect width="200" height="200"/></clipPath></defs><g clip-path="url(#_clipPath_PknejrcssPuct2rNh31kGVRrsXd5RjMu)"><rect width="200" height="200" style="fill:rgb(0,0,0)" fill-opacity="0"/><g><defs><filter id="7hVVAfF2bLUWhyFyTCzyGTGNTlSri5Dt" x="-200%" y="-200%" width="400%" height="400%" filterUnits="objectBoundingBox" color-interpolation-filters="sRGB"><feGaussianBlur xmlns="http://www.w3.org/2000/svg" in="SourceGraphic" stdDeviation="2.146804531419514"/><feOffset xmlns="http://www.w3.org/2000/svg" dx="5" dy="5" result="pf_100_offsetBlur"/><feFlood xmlns="http://www.w3.org/2000/svg" flood-color="#000000" flood-opacity="0.25"/><feComposite xmlns="http://www.w3.org/2000/svg" in2="pf_100_offsetBlur" operator="in" result="pf_100_dropShadow"/><feBlend xmlns="http://www.w3.org/2000/svg" in="SourceGraphic" in2="pf_100_dropShadow" mode="normal"/></filter></defs><g filter="url(#7hVVAfF2bLUWhyFyTCzyGTGNTlSri5Dt)"><linearGradient id="_lgradient_0" x1="0.4999979247334247" y1="-3.301902740115992e-8" x2="1.499995636289709" y2="16331201980073302" gradientTransform="matrix(189.924,0,0,192.011,1.076,1)" gradientUnits="userSpaceOnUse"><stop offset="0%" stop-opacity="1" style="stop-color:rgb(74,193,75)"/><stop offset="10%" stop-opacity="1" style="stop-color:rgb(67,187,73)"/><stop offset="20%" stop-opacity="1" style="stop-color:rgb(60,181,72)"/><stop offset="30.000000000000004%" stop-opacity="1" style="stop-color:rgb(54,175,70)"/><stop offset="40%" stop-opacity="1" style="stop-color:rgb(47,169,68)"/><stop offset="50%" stop-opacity="1" style="stop-color:rgb(40,163,67)"/><stop offset="60%" stop-opacity="1" style="stop-color:rgb(33,157,65)"/><stop offset="70%" stop-opacity="1" style="stop-color:rgb(26,151,63)"/><stop offset="80%" stop-opacity="1" style="stop-color:rgb(20,145,61)"/><stop offset="89.99999999999999%" stop-opacity="1" style="stop-color:rgb(13,139,60)"/><stop offset="99.99999999999999%" stop-opacity="1" style="stop-color:rgb(6,133,58)"/></linearGradient><path d=" M 97.756 1 C 46.273 1 4.527 42.876 4.527 94.533 C 4.527 112.21 9.419 128.731 17.911 142.834 L 1.076 193.011 L 52.693 176.437 C 66.054 183.846 81.415 188.069 97.756 188.069 C 149.258 188.069 191 146.193 191 94.533 C 191 42.876 149.258 1 97.756 1 L 97.756 1 Z " fill-rule="evenodd" fill="url(#_lgradient_0)"/></g><g><linearGradient id="_lgradient_1" x1="0.4999979247334247" y1="-3.301902740115992e-8" x2="1.499995636289709" y2="16331201980073302" gradientTransform="matrix(171.566,0,0,170.786,13.013,6.591)" gradientUnits="userSpaceOnUse"><stop offset="0%" stop-opacity="1" style="stop-color:rgb(74,193,75)"/><stop offset="10%" stop-opacity="1" style="stop-color:rgb(67,187,73)"/><stop offset="20%" stop-opacity="1" style="stop-color:rgb(60,181,72)"/><stop offset="30.000000000000004%" stop-opacity="1" style="stop-color:rgb(54,175,70)"/><stop offset="40%" stop-opacity="1" style="stop-color:rgb(47,169,68)"/><stop offset="50%" stop-opacity="1" style="stop-color:rgb(40,163,67)"/><stop offset="60%" stop-opacity="1" style="stop-color:rgb(33,157,65)"/><stop offset="70%" stop-opacity="1" style="stop-color:rgb(26,151,63)"/><stop offset="80%" stop-opacity="1" style="stop-color:rgb(20,145,61)"/><stop offset="89.99999999999999%" stop-opacity="1" style="stop-color:rgb(13,139,60)"/><stop offset="99.99999999999999%" stop-opacity="1" style="stop-color:rgb(6,133,58)"/></linearGradient><path d=" M 13.013 91.988 C 13.013 110.665 19.077 127.974 29.351 142.058 L 29.351 142.058 L 18.639 173.766 L 51.599 163.259 C 65.142 172.173 81.367 177.377 98.801 177.377 L 98.801 177.377 C 146.093 177.377 184.579 139.072 184.579 91.988 L 184.579 91.988 C 184.579 44.893 146.093 6.591 98.801 6.591 L 98.801 6.591 C 51.487 6.591 13.013 44.893 13.013 91.988 Z " fill="url(#_lgradient_1)"/><path d=" M 97.756 1 C 46.273 1 4.527 42.876 4.527 94.533 C 4.527 112.21 9.419 128.731 17.911 142.834 L 1.076 193.011 L 52.693 176.437 C 66.054 183.846 81.415 188.069 97.756 188.069 C 149.258 188.069 191 146.193 191 94.533 C 191 42.876 149.258 1 97.756 1 Z  M 97.756 172.401 C 82.001 172.401 67.314 167.655 55.06 159.52 L 25.236 169.104 L 34.931 140.186 C 25.638 127.347 20.152 111.58 20.152 94.533 C 20.152 51.596 54.969 16.668 97.756 16.668 C 140.559 16.668 175.375 51.596 175.375 94.533 C 175.375 137.466 140.559 172.401 97.756 172.401 Z  M 141.474 115.788 C 139.138 114.504 127.658 108.286 125.509 107.41 C 123.356 106.53 121.781 106.073 120.1 108.406 C 118.43 110.727 113.661 115.938 112.224 117.475 C 110.772 119.02 109.378 119.169 107.034 117.882 C 104.709 116.599 97.128 113.786 88.344 105.312 C 81.507 98.718 77.021 90.72 75.726 88.28 C 74.416 85.84 75.715 84.591 76.948 83.453 C 78.059 82.416 79.434 80.744 80.679 79.399 C 81.913 78.05 82.349 77.07 83.204 75.506 C 84.058 73.946 83.709 72.54 83.158 71.318 C 82.61 70.107 78.289 58.175 76.489 53.321 C 74.681 48.471 72.67 49.19 71.283 49.136 C 69.892 49.09 68.314 48.829 66.728 48.767 C 65.135 48.71 62.538 49.209 60.274 51.515 C 57.998 53.821 51.632 59.366 51.195 71.118 C 50.755 82.862 58.86 94.533 59.99 96.166 C 61.12 97.807 75.462 123.274 99.288 133.742 C 123.134 144.214 123.26 141.024 127.627 140.786 C 132.009 140.555 141.926 135.533 144.121 130.041 C 146.313 124.542 146.489 119.765 145.933 118.747 C 145.374 117.728 143.807 117.071 141.474 115.788 Z " fill-rule="evenodd" fill="rgb(255,255,255)"/></g></g></g></svg>