<?xml version="1.0" encoding="UTF-8" standalone="no"?><!-- Generator: Gravit.io --><svg xmlns="http://www.w3.org/2000/svg" xmlns:xlink="http://www.w3.org/1999/xlink" style="isolation:isolate" viewBox="0 0 208.676 208.676" width="208.676pt" height="208.676pt"><defs><clipPath id="_clipPath_qBiRAYMczsFSkMhy3nGSg1sm2r6goTTe"><rect width="208.676" height="208.676"/></clipPath></defs><g clip-path="url(#_clipPath_qBiRAYMczsFSkMhy3nGSg1sm2r6goTTe)"><rect width="208.676" height="208.676" style="fill:rgb(0,0,0)" fill-opacity="0"/><g><path d=" M 104.338 208.676 C 46.714 208.676 0 161.962 0 104.338 C 0 46.714 46.714 0 104.338 0 C 161.962 0 208.676 46.714 208.676 104.338 C 208.676 161.962 161.962 208.676 104.338 208.676 L 104.338 208.676 Z " fill="rgb(255,243,173)"/><g><path d=" M 112.457 71.843 C 113.045 74.076 113.388 76.544 114.377 78.385 L 117.491 83.507 L 121.506 87.522 L 126.178 90.852 L 130.849 93.075 L 136.862 94.857 L 140.877 95.298 L 147.106 96.18 L 154.647 95.141 L 160.229 93.281 L 165.126 89.951 L 170.473 84.829 L 173.137 79.932 L 175.369 75.261 L 174.811 79.717 L 174.028 83.272 L 172.461 87.287 L 169.572 91.733 C 167.985 93.829 166.262 95.651 164.45 97.316 L 161.336 99.539 L 155.332 102.653 L 151.288 103.632 L 146.881 104.22 L 140.652 104.641 L 133.082 102.878 L 126.883 101.037 L 120.909 97.345 C 119.44 96.023 118.108 94.407 116.404 92.644 C 114.641 90.568 113.779 88.492 112.624 86.416 C 111.938 84.281 111.781 81.872 111.507 79.521 L 111.507 76.191 L 112.487 71.882 L 112.457 71.843 L 112.457 71.843 Z  M 109.343 51.659 L 112.81 45.45 L 117.706 39.888 L 121.261 36.333 L 127.49 31.877 L 132.837 29.428 C 135.06 29.056 137.538 28.224 139.673 28.185 L 143.884 28.057 L 150.348 28.919 L 157.438 31.328 L 161.884 33.845 C 164.94 35.755 166.908 37.439 169.17 39.182 L 174.694 45.254 L 178.102 50.445 C 180.109 54.529 181.755 58.603 182.998 62.686 L 184.027 69.933 L 183.488 77.572 L 180.687 86.308 L 176.574 93.751 L 170.502 100.587 L 163.196 105.581 C 160.063 107.51 156.997 108.402 152.639 109.616 C 148.683 110.204 144.511 110.008 140.398 110.184 L 131.29 108.656 C 127.843 107.677 124.65 106.443 121.722 104.876 C 118.176 102.868 115.16 100.498 112.369 97.982 C 110.459 96.121 109.314 94.182 107.962 92.252 C 106.238 89.442 105.416 86.2 104.172 83.066 C 103.447 79.658 103.124 76.25 103.251 72.832 L 104.299 65.811 C 104.789 63.597 105.406 61.227 106.238 58.593 L 109.353 51.669 L 109.343 51.659 L 109.343 51.659 Z  M 152.414 35.001 L 156.429 34.119 L 157.095 33.894 C 157.36 33.698 157.291 33.209 157.095 32.562 L 153.981 31.446 L 147.321 30.78 L 143.531 30.78 L 140.417 31.446 L 139.751 32.327 C 140.73 33.502 141.974 33.581 142.865 34.217 L 147.233 34.824 L 152.424 35.001 L 152.414 35.001 Z " fill-rule="evenodd" fill="rgb(251,185,17)"/><path d=" M 25.659 112.466 C 26.609 114.581 27.353 116.971 28.636 118.606 L 32.554 123.141 L 37.156 126.431 L 42.308 128.948 L 47.302 130.368 L 53.521 131.132 L 57.536 130.916 L 63.824 130.76 L 71.09 128.507 L 76.281 125.765 L 80.56 121.652 L 84.987 115.717 L 86.809 110.448 L 88.229 105.473 L 88.424 109.959 L 88.229 113.582 L 87.347 117.793 L 85.222 122.661 C 84.008 124.982 82.617 127.068 81.109 128.997 L 78.396 131.7 L 72.99 135.764 L 69.171 137.39 L 64.911 138.702 L 58.839 140.142 L 51.102 139.652 L 44.678 138.869 L 38.165 136.224 C 36.5 135.167 34.914 133.776 32.945 132.327 C 30.859 130.564 29.674 128.664 28.186 126.813 C 27.157 124.815 26.619 122.465 25.953 120.193 L 25.404 116.902 L 25.649 112.476 L 25.659 112.466 L 25.659 112.466 Z  M 19.264 93.075 L 21.654 86.386 L 25.571 80.089 L 28.489 75.976 L 33.905 70.56 L 38.763 67.27 C 40.897 66.535 43.199 65.311 45.304 64.919 L 49.447 64.097 L 55.95 63.881 L 63.344 65.096 L 68.142 66.839 C 71.472 68.21 73.695 69.552 76.212 70.903 L 82.676 75.976 L 86.887 80.52 C 89.531 84.212 91.842 87.963 93.742 91.782 L 95.946 98.765 L 96.68 106.384 L 95.358 115.463 L 92.547 123.474 L 87.68 131.21 L 81.295 137.341 C 78.514 139.77 75.654 141.16 71.551 143.06 C 67.751 144.284 63.618 144.794 59.583 145.646 L 50.328 145.655 C 46.773 145.264 43.414 144.559 40.271 143.501 C 36.451 142.1 33.073 140.269 29.909 138.242 C 27.725 136.734 26.266 135.01 24.621 133.326 C 22.466 130.838 21.115 127.773 19.372 124.903 C 18.099 121.652 17.217 118.342 16.767 114.953 L 16.649 107.853 C 16.767 105.601 16.982 103.152 17.364 100.41 L 19.293 93.065 L 19.264 93.075 L 19.264 93.075 Z  M 58.986 69.542 L 62.805 67.975 L 63.432 67.652 C 63.657 67.417 63.5 66.927 63.207 66.33 L 59.955 65.742 L 53.257 66.183 L 49.535 66.809 L 46.578 67.985 L 46.068 68.964 C 47.224 69.943 48.458 69.845 49.447 70.306 L 53.854 70.188 L 59.015 69.503 L 58.986 69.542 Z " fill-rule="evenodd" fill="rgb(251,185,17)"/><path d=" M 125.189 124.149 L 123.494 125.422 L 121.761 126.931 L 119.871 128.723 L 118.265 130.192 L 116.257 132.131 L 114.494 134.305 L 112.682 136.538 L 108.922 142.365 L 106.258 148.858 L 104.936 155.86 L 104.887 161.834 C 105.034 164.145 105.67 166.593 106.356 169.081 L 108.393 174.291 L 110.871 178.796 L 107.384 175.613 L 104.965 172.891 L 102.448 169.287 L 100.127 164.272 C 99.364 161.756 98.521 159.278 98.267 156.859 L 98.149 153.098 L 98.805 146.263 L 100.118 141.072 L 102.174 136.861 L 105.484 131.357 C 106.787 129.369 108.52 127.538 110.724 125.922 C 111.958 124.159 114.484 123.415 116.541 122.298 C 118.128 121.485 120.262 120.996 122.76 120.731 C 124.699 120.31 122.544 120.8 124.973 120.457 C 127.696 120.232 127.402 120.163 129.772 120.428 C 132.142 121.113 128.107 120.957 127.656 122.269 L 126.315 123.405 L 125.198 124.13 L 125.189 124.149 L 125.189 124.149 Z  M 164.43 139.486 L 165.87 146.831 L 165.282 153.392 L 162.08 161.481 L 159.827 165.565 L 158.065 168.582 C 157.056 170.599 156.498 170.736 155.283 172.499 L 152.022 176.005 L 148.085 179.433 L 144.912 181.979 L 141.367 184.172 C 138.037 185.544 138.664 185.798 135.922 186.601 L 130.986 187.874 L 124.523 188.619 C 120.047 187.855 118.921 187.737 114.896 186.366 L 107.747 181.763 L 103.8 178.091 L 99.197 171.999 L 96.533 166.3 L 94.212 158.739 L 94.144 150.493 C 94.437 146.811 94.565 144.177 96.142 139.936 C 98.002 136.391 99.246 133.13 101.528 129.682 L 107.894 121.848 C 110.694 119.625 113.574 118.655 116.57 117.206 C 120.272 115.512 123.073 116.011 126.755 115.247 C 129.37 114.777 132.073 115.658 134.424 115.688 C 137.714 115.942 141.475 118.743 144.756 119.576 C 147.938 120.986 148.673 122.054 151.356 124.159 L 156.214 127.783 C 157.712 129.467 160.386 132.924 162.031 135.128 L 164.479 139.486 L 164.43 139.486 L 164.43 139.486 Z  M 147.321 173.018 L 145.686 176.788 L 145.49 177.454 C 145.49 177.777 145.941 178.022 146.567 178.238 C 147.547 178.336 148.526 177.435 149.505 176.847 C 153.325 172.274 152.247 174.477 154.304 171.216 L 155.969 168.278 L 157.242 165.36 L 156.919 164.302 C 155.401 163.587 154.598 165.183 153.56 165.712 L 150.504 168.895 L 147.321 173.008 L 147.321 173.018 Z " fill-rule="evenodd" fill="rgb(251,185,17)"/></g></g></g></svg>