<?xml version="1.0" encoding="UTF-8" standalone="no"?><!-- Generator: Gravit.io --><svg xmlns="http://www.w3.org/2000/svg" xmlns:xlink="http://www.w3.org/1999/xlink" style="isolation:isolate" viewBox="0 0 208.676 208.666" width="208.676pt" height="208.666pt"><defs><clipPath id="_clipPath_WUb5prISN62yUqtqe0JSuvaCVVsDWh14"><rect width="208.676" height="208.666"/></clipPath></defs><g clip-path="url(#_clipPath_WUb5prISN62yUqtqe0JSuvaCVVsDWh14)"><rect width="208.676" height="208.666" style="fill:rgb(0,0,0)" fill-opacity="0"/><g><path d=" M 104.338 208.666 C 46.714 208.666 0 161.952 0 104.328 C 0 46.704 46.714 0 104.338 0 C 161.962 0 208.676 46.714 208.676 104.328 C 208.676 161.942 161.962 208.666 104.338 208.666 L 104.338 208.666 Z " fill="rgb(209,249,198)"/><path d=" M 119.063 65.037 L 118.54 58.669 L 118.284 53.384 L 118.027 52.034 L 117.329 53.838 L 116.747 55.84 L 116.281 57.761 L 115.955 59.891 L 115.897 61.638 L 116.083 64.082 L 116.281 68.715 L 116.165 73.278 L 115.967 80.03 L 116.479 79.96 L 116.421 83.173 L 116.677 88.062 L 116.875 91.03 L 117.259 96.432 L 118.225 112.321 L 117.76 124.66 L 117.876 129.363 L 117.818 131.924 L 117.934 143.448 L 118.633 153.611 L 118.959 159.338 L 119.285 162.423 L 120.449 179.674 L 120.647 181.653 L 120.391 184.098 L 120.065 185.448 L 119.995 186.67 L 121.415 185.576 L 122.579 184.354 L 123.161 183.457 L 123.743 182.41 L 124.441 180.082 L 125.082 176.24 L 125.664 166.578 L 125.664 159.827 L 125.338 151.597 L 124.872 142.983 L 124.558 137.197 L 124.046 130.05 L 123.778 127.605 L 123.778 121.366 L 123.662 116.36 L 123.475 110.831 L 123.01 86.13 L 123.01 78.54 L 122.754 76.235 L 122.428 73.464 L 122.172 70.554 L 122.172 68.436 L 121.915 66.887 L 121.659 66.119 L 121.333 65.654 L 120.891 65.537 L 120.193 65.339 L 119.808 65.339 L 119.04 65.025 L 119.063 65.037 L 119.063 65.037 L 119.063 65.037 L 119.063 65.037 L 119.063 65.037 L 119.063 65.037 Z  M 88.565 55.654 L 91.394 57.133 L 93.908 58.157 L 95.444 58.623 L 97.249 58.739 L 98.343 58.157 L 98.459 56.935 L 97.947 55.538 L 98.133 55.154 L 99.763 57.214 L 102.01 60.299 L 105.933 65.956 L 108.051 69.309 L 111.02 73.546 L 112.044 76.316 L 112.882 78.959 L 113.208 81.206 L 113.72 81.403 L 113.72 84.104 L 113.907 86.735 L 114.174 93.684 L 113.709 107.257 L 113.197 124.951 L 113.895 135.125 L 115.117 155.52 L 115.699 165.554 L 115.955 177.835 L 115.443 184.272 L 113.837 189.045 L 112.615 190.977 L 110.752 192.514 L 108.11 193.794 L 106.131 194.435 L 103.36 194.435 L 101.172 193.468 L 98.145 191.094 L 95.817 187.485 L 94.024 182.154 L 93.559 176.298 L 93.675 171.596 L 93.791 164.588 L 94.117 161.049 L 94.63 151.201 L 96.027 139.944 L 97.575 127.396 L 98.413 118.13 L 98.599 112.985 L 98.669 110.738 L 98.669 108.608 L 98.553 105.581 L 99.193 110.144 L 99.449 114.521 L 100.497 124.369 L 101.521 135.684 L 102.301 144.822 L 102.999 153.902 L 103.325 157.51 L 103.325 166.776 L 103.255 172.247 L 102.941 177.835 L 103.523 178.743 L 104.175 179.127 L 105.013 179.057 L 105.712 178.615 L 105.653 178.149 L 106.119 168.755 L 105.979 163.168 L 106.049 160.665 L 105.537 151.003 L 104.629 139.595 L 103.674 129.305 L 101.742 110.005 L 100.904 99.458 L 100.066 91.868 L 99.949 91.286 L 99.693 91.217 L 100.462 82.602 L 101.044 82.789 L 100.846 82.148 L 100.531 81.182 L 100.59 79.634 L 100.403 76.607 L 100.403 74.931 L 100.147 72.37 L 99.239 69.285 L 98.145 66.643 L 96.352 63.616 L 94.024 60.532 L 91.836 58.471 L 90.357 57.121 L 88.553 55.643 L 88.565 55.654 L 88.565 55.654 L 88.565 55.654 L 88.565 55.654 L 88.565 55.654 Z  M 89.228 180.664 L 88.996 173.062 L 89.438 161.654 L 92.581 141.074 L 95.491 122.495 L 96.166 115.557 L 96.166 108.619 L 96.609 81.997 L 95.27 76.852 L 94.152 75.059 L 92.755 72.894 L 90.858 70.659 L 87.948 68.424 L 88.949 71.218 L 90.066 73.127 L 91.196 75.245 L 91.196 77.492 L 91.312 79.506 L 91.079 81.625 L 90.614 83.196 L 90.963 84.314 L 91.312 87.573 L 91.428 91.822 L 91.778 98.876 L 91.894 104.929 L 91.545 112.647 L 91.545 116 L 90.09 130.55 L 89.089 137.267 L 88.53 144.426 L 88.064 148.011 L 87.738 157.289 L 87.506 164.902 L 87.273 169.605 L 87.506 174.529 L 87.855 177.439 L 88.53 179.884 L 89.263 180.699 L 89.228 180.664 L 89.228 180.664 L 89.228 180.664 L 89.228 180.664 Z  M 154.253 35.912 L 153.997 33.816 L 153.322 32.454 L 152.274 31.022 L 151.285 30.289 L 150.167 29.672 L 148.247 29.3 L 143.614 29.23 L 140.704 28.927 L 139.842 28.555 L 140.89 29.602 L 141.565 30.72 L 142.38 32.326 L 142.636 33.991 L 142.566 35.737 L 142.007 36.971 L 141.821 37.972 L 142.194 39.136 L 143.555 40.009 L 145.348 40.824 L 147.513 41.255 L 151.355 40.696 L 152.961 39.648 L 153.823 38.601 L 154.137 37.436 L 154.253 35.946 L 154.253 35.912 L 154.253 35.912 L 154.253 35.912 Z  M 79.287 36.284 L 81.208 35.539 L 82.023 34.491 L 82.512 33.502 L 82.628 32.198 L 82.395 30.836 L 81.836 29.172 L 81.091 26.518 L 80.719 25.353 L 80.661 23.433 L 81.15 22.071 L 82.139 21.454 L 83.443 20.895 L 84.863 20.581 L 86.469 20.697 L 87.96 21.314 L 89.38 22.304 L 90.8 23.049 L 92.662 23.794 L 94.583 23.677 L 95.945 23.118 L 97.365 22.013 L 99.158 19.847 L 100.322 18.299 L 101.742 16.937 L 103.174 16.076 L 105.083 15.762 L 106.876 15.994 L 110.217 17.24 L 112.195 17.787 L 114.058 18.043 L 115.338 18.043 L 117.317 17.298 L 119.483 16.553 L 122.334 15.994 L 124.313 16.111 L 126.351 16.926 L 128.446 18.043 L 129.994 19.65 L 131.903 22.187 L 133.323 24.399 L 134.569 26.867 L 133.323 26.634 L 129.552 26.518 L 127.456 26.634 L 125.536 26.867 L 123.44 27.309 L 120.914 28.24 L 118.935 29.055 L 118.121 29.986 L 117.69 31.348 L 117.69 32.512 L 118.062 33.874 L 118.935 36.598 L 115.711 35.295 L 112.987 34.061 L 109.774 32.512 L 106.317 31.151 L 104.082 30.406 L 100.997 29.917 L 98.762 30.033 L 96.783 31.081 L 95.247 32.629 L 94.618 34.794 L 94.129 38.31 L 93.512 41.162 L 92.464 43.699 L 91.102 44.246 L 89.24 44.013 L 87.028 42.966 L 84.002 40.87 L 80.777 37.844 L 79.299 36.296 L 79.287 36.284 L 79.287 36.284 Z  M 75.97 38.193 L 74.165 41.29 L 73.001 44.642 L 72.582 47.552 L 72.163 50.067 L 71.849 52.255 L 70.918 53.617 L 69.672 55.084 L 68.31 55.806 L 65.796 57.482 L 63.398 58.11 L 59.952 59.042 L 56.285 59.775 L 53.782 60.392 L 52.001 61.021 L 55.459 62.487 L 58.8 63.651 L 62.559 64.815 L 67.996 66.585 L 72.803 67.516 L 74.689 68.564 L 77.297 72.522 L 78.763 73.686 L 80.323 74.419 L 82.838 74.419 L 84.2 75.141 L 85.445 76.072 L 86.074 77.853 L 85.445 79.832 L 85.445 81.403 L 85.759 82.242 L 86.923 82.975 L 87.447 91.857 L 87.564 114.638 L 86.4 122.903 L 85.142 139.002 L 84.211 148.617 L 83.687 158.977 L 83.687 165.147 L 84.106 174.133 L 85.352 179.674 L 87.331 183.748 L 89.112 185.937 L 89.834 186.251 L 91.929 191.059 L 94.327 194.202 L 97.26 196.39 L 99.554 197.647 L 99.67 197.962 L 102.604 198.381 L 106.794 198.905 L 110.868 198.695 L 112.545 197.531 L 114.64 196.274 L 116.526 193.666 L 118.295 191.455 L 119.343 189.685 C 120.81 188.719 121.764 188.672 123.999 186.333 L 126.351 182.258 L 128.015 177.975 L 129.179 172.434 L 129.598 166.997 L 129.179 157.801 L 128.551 149.129 L 128.027 142.121 L 127.724 135.335 L 127.515 125.824 L 127.922 108.165 L 127.305 93.114 L 127.305 84.535 L 127.096 77.958 L 127.794 77.818 L 128.562 78.517 L 129.982 78.982 L 130.949 79.18 L 131.333 78.796 L 133.079 76.538 L 135.197 74.291 L 136.362 72.813 L 136.618 71.905 L 136.618 71.008 L 136.804 70.368 L 137.898 68.506 L 140.226 66.527 L 142.671 64.85 L 145.511 63.453 L 148.852 62.103 L 151.623 60.473 L 153.671 59.077 L 155.161 57.912 L 155.976 57.016 L 156.675 56.12 L 155.51 56.12 L 153.252 55.724 L 151.39 55.142 L 150.226 54.362 L 149.702 53.547 L 149.585 52.127 L 150.552 50.067 L 152.612 47.238 L 154.358 45.119 L 155.057 43.955 L 155.569 42.989 L 155.825 42.349 L 154.8 42.861 L 153.124 43.373 L 151.064 43.897 L 149.085 44.013 L 147.409 44.13 L 145.08 44.013 L 143.474 43.618 C 143.474 43.618 142.31 42.593 142.31 43.106 C 142.31 43.106 140.506 42.011 140.506 42.011 L 139.225 40.661 L 138.643 38.915 L 138.643 37.239 L 139.155 34.538 L 139.539 32.862 L 139.027 31.698 L 137.933 30.673 L 135.372 29.835 L 132.928 29.509 L 129.808 29.509 L 127.293 29.626 L 125.233 30.01 L 123.487 30.79 L 122.463 32.454 L 122.393 35.015 L 122.719 37.145 L 122.253 38.892 L 121.031 39.357 L 118.97 39.159 L 115.886 38.193 L 112.859 37.169 L 109.25 35.749 L 105.991 34.526 L 103.733 34.014 L 102.126 33.816 L 100.846 33.886 L 98.925 34.398 L 97.703 35.749 L 97.307 37.937 L 96.411 42.768 L 95.712 44.433 L 94.688 45.853 L 93.268 46.947 L 91.661 47.331 L 89.473 47.331 L 87.354 46.749 L 84.712 45.212 L 81.825 43.28 L 79.695 41.348 L 78.146 39.928 L 76.54 38.647 L 75.981 38.181 L 75.97 38.193 L 75.97 38.193 L 75.97 38.193 L 75.97 38.193 L 75.97 38.193 L 75.97 38.193 Z  M 68.089 50.975 L 68.089 47.168 L 68.554 44.142 L 70.999 40.417 L 72.117 38.181 C 72.314 37.716 72.373 37.017 72.314 36.133 C 71.732 35.143 70.976 34.91 70.219 34.596 L 66.948 33.607 C 65.668 33.7 64.224 33.49 63.339 34.049 C 61.302 34.957 61.64 35.388 61.163 35.97 L 59.591 39.788 L 58.474 41.569 L 56.914 42.465 L 54.865 43.012 C 54.749 43.362 54.399 43.688 54.923 43.874 L 56.949 46.12 C 57.95 47.203 58.765 48.39 58.928 49.892 L 58.974 51.918 C 58.811 53.198 58.159 54.199 57.577 55.235 C 57.507 55.317 57.135 55.701 56.46 56.364 L 59.137 55.689 L 62.338 55.014 L 65.19 53.896 L 67.204 52.779 L 68.1 50.986 L 68.089 50.975 Z " fill-rule="evenodd" fill="rgb(31,136,2)"/></g></g></svg>