<?xml version="1.0" encoding="UTF-8" standalone="no"?><!-- Generator: Gravit.io --><svg xmlns="http://www.w3.org/2000/svg" xmlns:xlink="http://www.w3.org/1999/xlink" style="isolation:isolate" viewBox="0 0 208.676 208.676" width="208.676pt" height="208.676pt"><defs><clipPath id="_clipPath_mwCOhGOn9yl50SkSZcJBOCqysKhrGGNw"><rect width="208.676" height="208.676"/></clipPath></defs><g clip-path="url(#_clipPath_mwCOhGOn9yl50SkSZcJBOCqysKhrGGNw)"><rect width="208.676" height="208.676" style="fill:rgb(0,0,0)" fill-opacity="0"/><g><path d=" M 104.338 208.666 C 46.714 208.666 0 161.952 0 104.328 C 0 46.704 46.714 0 104.338 0 C 161.962 0 208.676 46.714 208.676 104.338 C 208.676 161.962 161.962 208.676 104.338 208.676 L 104.338 208.666 Z " fill="rgb(242,197,171)"/><path d=" M 136.25 104.727 L 139.156 98.408 L 142.833 92.985 L 146.36 89.539 L 150.093 86.621 L 154.643 84.288 L 160.697 82.473 L 166.671 81.267 L 171.106 80.658 L 175.357 80.359 L 180.297 80.865 L 183.33 81.784 L 185.248 83.094 L 186.972 84.702 L 188.086 86.31 L 188.684 88.953 L 188.798 91.572 L 188.546 92.629 L 157.331 110.379 L 189.499 94.329 L 190.372 95.248 L 191.441 96.236 L 192.727 97.925 L 193.647 99.649 L 194.152 100.993 L 194.497 102.578 L 194.646 104.221 L 194.301 106.519 L 193.842 108.104 L 193.061 109.942 L 192.084 111.666 L 190.843 113.504 L 189.729 114.94 L 187.776 117.054 L 186.443 118.272 L 183.686 120.638 L 181.193 122.534 L 177.057 125.176 L 173.404 127.244 L 170.244 128.83 L 166.488 130.473 L 162.168 131.966 L 158.859 132.724 L 157.228 132.874 L 155.619 132.989 L 153.574 132.828 L 152.012 132.598 L 150.346 132.219 L 148.91 131.713 L 147.692 131.208 L 144.992 129.645 L 143.407 128.451 L 141.488 126.693 L 140.225 125.222 L 138.685 123.304 L 137.077 120.684 L 136.158 118.938 L 135.698 117.697 L 135.319 116.261 L 135.135 114.974 L 134.963 113.021 L 135.032 111.022 L 135.262 108.679 L 135.836 106.266 L 136.295 104.681 L 136.25 104.727 Z " fill="rgb(157,78,33)"/><path d=" M 112.135 189.777 L 105.759 185.526 L 102.128 179.896 L 100.198 175.221 L 98.613 170.464 L 97.292 165.524 L 96.775 159.206 L 96.235 153.117 L 96.579 148.349 L 97.361 143.638 L 99.291 139.698 L 100.807 136.941 L 102.485 135.332 L 104.438 133.988 L 106.253 133.241 L 108.941 133.195 L 111.526 133.655 L 112.514 134.114 L 122.854 173.75 L 114.352 133.54 L 115.352 132.161 L 116.73 131.242 L 118.66 130.024 L 120.326 129.703 L 121.935 129.473 L 123.463 129.473 L 125.416 129.967 L 127.392 131.081 L 129.253 132.161 L 130.402 133.31 L 131.895 134.631 L 133.446 136.24 L 134.618 137.618 L 136.284 139.962 L 137.203 141.513 L 138.949 144.707 L 140.282 147.545 L 142.511 151.945 L 144.073 156.54 L 144.671 159.872 L 145.394 163.686 L 145.555 168.121 L 145.601 171.51 L 145.417 173.153 L 145.188 174.727 L 144.613 176.68 L 144.073 178.173 L 143.349 179.724 L 142.545 181.034 L 141.799 182.114 L 139.708 184.411 L 138.616 186.02 L 137.088 187.536 L 135.503 188.858 L 133.4 190.351 L 130.896 191.293 L 128.598 191.615 L 126.68 191.845 L 125.186 192.005 L 123.486 192.017 L 121.625 191.982 L 119.786 191.787 L 117.833 191.477 L 114.904 190.615 L 112.146 189.742 L 112.135 189.777 Z " fill="rgb(157,78,33)"/><g><path d=" M 64.716 68.836 L 69.61 56.589 L 75.262 45.974 L 81.409 35.37 L 86.9 27.213 L 94.678 19.435 L 100.572 15.414 L 109.372 12.703 L 119.654 11.347 L 130.603 12.381 L 139.909 17.482 L 147.434 23.387 L 151.604 30.441 L 152.914 38.058 L 152.627 47.042 L 151.076 54.969 L 147.307 62.506 L 143.585 66.734 L 136.543 71.904 L 130.373 76.637 L 120.987 83.323 L 111.796 90.515 L 107.086 97.11 L 100.687 108.552 L 95.402 121.442 L 89.347 130.783 L 82.316 136.987 L 74.619 142.386 L 61.832 146.683 L 49.045 148.751 L 37.292 149.371 L 27.688 148.303 L 21.576 146.499 L 16.808 143.363 L 12.523 137.618 L 10.34 121.879 L 12.523 112.642 L 17.325 101.728 L 22.725 93.973 L 31.227 84.966 L 42.428 77.499 L 49.953 73.65 L 57.271 71.031 L 64.739 68.813 L 64.716 68.836 Z  M 66.198 70.738 L 70.649 59.664 L 75.789 50.066 L 81.378 40.477 L 86.372 33.102 L 93.444 26.069 L 98.804 22.433 L 106.806 19.981 L 116.157 18.756 L 126.113 19.691 L 134.575 24.303 L 141.418 29.642 L 145.21 36.021 L 146.401 42.908 L 146.14 51.032 L 144.729 58.2 L 141.303 65.014 L 137.918 68.837 L 131.514 73.512 L 125.904 77.792 L 117.368 83.838 L 109.011 90.341 L 104.727 96.303 L 98.908 106.65 L 94.103 118.306 L 88.597 126.751 L 82.203 132.361 L 75.204 137.243 L 63.576 141.128 L 51.949 142.998 L 41.261 143.559 L 32.527 142.593 L 26.969 140.962 L 22.634 138.126 L 18.737 132.932 L 16.752 118.7 L 18.737 110.348 L 23.104 100.479 L 28.014 93.467 L 35.745 85.323 L 45.931 78.571 L 52.774 75.091 L 59.429 72.722 L 66.219 70.717 L 66.198 70.738 Z " fill-rule="evenodd" fill="rgb(157,78,33)"/><path d=" M 93.515 26.069 C 113.285 25.829 126.514 36.17 136.515 52.172 C 139.606 56.292 140.62 60.383 141.99 63.121" fill="none" vector-effect="non-scaling-stroke" stroke-width="2" stroke="rgb(157,78,33)" stroke-linejoin="miter" stroke-linecap="square" stroke-miterlimit="3"/><path d=" M 81.378 40.477 C 100.435 39.453 109.014 53.998 120.874 65.858 C 122.073 69.455 126.348 71.375 126.348 74.461" fill="none" vector-effect="non-scaling-stroke" stroke-width="2" stroke="rgb(157,78,33)" stroke-linejoin="miter" stroke-linecap="square" stroke-miterlimit="3"/><path d=" M 71.227 56.589 C 87.318 60.792 99.78 73.718 107.578 87.756 L 108.36 88.929" fill="none" vector-effect="non-scaling-stroke" stroke-width="2" stroke="rgb(157,78,33)" stroke-linejoin="miter" stroke-linecap="square" stroke-miterlimit="3"/><path d=" M 64.851 70.717 C 84.292 73.596 89.641 89.37 101.322 101.051" fill="none" vector-effect="non-scaling-stroke" stroke-width="2" stroke="rgb(157,78,33)" stroke-linejoin="miter" stroke-linecap="square" stroke-miterlimit="3"/><path d=" M 47.963 76.637 C 73.029 80.814 72.785 103.019 84.507 119.43 C 86.071 121.385 88.418 126.468 88.418 126.468" fill="none" vector-effect="non-scaling-stroke" stroke-width="2" stroke="rgb(157,78,33)" stroke-linejoin="miter" stroke-linecap="square" stroke-miterlimit="3"/><path d=" M 36.796 82.174 C 51.497 91.78 55.504 109.119 57.526 125.295 C 57.917 127.251 57.526 140.937 57.526 140.937" fill="none" vector-effect="non-scaling-stroke" stroke-width="2" stroke="rgb(157,78,33)" stroke-linejoin="miter" stroke-linecap="square" stroke-miterlimit="3"/><path d=" M 28.421 92.284 C 38.275 109.432 37.157 124.671 33.282 142.11" fill="none" vector-effect="non-scaling-stroke" stroke-width="2" stroke="rgb(157,78,33)" stroke-linejoin="miter" stroke-linecap="square" stroke-miterlimit="3"/><path d=" M 16.808 112.642 C 41.347 104.849 62.391 88.757 80.206 70.941 C 94.105 57.043 104.376 44.498 111.88 29.492 C 113.942 25.367 114.203 20.13 116.181 18.152" fill="none" vector-effect="non-scaling-stroke" stroke-width="2" stroke="rgb(157,78,33)" stroke-linejoin="miter" stroke-linecap="square" stroke-miterlimit="3"/><path d=" M 21.576 138.126 C 38.946 135.637 48.479 130.938 62.609 122.167 C 81.617 105.875 92.713 88.436 110.316 75.634 C 122.869 66.504 142.381 43.939 142.381 32.62 C 142.381 31.447 142.772 29.101 142.772 29.101" fill="none" vector-effect="non-scaling-stroke" stroke-width="2" stroke="rgb(157,78,33)" stroke-linejoin="miter" stroke-linecap="square" stroke-miterlimit="3"/></g></g></g></svg>