<?xml version="1.0" encoding="UTF-8" standalone="no"?><!-- Generator: Gravit.io --><svg xmlns="http://www.w3.org/2000/svg" xmlns:xlink="http://www.w3.org/1999/xlink" style="isolation:isolate" viewBox="0 0 208.676 208.676" width="208.676pt" height="208.676pt"><defs><clipPath id="_clipPath_LGnnIDsNyP0XBIVZBHmujd0h7jvewzh1"><rect width="208.676" height="208.676"/></clipPath></defs><g clip-path="url(#_clipPath_LGnnIDsNyP0XBIVZBHmujd0h7jvewzh1)"><rect width="208.676" height="208.676" style="fill:rgb(0,0,0)" fill-opacity="0"/><g><path d=" M 104.338 208.676 C 46.714 208.676 0 161.962 0 104.338 C 0 46.714 46.714 0 104.338 0 C 161.962 0 208.676 46.714 208.676 104.338 C 208.676 161.962 161.962 208.676 104.338 208.676 L 104.338 208.676 Z " fill="rgb(193,231,247)"/><g><path d=" M 145.906 118.105 L 144.416 130.455 L 142.847 136.037 C 142.286 138.278 141.412 140.329 140.381 142.313 C 139.372 143.882 137.467 145.159 136.01 146.594 L 128.299 152.198 L 122.359 155.963 L 117.877 158.149 L 108.686 158.238 L 103.509 158.059 C 99.194 158.283 94.431 158.07 89.869 158.059 C 84.983 156.087 80.343 152.534 75.569 149.743 L 67.163 142.817 L 64.552 137.045 L 62.456 127.474 L 61.201 114.44 L 62.254 109.016 L 64.126 105.765 L 66.031 103.49 L 68.228 98.503 L 72.341 88.248 L 74.526 84.92 L 78.113 81.86 L 82.753 79.663 L 84.86 78.094 L 85.98 76.682 L 86.507 75.562 L 87.123 73.286 L 87.908 71.527 L 90.261 71 L 92.727 71.897 L 95.361 73.645 L 97.714 74.172 L 100.247 73.836 L 102.298 73.858 C 102.747 73.992 102.634 74.138 102.702 74.273 C 102.758 74.284 103.038 74.317 103.52 74.385 L 103.856 74.654 L 104.024 74.183 L 104.73 74.205 L 105.145 73.824 L 106.378 73.791 L 108.014 74.015 L 109.314 73.992 L 110.704 74.037 L 111.903 73.768 L 112.878 73.32 L 114.559 72.177 L 115.232 71.908 L 116.128 71.572 L 117.361 71.202 L 118.795 71.258 L 119.916 72.042 L 120.477 73.432 L 120.846 76.122 L 121.609 77.052 L 123.211 78.845 L 126.831 80.638 L 129.05 81.692 L 131.292 83.306 L 132.726 84.796 L 134.385 87.654 L 134.923 88.719 L 136.458 91.801 L 138.319 96.362 L 138.946 98.044 L 140.93 102.56 L 143.127 105.833 L 144.864 108.747 L 145.2 109.677 L 145.906 111.313 L 145.839 118.15 L 145.906 118.105 Z " fill="rgb(7,135,185)"/><path d=" M 145.906 118.105 L 144.416 130.455 L 142.847 136.037 C 142.286 138.278 141.412 140.329 140.381 142.313 C 139.372 143.882 137.467 145.159 136.01 146.594 L 128.299 152.198 L 122.359 155.963 L 117.877 158.149 L 108.686 158.238 L 103.509 158.059 C 99.194 158.283 94.431 158.07 89.869 158.059 C 84.983 156.087 80.343 152.534 75.569 149.743 L 67.163 142.817 L 64.552 137.045 L 62.456 127.474 L 61.201 114.44 L 62.254 109.016 L 64.126 105.765 L 66.031 103.49 L 68.228 98.503 L 72.341 88.248 L 74.526 84.92 L 78.113 81.86 L 82.753 79.663 L 84.86 78.094 L 85.98 76.682 L 86.507 75.562 L 87.123 73.286 L 87.908 71.527 L 90.261 71 L 92.727 71.897 L 95.361 73.645 L 97.714 74.172 L 100.247 73.836 L 102.298 73.858 C 102.747 73.992 102.634 74.138 102.702 74.273 C 102.758 74.284 103.038 74.317 103.52 74.385 L 103.856 74.654 L 104.024 74.183 L 104.73 74.205 L 105.145 73.824 L 106.378 73.791 L 108.014 74.015 L 109.314 73.992 L 110.704 74.037 L 111.903 73.768 L 112.878 73.32 L 114.559 72.177 L 115.232 71.908 L 116.128 71.572 L 117.361 71.202 L 118.795 71.258 L 119.916 72.042 L 120.477 73.432 L 120.846 76.122 L 121.609 77.052 L 123.211 78.845 L 126.831 80.638 L 129.05 81.692 L 131.292 83.306 L 132.726 84.796 L 134.385 87.654 L 134.923 88.719 L 136.458 91.801 L 138.319 96.362 L 138.946 98.044 L 140.93 102.56 L 143.127 105.833 L 144.864 108.747 L 145.2 109.677 L 145.906 111.313 L 145.839 118.15 L 145.906 118.105 Z " fill="rgb(7,135,185)"/><path d=" M 63.566 102.964 L 63.745 102.964 L 64.597 101.843 L 66.748 96.015 L 68.542 90.747 L 59.262 83.653 L 60.943 81.076 L 62.064 77.131 L 62.019 70.675 L 60.943 64.545 L 65.359 62.012 L 71.713 57.047 L 78.505 49.616 L 82.259 42.197 L 83.66 34.688 C 83.47 32.805 83.548 31.416 82.909 28.681 C 82.876 28.479 82.652 27.515 82.259 25.767 L 80.096 29.712 L 77.093 34.598 L 73.237 39.003 L 69.875 42.668 L 65.841 45.952 L 61.985 48.484 L 59.295 49.897 L 59.464 44.551 L 61.526 33.377 L 65 24.456 L 68.351 16.398 L 64.597 19.2 L 58.959 22.786 L 56.157 24.949 L 52.123 28.984 L 48.761 33.298 L 45.656 37.714 L 42.462 44.472 L 39.929 53.393 L 39.178 59.501 L 38.988 64.287 L 39.739 71.235 L 40.859 75.651 L 42.361 80.246 L 43.953 82.97 L 45.746 84.651 L 47.337 85.883 L 49.22 89.167 L 50.341 91.409 L 53.064 96.564 L 55.866 100.15 L 57.749 102.392 L 59.508 104.241 L 60.629 105.328 C 61.268 105.216 61.167 104.947 61.492 105.609 L 63.577 102.952 L 63.566 102.964 Z " fill="rgb(7,135,185)"/><path d=" M 63.566 102.964 L 63.745 102.964 L 64.597 101.843 L 66.748 96.015 L 68.542 90.747 L 59.262 83.653 L 60.943 81.076 L 62.064 77.131 L 62.019 70.675 L 60.943 64.545 L 65.359 62.012 L 71.713 57.047 L 78.505 49.616 L 82.259 42.197 L 83.66 34.688 C 83.47 32.805 83.548 31.416 82.909 28.681 C 82.876 28.479 82.652 27.515 82.259 25.767 L 80.096 29.712 L 77.093 34.598 L 73.237 39.003 L 69.875 42.668 L 65.841 45.952 L 61.985 48.484 L 59.295 49.897 L 59.464 44.551 L 61.526 33.377 L 65 24.456 L 68.351 16.398 L 64.597 19.2 L 58.959 22.786 L 56.157 24.949 L 52.123 28.984 L 48.761 33.298 L 45.656 37.714 L 42.462 44.472 L 39.929 53.393 L 39.178 59.501 L 38.988 64.287 L 39.739 71.235 L 40.859 75.651 L 42.361 80.246 L 43.953 82.97 L 45.746 84.651 L 47.337 85.883 L 49.22 89.167 L 50.341 91.409 L 53.064 96.564 L 55.866 100.15 L 57.749 102.392 L 59.508 104.241 L 60.629 105.328 C 61.268 105.216 61.167 104.947 61.492 105.609 L 63.577 102.952 L 63.566 102.964 Z " fill="rgb(7,135,185)"/><path d=" M 61.358 106.113 L 56.953 104.689 L 53.501 103.546 L 49.982 102.627 L 48.021 102.201 L 46.452 101.91 L 45.387 102.089 L 44.491 102.448 L 43.818 103.008 L 42.585 104.073 L 41.946 104.566 L 41.521 105.384 L 41.588 106.281 L 41.846 107.346 L 42.697 108.691 L 43.908 109.789 L 45.118 110.753 L 47.023 112.21 L 49.411 113.487 L 51.405 114.451 L 53.535 115.415 L 57.906 117.208 L 53.737 117.802 L 49.22 118.475 L 45.41 118.9 L 42.776 119.326 L 41.465 119.965 L 40.456 120.996 L 39.895 122.42 L 39.47 123.921 L 39.503 125.3 L 40.288 126.51 L 41.745 127.407 L 43.538 128.012 L 45.712 128.539 L 47.774 128.797 L 50.352 128.909 L 53.311 128.875 L 55.732 128.651 L 58.399 128.404 L 59.004 128.259 L 57.939 128.651 L 56.258 129.211 L 52.986 130.702 L 49.96 132.764 L 48.424 133.997 L 46.9 135.42 L 45.219 137.348 L 43.941 139.253 L 43.235 140.788 L 43.011 142.671 L 43.684 144.095 L 44.535 145.059 L 45.353 145.585 L 46.317 146.123 L 47.382 146.403 L 48.48 146.179 L 50.049 145.619 L 51.394 144.98 L 53.031 143.971 L 54.936 142.761 L 56.258 142.021 L 57.861 141.304 L 60.136 140.385 L 61.84 139.914 L 62.59 139.69 L 61.414 140.407 L 60.271 141.304 L 58.421 143.019 L 57.603 144.184 L 56.438 146 L 55.429 148.062 L 54.79 149.777 L 54.532 150.808 L 54.644 152.086 L 54.958 153.621 L 56.101 154.63 L 57.032 154.966 L 57.48 155.011 L 58.376 155.437 L 59.385 155.717 L 60.842 155.268 L 62.131 154.338 L 63.812 152.635 L 65.269 151.626 L 68.329 149.777 L 70.324 148.88 L 70.749 148.634 L 69.573 147.715 L 67.869 146.325 L 66.692 145.002 L 65.46 143.411 L 64.563 141.988 L 62.792 137.841 L 61.974 135.151 L 60.764 129.996 L 60.584 128.36 L 59.464 120.705 L 59.217 117.04 L 59.363 112.198 L 59.542 111.078 L 59.721 110.786 L 59.677 110.473 L 59.789 109.262 L 60.573 107.547 L 61.1 106.483 L 61.324 106.057 L 61.358 106.113 Z " fill="rgb(7,135,185)"/><path d=" M 61.358 106.113 L 56.953 104.689 L 53.501 103.546 L 49.982 102.627 L 48.021 102.201 L 46.452 101.91 L 45.387 102.089 L 44.491 102.448 L 43.818 103.008 L 42.585 104.073 L 41.946 104.566 L 41.521 105.384 L 41.588 106.281 L 41.846 107.346 L 42.697 108.691 L 43.908 109.789 L 45.118 110.753 L 47.023 112.21 L 49.411 113.487 L 51.405 114.451 L 53.535 115.415 L 57.906 117.208 L 53.737 117.802 L 49.22 118.475 L 45.41 118.9 L 42.776 119.326 L 41.465 119.965 L 40.456 120.996 L 39.895 122.42 L 39.47 123.921 L 39.503 125.3 L 40.288 126.51 L 41.745 127.407 L 43.538 128.012 L 45.712 128.539 L 47.774 128.797 L 50.352 128.909 L 53.311 128.875 L 55.732 128.651 L 58.399 128.404 L 59.004 128.259 L 57.939 128.651 L 56.258 129.211 L 52.986 130.702 L 49.96 132.764 L 48.424 133.997 L 46.9 135.42 L 45.219 137.348 L 43.941 139.253 L 43.235 140.788 L 43.011 142.671 L 43.684 144.095 L 44.535 145.059 L 45.353 145.585 L 46.317 146.123 L 47.382 146.403 L 48.48 146.179 L 50.049 145.619 L 51.394 144.98 L 53.031 143.971 L 54.936 142.761 L 56.258 142.021 L 57.861 141.304 L 60.136 140.385 L 61.84 139.914 L 62.59 139.69 L 61.414 140.407 L 60.271 141.304 L 58.421 143.019 L 57.603 144.184 L 56.438 146 L 55.429 148.062 L 54.79 149.777 L 54.532 150.808 L 54.644 152.086 L 54.958 153.621 L 56.101 154.63 L 57.032 154.966 L 57.48 155.011 L 58.376 155.437 L 59.385 155.717 L 60.842 155.268 L 62.131 154.338 L 63.812 152.635 L 65.269 151.626 L 68.329 149.777 L 70.324 148.88 L 70.749 148.634 L 69.573 147.715 L 67.869 146.325 L 66.692 145.002 L 65.46 143.411 L 64.563 141.988 L 62.792 137.841 L 61.974 135.151 L 60.764 129.996 L 60.584 128.36 L 59.464 120.705 L 59.217 117.04 L 59.363 112.198 L 59.542 111.078 L 59.721 110.786 L 59.677 110.473 L 59.789 109.262 L 60.573 107.547 L 61.1 106.483 L 61.324 106.057 L 61.358 106.113 Z " fill="rgb(7,135,185)"/><path d=" M 31.535 94.816 L 31.949 95.802 L 32.913 97.438 L 33.967 99.198 L 34.931 100.431 L 35.962 101.832 L 36.69 102.616 L 37.295 103.064 L 38.192 103.513 L 38.92 103.602 L 39.929 103.602 L 40.882 103.132 L 41.846 102.168 L 42.384 100.845 L 42.451 99.613 L 41.913 97.618 L 40.904 96.497 L 38.954 94.031 L 36.757 90.893 L 35.267 88.652 L 34.37 87.251 L 33.306 86.242 L 32.543 85.749 L 31.445 85.48 L 30.324 85.984 L 29.562 86.746 L 29.372 87.834 L 29.562 89.066 L 29.899 90.635 L 30.459 92.294 L 30.795 93.258 L 31.199 94.11 L 31.535 94.861 L 31.535 94.816 Z " fill="rgb(7,135,185)"/><path d=" M 31.535 94.816 L 31.949 95.802 L 32.913 97.438 L 33.967 99.198 L 34.931 100.431 L 35.962 101.832 L 36.69 102.616 L 37.295 103.064 L 38.192 103.513 L 38.92 103.602 L 39.929 103.602 L 40.882 103.132 L 41.846 102.168 L 42.384 100.845 L 42.451 99.613 L 41.913 97.618 L 40.904 96.497 L 38.954 94.031 L 36.757 90.893 L 35.267 88.652 L 34.37 87.251 L 33.306 86.242 L 32.543 85.749 L 31.445 85.48 L 30.324 85.984 L 29.562 86.746 L 29.372 87.834 L 29.562 89.066 L 29.899 90.635 L 30.459 92.294 L 30.795 93.258 L 31.199 94.11 L 31.535 94.861 L 31.535 94.816 Z " fill="rgb(7,135,185)"/><path d=" M 27.287 71.874 L 27.175 73.017 L 26.985 74.161 L 27.007 76.178 L 27.052 77.915 L 27.13 79.305 L 27.276 81.042 L 27.388 82.051 L 27.534 82.723 L 27.87 83.339 L 28.285 83.945 L 28.778 84.214 L 29.45 84.505 L 30.201 84.393 L 31.008 84.102 L 31.524 83.496 L 31.815 82.958 L 32.017 82.342 L 32.062 81.804 L 32.106 81.356 L 31.882 81.064 L 31.434 79.697 L 30.851 77.422 L 30.537 75.931 L 30.425 75.102 L 29.887 73.275 L 29.305 71.224 L 28.811 69.991 L 28.587 69.655 L 28.285 69.487 L 27.87 69.935 L 27.579 70.798 L 27.433 71.471 L 27.287 71.885 L 27.287 71.874 Z " fill="rgb(7,135,185)"/><path d=" M 27.287 71.874 L 27.175 73.017 L 26.985 74.161 L 27.007 76.178 L 27.052 77.915 L 27.13 79.305 L 27.276 81.042 L 27.388 82.051 L 27.534 82.723 L 27.87 83.339 L 28.285 83.945 L 28.778 84.214 L 29.45 84.505 L 30.201 84.393 L 31.008 84.102 L 31.524 83.496 L 31.815 82.958 L 32.017 82.342 L 32.062 81.804 L 32.106 81.356 L 31.882 81.064 L 31.434 79.697 L 30.851 77.422 L 30.537 75.931 L 30.425 75.102 L 29.887 73.275 L 29.305 71.224 L 28.811 69.991 L 28.587 69.655 L 28.285 69.487 L 27.87 69.935 L 27.579 70.798 L 27.433 71.471 L 27.287 71.885 L 27.287 71.874 Z " fill="rgb(7,135,185)"/><path d=" M 18.545 94.233 L 18.232 94.547 L 17.963 95.623 L 17.817 96.676 L 17.705 98.088 L 17.626 99.825 L 17.66 100.969 L 17.705 102.089 L 17.895 103.502 L 18.232 104.958 L 18.59 106.415 L 18.926 106.909 L 19.195 107.615 L 19.554 108.197 L 20.148 108.534 L 20.955 108.646 L 21.583 108.466 L 21.807 108.298 L 22.681 107.783 L 23.073 107.222 L 23.219 106.83 L 23.387 106.225 L 23.219 105.194 L 22.771 104.544 L 21.594 102.168 L 20.865 100.072 L 20.036 97.158 L 19.498 95.443 L 19.128 94.435 L 18.938 94.099 L 18.601 94.211 L 18.545 94.233 Z " fill="rgb(7,135,185)"/><path d=" M 18.545 94.233 L 18.232 94.547 L 17.963 95.623 L 17.817 96.676 L 17.705 98.088 L 17.626 99.825 L 17.66 100.969 L 17.705 102.089 L 17.895 103.502 L 18.232 104.958 L 18.59 106.415 L 18.926 106.909 L 19.195 107.615 L 19.554 108.197 L 20.148 108.534 L 20.955 108.646 L 21.583 108.466 L 21.807 108.298 L 22.681 107.783 L 23.073 107.222 L 23.219 106.83 L 23.387 106.225 L 23.219 105.194 L 22.771 104.544 L 21.594 102.168 L 20.865 100.072 L 20.036 97.158 L 19.498 95.443 L 19.128 94.435 L 18.938 94.099 L 18.601 94.211 L 18.545 94.233 Z " fill="rgb(7,135,185)"/><path d=" M 26.94 118.811 L 25.864 117.78 L 24.665 116.883 L 23.465 115.852 L 22.86 114.978 L 22.3 113.824 L 21.829 112.781 L 21.762 112.053 L 21.773 110.876 L 22.334 110.271 L 22.916 109.935 C 23.32 109.419 23.701 109.453 24.115 109.486 C 24.228 109.52 24.676 109.71 25.539 110.091 L 27.724 111.66 L 29.887 113.207 L 32.129 114.552 L 34.953 116.121 L 37.004 117.287 L 37.475 117.399 L 38.326 118.295 L 38.696 118.665 L 38.988 119.338 L 38.988 119.864 L 38.786 120.649 L 38.45 121.321 L 38.035 121.949 L 37.643 122.308 L 36.937 122.666 L 36.096 122.89 L 35.088 122.857 L 34.303 122.745 L 32.678 122.162 L 30.918 121.198 L 29.159 120.189 L 27.926 119.494 L 26.951 118.788 L 26.94 118.811 Z " fill="rgb(7,135,185)"/><path d=" M 26.94 118.811 L 25.864 117.78 L 24.665 116.883 L 23.465 115.852 L 22.86 114.978 L 22.3 113.824 L 21.829 112.781 L 21.762 112.053 L 21.773 110.876 L 22.334 110.271 L 22.916 109.935 C 23.32 109.419 23.701 109.453 24.115 109.486 C 24.228 109.52 24.676 109.71 25.539 110.091 L 27.724 111.66 L 29.887 113.207 L 32.129 114.552 L 34.953 116.121 L 37.004 117.287 L 37.475 117.399 L 38.326 118.295 L 38.696 118.665 L 38.988 119.338 L 38.988 119.864 L 38.786 120.649 L 38.45 121.321 L 38.035 121.949 L 37.643 122.308 L 36.937 122.666 L 36.096 122.89 L 35.088 122.857 L 34.303 122.745 L 32.678 122.162 L 30.918 121.198 L 29.159 120.189 L 27.926 119.494 L 26.951 118.788 L 26.94 118.811 Z " fill="rgb(7,135,185)"/><path d=" M 42.843 156.512 L 44.939 151.839 C 45.297 151.279 45.791 150.987 45.656 149.642 C 45.32 148.589 45.32 148.477 44.95 147.849 C 44.423 146.796 43.897 146.818 43.381 146.37 C 42.327 145.641 41.734 146.078 40.983 146.146 C 39.526 146.964 39.223 147.547 38.551 148.208 L 36.029 154.596 L 35.177 158.362 L 34.785 162.654 L 35.614 165.12 L 37.273 166.353 L 38.842 165.994 L 39.716 164.784 L 41.588 159.718 L 42.854 156.512 L 42.843 156.512 Z " fill="rgb(7,135,185)"/><path d=" M 42.843 156.512 L 44.939 151.839 C 45.297 151.279 45.791 150.987 45.656 149.642 C 45.32 148.589 45.32 148.477 44.95 147.849 C 44.423 146.796 43.897 146.818 43.381 146.37 C 42.327 145.641 41.734 146.078 40.983 146.146 C 39.526 146.964 39.223 147.547 38.551 148.208 L 36.029 154.596 L 35.177 158.362 L 34.785 162.654 L 35.614 165.12 L 37.273 166.353 L 38.842 165.994 L 39.716 164.784 L 41.588 159.718 L 42.854 156.512 L 42.843 156.512 Z " fill="rgb(7,135,185)"/><path d=" M 36.388 168.997 L 37.094 168.101 L 37.598 167.843 L 38.27 167.731 L 39.279 167.798 L 40.097 168.112 L 40.478 169.009 L 40.613 169.524 L 40.994 170.477 L 41.24 171.486 L 41.689 173.167 L 42.384 174.915 L 43.28 177.011 L 43.84 178.658 L 44.535 179.936 L 44.872 180.631 L 44.872 181.191 L 44.233 181.258 L 43.146 180.743 L 42.193 180.115 L 40.669 178.77 L 39.47 177.112 L 37.878 174.702 L 37.172 173.133 L 36.522 171.284 L 36.298 169.916 L 36.41 168.964 L 36.388 168.997 Z " fill="rgb(7,135,185)"/><path d=" M 36.388 168.997 L 37.094 168.101 L 37.598 167.843 L 38.27 167.731 L 39.279 167.798 L 40.097 168.112 L 40.478 169.009 L 40.613 169.524 L 40.994 170.477 L 41.24 171.486 L 41.689 173.167 L 42.384 174.915 L 43.28 177.011 L 43.84 178.658 L 44.535 179.936 L 44.872 180.631 L 44.872 181.191 L 44.233 181.258 L 43.146 180.743 L 42.193 180.115 L 40.669 178.77 L 39.47 177.112 L 37.878 174.702 L 37.172 173.133 L 36.522 171.284 L 36.298 169.916 L 36.41 168.964 L 36.388 168.997 Z " fill="rgb(7,135,185)"/><path d=" M 65.291 174.489 L 65.717 174.041 L 66.255 173.626 L 66.928 173.178 L 67.981 173.178 L 70.032 173.794 L 72.083 174.422 L 73.473 174.837 L 75.356 175.397 L 76.813 175.688 L 78.527 176.114 L 79.917 176.529 L 80.59 177.156 L 80.365 177.493 L 79.738 177.784 L 78.987 178.008 L 78.146 178.12 L 76.97 178.412 L 75.457 178.524 L 74.414 178.569 L 72.834 178.569 L 71.444 178.457 L 69.763 178.288 L 68.463 178.042 L 66.827 177.661 L 65.773 176.988 L 65.101 176.114 L 65.101 174.971 L 65.269 174.523 L 65.291 174.489 Z " fill="rgb(7,135,185)"/><path d=" M 65.291 174.489 L 65.717 174.041 L 66.255 173.626 L 66.928 173.178 L 67.981 173.178 L 70.032 173.794 L 72.083 174.422 L 73.473 174.837 L 75.356 175.397 L 76.813 175.688 L 78.527 176.114 L 79.917 176.529 L 80.59 177.156 L 80.365 177.493 L 79.738 177.784 L 78.987 178.008 L 78.146 178.12 L 76.97 178.412 L 75.457 178.524 L 74.414 178.569 L 72.834 178.569 L 71.444 178.457 L 69.763 178.288 L 68.463 178.042 L 66.827 177.661 L 65.773 176.988 L 65.101 176.114 L 65.101 174.971 L 65.269 174.523 L 65.291 174.489 Z " fill="rgb(7,135,185)"/><path d=" M 59.755 165.064 L 59.587 163.943 L 59.553 162.822 L 59.553 162.015 L 59.721 161.186 L 59.721 160.626 L 59.755 160.121 L 59.553 159.247 L 58.836 158.194 L 58.253 157.566 L 57.2 157.14 L 56.527 156.725 L 55.855 156.725 L 55.104 156.837 L 54.431 157.263 L 53.423 157.891 L 52.672 159.012 L 52.448 159.796 L 52.201 161.253 L 52.246 162.845 L 52.448 164.727 L 52.75 166.364 L 53.165 167.955 L 53.95 169.726 L 55.037 171.273 L 56.55 173.133 L 58.186 174.03 L 59.486 174.87 L 61.033 175.285 L 62.131 175.397 L 63.05 175.15 L 63.498 174.568 L 63.879 173.85 L 64.126 173.111 L 63.879 171.878 L 63.117 170.757 L 61.772 169.076 L 60.808 167.787 L 60.248 166.812 L 59.867 165.893 L 59.699 165.019 L 59.755 165.064 Z " fill="rgb(7,135,185)"/><path d=" M 59.755 165.064 L 59.587 163.943 L 59.553 162.822 L 59.553 162.015 L 59.721 161.186 L 59.721 160.626 L 59.755 160.121 L 59.553 159.247 L 58.836 158.194 L 58.253 157.566 L 57.2 157.14 L 56.527 156.725 L 55.855 156.725 L 55.104 156.837 L 54.431 157.263 L 53.423 157.891 L 52.672 159.012 L 52.448 159.796 L 52.201 161.253 L 52.246 162.845 L 52.448 164.727 L 52.75 166.364 L 53.165 167.955 L 53.95 169.726 L 55.037 171.273 L 56.55 173.133 L 58.186 174.03 L 59.486 174.87 L 61.033 175.285 L 62.131 175.397 L 63.05 175.15 L 63.498 174.568 L 63.879 173.85 L 64.126 173.111 L 63.879 171.878 L 63.117 170.757 L 61.772 169.076 L 60.808 167.787 L 60.248 166.812 L 59.867 165.893 L 59.699 165.019 L 59.755 165.064 Z " fill="rgb(7,135,185)"/><path d=" M 145.099 103.972 L 144.909 103.972 L 144.068 102.851 L 141.905 97.024 L 140.112 91.756 L 149.392 84.662 L 147.711 82.084 L 146.59 78.139 L 146.646 71.684 L 147.722 65.553 L 143.306 63.02 L 136.94 58.056 L 130.16 50.625 L 126.405 43.206 L 124.993 35.697 C 125.184 33.792 125.128 32.424 125.744 29.69 L 126.417 26.776 L 128.568 30.721 L 131.572 35.596 L 135.427 40.012 L 138.812 43.676 L 142.847 46.96 L 146.691 49.493 L 149.38 50.905 L 149.224 45.548 L 147.15 34.374 L 143.676 25.453 L 140.314 17.384 L 144.068 20.186 L 149.705 23.772 L 152.507 25.924 L 156.542 29.959 L 159.927 34.273 L 163.02 38.689 L 166.214 45.447 L 168.747 54.368 L 169.498 60.476 L 169.688 65.262 L 168.937 72.21 L 167.817 76.626 L 166.304 81.221 L 164.712 83.945 L 162.919 85.626 L 161.316 86.859 L 159.445 90.142 L 158.324 92.384 L 155.601 97.539 L 152.799 101.103 L 150.916 103.367 L 149.168 105.216 L 148.047 106.303 C 147.397 106.191 147.486 105.922 147.173 106.572 L 145.099 103.927 L 145.099 103.972 Z " fill="rgb(7,135,185)"/><path d=" M 145.099 103.972 L 144.909 103.972 L 144.068 102.851 L 141.905 97.024 L 140.112 91.756 L 149.392 84.662 L 147.711 82.084 L 146.59 78.139 L 146.646 71.684 L 147.722 65.553 L 143.306 63.02 L 136.94 58.056 L 130.16 50.625 L 126.405 43.206 L 124.993 35.697 C 125.184 33.792 125.128 32.424 125.744 29.69 L 126.417 26.776 L 128.568 30.721 L 131.572 35.596 L 135.427 40.012 L 138.812 43.676 L 142.847 46.96 L 146.691 49.493 L 149.38 50.905 L 149.224 45.548 L 147.15 34.374 L 143.676 25.453 L 140.314 17.384 L 144.068 20.186 L 149.705 23.772 L 152.507 25.924 L 156.542 29.959 L 159.927 34.273 L 163.02 38.689 L 166.214 45.447 L 168.747 54.368 L 169.498 60.476 L 169.688 65.262 L 168.937 72.21 L 167.817 76.626 L 166.304 81.221 L 164.712 83.945 L 162.919 85.626 L 161.316 86.859 L 159.445 90.142 L 158.324 92.384 L 155.601 97.539 L 152.799 101.103 L 150.916 103.367 L 149.168 105.216 L 148.047 106.303 C 147.397 106.191 147.486 105.922 147.173 106.572 L 145.099 103.927 L 145.099 103.972 Z " fill="rgb(7,135,185)"/><path d=" M 147.296 107.121 L 151.712 105.698 L 155.163 104.555 L 158.683 103.636 L 160.644 103.21 L 162.213 102.919 L 163.278 103.098 L 164.174 103.457 L 164.847 104.017 L 166.079 105.082 L 166.718 105.575 L 167.167 106.393 L 167.088 107.29 L 166.842 108.354 L 165.99 109.699 L 164.779 110.798 L 163.569 111.761 L 161.641 113.218 L 159.265 114.496 L 157.27 115.46 L 155.141 116.424 L 150.77 118.194 L 154.917 118.8 L 159.445 119.472 L 163.255 119.898 L 165.889 120.324 L 167.211 120.963 L 168.22 121.994 L 168.78 123.417 L 169.206 124.908 L 169.173 126.297 L 168.388 127.508 L 166.931 128.404 L 165.16 129.01 L 162.986 129.536 L 160.924 129.783 L 158.324 129.895 L 155.365 129.861 L 152.956 129.637 L 150.266 129.379 L 149.672 129.245 L 150.737 129.637 L 152.418 130.198 L 155.69 131.699 L 158.716 133.761 L 160.24 134.994 L 161.776 136.418 L 163.457 138.323 L 164.735 140.251 L 165.452 141.775 L 165.676 143.68 L 165.004 145.103 L 164.141 146.056 L 163.322 146.594 L 162.37 147.132 L 161.305 147.412 L 160.184 147.188 L 158.615 146.628 L 157.27 145.989 L 155.634 144.98 L 153.707 143.77 L 152.395 143.03 L 150.793 142.313 L 148.517 141.394 L 146.803 140.923 L 146.063 140.699 L 147.229 141.416 L 148.372 142.313 L 150.221 144.016 L 151.039 145.193 L 152.216 147.009 L 153.225 149.071 L 153.863 150.785 L 154.11 151.817 L 153.998 153.094 L 153.662 154.63 L 152.541 155.616 L 151.611 155.975 L 151.162 156.008 L 150.266 156.434 L 149.257 156.725 L 147.8 156.277 L 146.523 155.347 L 144.841 153.643 L 143.385 152.635 L 140.325 150.785 L 138.33 149.889 L 137.904 149.642 L 139.07 148.723 L 140.784 147.334 L 141.961 146.011 L 143.194 144.408 L 144.091 142.985 L 145.884 138.861 L 146.702 136.171 L 147.912 131.016 L 148.092 129.379 L 149.19 121.736 L 149.437 118.071 L 149.302 113.23 L 149.123 112.086 L 148.943 111.806 L 148.977 111.492 L 148.865 110.282 L 148.08 108.567 L 147.542 107.503 L 147.318 107.077 L 147.296 107.121 Z " fill="rgb(7,135,185)"/><path d=" M 147.296 107.121 L 151.712 105.698 L 155.163 104.555 L 158.683 103.636 L 160.644 103.21 L 162.213 102.919 L 163.278 103.098 L 164.174 103.457 L 164.847 104.017 L 166.079 105.082 L 166.718 105.575 L 167.167 106.393 L 167.088 107.29 L 166.842 108.354 L 165.99 109.699 L 164.779 110.798 L 163.569 111.761 L 161.641 113.218 L 159.265 114.496 L 157.27 115.46 L 155.141 116.424 L 150.77 118.194 L 154.917 118.8 L 159.445 119.472 L 163.255 119.898 L 165.889 120.324 L 167.211 120.963 L 168.22 121.994 L 168.78 123.417 L 169.206 124.908 L 169.173 126.297 L 168.388 127.508 L 166.931 128.404 L 165.16 129.01 L 162.986 129.536 L 160.924 129.783 L 158.324 129.895 L 155.365 129.861 L 152.956 129.637 L 150.266 129.379 L 149.672 129.245 L 150.737 129.637 L 152.418 130.198 L 155.69 131.699 L 158.716 133.761 L 160.24 134.994 L 161.776 136.418 L 163.457 138.323 L 164.735 140.251 L 165.452 141.775 L 165.676 143.68 L 165.004 145.103 L 164.141 146.056 L 163.322 146.594 L 162.37 147.132 L 161.305 147.412 L 160.184 147.188 L 158.615 146.628 L 157.27 145.989 L 155.634 144.98 L 153.707 143.77 L 152.395 143.03 L 150.793 142.313 L 148.517 141.394 L 146.803 140.923 L 146.063 140.699 L 147.229 141.416 L 148.372 142.313 L 150.221 144.016 L 151.039 145.193 L 152.216 147.009 L 153.225 149.071 L 153.863 150.785 L 154.11 151.817 L 153.998 153.094 L 153.662 154.63 L 152.541 155.616 L 151.611 155.975 L 151.162 156.008 L 150.266 156.434 L 149.257 156.725 L 147.8 156.277 L 146.523 155.347 L 144.841 153.643 L 143.385 152.635 L 140.325 150.785 L 138.33 149.889 L 137.904 149.642 L 139.07 148.723 L 140.784 147.334 L 141.961 146.011 L 143.194 144.408 L 144.091 142.985 L 145.884 138.861 L 146.702 136.171 L 147.912 131.016 L 148.092 129.379 L 149.19 121.736 L 149.437 118.071 L 149.302 113.23 L 149.123 112.086 L 148.943 111.806 L 148.977 111.492 L 148.865 110.282 L 148.08 108.567 L 147.542 107.503 L 147.318 107.077 L 147.296 107.121 Z " fill="rgb(7,135,185)"/><path d=" M 177.13 95.824 L 176.715 96.811 L 175.751 98.436 L 174.687 100.195 L 173.723 101.428 L 172.692 102.818 L 171.963 103.602 L 171.369 104.073 L 170.473 104.499 L 169.744 104.611 L 168.736 104.577 L 167.772 104.129 L 166.808 103.165 L 166.281 101.843 L 166.214 100.61 L 166.741 98.615 L 167.749 97.494 L 169.711 95.029 L 171.896 91.891 L 173.398 89.627 L 174.294 88.237 L 175.348 87.228 L 176.132 86.735 L 177.22 86.466 L 178.34 86.959 L 179.102 87.744 L 179.304 88.831 L 179.102 90.064 L 178.766 91.633 L 178.206 93.292 L 177.87 94.255 L 177.455 95.107 L 177.119 95.858 L 177.13 95.824 Z " fill="rgb(7,135,185)"/><path d=" M 177.13 95.824 L 176.715 96.811 L 175.751 98.436 L 174.687 100.195 L 173.723 101.428 L 172.692 102.818 L 171.963 103.602 L 171.369 104.073 L 170.473 104.499 L 169.744 104.611 L 168.736 104.577 L 167.772 104.129 L 166.808 103.165 L 166.281 101.843 L 166.214 100.61 L 166.741 98.615 L 167.749 97.494 L 169.711 95.029 L 171.896 91.891 L 173.398 89.627 L 174.294 88.237 L 175.348 87.228 L 176.132 86.735 L 177.22 86.466 L 178.34 86.959 L 179.102 87.744 L 179.304 88.831 L 179.102 90.064 L 178.766 91.633 L 178.206 93.292 L 177.87 94.255 L 177.455 95.107 L 177.119 95.858 L 177.13 95.824 Z " fill="rgb(7,135,185)"/><path d=" M 181.366 72.883 L 181.478 74.026 L 181.68 75.169 L 181.647 77.187 L 181.602 78.924 L 181.534 80.313 L 181.389 82.051 L 181.277 83.059 L 181.131 83.732 L 180.795 84.337 L 180.38 84.953 L 179.898 85.222 L 179.226 85.514 L 178.464 85.402 L 177.657 85.11 L 177.141 84.505 L 176.85 83.967 L 176.659 83.351 L 176.614 82.813 L 176.558 82.364 L 176.783 82.073 L 177.231 80.706 L 177.814 78.431 L 178.15 76.94 L 178.262 76.111 L 178.789 74.284 L 179.383 72.233 L 179.865 71 L 180.089 70.664 L 180.38 70.496 L 180.795 70.944 L 181.086 71.807 L 181.232 72.479 L 181.378 72.894 L 181.366 72.883 Z " fill="rgb(7,135,185)"/><path d=" M 181.366 72.883 L 181.478 74.026 L 181.68 75.169 L 181.647 77.187 L 181.602 78.924 L 181.534 80.313 L 181.389 82.051 L 181.277 83.059 L 181.131 83.732 L 180.795 84.337 L 180.38 84.953 L 179.898 85.222 L 179.226 85.514 L 178.464 85.402 L 177.657 85.11 L 177.141 84.505 L 176.85 83.967 L 176.659 83.351 L 176.614 82.813 L 176.558 82.364 L 176.783 82.073 L 177.231 80.706 L 177.814 78.431 L 178.15 76.94 L 178.262 76.111 L 178.789 74.284 L 179.383 72.233 L 179.865 71 L 180.089 70.664 L 180.38 70.496 L 180.795 70.944 L 181.086 71.807 L 181.232 72.479 L 181.378 72.894 L 181.366 72.883 Z " fill="rgb(7,135,185)"/><path d=" M 190.108 95.242 L 190.444 95.555 L 190.702 96.631 L 190.859 97.685 L 190.971 99.097 L 191.05 100.834 L 191.027 101.977 L 190.971 103.098 L 190.781 104.521 L 190.467 105.978 L 190.097 107.435 L 189.783 107.928 L 189.514 108.634 L 189.144 109.217 L 188.561 109.531 L 187.755 109.643 L 187.116 109.475 L 186.892 109.307 L 185.995 108.791 L 185.603 108.231 L 185.457 107.839 L 185.289 107.234 L 185.457 106.202 L 185.928 105.53 L 187.093 103.177 L 187.833 101.081 L 188.662 98.144 L 189.2 96.441 L 189.559 95.432 L 189.761 95.096 L 190.097 95.208 L 190.108 95.242 Z " fill="rgb(7,135,185)"/><path d=" M 190.108 95.242 L 190.444 95.555 L 190.702 96.631 L 190.859 97.685 L 190.971 99.097 L 191.05 100.834 L 191.027 101.977 L 190.971 103.098 L 190.781 104.521 L 190.467 105.978 L 190.097 107.435 L 189.783 107.928 L 189.514 108.634 L 189.144 109.217 L 188.561 109.531 L 187.755 109.643 L 187.116 109.475 L 186.892 109.307 L 185.995 108.791 L 185.603 108.231 L 185.457 107.839 L 185.289 107.234 L 185.457 106.202 L 185.928 105.53 L 187.093 103.177 L 187.833 101.081 L 188.662 98.144 L 189.2 96.441 L 189.559 95.432 L 189.761 95.096 L 190.097 95.208 L 190.108 95.242 Z " fill="rgb(7,135,185)"/><path d=" M 181.725 119.808 L 182.801 118.8 L 183.989 117.903 L 185.188 116.872 L 185.804 115.998 L 186.365 114.843 L 186.813 113.801 L 186.892 113.073 L 186.869 111.896 L 186.309 111.291 L 185.715 110.954 C 185.323 110.439 184.93 110.461 184.516 110.506 L 183.092 111.111 L 180.918 112.68 L 178.755 114.227 L 176.491 115.572 L 173.667 117.141 L 171.616 118.306 L 171.168 118.419 L 170.316 119.315 L 169.946 119.685 L 169.655 120.357 L 169.677 120.884 L 169.868 121.669 L 170.204 122.341 L 170.618 122.969 L 171.011 123.327 L 171.717 123.686 L 172.546 123.91 L 173.555 123.865 L 174.339 123.753 L 175.976 123.17 L 177.735 122.207 L 179.495 121.198 L 180.728 120.503 L 181.703 119.786 L 181.725 119.808 Z " fill="rgb(7,135,185)"/><path d=" M 181.725 119.808 L 182.801 118.8 L 183.989 117.903 L 185.188 116.872 L 185.804 115.998 L 186.365 114.843 L 186.813 113.801 L 186.892 113.073 L 186.869 111.896 L 186.309 111.291 L 185.715 110.954 C 185.323 110.439 184.93 110.461 184.516 110.506 L 183.092 111.111 L 180.918 112.68 L 178.755 114.227 L 176.491 115.572 L 173.667 117.141 L 171.616 118.306 L 171.168 118.419 L 170.316 119.315 L 169.946 119.685 L 169.655 120.357 L 169.677 120.884 L 169.868 121.669 L 170.204 122.341 L 170.618 122.969 L 171.011 123.327 L 171.717 123.686 L 172.546 123.91 L 173.555 123.865 L 174.339 123.753 L 175.976 123.17 L 177.735 122.207 L 179.495 121.198 L 180.728 120.503 L 181.703 119.786 L 181.725 119.808 Z " fill="rgb(7,135,185)"/><path d=" M 165.811 157.499 L 163.715 152.836 C 163.378 152.276 162.874 151.985 162.997 150.64 C 163.334 149.586 163.334 149.463 163.715 148.847 C 164.241 147.793 164.757 147.816 165.284 147.367 C 166.348 146.639 166.942 147.076 167.682 147.143 C 169.139 147.95 169.442 148.544 170.114 149.205 L 172.636 155.593 L 173.499 159.359 L 173.88 163.64 L 173.05 166.128 L 171.403 167.361 L 169.834 167.003 L 168.96 165.792 L 167.077 160.726 L 165.811 157.51 L 165.811 157.499 Z " fill="rgb(7,135,185)"/><path d=" M 165.811 157.499 L 163.715 152.836 C 163.378 152.276 162.874 151.985 162.997 150.64 C 163.334 149.586 163.334 149.463 163.715 148.847 C 164.241 147.793 164.757 147.816 165.284 147.367 C 166.348 146.639 166.942 147.076 167.682 147.143 C 169.139 147.95 169.442 148.544 170.114 149.205 L 172.636 155.593 L 173.499 159.359 L 173.88 163.64 L 173.05 166.128 L 171.403 167.361 L 169.834 167.003 L 168.96 165.792 L 167.077 160.726 L 165.811 157.51 L 165.811 157.499 Z " fill="rgb(7,135,185)"/><path d=" M 172.266 170.006 L 171.571 169.11 L 171.056 168.852 L 170.406 168.74 L 169.397 168.796 L 168.568 169.132 L 168.186 170.029 L 168.074 170.544 L 167.693 171.497 L 167.436 172.505 L 166.987 174.187 L 166.292 175.935 L 165.396 178.031 L 164.835 179.678 L 164.129 180.956 L 163.816 181.651 L 163.816 182.211 L 164.454 182.278 L 165.53 181.763 L 166.483 181.135 L 168.007 179.79 L 169.218 178.143 L 170.809 175.733 L 171.504 174.164 L 172.176 172.304 L 172.4 170.959 L 172.288 170.006 L 172.266 170.006 Z " fill="rgb(7,135,185)"/><path d=" M 172.266 170.006 L 171.571 169.11 L 171.056 168.852 L 170.406 168.74 L 169.397 168.796 L 168.568 169.132 L 168.186 170.029 L 168.074 170.544 L 167.693 171.497 L 167.436 172.505 L 166.987 174.187 L 166.292 175.935 L 165.396 178.031 L 164.835 179.678 L 164.129 180.956 L 163.816 181.651 L 163.816 182.211 L 164.454 182.278 L 165.53 181.763 L 166.483 181.135 L 168.007 179.79 L 169.218 178.143 L 170.809 175.733 L 171.504 174.164 L 172.176 172.304 L 172.4 170.959 L 172.288 170.006 L 172.266 170.006 Z " fill="rgb(7,135,185)"/><path d=" M 143.362 175.498 L 142.947 175.049 L 142.387 174.635 L 141.715 174.187 L 140.672 174.187 L 138.621 174.803 L 136.559 175.431 L 135.181 175.845 L 133.275 176.406 L 131.818 176.697 L 130.104 177.112 L 128.725 177.538 L 128.053 178.165 L 128.255 178.501 L 128.893 178.793 L 129.644 179.017 L 130.485 179.129 L 131.65 179.42 L 133.163 179.532 L 134.217 179.577 L 135.808 179.577 L 137.187 179.465 L 138.868 179.297 L 140.168 179.039 L 141.804 178.669 L 142.847 177.997 L 143.519 177.1 L 143.519 175.98 L 143.351 175.531 L 143.362 175.498 Z " fill="rgb(7,135,185)"/><path d=" M 143.362 175.498 L 142.947 175.049 L 142.387 174.635 L 141.715 174.187 L 140.672 174.187 L 138.621 174.803 L 136.559 175.431 L 135.181 175.845 L 133.275 176.406 L 131.818 176.697 L 130.104 177.112 L 128.725 177.538 L 128.053 178.165 L 128.255 178.501 L 128.893 178.793 L 129.644 179.017 L 130.485 179.129 L 131.65 179.42 L 133.163 179.532 L 134.217 179.577 L 135.808 179.577 L 137.187 179.465 L 138.868 179.297 L 140.168 179.039 L 141.804 178.669 L 142.847 177.997 L 143.519 177.1 L 143.519 175.98 L 143.351 175.531 L 143.362 175.498 Z " fill="rgb(7,135,185)"/><path d=" M 148.899 166.061 L 149.067 164.94 L 149.111 163.82 L 149.111 163.035 L 148.943 162.195 L 148.943 161.657 L 148.899 161.152 L 149.123 160.256 L 149.829 159.213 L 150.423 158.586 L 151.465 158.16 L 152.137 157.745 L 152.81 157.745 L 153.561 157.857 L 154.233 158.283 L 155.242 158.911 L 155.993 160.032 L 156.217 160.816 L 156.475 162.273 L 156.43 163.864 L 156.206 165.747 L 155.914 167.384 L 155.488 168.975 L 154.704 170.735 L 153.617 172.304 L 152.104 174.164 L 150.479 175.061 L 149.179 175.901 L 147.61 176.316 L 146.523 176.428 L 145.604 176.181 L 145.133 175.587 L 144.763 174.881 L 144.505 174.142 L 144.763 172.909 L 145.514 171.788 L 146.859 170.107 L 147.823 168.807 L 148.361 167.843 L 148.742 166.924 L 148.91 166.028 L 148.899 166.061 Z " fill="rgb(7,135,185)"/><path d=" M 148.899 166.061 L 149.067 164.94 L 149.111 163.82 L 149.111 163.035 L 148.943 162.195 L 148.943 161.657 L 148.899 161.152 L 149.123 160.256 L 149.829 159.213 L 150.423 158.586 L 151.465 158.16 L 152.137 157.745 L 152.81 157.745 L 153.561 157.857 L 154.233 158.283 L 155.242 158.911 L 155.993 160.032 L 156.217 160.816 L 156.475 162.273 L 156.43 163.864 L 156.206 165.747 L 155.914 167.384 L 155.488 168.975 L 154.704 170.735 L 153.617 172.304 L 152.104 174.164 L 150.479 175.061 L 149.179 175.901 L 147.61 176.316 L 146.523 176.428 L 145.604 176.181 L 145.133 175.587 L 144.763 174.881 L 144.505 174.142 L 144.763 172.909 L 145.514 171.788 L 146.859 170.107 L 147.823 168.807 L 148.361 167.843 L 148.742 166.924 L 148.91 166.028 L 148.899 166.061 Z " fill="rgb(7,135,185)"/></g></g></g></svg>