<?xml version="1.0" encoding="UTF-8" standalone="no"?><!-- Generator: Gravit.io --><svg xmlns="http://www.w3.org/2000/svg" xmlns:xlink="http://www.w3.org/1999/xlink" style="isolation:isolate" viewBox="0 0 208.676 208.676" width="208.676pt" height="208.676pt"><defs><clipPath id="_clipPath_s2NNqDBxnYVTdfYtrjEIDKjzIOA905I2"><rect width="208.676" height="208.676"/></clipPath></defs><g clip-path="url(#_clipPath_s2NNqDBxnYVTdfYtrjEIDKjzIOA905I2)"><rect width="208.676" height="208.676" style="fill:rgb(0,0,0)" fill-opacity="0"/><g><path d=" M 104.338 208.676 C 46.714 208.676 0 161.962 0 104.348 C 0 46.734 46.714 0 104.338 0 C 161.962 0 208.676 46.714 208.676 104.338 C 208.676 161.962 161.962 208.676 104.338 208.676 Z " fill="rgb(255,224,183)"/><g><path d=" M 20.483 108.347 L 23.048 97.012 L 25.836 88.456 C 27.205 85.496 28.31 82.15 30.753 78.47 L 35.487 72.428 C 36.755 70.654 38.873 69.082 40.82 67.48 L 47.024 64.915 C 49.316 64.51 51.607 64.642 53.898 65.138 C 56.291 65.797 57.923 66.527 59.433 67.267 C 61.866 68.443 63.742 69.903 65.638 71.323 L 71.416 77.527 C 73.9 80.001 75.614 82.971 77.398 85.871 L 80.825 91.649 L 83.815 98.503 L 87.029 107.485 L 89.158 116.69 L 89.797 122.246 L 89.797 128.025 L 88.945 133.377 L 87.87 138.507 L 86.37 143.221 L 82.954 149.203 L 79.304 153.258 L 74.813 157.111 L 69.46 160.537 L 62.414 162.392 C 59.139 163.102 56.838 162.626 54.709 163.102 L 45.727 162.251 L 37.373 158.195 L 30.956 153.704 C 28.34 150.359 25.988 146.993 24.112 143.647 L 20.899 135.517 L 19.834 129.535 L 19.611 120.411 L 20.473 108.347 L 20.483 108.347 Z  M 40.81 98.563 L 42.635 92.643 L 45.037 87.979 L 48.707 83.468 L 52.519 80.994 L 53.634 79.656 L 54.06 76.899 C 53.979 76.27 53.3 75.439 52.083 74.435 L 50.39 73.725 L 48.565 73.725 L 44.895 76.26 L 42.766 78.237 L 40.637 80.204 L 38.103 83.448 L 36.41 86.55 L 35.274 89.652 L 33.855 93.322 L 32.872 97.276 L 32.446 100.115 L 32.446 101.098 L 33.713 102.365 L 35.264 103.501 L 37.738 103.785 L 39.928 102.365 L 40.435 100.601 L 40.779 98.553 L 40.81 98.563 Z " fill-rule="evenodd" fill="rgb(255,128,17)"/><path d=" M 147.107 98.34 L 158.614 99.983 L 167.373 102.061 C 170.434 103.176 173.861 104.018 177.714 106.157 L 184.131 110.374 C 185.996 111.489 187.73 113.487 189.484 115.291 L 192.545 121.273 C 193.123 123.523 193.194 125.835 192.88 128.146 C 192.424 130.579 191.826 132.272 191.207 133.824 C 190.234 136.338 188.936 138.325 187.659 140.342 L 181.941 146.597 C 179.68 149.284 176.872 151.22 174.115 153.248 L 168.64 157.131 L 162.05 160.679 L 153.352 164.613 L 144.359 167.482 L 138.865 168.577 L 133.106 169.043 L 127.703 168.637 L 122.502 167.989 L 117.686 166.873 L 111.441 163.954 L 107.082 160.649 L 102.875 156.492 L 99.022 151.423 L 96.589 144.55 C 95.606 141.346 95.91 139.014 95.251 136.916 L 95.383 127.893 L 98.759 119.245 L 102.713 112.483 C 105.855 109.604 108.998 106.968 112.181 104.839 L 120.028 100.986 L 125.908 99.435 L 135.002 98.472 L 147.066 98.351 L 147.107 98.34 Z  M 158.512 117.805 L 164.575 119.154 L 169.411 121.161 L 174.206 124.456 L 176.973 128.055 L 178.393 129.069 L 181.171 129.272 C 181.799 129.14 182.57 128.39 183.472 127.102 L 184.04 125.358 L 183.888 123.533 L 181.049 120.086 L 178.92 118.14 L 176.791 116.183 L 173.344 113.912 L 170.12 112.493 L 166.927 111.611 L 163.155 110.496 L 159.141 109.837 L 156.302 109.634 L 155.319 109.715 L 154.153 111.084 L 153.139 112.726 L 153.058 115.21 L 154.65 117.278 L 156.444 117.623 L 158.512 117.826 L 158.512 117.805 Z " fill-rule="evenodd" fill="rgb(255,128,17)"/><path d=" M 88.248 52.269 C 91.938 46.46 95.649 40.711 99.562 36.332 C 102.907 32.743 106.496 29.489 111.221 27.785 C 114.262 25.91 117.324 25.596 120.365 25.636 C 123.974 26.346 127.462 28.526 130.584 30.705 C 134.031 33.828 135.805 36.22 137.072 38.38 C 139.607 43.013 142.142 47.636 143.5 52.269 L 146.501 63.725 C 147.211 68.186 147.9 73.964 148.589 80.108 L 148.589 86.15 L 140.154 85.44 C 135.562 85.41 130.746 85.268 127.553 85.947 C 122.149 86.11 117.922 88.32 113.42 90.084 L 106.02 94.95 L 98.761 101.377 L 93.104 87.752 C 92.09 85.319 90.336 82.196 88.096 78.557 L 80.654 68.52 C 82.52 62.711 85.146 57.368 88.217 52.269 L 88.248 52.269 Z  M 107.226 58.149 L 109.761 52.472 L 112.701 48.133 L 116.888 44.077 L 120.963 42.08 L 122.241 40.884 L 122.991 38.197 C 122.981 37.559 122.413 36.656 121.328 35.511 L 119.726 34.598 L 117.901 34.375 L 113.948 36.464 L 109.284 39.88 L 106.375 42.82 L 104.327 45.699 L 102.836 48.639 L 100.991 52.107 L 99.542 55.919 L 98.781 58.656 L 98.68 59.639 L 99.795 61.058 L 101.214 62.376 L 103.647 62.954 L 105.979 61.809 L 106.689 60.116 L 107.277 58.129 L 107.226 58.149 Z " fill-rule="evenodd" fill="rgb(255,128,17)"/></g></g></g></svg>