<?xml version="1.0" encoding="UTF-8" standalone="no"?><!-- Generator: Gravit.io --><svg xmlns="http://www.w3.org/2000/svg" xmlns:xlink="http://www.w3.org/1999/xlink" style="isolation:isolate" viewBox="0 0 208.676 208.676" width="208.676pt" height="208.676pt"><defs><clipPath id="_clipPath_EG6It6Cl7P4KBOrIJkVlbMKMJuk8HyYk"><rect width="208.676" height="208.676"/></clipPath></defs><g clip-path="url(#_clipPath_EG6It6Cl7P4KBOrIJkVlbMKMJuk8HyYk)"><rect width="208.676" height="208.676" style="fill:rgb(0,0,0)" fill-opacity="0"/><g><path d=" M 104.338 208.676 C 46.714 208.676 0 161.962 0 104.338 C 0 46.714 46.714 0 104.338 0 C 161.962 0 208.676 46.714 208.676 104.338 C 208.676 161.962 161.962 208.676 104.338 208.676 L 104.338 208.676 Z " fill="rgb(229,162,135)"/><path d=" M 55.818 116.909 L 57.322 107.421 L 60.446 96.73 L 64.264 86.954 L 67.689 80.59 L 70.616 76.158 L 71.542 74.539 L 72.849 70.813 L 73.15 64.657 L 72.456 60.423 L 71.553 59.324 L 70.142 58.629 L 69.031 59.023 L 63.177 62.262 L 59.046 65.294 L 53.295 71.241 L 50.287 76.378 L 48.17 82.834 L 47.568 89.592 L 48.262 96.245 L 49.466 102.377 L 51.386 108.023 L 53.4 112.258 L 55.829 116.886 L 55.818 116.909 L 55.818 116.909 Z  M 111.355 27.482 L 125.066 22.854 L 135.156 20.239 L 141.6 20.436 L 146.46 22.055 L 150.486 25.874 L 150.891 30.502 L 150.081 33.741 L 146.657 36.565 L 140.814 39.596 L 136.579 42.211 L 134.149 45.451 L 132.529 52.312 L 131.326 57.958 L 132.529 66.636 L 136.972 72.479 L 143.012 80.949 L 149.676 95.273 L 152.488 104.529 L 155.115 120.866 L 155.924 132.356 L 155.311 143.463 L 153.113 155.554 L 149.48 164.232 L 145.245 171.486 L 140.409 179.354 L 135.78 183.982 L 130.134 187.222 L 119.837 188.437 L 92.01 188.032 L 83.147 187.222 L 78.912 186.216 L 75.476 183.994 L 71.044 179.158 L 61.557 165.042 L 57.924 154.976 L 55.494 145.904 L 55.089 136.822 L 55.297 133.004 L 52.266 128.572 L 47.834 120.508 L 43.785 112.235 L 40.163 99.739 L 38.752 92.681 L 39.758 82.615 L 41.575 72.734 L 45.393 64.669 L 52.856 56.396 L 60.515 52.161 L 68.777 49.338 L 65.352 42.489 L 64.345 37.444 L 65.155 34.019 L 69.586 30.779 L 78.461 28.153 L 87.949 26.741 L 102.261 26.741 L 106.496 27.355 L 105.686 27.748 L 102.064 28.766 L 97.228 28.766 L 91.373 29.16 L 83.112 29.97 L 76.864 31.983 L 73.243 34.008 L 74.249 36.021 L 78.276 37.027 L 84.327 37.837 L 86.954 37.629 L 92.6 35.616 L 102.088 31.589 L 108.937 28.558 L 111.367 27.551 L 111.355 27.482 L 111.355 27.482 Z  M 81.735 50.067 L 84.454 49.142 L 87.463 49.049 L 89.279 49.454 L 90.286 51.571 L 90.691 54.788 L 90.691 61.152 L 90.494 66.902 L 89.568 72.548 L 87.752 76.98 L 86.653 79.201 L 85.033 82.441 L 83.124 85.565 L 80.092 90.506 L 78.079 95.249 L 74.654 102.909 L 72.225 109.967 L 70.605 113.901 L 69.297 117.117 L 67.99 117.812 L 66.879 117.615 L 66.185 117.106 L 65.78 115.093 L 67.596 105.42 L 70.026 98.246 L 73.451 88.967 L 76.98 82.418 L 79.907 76.772 L 81.92 72.236 L 82.522 68.499 L 81.516 60.238 L 81.018 54.395 L 80.902 52.08 L 81.712 50.067 L 81.735 50.067 Z " fill-rule="evenodd" fill="rgb(109,53,30)"/></g></g></svg>