<?xml version="1.0" encoding="UTF-8" standalone="no"?><!-- Generator: Gravit.io --><svg xmlns="http://www.w3.org/2000/svg" xmlns:xlink="http://www.w3.org/1999/xlink" style="isolation:isolate" viewBox="0 0 208.676 208.676" width="208.676pt" height="208.676pt"><defs><clipPath id="_clipPath_cT0peSrR4DuceE3pJYcGTh65Yhg6gKOZ"><rect width="208.676" height="208.676"/></clipPath></defs><g clip-path="url(#_clipPath_cT0peSrR4DuceE3pJYcGTh65Yhg6gKOZ)"><rect width="208.676" height="208.676" style="fill:rgb(0,0,0)" fill-opacity="0"/><g><path d=" M 104.338 208.676 C 46.714 208.676 0 161.962 0 104.348 C 0 46.734 46.714 0 104.338 0 C 161.962 0 208.676 46.714 208.676 104.338 C 208.676 161.962 161.962 208.676 104.338 208.676 Z " fill="rgb(165,243,255)"/><path d=" M 44.53 77.073 L 43.375 78.229 L 42.141 79.532 L 41.142 80.384 L 39.908 81.304 L 37.136 82.773 L 79.639 125.864 L 44.54 77.064 L 44.53 77.073 L 44.53 77.073 L 44.53 77.073 L 44.53 77.073 L 44.53 77.073 Z  M 74.547 53.285 L 73.313 54.284 L 72.157 55.293 L 70.933 56.057 L 69.777 56.742 L 69.386 56.821 L 68.622 57.115 L 67.231 58.045 L 65.929 58.339 L 92.86 123.151 L 74.547 53.256 L 74.547 53.285 L 74.547 53.285 L 74.547 53.285 L 74.547 53.285 Z  M 102.575 46.44 L 104.113 46.9 L 105.19 46.979 L 106.042 46.979 L 107.511 46.9 L 108.902 46.979 L 110.371 46.9 L 111.135 46.822 L 112.143 46.587 L 112.535 46.587 L 107.374 125.256 L 102.605 46.44 L 102.575 46.44 L 102.575 46.44 L 102.575 46.44 Z  M 140.358 53.285 L 141.748 54.441 L 142.826 55.362 L 144.128 56.145 L 145.362 56.605 L 145.676 56.762 L 146.518 57.526 L 147.595 57.996 L 148.986 58.613 L 121.888 123.494 L 140.358 53.295 L 140.358 53.285 L 140.358 53.285 Z  M 86.024 33.082 L 80.227 33.934 C 77.289 34.659 74.801 35.922 73.303 37.518 L 68.113 41.788 L 63.676 45.705 L 58.025 48.35 L 52.404 49.623 L 45.412 51.337 L 39.78 56.625 L 36.353 63.108 L 32.768 70.453 C 31.916 71.667 30.026 72.706 27.431 73.626 C 25.326 74.821 24.904 75.036 22.27 77.583 C 20.85 79.326 19.822 81.461 19.822 84.653 L 20.331 90.196 L 21.408 94.31 C 20.36 95.73 21.212 98.276 21.506 100.509 C 22.025 104.279 22.848 107.834 24.522 110.743 C 26.706 115.101 30.722 119.459 34.257 123.807 L 45.696 134.776 L 58.897 145.901 L 68.965 152.903 L 67.26 156.82 L 63.343 162.794 C 62.364 164.391 61.776 165.987 61.972 167.573 C 62.09 171.07 63.5 172.744 65.047 174.233 C 68.23 175.212 71.413 175.898 74.605 175.428 L 137.753 175.428 L 143.041 173.371 C 144.686 172.637 145.911 171.393 146.116 168.935 C 146.361 167.201 146.214 165.605 145.607 164.156 C 145.627 160.091 141.278 156.644 139.114 152.893 C 144.04 149.994 149.201 147.458 153.265 142.855 L 168.298 129.683 L 178.708 119.273 L 183.488 111.928 L 186.053 105.787 L 187.278 99.97 L 187.415 96.229 L 187.415 94.525 L 187.63 90.285 C 188.09 89.374 188.316 86.22 188.786 84.448 C 189.148 82.391 187.934 80.354 186.905 78.307 L 184.849 75.409 L 180.011 73.225 L 175.633 70.453 L 174.066 67.584 C 174.409 65.968 172.069 63.294 171.363 61.414 C 170.609 59.396 168.23 56.419 166.075 53.56 C 165.83 53.403 164.635 52.58 162.491 51.111 L 155.146 48.761 L 149.515 47.39 L 143.031 44.315 L 137.4 39.193 C 136.421 37.606 132.758 36.01 129.889 34.414 L 125.971 33.043 L 119.488 33.043 L 110.283 35.256 L 106.365 35.599 L 99.853 35.569 L 92.899 33.904 L 86.064 33.052 L 86.024 33.082 L 86.024 33.082 L 86.024 33.082 L 86.024 33.082 L 86.024 33.082 Z  M 170.541 76.995 L 171.618 78.151 L 172.627 79.463 L 174.243 80.687 L 176.005 81.764 L 177.768 82.695 L 134.971 126.255 L 170.521 76.995 L 170.541 76.995 Z " fill-rule="evenodd" fill="rgb(9,158,181)"/></g></g></svg>