<?xml version="1.0" encoding="UTF-8" standalone="no"?><!-- Generator: Gravit.io --><svg xmlns="http://www.w3.org/2000/svg" xmlns:xlink="http://www.w3.org/1999/xlink" style="isolation:isolate" viewBox="0 0 210.469 210.469" width="210.469pt" height="210.469pt"><defs><clipPath id="_clipPath_oHSoHAQBjTOFik45F8YAn6VSOBkWyWsn"><rect width="210.469" height="210.469"/></clipPath></defs><g clip-path="url(#_clipPath_oHSoHAQBjTOFik45F8YAn6VSOBkWyWsn)"><rect width="210.469" height="210.469" style="fill:rgb(0,0,0)" fill-opacity="0"/><g><path d=" M 105.235 210.469 C 47.117 210.469 0 163.362 0 105.235 C 0 47.108 47.117 0 105.235 0 C 163.352 0 210.469 47.108 210.469 105.235 C 210.469 163.362 163.362 210.469 105.235 210.469 Z " fill="rgb(247,208,119)"/><path d=" M 121.075 187.819 L 127.269 187.836 L 132.06 187.429 L 138.44 186.094 L 142.781 184.713 L 146.116 183.453 L 148.905 182.091 L 152.123 180.162 L 154.698 177.709 L 156.986 174.636 L 158.155 171.999 L 158.589 170.114 L 158.658 169.319 L 159.536 171.1 L 159.997 173.382 L 159.995 175.187 L 159.377 177.186 L 158.693 178.675 L 157.614 180.116 L 156.101 181.717 L 154.558 182.977 L 151.943 184.278 L 149.218 185.733 L 146.396 186.914 L 142.677 188.425 L 140.414 189.213 L 137.929 189.824 L 135.258 190.131 L 132.572 190.516 L 130.155 190.331 L 127.445 189.984 L 124.808 189.247 L 123.109 188.753 L 121.078 187.806 L 121.075 187.819 L 121.075 187.819 L 121.075 187.819 Z  M 84.163 50.973 L 130.249 87.182 L 176.385 27.897 L 165.27 19.164 L 151.071 10.792 L 138.917 5.521 L 130.657 2.672 L 122.859 1.697 L 84.15 50.955 L 84.163 50.973 L 84.163 50.973 Z  M 170.441 174.086 C 169.84 172.559 169.525 170.88 168.628 169.526 L 166.014 167.045 L 161.607 164.107 L 156.207 161.98 L 148.528 159.852 L 142.136 158.707 L 133.645 158.059 L 128.418 158.383 L 122.026 160.673 L 114.833 163.287 L 109.28 164.269 L 100.446 164.431 L 93.749 163.611 L 86.719 162.466 L 79.85 161.484 L 73.801 161.007 L 66.608 160.186 L 59.577 160.52 L 58.929 158.555 L 57.946 154.138 L 58.423 150.875 L 59.244 149.73 L 64.147 146.62 L 68.726 142.366 L 70.854 139.265 L 71.016 135.01 L 70.691 130.927 L 70.024 127.97 L 69.041 125.356 L 69.041 122.742 L 70.854 120.948 L 73.792 119.804 L 76.749 118.163 L 79.039 115.873 L 80.995 112.773 L 81.977 109.5 L 83.122 107.373 L 82.798 105.58 L 80.508 103.452 L 78.381 103.452 L 76.759 104.435 L 75.452 107.201 L 74.307 110.311 L 73 112.429 L 69.89 113.908 L 66.294 115.377 L 63.842 117.991 L 62.22 121.263 L 62.048 124.698 L 63.031 128.781 L 63.851 132.883 L 64.5 135.983 L 63.851 137.796 L 60.894 140.085 L 58.442 142.041 L 55.676 144.006 L 53.71 145.628 L 52.089 148.586 L 51.106 152.993 L 51.43 157.734 L 52.098 160.348 L 52.575 162.8 L 48.816 164.279 L 45.058 167.217 L 43.092 170.174 L 42.119 174.258 L 43.264 178.674 L 47.023 182.92 L 52.747 188.167 L 58.299 191.267 L 65.33 193.881 L 72.037 195.36 L 82.664 196.505 L 94.112 197.153 L 107.353 198.298 L 119.126 197.974 L 130.574 196.991 L 139.56 195.369 L 147.898 193.08 L 156.56 189.321 L 163.105 185.553 L 167.846 181.145 L 170.136 177.549 L 170.479 174.191 L 170.441 174.086 L 170.441 174.086 L 170.441 174.086 Z  M 82.515 98.187 L 93.343 76.497 L 81.735 67.695 L 87.978 59.75 L 120.936 85.538 L 114.694 93.483 L 103.058 84.447 L 85.391 100.128 L 82.516 98.197 L 82.515 98.187 Z " fill-rule="evenodd" fill="rgb(142,100,2)"/></g></g></svg>