<?xml version="1.0" encoding="UTF-8" standalone="no"?><!-- Generator: Gravit.io --><svg xmlns="http://www.w3.org/2000/svg" xmlns:xlink="http://www.w3.org/1999/xlink" style="isolation:isolate" viewBox="0 0 208.676 208.676" width="208.676pt" height="208.676pt"><defs><clipPath id="_clipPath_oCDCvSrci8goc1Ze6LwXm7Mcs93AgYoC"><rect width="208.676" height="208.676"/></clipPath></defs><g clip-path="url(#_clipPath_oCDCvSrci8goc1Ze6LwXm7Mcs93AgYoC)"><rect width="208.676" height="208.676" style="fill:rgb(0,0,0)" fill-opacity="0"/><g><path d=" M 104.338 208.676 C 46.714 208.676 0 161.962 0 104.338 C 0 46.714 46.714 0 104.338 0 C 161.962 0 208.676 46.714 208.676 104.338 C 208.676 161.962 161.962 208.676 104.338 208.676 L 104.338 208.676 Z " fill="rgb(255,161,167)"/><g><path d=" M 117.541 64.448 L 117.316 61.458 L 116.539 58.071 L 115.487 55.466 L 113.853 50.964 L 111.481 46.632 L 110.548 44.228 L 109.568 42.579 L 109.626 46.124 L 109.834 48.896 L 110.38 51.988 L 111.627 55.653 L 113.19 59.085 L 115.318 61.827 L 117.552 64.457 L 117.541 64.448 L 117.541 64.448 L 117.541 64.448 L 117.541 64.448 L 117.541 64.448 L 117.541 64.448 L 117.541 64.448 L 117.541 64.448 L 117.541 64.448 Z  M 131.251 49.488 L 133.718 51.735 L 136.566 54.339 L 140.144 57.495 L 142.378 59.979 L 144.444 62.183 L 146.204 64.347 L 148.298 66.925 L 149.701 69.326 L 151.025 71.659 L 152.271 74.071 L 152.932 75.921 L 153.779 78.154 L 154.412 80.456 L 151.804 77.155 L 146.499 71.321 L 143.249 67.535 L 140.244 63.961 L 137.468 60.369 L 134.659 56.331 L 132.312 52.477 L 131.255 49.529 L 131.251 49.488 L 131.251 49.488 L 131.251 49.488 L 131.251 49.488 L 131.251 49.488 L 131.251 49.488 L 131.251 49.488 L 131.251 49.488 Z  M 139.032 81.28 L 140.749 84.951 L 143.131 90.243 L 144.816 94.605 L 146.863 98.628 L 148.697 102.75 L 150.559 106.264 L 151.866 108.358 L 150.848 102.88 L 149.533 95.535 L 148.529 91.35 L 146.9 87.745 L 145.228 84.676 L 143.694 83.434 L 140.665 81.616 L 139.811 81.367 L 139.041 81.268 L 139.032 81.28 L 139.032 81.28 L 139.032 81.28 L 139.032 81.28 L 139.032 81.28 L 139.032 81.28 L 139.032 81.28 Z  M 123.697 82.434 L 123.984 87.215 L 124.359 92.198 L 125.097 97.008 L 126.35 103.534 L 127.125 106.889 L 128.234 110.533 L 128.342 103.916 L 128.707 98.637 L 128.589 94.991 L 128.244 91.52 L 127.631 88.371 L 126.842 85.924 L 125.551 84.038 L 123.676 82.425 L 123.697 82.434 L 123.697 82.434 L 123.697 82.434 L 123.697 82.434 L 123.697 82.434 L 123.697 82.434 Z  M 117.319 118.799 L 116.127 115.997 L 115.056 111.901 L 114.063 107.862 L 113.166 103.983 L 112.62 101.727 L 111.747 98.452 L 110.856 95.626 L 110.217 97.272 L 109.598 100.138 L 109.339 102.809 L 109.432 105.016 L 109.721 107.876 L 110.668 111.302 L 112.094 114.16 L 113.712 116.231 L 115.118 117.722 L 117.317 118.779 L 117.319 118.799 L 117.319 118.799 L 117.319 118.799 L 117.319 118.799 L 117.319 118.799 Z  M 140.809 129.874 L 141.331 127.642 L 141.635 125.719 L 141.764 123.276 L 141.839 121.214 L 141.736 118.872 L 141.442 116.911 L 140.859 114.303 L 140.174 111.159 L 139.064 107.515 L 138.085 105.605 L 137.503 107.998 L 137.263 110.908 L 137.168 114.643 L 137.537 119.554 L 138.223 122.697 L 139.141 125.739 L 139.903 127.812 L 140.82 129.873 L 140.809 129.874 L 140.809 129.874 L 140.809 129.874 L 140.809 129.874 Z  M 166.53 129.379 L 167.08 124.472 L 167.168 115.653 L 166.546 110.448 L 165.468 105.142 L 163.448 100.491 L 161.409 97.679 L 159.154 96.022 L 157.208 95.406 L 158.604 97.734 L 159.785 100.38 L 160.771 103.355 L 161.647 106.943 L 162.837 112.638 L 163.546 116.918 L 164.193 120.523 L 164.877 123.5 L 165.308 125.065 L 166.541 129.378 L 166.53 129.379 L 166.53 129.379 L 166.53 129.379 Z  M 149.703 156.205 L 151.005 154.353 L 152.201 152.216 L 152.747 148.375 L 152.606 144.418 L 151.955 140.896 L 150.844 136.26 L 150.12 133.579 L 149.633 132.102 L 148.912 134.589 L 148.648 138.023 L 148.498 142.138 L 148.66 145.258 L 149.513 156.595 L 149.713 156.204 L 149.703 156.205 L 149.703 156.205 Z  M 102.728 24.258 L 99.485 37.219 C 97.407 48.025 96.343 59.695 95.134 71.24 C 94.924 75.39 94.989 79.436 94 83.917 L 92.963 93.444 L 93.06 100.286 L 93.236 110.4 L 94.269 124.815 L 96.775 138.69 L 99.288 149.61 L 103.787 162.908 L 109.534 174.065 L 111.737 175.59 L 109.27 165.982 L 103.734 152.773 L 99.236 139.476 L 97.043 130.035 L 95.256 113.235 C 94.721 107.24 94.878 102.655 94.998 98.01 L 95.35 85.622 L 97.704 67.935 L 100.53 54.431 L 102.913 45.304 C 104.61 41.49 105.948 37.766 107.395 34.525 C 106.219 37.903 105.287 41.888 104.454 46.085 C 103.892 49.291 103.372 52.515 103.111 55.98 L 101.664 71.437 L 100.61 94.612 L 99.712 103.763 L 99.722 112.502 L 100.79 122.528 L 101.758 131.226 L 103.133 140.206 L 105.282 150.172 L 108.469 160.06 L 111.083 165.648 L 112.306 168.301 L 114.5 163.887 L 118.137 162.83 L 122.658 165.048 L 129.491 169.827 L 135.606 171.998 L 139.427 171.71 L 136.685 167.74 C 136.033 164.626 134.987 161.551 135.114 158.389 C 135.061 151.71 135.085 145.099 135.634 138.929 L 137.873 151.206 L 139.302 160.893 L 141.529 171.897 C 144.286 170.802 147.188 169.821 149.656 168.487 L 156.409 164.565 C 157.954 160.126 160.109 155.881 160.296 151.012 L 161.298 146.29 C 162.249 148.244 162.716 150.569 162.86 153.168 C 162.902 153.447 163.066 154.802 163.375 157.243 L 163.383 160.124 L 168.581 154.826 C 170.592 152.137 171.627 149.93 172.258 147.909 C 173.614 144.57 174.047 141.572 174.293 138.609 C 174.939 134.697 175.096 130.405 174.804 125.697 L 173.071 107.66 C 171.891 101.693 170.557 95.759 168.537 89.876 C 166.943 84.921 164.475 79.74 162.03 74.579 C 159.333 70.658 156.741 66.728 152.944 62.89 C 149.176 58.611 144.793 54.472 139.333 50.602 L 132.438 46.391 L 126.732 43.406 L 119.747 40.351 L 112.46 36.065 L 106.831 31.185 L 104.492 27.863 L 102.758 24.235 L 102.728 24.258 L 102.728 24.258 L 102.728 24.258 L 102.728 24.258 L 102.728 24.258 L 102.728 24.258 L 102.728 24.258 L 102.728 24.258 L 102.728 24.258 Z  M 113.064 128.851 L 113.833 132.134 L 114.764 135.488 L 116.375 138.854 L 118.533 143.255 L 120.356 146.25 L 122.256 149.302 L 123.726 151.624 L 124.777 153.528 L 125.508 154.914 L 127.024 157.995 L 123.435 154.695 L 119.019 150.537 L 115.723 146.15 L 113.142 142.376 L 111.597 137.105 L 111.508 134.815 L 111.7 132.367 L 112.371 130.187 L 113.033 128.853 L 113.064 128.851 Z " fill-rule="evenodd" fill="rgb(195,32,43)"/><path d=" M 74.757 63.105 L 76.459 60.189 L 78.189 56.54 L 80.931 51.635 C 81.787 50.527 82.451 49.224 83.619 48.51 L 80.742 49.123 C 79.669 49.433 78.717 49.964 77.895 50.559 C 76.868 51.336 76.546 52.059 76.099 52.782 L 74.815 55.698 L 73.553 58.904 L 71.54 61.562 L 69.339 64.233 L 68.706 66.494 L 68.737 68.298 L 70.386 67.464 L 72.358 65.917 L 73.55 64.417 L 74.746 63.106 L 74.757 63.105 L 74.757 63.105 L 74.757 63.105 L 74.757 63.105 L 74.757 63.105 Z  M 77.704 107.675 L 77.33 97.158 L 77.635 86.506 L 77.854 81.373 L 78.487 75.207 L 79.365 70.234 C 77.843 71.225 77.218 72.64 76.193 73.866 L 74.233 79.725 L 73.672 85.593 L 73.775 91.119 L 74.701 96.771 L 75.649 101.314 L 77.593 107.307 L 77.726 107.694 L 77.704 107.675 L 77.704 107.675 L 77.704 107.675 L 77.704 107.675 Z  M 63.63 104.213 C 64.061 102.583 64.382 101.024 64.363 99.251 C 64.415 97.159 64.578 95.163 64.162 92.824 L 63.802 88.048 L 62.487 82.509 L 61.184 79.892 L 59.787 86.721 L 60.097 92.232 C 59.988 93.837 60.441 95.411 60.851 96.978 L 61.545 99.536 L 62.998 102.893 L 63.619 104.204 L 63.63 104.213 L 63.63 104.213 L 63.63 104.213 Z  M 53.145 106.401 L 53.971 118.764 L 55.055 126.513 L 56.231 132.846 L 57.496 139.934 L 54.578 134.881 C 53.221 132.101 52.176 129.319 51.233 126.498 L 50.034 119.864 L 49.726 115.774 C 49.722 113.644 49.791 111.509 50.25 109.417 C 50.529 107.851 51.027 106.279 51.701 104.693 C 51.92 103.862 52.464 103.174 52.994 102.456 L 53.134 106.392 L 53.145 106.401 L 53.145 106.401 Z  M 100.549 167.881 L 96.786 160.897 C 93.743 155.415 92.228 149.306 90.692 143.189 C 87.647 131.578 86.116 119.832 84.638 108.103 L 84.544 91.175 C 84.634 84.851 85.407 78.555 86.847 72.396 L 90.611 56.514 L 95.853 38.756 L 96.906 33.738 L 92.287 37.573 L 84.64 43.212 L 75.609 49.457 C 71.931 51.645 69.043 54.336 66.485 57.244 C 62.528 61.822 59.922 66.32 57.253 70.812 C 54.69 76.706 52.424 83.371 50.47 90.283 C 49.27 95.427 48.29 100.575 47.619 105.669 C 46.779 109.773 46.534 115.951 46.033 121.22 L 46.247 136.134 C 46.785 139.122 46.349 142.203 48.049 145.103 C 48.385 147.48 50.711 149.675 52.218 151.942 L 59.066 158.296 L 62.007 160.612 L 58.524 155.403 L 57.474 150.742 L 57.781 147.879 C 60.88 151.332 62.789 154.769 65.199 158.211 C 65.544 158.644 67.239 160.772 70.316 164.612 L 76.591 170.018 C 80.114 171.601 83.749 173.572 86.611 173.169 L 90.872 173.454 C 89.651 169.996 87.617 166.004 88.64 162.388 L 94.895 170.583 L 97.29 168.001 C 98.942 169.568 100.533 172.247 103.409 173.701 C 103.726 174.168 104.862 174.698 106.787 175.305 L 100.558 167.87 L 100.549 167.881 L 100.549 167.881 L 100.549 167.881 L 100.549 167.881 L 100.549 167.881 Z  M 67.513 120.146 C 68.396 122.168 68.834 123.827 69.304 125.493 L 70.546 131.184 L 72.165 137.984 L 73.118 140.523 L 75.035 144.075 L 75.772 145.826 L 76.436 147.989 L 76.554 150.945 L 75.413 150.342 L 74.458 149.307 L 73.691 147.444 C 73.544 146.463 72.393 145.453 71.627 144.436 L 68.807 141.641 L 67.417 139.135 L 66.588 134.781 L 66.348 131.583 L 67.129 121.992 L 67.16 119.63 L 67.511 120.126 L 67.513 120.146 Z " fill-rule="evenodd" fill="rgb(195,32,43)"/></g></g></g></svg>