<?xml version="1.0" encoding="UTF-8" standalone="no"?><!-- Generator: Gravit.io --><svg xmlns="http://www.w3.org/2000/svg" xmlns:xlink="http://www.w3.org/1999/xlink" style="isolation:isolate" viewBox="0 0 208.676 208.676" width="208.676pt" height="208.676pt"><defs><clipPath id="_clipPath_aRpFeePO4B3AyLia3V6vgssjLt3bvmfq"><rect width="208.676" height="208.676"/></clipPath></defs><g clip-path="url(#_clipPath_aRpFeePO4B3AyLia3V6vgssjLt3bvmfq)"><rect width="208.676" height="208.676" style="fill:rgb(0,0,0)" fill-opacity="0"/><g><path d=" M 104.338 208.676 C 46.714 208.676 0 161.962 0 104.348 C 0 46.734 46.714 0 104.338 0 C 161.962 0 208.676 46.714 208.676 104.338 C 208.676 161.962 161.962 208.676 104.338 208.676 Z " fill="rgb(181,195,247)"/><path d=" M 53.512 103.535 C 49.615 103.535 46.456 100.376 46.456 96.479 C 46.456 92.582 49.615 89.423 53.512 89.423 C 57.409 89.423 60.568 92.582 60.568 96.479 C 60.568 100.376 57.409 103.535 53.512 103.535 L 53.512 103.535 L 53.512 103.535 Z  M 16.374 114.629 L 23.999 111.042 L 14.999 103.739 C 16.213 101.763 17.319 99.766 19.005 97.8 C 22.442 93.773 25.191 89.713 29.852 85.772 C 33.611 82.807 37.231 79.704 41.774 77.631 C 45.189 75.88 48.937 74.484 52.771 73.152 C 58.227 71.67 64.617 70.231 72.274 68.835 C 75.131 67.976 78.235 67.407 80.716 66.075 L 85.441 60.147 C 88.169 57.859 90.682 55.528 94.055 53.381 C 97.008 52.06 98.952 50.481 104.687 49.869 C 106.792 49.439 108.854 49.761 110.884 50.513 C 112.216 51.19 113.333 52.017 113.494 53.52 C 113.225 55.346 112.613 57.172 111.507 59.019 L 106.33 67.718 C 105.793 68.953 104.848 69.802 104.762 71.477 C 109.219 72.873 113.676 74.14 118.144 76.009 C 122.386 77.298 125.683 79.092 129.206 80.778 C 133.373 82.389 136.058 84 139.022 85.611 C 143.79 88.36 147.657 91.12 151.695 93.88 L 156.56 98.026 C 158.708 94.911 160.212 92.42 165.087 88.661 C 168.309 86.491 171.284 84.225 175.881 82.539 C 179.554 81.68 182.808 80.52 187.748 80.531 C 189.681 80.617 193.054 80.638 193.677 82.088 L 188.479 86.298 C 186.277 88.081 184.075 90.701 181.895 93.118 C 179.425 96.919 178.168 99.497 177.277 101.709 C 176.665 104.04 175.827 106.381 176.171 108.722 C 176.192 111.3 178.04 114.522 179.285 117.561 L 185.837 125.552 L 193.655 132.382 C 192.28 134.605 192.474 133.993 188.887 135.776 C 186.148 136.528 183.409 136.42 180.66 136.077 L 173.851 133.628 C 171.241 131.749 168.159 129.976 166.58 128.011 L 160.072 121.46 L 156.42 116.906 C 155.003 119.054 153.306 121.03 151.298 122.835 C 148.484 125.24 145.498 127.216 142.512 129.214 C 142.051 129.461 139.72 130.664 135.51 132.833 L 127.745 136.27 C 121.871 138.686 115.932 140.748 109.96 142.735 L 102.281 144.991 C 102.142 146.602 102.926 147.719 104.15 148.642 L 109.563 152.551 L 113.923 156.418 C 112.484 157.599 110.422 158.082 108.5 158.727 C 106.781 159.178 104.494 158.963 102.292 158.834 C 98.823 157.814 95.956 156.332 93.775 154.377 L 90.231 151.048 L 86.902 146.666 C 84.711 145.699 82.531 145.162 80.351 144.819 L 66.582 143.208 C 60.096 142.735 53.523 141.812 46.768 139.814 C 41.655 137.849 36.758 135.432 32.226 132.275 C 28.542 129.107 25.063 125.971 22.474 123.039 L 16.396 114.662 L 16.374 114.629 L 16.374 114.629 Z  M 66.883 137.774 L 70.996 134.122 L 76.044 127.828 L 79.642 120.783 C 80.662 118.635 81.575 116.058 81.897 113.416 L 82.509 107.401 C 82.477 104.781 82.445 102.171 81.908 99.239 C 81.414 96.189 80.651 93.053 79.395 89.756 L 75.872 82.313 L 71.641 75.805 L 70.395 73.765 L 73.402 76.385 L 78.289 81.465 L 80.609 84.558 L 83.938 90.54 L 85.656 95.394 L 86.752 99.153 L 87.396 102.697 L 87.546 107.477 L 87.224 112.095 L 86.129 116.874 L 84.84 121.03 L 82.434 124.94 L 80.394 127.689 L 77.634 130.75 L 73.284 134.058 L 68.881 137.011 L 66.84 137.795 L 66.883 137.774 Z " fill-rule="evenodd" fill="rgb(40,66,157)"/></g></g></svg>