<?xml version="1.0" encoding="UTF-8" standalone="no"?><!-- Generator: Gravit.io --><svg xmlns="http://www.w3.org/2000/svg" xmlns:xlink="http://www.w3.org/1999/xlink" style="isolation:isolate" viewBox="0 0 208.676 208.676" width="208.676pt" height="208.676pt"><defs><clipPath id="_clipPath_dhB7z4N8tf1wuxmLuekQ1p5vpwK96eUU"><rect width="208.676" height="208.676"/></clipPath></defs><g clip-path="url(#_clipPath_dhB7z4N8tf1wuxmLuekQ1p5vpwK96eUU)"><rect width="208.676" height="208.676" style="fill:rgb(0,0,0)" fill-opacity="0"/><g><path d=" M 104.338 208.676 C 46.714 208.676 0 161.962 0 104.338 C 0 46.714 46.714 0 104.338 0 C 161.962 0 208.676 46.714 208.676 104.338 C 208.676 161.962 161.962 208.676 104.338 208.676 L 104.338 208.676 Z " fill="rgb(193,190,181)"/><path d=" M 114.6 97.733 L 116.225 95.562 L 119.118 92.837 L 123.102 89.943 L 129.246 85.247 L 134.403 81.892 L 139.016 79.093 L 143.807 76.367 L 150.307 73.474 L 157.1 71.209 L 160.35 70.758 L 162.699 70.937 L 163.883 71.754 C 153.4 83.339 142.675 94.871 131.227 106.214 C 131.646 107.032 131.059 108.73 133.219 108.027 C 144.268 96.779 155.088 85.383 165.403 73.641 L 165.676 76.724 C 165.571 78.432 165.382 80.309 165.047 82.51 C 164.942 83.003 164.46 85.477 163.6 89.922 L 160.874 96.8 L 153.997 111.445 L 150.013 118.501 L 147.288 122.841 L 144.394 126.196 L 140.411 129.718 L 135.693 133.157 L 128.91 135.599 C 126.53 136.312 124.15 136.899 121.781 136.417 L 116.351 134.782 L 112.189 132.433 C 110.427 130.693 109.044 128.596 107.492 126.646 C 106.339 123.994 105.794 121.583 105.857 119.413 L 106.224 112.913 C 107.398 109.285 109.453 104.966 110.732 103.142 L 114.537 97.712 L 114.6 97.733 Z " fill="rgb(98,83,41)"/><path d=" M 72.406 118.17 L 70.697 120.433 L 67.676 123.235 L 63.562 126.191 L 57.161 131.012 L 51.813 134.444 L 47.057 137.298 L 42.082 140.062 L 35.359 142.98 L 28.366 145.217 L 25.024 145.628 L 22.62 145.397 L 21.437 144.497 C 32.402 132.49 43.625 120.561 55.567 108.837 C 55.155 107.963 55.798 106.189 53.574 106.884 C 42.031 118.517 30.693 130.305 19.894 142.466 C 19.882 142.131 19.702 139.535 19.676 139.213 C 19.804 137.414 20.062 135.421 20.447 133.12 L 22.08 125.33 L 24.998 118.131 L 32.325 102.834 L 36.541 95.481 L 39.408 90.956 L 42.442 87.486 L 46.594 83.861 L 51.479 80.325 L 58.472 77.883 C 60.914 77.176 63.357 76.598 65.799 77.176 C 66.185 77.305 68.01 77.909 71.327 79.001 L 75.543 81.572 C 77.304 83.436 78.692 85.686 80.235 87.768 C 81.353 90.596 81.868 93.167 81.752 95.43 L 81.238 102.294 C 79.952 106.087 77.767 110.599 76.404 112.501 L 72.419 118.157 L 72.406 118.17 Z " fill="rgb(98,83,41)"/><path d=" M 86.63 58.063 L 85.682 55.911 L 84.782 52.532 L 84.126 48.217 L 82.947 41.458 L 82.376 36.025 L 82.011 31.248 L 81.768 26.349 L 81.962 20.004 L 82.692 13.683 L 83.47 10.887 L 84.394 9.064 L 85.366 8.456 C 89.827 21.377 94.179 34.469 98.154 48.047 C 98.859 48.034 99.855 49.165 100.074 47.159 C 96.038 33.91 91.808 20.818 87.189 7.97 L 89.402 8.942 C 90.544 9.696 91.784 10.583 93.17 11.714 C 93.486 11.981 95.03 13.331 97.813 15.762 L 101.642 20.624 L 109.446 31.843 L 112.971 37.8 L 115.038 41.665 L 116.375 45.287 L 117.469 49.858 L 118.259 54.963 L 117.651 61.333 C 117.335 63.521 116.922 65.66 115.791 67.374 L 112.837 71.081 L 109.798 73.488 C 107.999 74.217 106.079 74.509 104.207 74.983 C 101.995 74.862 100.135 74.375 98.664 73.464 L 94.288 70.632 C 92.173 68.273 89.888 64.943 89.061 63.192 L 86.594 58.038 L 86.63 58.063 Z " fill="rgb(98,83,41)"/><path d=" M 143.598 44.759 L 142.371 44.109 L 140.725 42.778 L 138.838 40.849 L 135.84 37.892 L 133.586 35.334 L 131.667 33.028 L 129.759 30.596 L 127.537 27.178 L 125.566 23.53 L 124.916 21.685 L 124.675 20.29 L 124.884 19.494 C 131.646 24.054 138.408 28.751 145.202 33.898 C 145.516 33.542 146.376 33.657 145.757 32.493 C 139.069 27.566 132.338 22.786 125.545 18.34 C 125.681 18.278 126.782 17.816 126.908 17.764 C 127.704 17.596 128.585 17.449 129.654 17.345 L 133.261 17.187 L 136.794 17.837 L 144.468 19.871 L 148.263 21.234 L 150.632 22.23 L 152.561 23.467 L 154.731 25.312 L 156.985 27.608 L 159.04 31.235 C 159.69 32.525 160.298 33.835 160.403 35.292 L 160.403 38.679 L 159.879 41.425 C 159.323 42.683 158.547 43.795 157.866 44.958 C 156.817 45.986 155.769 46.636 154.763 46.887 L 151.722 47.558 C 149.898 47.349 147.634 46.74 146.606 46.237 L 143.598 44.749 L 143.598 44.759 Z " fill="rgb(98,83,41)"/><path d=" M 86.067 184.555 L 84.595 182.62 L 83.016 179.51 L 81.592 175.473 L 79.194 169.157 L 77.721 164.029 L 76.582 159.518 L 75.585 154.864 L 74.932 148.773 L 74.932 142.636 L 75.525 139.87 L 76.404 138.018 L 77.472 137.305 C 84.785 149.094 91.98 161.049 98.782 173.514 C 99.649 173.419 101.002 174.369 101.014 172.422 C 94.188 160.277 87.148 148.287 79.645 136.593 C 79.942 136.652 82.221 137.187 82.518 137.246 C 84.227 137.892 85.906 138.613 87.551 139.407 C 87.979 139.62 90.068 140.713 93.843 142.683 L 99.233 146.838 L 110.417 156.573 L 115.593 161.797 L 118.703 165.24 L 120.84 168.528 L 122.823 172.755 L 124.508 177.539 L 124.675 183.712 C 124.603 185.849 124.413 187.939 123.25 189.72 C 123.036 189.981 122.004 191.298 120.14 193.637 L 116.744 196.344 C 114.643 197.294 112.328 197.804 110.096 198.505 C 107.342 198.683 104.991 198.433 103.056 197.769 L 97.274 195.632 C 94.354 193.649 91.065 190.764 89.795 189.197 L 86.032 184.567 L 86.067 184.555 Z " fill="rgb(98,83,41)"/></g></g></svg>