<?xml version="1.0" encoding="UTF-8" standalone="no"?><!-- Generator: Gravit.io --><svg xmlns="http://www.w3.org/2000/svg" xmlns:xlink="http://www.w3.org/1999/xlink" style="isolation:isolate" viewBox="0 0 208.676 208.676" width="208.676pt" height="208.676pt"><defs><clipPath id="_clipPath_vzivMEOI4Br73rEJnNQd4LsV0txWwXzm"><rect width="208.676" height="208.676"/></clipPath></defs><g clip-path="url(#_clipPath_vzivMEOI4Br73rEJnNQd4LsV0txWwXzm)"><rect width="208.676" height="208.676" style="fill:rgb(0,0,0)" fill-opacity="0"/><g><path d=" M 104.338 208.676 C 46.714 208.676 0 161.962 0 104.338 C 0 46.714 46.714 0 104.338 0 C 161.962 0 208.676 46.714 208.676 104.338 C 208.676 161.962 161.962 208.676 104.338 208.676 L 104.338 208.676 Z " fill="rgb(133,236,188)"/><path d=" M 28.959 149.407 L 33.68 152.743 L 38.484 154.898 L 44.405 156.684 L 49.414 157.936 L 57.286 159.188 L 62.468 159.947 L 67.23 160.05 L 73.204 159.722 L 82.502 158.11 L 90.015 156.858 L 96.142 155.339 L 107.092 152.589 L 113.271 150.772 L 122.169 147.734 L 129.271 145.579 C 131.559 144.809 133.581 144.43 135.634 144.009 C 137.83 143.496 140.201 143.29 142.633 143.208 C 146.092 143.157 148.689 143.362 151.798 144.029 C 153.748 144.44 155.678 145.179 157.617 145.959 C 159.567 146.985 161.559 147.94 163.467 149.448 C 165.366 150.618 166.782 152.096 168.342 153.482 L 174.069 159.383 C 176.019 161.815 178.277 164.176 179.796 166.711 L 181.777 168.866 C 182.003 168.815 182.218 168.712 182.393 168.25 C 183.08 168.846 183.398 169.482 183.727 170.128 C 183.066 170.122 182.407 170.177 181.756 170.293 L 179.478 169.779 L 174.829 168.989 L 167.983 168.928 L 161.169 169.4 L 152.24 171.001 C 149.058 171.75 145.702 172.848 142.387 173.874 L 126.048 179.417 C 119.192 182.341 111.824 184.384 104.763 186.929 L 94.458 188.9 L 84.934 190.603 L 78.007 191.404 L 66.738 191.589 L 57.788 190.336 C 55.346 189.587 52.903 188.859 50.461 187.647 C 47.074 186.282 44.672 184.22 42.045 182.28 C 39.212 179.355 36.226 176.327 34.779 172.869 C 34.614 172.561 33.824 171.042 32.418 168.312 L 30.427 162.257 L 29.811 158.48 L 29.544 153.861 L 29.36 152.425 L 28.949 149.448 L 28.959 149.407 Z  M 41.347 172.756 L 40.988 170.826 L 40.885 169.903 L 41.275 167.881 L 42.096 165.346 L 42.856 164.145 L 44.251 163.139 L 46.017 162.185 L 47.967 161.744 L 49.742 161.682 L 52.339 162.195 L 54.74 163.283 L 57.327 164.792 L 59.667 166.875 L 61.442 169.595 L 63.269 173.135 L 63.844 176.492 L 63.782 179.016 L 62.581 182.177 C 62.273 182.547 61.986 182.875 61.688 183.132 C 61.668 183.121 61.534 183.08 61.298 182.998 L 59.656 184.199 L 58.271 185.02 L 53.837 184.959 L 50.615 183.953 L 47.844 182.372 L 45.442 180.279 L 43.595 178.072 L 42.394 175.732 L 41.829 174.398 L 41.316 172.756 L 41.347 172.756 L 41.347 172.756 L 41.347 172.756 L 41.347 172.756 L 41.347 172.756 Z  M 65.578 174.501 L 65.209 173.269 C 65.106 172.715 64.737 172.243 65.024 171.596 L 65.055 169.215 C 65.086 168.065 65.64 166.855 65.999 165.931 C 66.338 165.366 66.892 164.822 67.59 164.371 L 68.534 163.447 C 68.862 163.119 69.458 162.954 70.073 162.79 C 70.741 162.626 70.71 162.482 72.28 162.277 L 74.466 162.298 L 76.703 162.708 C 77.771 163.088 78.859 163.303 79.916 163.94 L 82.728 165.685 L 84.678 167.429 L 86.669 169.923 C 87.51 171.134 88.188 172.571 88.752 173.782 C 89.019 174.675 89.111 175.568 89.265 176.451 C 89.368 177.867 89.337 179.252 89.06 180.556 C 88.927 181.808 88.403 182.731 87.859 183.635 C 87.551 184.004 87.315 184.353 87.018 184.61 L 86.381 185.225 L 84.924 185.944 L 82.995 186.611 C 81.537 187.001 80.08 186.683 78.612 186.714 L 75.308 185.585 C 74.384 185.071 73.121 184.722 72.413 183.871 C 71.726 183.665 70.915 182.352 70.114 181.654 L 68.164 179.571 L 67.077 177.826 L 66.194 176.05 L 65.527 174.511 L 65.578 174.501 L 65.578 174.501 L 65.578 174.501 L 65.578 174.501 L 65.578 174.501 Z  M 90.784 172.171 L 90.322 170.693 L 90.189 169.133 C 89.83 167.84 90.138 167.121 90.148 166.157 L 91.031 163.899 L 92.077 162.523 C 92.508 161.98 92.95 161.395 93.381 161.159 C 94.099 160.789 94.879 160.307 95.485 160.163 L 97.537 159.783 L 99.59 159.681 L 102.741 160.225 C 103.634 160.532 104.711 160.84 105.224 161.148 C 106.117 161.702 107.226 162.144 107.893 162.811 C 109.022 163.611 109.72 164.35 110.387 165.1 C 111.167 165.879 111.865 166.382 112.809 167.706 C 113.733 169.43 114.861 171.196 115.108 172.858 C 115.262 174.09 115.518 175.568 115.344 176.071 C 115.303 177.148 114.954 177.918 114.564 178.637 C 114.02 179.724 113.476 180.823 112.645 181.613 C 112.337 181.993 111.947 182.331 111.649 182.588 L 111.074 183.019 L 109.514 183.429 L 108.057 184.117 C 106.579 184.425 105.101 184.189 103.623 184.055 L 100.401 183.029 L 97.63 181.449 L 95.228 179.365 L 93.381 177.148 L 92.18 174.808 L 91.616 173.474 L 90.795 172.161 L 90.784 172.171 L 90.784 172.171 L 90.784 172.171 L 90.784 172.171 Z  M 113.691 163.314 C 113.384 162.452 113.332 161.538 113.312 160.625 L 113.26 158.511 L 113.609 157.443 C 114.02 156.294 114.43 155.781 114.841 155.001 C 114.903 154.919 115.251 154.487 115.888 153.769 L 117.273 152.743 L 119.049 151.799 L 120.999 151.347 L 122.764 151.285 L 125.361 151.799 L 127.762 152.62 L 130.379 153.749 L 132.986 155.565 L 135.316 158.11 C 136.527 159.506 136.927 160.45 137.676 161.579 C 138.169 162.77 138.785 163.981 138.703 165.11 C 138.877 166.393 138.805 167.265 138.805 168.271 C 138.436 169.482 138.066 170.58 137.338 171.678 C 137.03 172.048 136.517 172.756 136.229 173.012 L 135.172 173.833 L 134.228 174.449 L 131.518 175.065 C 130.02 175.229 128.501 175.27 126.9 174.89 L 123.339 173.762 L 120.219 172.017 C 119.193 171.534 118.659 170.785 118.023 170.067 L 116.319 167.963 L 115.087 166.074 L 114.338 164.771 L 113.681 163.334 L 113.691 163.314 L 113.691 163.314 L 113.691 163.314 Z  M 138.261 157.433 L 137.779 155.586 L 137.656 154.498 C 137.666 153.82 137.697 153.164 137.82 152.548 C 137.923 151.675 138.467 150.618 138.815 149.633 L 139.873 148.525 L 141.443 147.498 L 143.413 146.646 L 145.261 146.544 L 147.077 146.441 L 149.889 146.954 C 150.639 147.303 150.875 147.262 152.045 147.734 C 153.256 148.453 154.641 149.12 155.36 150.095 C 155.996 150.351 156.468 150.865 157.002 151.285 L 159.126 153.379 C 159.998 154.549 160.491 156.047 161.004 157.505 C 161.292 158.695 161.62 159.886 161.62 161.076 C 161.446 161.969 161.415 162.718 161.333 163.519 L 160.45 165.315 C 160.142 165.685 159.218 166.68 158.931 166.937 L 157.987 167.593 L 157.043 167.942 L 155.277 168.425 L 151.768 168.609 L 148.34 167.788 L 145.62 166.352 L 142.993 164.443 L 140.18 161.569 L 139.38 160.378 L 138.836 159.024 L 138.261 157.464 L 138.261 157.433 L 138.261 157.433 Z " fill-rule="evenodd" fill="rgb(7,121,68)"/><path d=" M 110.006 110.192 L 110.006 110.192 L 119.618 106.418 L 125.973 104.304 L 136.17 100.332 L 145.026 97.541 L 154.418 94.235 L 165.925 90.135 L 178.623 85.895 L 165.528 90.94 L 155.223 95.298 L 142.396 100.45 L 111.052 112.752 L 113.435 115.789 L 118.051 119.493 L 123.482 123.067 L 129.708 125.858 L 134.86 127.447 L 140.421 127.704 L 145.036 127.168 L 149.545 125.718 L 153.785 123.733 L 158.54 120.555 C 160.655 119.01 162.19 118.258 163.585 116.723 L 167.02 112.752 L 170.852 107.46 L 173.643 103.756 L 176.949 98.464 L 179.997 91.187 L 181.973 86.678 L 182.767 83.115 L 177.475 79.809 L 172.451 77.952 L 167.159 75.966 L 161.342 74.248 L 155.255 73.175 L 149.835 72.778 L 143.877 72.649 L 139.261 73.186 L 133.444 73.98 L 129.343 75.569 L 124.051 78.359 L 118.63 83.383 L 115.196 88.428 L 112.555 93.978 L 111.235 98.872 L 110.44 102.178 L 110.44 105.882 L 109.933 110.012 L 109.925 109.993 L 107.284 111.313 L 106.49 106.418 L 106.093 101.932 L 105.964 98.218 L 105.696 95.717 L 105.159 92.797 L 101.982 92.668 L 101.982 92.679 L 103.055 99.441 L 103.184 102.737 L 103.721 108.029 L 104.655 112.537 L 100.812 112.14 L 100.017 115.038 L 105.063 115.306 L 105.707 117.421 L 105.835 122.981 C 105.814 127.071 105.567 130.517 105.191 133.565 L 104.526 136.732 L 103.882 139.909 L 101.359 147.455 L 99.105 152.479 L 96.99 156.311 L 95.273 158.694 L 97.527 159.617 L 99.384 156.439 L 101.746 152.21 L 103.463 148.775 L 104.783 145.201 L 106.104 140.693 L 106.898 136.86 L 107.295 133.554 L 107.692 130.377 L 107.961 126.545 L 107.961 120.587 L 107.821 117.797 L 107.424 114.233 L 110.998 112.644 L 110.006 110.192 Z  M 69.694 44.644 L 71.819 37.366 L 73.536 32.471 L 76.048 27.447 L 78.839 22.295 L 82.403 17.272 L 85.301 13.568 L 87.426 11.185 L 90.464 7.879 L 95.08 10.391 L 100.232 14.094 L 106.318 18.71 L 110.676 23.347 L 114.251 27.05 L 117.686 31.945 L 120.724 36.174 L 123.235 40.543 L 124.953 44.772 L 126.413 49.388 L 127.207 53.896 L 127.465 58.941 L 127.207 63.557 L 125.618 68.173 L 123.901 72.788 L 121.25 77.157 L 118.609 80.463 L 115.174 84.564 L 111.739 87.999 L 105.127 92.754 C 101.821 71.157 99.137 49.549 94.543 27.941 C 96.185 48.497 99.191 70.878 101.821 92.754 L 98.246 91.573 L 95.209 90.929 L 91.366 89.212 L 86.342 86.56 L 83.959 85.111 L 81.705 83.394 L 78.657 81.032 L 76.295 78.51 L 73.912 75.74 L 71.529 71.769 L 69.146 65.006 L 68.609 62.237 L 67.944 56.805 L 68.481 52.05 L 69.146 47.434 L 69.683 44.644 L 69.694 44.644 L 69.694 44.644 L 69.694 44.644 Z  M 100.651 111.968 L 49.063 106.816 L 60.441 109.199 L 71.025 110.916 L 79.225 111.989 L 90.604 113.846 L 99.867 114.898 L 97.355 118.999 L 94.307 123.099 L 90.475 127.071 L 86.9 129.969 L 82.8 132.61 L 78.184 134.198 L 74.084 134.993 L 68.491 134.993 L 63.607 134.07 L 58.713 132.61 L 51.843 129.443 L 44.565 124.806 L 39.144 120.298 L 35.044 115.94 L 30.804 110.648 L 28.163 106.944 L 25.909 103.509 L 29.215 100.611 L 34.507 95.996 L 38.071 93.355 L 41.645 91.101 L 48.655 87.666 L 53.421 85.412 L 58.97 84.091 L 65.733 83.168 L 71.282 83.029 L 76.435 83.963 L 80.793 85.015 L 85.838 87.805 L 90.346 92.314 L 94.575 97.863 L 98.15 103.692 L 99.738 109.242 L 100.662 112.032 L 100.651 111.968 L 100.651 111.968 L 100.651 111.968 Z " fill-rule="evenodd" fill="rgb(7,121,68)"/></g></g></svg>