<?xml version="1.0" encoding="UTF-8" standalone="no"?><!-- Generator: Gravit.io --><svg xmlns="http://www.w3.org/2000/svg" xmlns:xlink="http://www.w3.org/1999/xlink" style="isolation:isolate" viewBox="0 0 208.676 208.676" width="208.676pt" height="208.676pt"><defs><clipPath id="_clipPath_SWv1X5hSa367n5qhgofFwubdHCppaPAj"><rect width="208.676" height="208.676"/></clipPath></defs><g clip-path="url(#_clipPath_SWv1X5hSa367n5qhgofFwubdHCppaPAj)"><rect width="208.676" height="208.676" style="fill:rgb(0,0,0)" fill-opacity="0"/><g><path d=" M 104.338 208.676 C 46.714 208.676 0 161.962 0 104.338 C 0 46.714 46.714 0 104.338 0 C 161.962 0 208.676 46.714 208.676 104.338 C 208.676 161.962 161.962 208.676 104.338 208.676 L 104.338 208.676 Z " fill="rgb(236,165,204)"/><path d=" M 171.311 159.149 L 161.745 164.673 L 145.315 174.158 L 145.315 182.768 L 136.968 182.768 L 136.968 174.158 L 136.968 174.158 L 120.538 164.673 L 110.983 159.156 L 110.983 159.156 C 112.951 157.222 114.182 154.54 114.214 151.574 L 124.896 157.633 L 141.729 167.182 L 158.562 157.633 L 167.593 152.51 C 167.991 155.16 169.354 157.496 171.311 159.149 L 171.311 159.149 L 171.311 159.149 L 171.311 159.149 L 171.311 159.149 L 171.311 159.149 L 171.311 159.149 L 171.311 159.149 L 171.311 159.149 Z  M 182.348 140.884 L 182.348 128.986 L 182.348 105.196 L 161.745 93.3 L 145.315 83.814 L 145.315 74.41 L 136.968 74.41 L 136.968 83.814 L 136.968 83.814 L 120.538 93.3 L 103.411 103.189 L 103.411 103.189 L 86.284 93.3 L 69.854 83.814 L 69.854 74.41 L 61.507 74.41 L 61.507 83.814 L 61.507 83.814 L 45.077 93.3 L 36.227 98.41 L 36.227 98.41 C 38.5 100.019 40.126 102.484 40.632 105.333 L 49.435 100.34 L 66.268 90.791 L 83.101 100.34 L 99.935 109.889 L 99.935 128.986 L 99.935 141.222 C 101.026 140.851 102.195 140.65 103.411 140.65 C 105.076 140.65 106.654 141.027 108.063 141.701 L 108.063 128.986 L 108.063 109.889 L 124.896 100.34 L 141.729 90.791 L 158.562 100.34 L 175.395 109.889 L 175.395 128.986 L 175.395 140.478 C 176.312 140.225 177.279 140.089 178.276 140.089 C 179.716 140.089 181.091 140.372 182.348 140.884 L 182.348 140.884 L 182.348 140.884 L 182.348 140.884 L 182.348 140.884 L 182.348 140.884 L 182.348 140.884 L 182.348 140.884 L 182.348 140.884 Z  M 95.839 159.156 L 86.284 164.673 L 69.854 174.158 L 69.854 182.768 L 61.507 182.768 L 61.507 174.158 L 61.507 174.158 L 45.077 164.673 L 36.138 159.511 L 36.138 159.511 C 38.218 157.695 39.596 155.094 39.81 152.173 L 49.435 157.633 L 66.268 167.182 L 83.101 157.633 L 92.635 152.225 C 92.826 154.932 94.016 157.364 95.839 159.156 L 95.839 159.156 L 95.839 159.156 L 95.839 159.156 L 95.839 159.156 L 95.839 159.156 L 95.839 159.156 L 95.839 159.156 L 95.839 159.156 L 95.839 159.156 Z  M 24.474 141.578 L 24.474 128.986 L 24.474 116.52 C 26.09 117.484 27.979 118.038 29.996 118.038 C 30.894 118.038 31.767 117.928 32.602 117.721 L 32.602 128.986 L 32.602 141.173 C 31.485 140.782 30.285 140.569 29.035 140.569 C 27.406 140.569 25.86 140.931 24.474 141.578 L 24.474 141.578 L 24.474 141.578 L 24.474 141.578 L 24.474 141.578 L 24.474 141.578 L 24.474 141.578 L 24.474 141.578 L 24.474 141.578 L 24.474 141.578 L 24.474 141.578 Z  M 22.553 107.528 C 22.553 103.285 25.998 99.84 30.242 99.84 C 34.485 99.84 37.931 103.285 37.931 107.528 C 37.931 111.772 34.485 115.217 30.242 115.217 C 25.998 115.217 22.553 111.772 22.553 107.528 L 22.553 107.528 L 22.553 107.528 L 22.553 107.528 L 22.553 107.528 L 22.553 107.528 L 22.553 107.528 L 22.553 107.528 Z  M 21.347 151.373 C 21.347 147.129 24.792 143.684 29.035 143.684 C 33.279 143.684 36.724 147.129 36.724 151.373 C 36.724 155.616 33.279 159.062 29.035 159.062 C 24.792 159.062 21.347 155.616 21.347 151.373 L 21.347 151.373 L 21.347 151.373 L 21.347 151.373 L 21.347 151.373 L 21.347 151.373 L 21.347 151.373 Z  M 95.722 151.373 C 95.722 147.129 99.167 143.684 103.411 143.684 C 107.654 143.684 111.1 147.129 111.1 151.373 C 111.1 155.616 107.654 159.062 103.411 159.062 C 99.167 159.062 95.722 155.616 95.722 151.373 L 95.722 151.373 L 95.722 151.373 L 95.722 151.373 L 95.722 151.373 L 95.722 151.373 Z  M 170.431 150.594 C 170.431 146.351 173.876 142.906 178.12 142.906 C 182.363 142.906 185.809 146.351 185.809 150.594 C 185.809 154.838 182.363 158.283 178.12 158.283 C 173.876 158.283 170.431 154.838 170.431 150.594 L 170.431 150.594 L 170.431 150.594 L 170.431 150.594 L 170.431 150.594 Z  M 41.941 115.115 L 67.194 99.84 L 70.414 105.164 L 45.162 120.439 L 41.941 115.115 L 41.941 115.115 L 41.941 115.115 L 41.941 115.115 Z  M 84.348 139.433 L 61.988 152.959 L 65.208 158.283 L 90.46 143.008 L 90.46 143.007 L 90.548 143.008 L 90.736 113.496 L 84.514 113.456 L 84.348 139.433 L 84.348 139.433 L 84.348 139.433 Z  M 116.185 114.643 L 141.437 99.368 L 144.658 104.691 L 119.405 119.966 L 116.185 114.643 L 116.185 114.643 Z  M 159.072 138.961 L 136.711 152.487 L 139.932 157.811 L 165.184 142.536 L 165.184 142.535 L 165.271 142.536 L 165.46 113.024 L 159.238 112.984 L 159.072 138.961 Z " fill-rule="evenodd" fill="rgb(123,9,72)"/><path d=" M 145.888 43.989 L 159.46 64.237 L 149.735 64.237 L 140.394 49.044 L 131.053 64.237 L 121.932 64.237 L 135.256 43.522 L 122.784 24.072 L 132.179 24.072 L 140.833 38.522 L 149.323 24.072 L 158.499 24.072 L 145.888 43.989 Z " fill="rgb(123,9,72)"/><path d=" M 112.338 48.52 L 93.584 48.52 L 93.584 39.789 L 112.338 39.789 L 112.338 48.52 Z " fill="rgb(123,9,72)"/><path d=" M 77.272 57.204 L 77.272 64.237 L 54.14 64.237 L 54.14 24.072 L 77.272 24.072 L 77.272 31.05 L 62.656 31.05 L 62.656 39.868 L 76.255 39.868 L 76.255 46.847 L 62.656 46.847 L 62.656 57.204 L 77.272 57.204 Z " fill="rgb(123,9,72)"/></g></g></svg>