<?xml version="1.0" encoding="UTF-8" standalone="no"?>
<!-- Generator: Gravit.io -->
<svg xmlns="http://www.w3.org/2000/svg" xmlns:xlink="http://www.w3.org/1999/xlink" style="isolation:isolate" viewBox="0 0 217.648 269.433" width="217.648pt" height="269.433pt"><defs><clipPath id="_clipPath_rQEizxTVRoyK5lWX5EC2gvjBTfu4etBp"><rect width="217.648" height="269.433"/></clipPath></defs><g clip-path="url(#_clipPath_rQEizxTVRoyK5lWX5EC2gvjBTfu4etBp)"><rect width="217.648" height="269.433" style="fill:rgb(0,0,0)" fill-opacity="0"/><g><g opacity="0.65"><mask id="_mask_3oBzPdzkMJoqlLKsBWZlKqA5Bmn31812"><path d=" M 199.095 229.212 C 199.396 230.38 201.045 230.201 201.108 228.994 C 201.545 220.654 202.41 194.097 202.822 172.994 C 201.815 173.094 200.78 172.997 199.764 173.034 C 198.473 173.081 197.184 173.208 195.896 173.353 C 194.587 174.588 190.557 173.399 191.072 177.878 C 191.358 180.378 197.692 223.774 199.095 229.212 Z  M 199.588 161.361 C 200.789 161.153 201.159 162.792 200.834 163.694 C 200.664 164.172 200.229 164.543 199.717 164.512 C 199.406 164.494 199.182 164.299 199.024 164.049 C 198.334 163.38 198.502 161.549 199.588 161.361 L 199.588 161.361 Z  M 198.334 152.377 C 198.315 152.193 198.324 151.942 198.363 151.677 C 198.378 151.365 198.452 151.048 198.608 150.799 C 198.85 150.276 199.256 149.951 199.864 150.361 C 199.929 150.406 199.969 150.471 200.022 150.527 C 200.68 151.035 200.692 152.434 200.357 153.119 C 200.106 153.636 199.542 153.986 199.002 153.68 C 198.552 153.426 198.384 152.872 198.334 152.377 L 198.334 152.377 Z  M 202.835 172.294 C 203.101 158.395 203.163 147.003 202.764 145.009 C 202.153 141.956 194.123 143.416 194.708 151.209 C 196.002 168.442 196.613 170.947 196.33 172.455 C 198.488 172.2 200.639 172.232 202.835 172.294 L 202.835 172.294 Z " fill-rule="evenodd" fill="white" stroke="none"/></mask><path d=" M 199.095 229.212 C 199.396 230.38 201.045 230.201 201.108 228.994 C 201.545 220.654 202.41 194.097 202.822 172.994 C 201.815 173.094 200.78 172.997 199.764 173.034 C 198.473 173.081 197.184 173.208 195.896 173.353 C 194.587 174.588 190.557 173.399 191.072 177.878 C 191.358 180.378 197.692 223.774 199.095 229.212 Z  M 199.588 161.361 C 200.789 161.153 201.159 162.792 200.834 163.694 C 200.664 164.172 200.229 164.543 199.717 164.512 C 199.406 164.494 199.182 164.299 199.024 164.049 C 198.334 163.38 198.502 161.549 199.588 161.361 L 199.588 161.361 Z  M 198.334 152.377 C 198.315 152.193 198.324 151.942 198.363 151.677 C 198.378 151.365 198.452 151.048 198.608 150.799 C 198.85 150.276 199.256 149.951 199.864 150.361 C 199.929 150.406 199.969 150.471 200.022 150.527 C 200.68 151.035 200.692 152.434 200.357 153.119 C 200.106 153.636 199.542 153.986 199.002 153.68 C 198.552 153.426 198.384 152.872 198.334 152.377 L 198.334 152.377 Z  M 202.835 172.294 C 203.101 158.395 203.163 147.003 202.764 145.009 C 202.153 141.956 194.123 143.416 194.708 151.209 C 196.002 168.442 196.613 170.947 196.33 172.455 C 198.488 172.2 200.639 172.232 202.835 172.294 L 202.835 172.294 Z " fill-rule="evenodd" fill="rgb(255,255,255)"/><path d=" M 199.095 229.212 C 199.396 230.38 201.045 230.201 201.108 228.994 C 201.545 220.654 202.41 194.097 202.822 172.994 C 201.815 173.094 200.78 172.997 199.764 173.034 C 198.473 173.081 197.184 173.208 195.896 173.353 C 194.587 174.588 190.557 173.399 191.072 177.878 C 191.358 180.378 197.692 223.774 199.095 229.212 Z  M 199.588 161.361 C 200.789 161.153 201.159 162.792 200.834 163.694 C 200.664 164.172 200.229 164.543 199.717 164.512 C 199.406 164.494 199.182 164.299 199.024 164.049 C 198.334 163.38 198.502 161.549 199.588 161.361 L 199.588 161.361 Z  M 198.334 152.377 C 198.315 152.193 198.324 151.942 198.363 151.677 C 198.378 151.365 198.452 151.048 198.608 150.799 C 198.85 150.276 199.256 149.951 199.864 150.361 C 199.929 150.406 199.969 150.471 200.022 150.527 C 200.68 151.035 200.692 152.434 200.357 153.119 C 200.106 153.636 199.542 153.986 199.002 153.68 C 198.552 153.426 198.384 152.872 198.334 152.377 L 198.334 152.377 Z  M 202.835 172.294 C 203.101 158.395 203.163 147.003 202.764 145.009 C 202.153 141.956 194.123 143.416 194.708 151.209 C 196.002 168.442 196.613 170.947 196.33 172.455 C 198.488 172.2 200.639 172.232 202.835 172.294 L 202.835 172.294 Z " fill-rule="evenodd" fill="rgb(255,255,255)" mask="url(#_mask_3oBzPdzkMJoqlLKsBWZlKqA5Bmn31812)" vector-effect="non-scaling-stroke" stroke-width="2" stroke="rgb(70,70,70)" stroke-linejoin="miter" stroke-linecap="square" stroke-miterlimit="3"/></g><ellipse vector-effect="non-scaling-stroke" cx="108.82394732737498" cy="262" rx="108.82394732737498" ry="7" fill="rgb(235,235,235)"/><g opacity="0.65"><path d=" M 151.096 185.788 L 151.096 185.788 L 151.096 168.573 L 148.582 168.573 L 148.582 168.573 Q 147.84 168.573 147.84 169.749 L 147.84 169.749 L 147.84 171.531 L 144.553 171.265 L 144.553 164.819 L 161.409 164.819 L 161.409 171.265 L 158.122 171.531 L 158.122 169.749 L 158.122 169.749 Q 158.122 169.104 157.96 168.839 L 157.96 168.839 L 157.96 168.839 Q 157.799 168.573 157.187 168.573 L 157.187 168.573 L 154.995 168.573 L 154.995 186.698 L 157.541 186.812 L 157.541 190.035 L 148.453 190.035 L 148.453 186.964 L 150.161 186.85 L 150.161 186.85 Q 151.096 186.736 151.096 185.788 L 151.096 185.788 L 151.096 185.788 L 151.096 185.788 L 151.096 185.788 L 151.096 185.788 Z  M 170.161 169.256 L 170.161 169.256 L 170.161 181.845 L 170.161 181.845 Q 170.161 184.499 171.241 185.58 L 171.241 185.58 L 171.241 185.58 Q 172.32 186.66 174.335 186.66 L 174.335 186.66 L 174.335 186.66 Q 176.349 186.66 177.461 185.485 L 177.461 185.485 L 177.461 185.485 Q 178.573 184.309 178.573 182.034 L 178.573 182.034 L 178.573 168.156 L 176.704 168.042 L 176.704 164.819 L 184.342 164.819 L 184.342 167.891 L 183.278 168.004 L 183.278 168.004 Q 182.344 168.118 182.344 169.142 L 182.344 169.142 L 182.344 182.679 L 182.344 182.679 Q 182.344 186.357 180.152 188.443 L 180.152 188.443 L 180.152 188.443 Q 177.96 190.528 174.093 190.528 L 174.093 190.528 L 174.093 190.528 Q 170.225 190.528 168.243 188.5 L 168.243 188.5 L 168.243 188.5 Q 166.261 186.471 166.261 182.072 L 166.261 182.072 L 166.261 168.156 L 164.392 168.042 L 164.392 164.819 L 172.192 164.819 L 172.192 167.891 L 171.128 168.004 L 171.128 168.004 Q 170.612 168.08 170.387 168.327 L 170.387 168.327 L 170.387 168.327 Q 170.161 168.573 170.161 169.256 L 170.161 169.256 L 170.161 169.256 L 170.161 169.256 L 170.161 169.256 L 170.161 169.256 Z  M 111.241 183.286 L 111.241 190.035 L 95.932 190.035 L 95.932 186.964 L 96.996 186.85 L 96.996 186.85 Q 97.931 186.736 97.931 185.788 L 97.931 185.788 L 97.931 168.156 L 96.094 168.042 L 96.094 164.819 L 110.855 164.819 L 110.855 171.114 L 107.567 171.379 L 107.567 169.862 L 107.567 169.862 Q 107.567 169.218 107.406 168.952 L 107.406 168.952 L 107.406 168.952 Q 107.245 168.687 106.632 168.687 L 106.632 168.687 L 101.863 168.687 L 101.863 175.171 L 109.308 175.171 L 109.308 179.039 L 101.863 179.039 L 101.863 186.13 L 107.051 186.13 L 107.051 186.13 Q 107.632 186.13 107.793 185.845 L 107.793 185.845 L 107.793 185.845 Q 107.954 185.561 107.954 184.916 L 107.954 184.916 L 107.954 183.02 L 111.241 183.286 L 111.241 183.286 L 111.241 183.286 L 111.241 183.286 L 111.241 183.286 Z  M 123.249 190.035 L 115.352 190.035 L 115.352 186.964 L 116.513 186.85 L 116.513 186.85 Q 117.351 186.774 117.351 185.788 L 117.351 185.788 L 117.351 168.156 L 115.514 168.042 L 115.514 164.819 L 121.315 164.819 L 130.436 182.224 L 130.5 182.224 L 130.5 168.156 L 128.373 168.042 L 128.373 164.819 L 136.237 164.819 L 136.237 167.891 L 135.077 168.004 L 135.077 168.004 Q 134.303 168.08 134.303 169.18 L 134.303 169.18 L 134.303 190.035 L 130.532 190.035 L 121.218 172.365 L 121.154 172.365 L 121.154 186.698 L 123.249 186.812 L 123.249 190.035 L 123.249 190.035 L 123.249 190.035 L 123.249 190.035 Z  M 109.129 206.011 L 109.129 206.011 L 109.129 206.011 Q 108.716 205.204 106.051 205.204 L 106.051 205.204 L 106.051 205.204 Q 102.56 205.204 100.758 207.879 L 100.758 207.879 L 100.758 207.879 Q 98.957 210.554 98.957 215.608 L 98.957 215.608 L 98.957 215.608 Q 98.957 226.096 105.901 226.096 L 105.901 226.096 L 105.901 226.096 Q 106.013 226.096 106.895 226.096 L 106.895 226.096 L 106.895 226.096 Q 107.778 226.096 108.566 225.82 L 108.566 225.82 L 108.566 225.82 Q 109.354 225.544 109.504 225.247 L 109.504 225.247 L 109.504 225.247 Q 109.654 224.95 109.654 224.313 L 109.654 224.313 L 109.654 220.916 L 113.483 221.213 L 113.483 228.559 L 113.483 228.559 Q 110.555 230.3 106.051 230.3 L 106.051 230.3 L 106.051 230.3 Q 100.308 230.3 97.286 226.648 L 97.286 226.648 L 97.286 226.648 Q 94.265 222.996 94.265 215.777 L 94.265 215.777 L 94.265 215.777 Q 94.265 211.786 95.278 208.813 L 95.278 208.813 L 95.278 208.813 Q 96.292 205.841 98.018 204.185 L 98.018 204.185 L 98.018 204.185 Q 101.396 201 106.051 201 L 106.051 201 L 106.051 201 Q 109.804 201 113.107 202.741 L 113.107 202.741 L 113.107 209.96 L 109.279 210.257 L 109.279 206.945 L 109.279 206.945 Q 109.279 206.308 109.129 206.011 L 109.129 206.011 L 109.129 206.011 L 109.129 206.011 Z  M 129.681 206.266 L 129.569 206.266 L 126.078 218.368 L 133.059 218.368 L 129.681 206.266 L 129.681 206.266 L 129.681 206.266 L 129.681 206.266 Z  M 153.424 225.926 L 153.424 225.926 L 153.424 225.926 Q 157.928 225.926 157.928 221.85 L 157.928 221.85 L 157.928 221.85 Q 157.928 219.726 155.939 218.707 L 155.939 218.707 L 155.939 218.707 Q 154.888 218.113 153.218 217.603 L 153.218 217.603 L 153.218 217.603 Q 151.547 217.094 150.44 216.563 L 150.44 216.563 L 150.44 216.563 Q 149.333 216.032 148.207 215.098 L 148.207 215.098 L 148.207 215.098 Q 145.992 213.23 145.992 209.344 L 145.992 209.344 L 145.992 209.344 Q 145.992 205.459 148.376 203.229 L 148.376 203.229 L 148.376 203.229 Q 150.759 201 154.607 201 L 154.607 201 L 154.607 201 Q 158.454 201 161.757 202.741 L 161.757 202.741 L 161.757 209.11 L 157.928 209.408 L 157.928 206.945 L 157.928 206.945 Q 157.928 206.308 157.778 206.011 L 157.778 206.011 L 157.778 206.011 Q 157.365 205.204 155.132 205.204 L 155.132 205.204 L 155.132 205.204 Q 152.899 205.204 151.829 206.096 L 151.829 206.096 L 151.829 206.096 Q 150.759 206.988 150.759 208.856 L 150.759 208.856 L 150.759 208.856 Q 150.759 210.215 151.66 211.234 L 151.66 211.234 L 151.66 211.234 Q 152.261 211.913 153.443 212.359 L 153.443 212.359 L 153.443 212.359 Q 154.625 212.805 155.958 213.272 L 155.958 213.272 L 155.958 213.272 Q 157.29 213.739 158.322 214.291 L 158.322 214.291 L 158.322 214.291 Q 159.355 214.843 160.481 215.82 L 160.481 215.82 L 160.481 215.82 Q 162.77 217.731 162.77 221.722 L 162.77 221.722 L 162.77 221.722 Q 162.77 225.714 160.237 228.007 L 160.237 228.007 L 160.237 228.007 Q 157.703 230.3 153.555 230.3 L 153.555 230.3 L 153.555 230.3 Q 149.408 230.3 146.105 228.559 L 146.105 228.559 L 146.105 221.85 L 149.933 221.553 L 149.933 224.143 L 149.933 224.143 Q 149.933 224.78 150.084 225.077 L 150.084 225.077 L 150.084 225.077 Q 150.234 225.374 151.003 225.65 L 151.003 225.65 L 151.003 225.65 Q 151.773 225.926 153.424 225.926 L 153.424 225.926 L 153.424 225.926 L 153.424 225.926 Z  M 177.918 206.266 L 177.805 206.266 L 174.314 218.368 L 181.296 218.368 L 177.918 206.266 L 177.918 206.266 L 177.918 206.266 L 177.918 206.266 Z  M 159.915 138.534 L 159.915 142.243 L 159.915 142.243 Q 159.915 143.791 159.637 144.474 L 159.637 144.474 L 159.637 144.474 Q 159.358 145.158 158.354 145.158 Q 158.354 145.158 158.354 145.158 L 158.354 145.158 L 152.374 145.158 L 152.374 128.123 L 162.258 128.123 L 165.258 128.123 L 165.258 118.831 L 162.258 118.831 L 152.374 118.831 L 152.374 103.254 L 157.629 103.254 L 157.629 103.254 Q 158.688 103.254 158.967 103.891 L 158.967 103.891 L 158.967 103.891 Q 159.246 104.529 159.246 106.077 L 159.246 106.077 L 159.246 109.721 L 159.5 109.693 L 159.5 109.693 L 159.5 109.693 L 159.5 109.693 L 167.935 107.847 L 167.935 93.962 L 164.935 93.962 L 142.39 93.962 L 139.39 93.962 L 139.39 101.705 L 142.569 101.978 L 142.569 144.338 L 142.569 144.338 Q 142.569 146.615 140.952 146.888 L 140.952 146.888 L 139.111 147.162 L 139.111 154.54 L 142.111 154.54 L 165.605 154.54 L 168.605 154.54 L 168.605 140.436 L 159.915 138.534 L 159.915 138.534 L 159.915 138.534 Z  M 82.828 138.804 L 82.828 142.88 L 82.828 142.88 Q 82.828 144.247 82.605 144.884 L 82.605 144.884 L 82.605 144.884 Q 82.382 145.522 81.211 146.114 L 81.211 146.114 L 81.211 146.114 Q 80.344 146.553 79.4 146.666 Q 69.932 145.759 69.932 124.205 L 69.932 124.205 L 69.932 124.205 Q 69.932 113.365 72.609 107.626 L 72.609 107.626 L 72.609 107.626 Q 74.938 102.635 79.165 101.984 L 79.165 101.984 L 79.165 101.984 L 79.165 101.984 Q 81.579 102.298 82.047 103.618 L 82.047 103.618 L 82.047 103.618 L 82.047 103.618 Q 82.27 104.256 82.27 105.622 L 82.27 105.622 L 82.27 109.389 L 82.27 109.389 L 90.959 107.487 L 90.959 96.603 L 90.959 96.603 Q 86.051 92.869 80.474 92.869 L 80.474 92.869 L 80.474 92.869 Q 79.748 92.869 79.043 92.944 Q 78.265 92.869 77.474 92.869 L 77.474 92.869 L 77.474 92.869 Q 70.558 92.869 65.538 99.701 L 65.538 99.701 L 65.538 99.701 Q 62.972 103.254 61.466 109.63 L 61.466 109.63 L 61.466 109.63 Q 59.96 116.007 59.96 124.57 L 59.96 124.57 L 59.96 124.57 Q 59.96 140.056 64.45 147.891 L 64.45 147.891 L 64.45 147.891 Q 68.94 155.725 77.474 155.725 L 77.474 155.725 L 77.474 155.725 Q 78.288 155.725 79.068 155.669 Q 79.757 155.725 80.474 155.725 L 80.474 155.725 L 80.474 155.725 Q 87.167 155.725 91.517 151.99 L 91.517 151.99 L 91.517 140.706 L 82.828 138.804 L 82.828 138.804 L 82.828 138.804 L 82.828 138.804 Z  M 195.088 109.639 L 194.36 109.721 L 194.36 106.077 L 194.36 106.077 Q 194.36 104.529 194.081 103.891 L 194.081 103.891 L 194.081 103.891 Q 193.802 103.254 192.742 103.254 L 192.742 103.254 L 192.742 103.254 L 186.093 103.254 L 186.093 119.377 L 196.814 119.377 L 199.814 119.377 L 199.814 128.669 L 196.814 128.669 L 186.093 128.669 L 186.093 146.524 L 191.057 146.798 L 191.057 154.54 L 191.057 154.54 L 188.057 154.54 L 188.057 154.54 L 175.831 154.54 L 172.831 154.54 L 172.831 147.162 L 174.671 146.888 L 174.671 146.888 Q 176.289 146.615 176.289 144.338 L 176.289 144.338 L 176.289 101.978 L 173.109 101.705 L 173.109 93.962 L 176.109 93.962 L 200.049 93.962 L 203.049 93.962 L 203.049 107.897 L 195.088 109.639 L 195.088 109.639 L 195.088 109.639 L 195.088 109.639 L 195.088 109.639 L 195.088 109.639 L 195.088 109.639 Z  M 122.236 128.123 L 122.236 143.882 L 122.236 143.882 L 122.236 143.882 Q 122.236 145.522 121.846 146.114 L 121.846 146.114 L 121.846 146.114 Q 121.455 146.706 120.619 146.888 L 120.619 146.888 L 118.778 147.162 L 118.778 154.54 L 121.778 154.54 L 132.276 154.54 L 132.276 154.54 L 135.276 154.54 L 135.276 146.798 L 132.097 146.524 L 132.097 104.529 L 132.097 104.529 Q 132.097 101.887 133.714 101.614 L 133.714 101.614 L 135.555 101.34 L 135.555 93.962 L 132.555 93.962 L 122.057 93.962 L 119.057 93.962 L 119.057 101.705 L 122.236 101.978 L 122.236 118.74 L 109.452 118.74 L 109.452 104.62 L 109.452 104.62 Q 109.452 102.98 109.842 102.388 L 109.842 102.388 L 109.842 102.388 Q 110.233 101.796 111.125 101.614 L 111.125 101.614 L 112.966 101.34 L 112.966 93.962 L 109.966 93.962 L 99.468 93.962 L 96.468 93.962 L 96.468 101.705 L 99.647 101.978 L 99.647 144.338 L 99.647 144.338 Q 99.647 146.615 98.03 146.888 L 98.03 146.888 L 96.189 147.162 L 96.189 154.54 L 99.189 154.54 L 109.687 154.54 L 112.687 154.54 L 112.687 146.798 L 109.452 146.524 L 109.452 128.123 L 122.236 128.123 L 122.236 128.123 L 122.236 128.123 L 122.236 128.123 L 122.236 128.123 L 122.236 128.123 L 122.236 128.123 L 122.236 128.123 Z  M 119.997 224.992 L 119.997 224.992 L 126.04 205.204 L 123.676 204.949 L 123.676 201.51 L 132.271 201.51 L 139.928 226.011 L 139.966 226.011 L 142.105 226.139 L 142.105 229.748 L 132.421 229.748 L 132.421 226.308 L 133.848 226.181 L 133.848 226.181 Q 134.486 226.096 134.711 225.841 L 134.711 225.841 L 134.711 225.841 Q 134.936 225.586 134.748 224.907 L 134.748 224.907 L 133.96 222.274 L 125.177 222.274 L 124.051 226.011 L 126.303 226.139 L 126.303 229.748 L 117.632 229.748 L 117.632 226.308 L 118.871 226.181 L 118.871 226.181 Q 119.659 226.096 119.997 224.992 L 119.997 224.992 L 119.997 224.992 L 119.997 224.992 Z  M 168.234 224.992 L 168.234 224.992 L 174.277 205.204 L 171.912 204.949 L 171.912 201.51 L 180.508 201.51 L 188.165 226.011 L 188.202 226.011 L 190.342 226.139 L 190.342 229.748 L 180.658 229.748 L 180.658 226.308 L 182.084 226.181 L 182.084 226.181 Q 182.722 226.096 182.948 225.841 L 182.948 225.841 L 182.948 225.841 Q 183.173 225.586 182.985 224.907 L 182.985 224.907 L 182.197 222.274 L 173.414 222.274 L 172.288 226.011 L 174.54 226.139 L 174.54 229.748 L 165.869 229.748 L 165.869 226.308 L 167.108 226.181 L 167.108 226.181 Q 167.896 226.096 168.234 224.992 L 168.234 224.992 L 168.234 224.992 L 168.234 224.992 Z  M 71.086 76.532 L 71.086 76.532 L 71.086 49.198 L 68.686 49.02 L 68.686 43.969 L 78.875 43.969 L 78.875 48.782 L 77.485 48.961 L 77.485 48.961 Q 76.264 49.139 76.264 50.862 L 76.264 50.862 L 76.264 78.256 L 78.664 78.434 L 78.664 83.485 L 68.476 83.485 L 68.476 78.672 L 69.865 78.493 L 69.865 78.493 Q 70.497 78.375 70.791 77.988 L 70.791 77.988 L 70.791 77.988 Q 71.086 77.602 71.086 76.532 L 71.086 76.532 L 71.086 76.532 L 71.086 76.532 L 71.086 76.532 L 71.086 76.532 Z  M 89.339 58.806 L 89.339 58.806 L 89.339 58.806 Q 89.339 77.022 96.58 77.022 L 96.58 77.022 L 96.58 77.022 Q 100.453 77.022 102.011 71.439 L 102.011 71.439 L 102.011 71.439 Q 103.443 66.518 103.443 59.394 L 103.443 59.394 L 103.443 59.394 Q 103.443 53.004 102.179 47.642 L 102.179 47.642 L 102.179 47.642 Q 101.464 44.704 100.011 43.015 L 100.011 43.015 L 100.011 43.015 Q 98.559 41.325 96.243 41.325 L 96.243 41.325 L 96.243 41.325 Q 93.928 41.325 92.265 43.969 L 92.265 43.969 L 92.265 43.969 Q 90.602 46.614 89.97 50.36 L 89.97 50.36 L 89.97 50.36 Q 89.339 54.105 89.339 58.806 L 89.339 58.806 L 89.339 58.806 L 89.339 58.806 L 89.339 58.806 L 89.339 58.806 L 89.339 58.806 Z  M 125.148 42.868 L 125.021 42.868 L 121.106 63.801 L 128.937 63.801 L 125.148 42.868 L 125.148 42.868 L 125.148 42.868 L 125.148 42.868 L 125.148 42.868 L 125.148 42.868 Z  M 153.294 83.485 L 142.979 83.485 L 142.979 77.536 L 144.495 77.315 L 144.495 77.315 Q 145.59 77.168 145.59 75.259 L 145.59 75.259 L 145.59 41.105 L 143.19 40.885 L 143.19 34.641 L 150.768 34.641 L 162.682 68.354 L 162.767 68.354 L 162.767 41.105 L 159.988 40.885 L 159.988 34.641 L 170.26 34.641 L 170.26 40.591 L 168.745 40.811 L 168.745 40.811 Q 167.734 40.958 167.734 43.088 L 167.734 43.088 L 167.734 83.485 L 162.809 83.485 L 150.642 49.258 L 150.557 49.258 L 150.557 77.022 L 153.294 77.242 L 153.294 83.485 L 153.294 83.485 L 153.294 83.485 L 153.294 83.485 Z  M 186.114 42.868 L 185.987 42.868 L 182.072 63.801 L 189.903 63.801 L 186.114 42.868 L 186.114 42.868 L 186.114 42.868 L 186.114 42.868 Z  M 68.775 30.3 L 78.875 30.3 L 78.875 39.613 L 68.775 39.613 L 68.775 30.3 L 68.775 30.3 Z  M 96.938 33.76 L 96.938 33.76 L 96.938 33.76 Q 101.927 33.76 105.295 39.93 L 105.295 39.93 L 105.295 39.93 Q 108.663 46.1 108.663 58.769 L 108.663 58.769 L 108.663 58.769 Q 108.663 71.439 105.316 77.939 L 105.316 77.939 L 105.316 77.939 Q 101.969 84.44 96.264 84.44 L 96.264 84.44 L 96.264 84.44 Q 90.56 84.44 87.318 77.976 L 87.318 77.976 L 87.318 77.976 Q 84.076 71.513 84.076 59.173 L 84.076 59.173 L 84.076 59.173 Q 84.076 52.416 85.213 47.311 L 85.213 47.311 L 85.213 47.311 Q 86.35 42.207 88.202 39.416 L 88.202 39.416 L 88.202 39.416 Q 91.949 33.76 96.938 33.76 L 96.938 33.76 L 96.938 33.76 L 96.938 33.76 L 96.938 33.76 L 96.938 33.76 L 96.938 33.76 Z  M 114.286 75.259 L 114.286 75.259 L 121.064 41.032 L 118.411 40.591 L 118.411 34.641 L 128.052 34.641 L 136.641 77.022 L 136.683 77.022 L 139.083 77.242 L 139.083 83.485 L 128.221 83.485 L 128.221 77.536 L 129.821 77.315 L 129.821 77.315 Q 130.536 77.168 130.789 76.728 L 130.789 76.728 L 130.789 76.728 Q 131.042 76.287 130.831 75.112 L 130.831 75.112 L 129.947 70.558 L 120.096 70.558 L 118.832 77.022 L 121.359 77.242 L 121.359 83.485 L 111.633 83.485 L 111.633 77.536 L 113.023 77.315 L 113.023 77.315 Q 113.907 77.168 114.286 75.259 L 114.286 75.259 L 114.286 75.259 L 114.286 75.259 L 114.286 75.259 L 114.286 75.259 Z  M 175.252 75.259 L 175.252 75.259 L 182.03 41.032 L 179.378 40.591 L 179.378 34.641 L 189.018 34.641 L 197.607 77.022 L 197.649 77.022 L 200.049 77.242 L 200.049 83.485 L 189.187 83.485 L 189.187 77.536 L 190.787 77.315 L 190.787 77.315 Q 191.502 77.168 191.755 76.728 L 191.755 76.728 L 191.755 76.728 Q 192.008 76.287 191.797 75.112 L 191.797 75.112 L 190.913 70.558 L 181.062 70.558 L 179.799 77.022 L 182.325 77.242 L 182.325 83.485 L 172.599 83.485 L 172.599 77.536 L 173.989 77.315 L 173.989 77.315 Q 174.873 77.168 175.252 75.259 L 175.252 75.259 L 175.252 75.259 L 175.252 75.259 Z " fill-rule="evenodd" fill="rgb(46,46,46)"/></g><g style="opacity:0.65;"><g><path d=" M 67.285 101.882 C 67.285 101.882 67.823 114.547 64.596 129.187 C 61.37 143.826 62.244 146.655 67.319 151.896 C 72.394 157.136 86.375 161.169 83.686 182.275 C 80.997 203.382 72.259 227.667 70.915 237.795 C 73.873 226.682 85.938 195.955 85.938 178.747 C 85.938 161.539 79.58 158.021 69.75 150.953 C 61.773 145.217 63.617 139.61 66.112 130.25 C 69.48 117.613 67.285 101.882 67.285 101.882 Z " fill="rgb(46,46,46)"/><path d=" M 46.358 207.68 C 48.802 200.242 50.738 194.573 50.738 194.573 C 48.049 196.285 44.59 205.832 42.668 214.042 C 39.987 221.144 37.732 231.863 37.927 236.828 C 41.376 224.093 46.101 208.524 46.358 207.68 Z " fill-rule="evenodd" fill="rgb(46,46,46)"/><path d=" M 61.617 208.648 C 64.061 201.209 65.997 195.541 65.997 195.541 C 63.308 197.252 59.848 206.8 57.927 215.01 C 55.246 222.111 52.991 232.83 53.186 237.795 C 56.635 225.06 61.36 209.491 61.617 208.648 Z " fill-rule="evenodd" fill="rgb(46,46,46)"/><path d=" M 37.847 172.782 C 36.787 176.564 34.606 181.987 31.187 192.987 C 24.554 214.317 24.823 236.9 24.823 236.9 C 24.823 236.9 28.024 213.11 33.217 195.496 C 36.173 185.465 39.28 178.838 40.276 172.612 C 39.612 172.728 38.933 172.79 38.241 172.79 C 38.109 172.79 37.978 172.788 37.847 172.782 Z " fill-rule="evenodd" fill="rgb(46,46,46)"/><path d=" M 29.964 67.498 C 29.964 67.498 31.231 71.765 31.267 76.085 C 31.316 81.98 34.608 86.886 42.189 91.301 C 39.56 88.652 32.892 83.979 32.578 78.591 C 32.161 71.425 29.964 67.498 29.964 67.498 Z " fill="rgb(46,46,46)"/><path d=" M 43.902 91.008 C 43.902 91.008 54.725 87.236 56.91 75.621 C 54.168 82.512 50.329 87.143 43.902 91.008 Z " fill="rgb(46,46,46)"/><path d=" M 34.138 66.986 C 34.888 66.942 39.548 68.282 39.634 72.747 C 39.721 77.212 39.566 78.527 41.493 79.122 C 40.372 77.937 40.535 74.614 40.283 72.499 C 39.624 66.953 34.138 66.986 34.138 66.986 Z " fill="rgb(46,46,46)"/><path d=" M 44.957 70.02 C 44.957 70.02 50.451 72.986 51.974 67.323 C 50.346 68.949 47.563 69.951 44.957 70.02 Z " fill="rgb(46,46,46)"/><path d=" M 32.202 71.658 C 32.202 71.658 35.422 74.904 37.776 70.601 C 36.256 71.649 34.062 72.013 32.202 71.658 Z " fill="rgb(46,46,46)"/><path d=" M 39.564 83.302 C 39.564 83.302 42.363 83.725 45.567 82.101 C 45.553 83.488 41.245 85.585 39.564 83.302 Z " fill="rgb(46,46,46)"/><path d=" M 41.414 85.208 C 41.414 85.208 43.592 85.122 44.436 84.449 C 43.61 86.325 42.369 85.977 41.414 85.208 Z " fill="rgb(46,46,46)"/><path d=" M 37.596 88.746 C 37.596 88.746 36.754 91.739 35.265 92.756 C 33.777 93.773 28.76 93.71 25.643 90.458 C 26.838 92.815 32.5 96.129 35.8 94.177 C 38.209 92.754 37.596 88.746 37.596 88.746 Z " fill="rgb(46,46,46)"/><path d=" M 48.336 47.214 C 48.336 47.214 69.791 59.966 68.173 72.014 C 66.554 84.061 55.259 95.498 74.304 105.686 C 68.899 97.653 66.154 96.207 70.927 86.618 C 75.699 77.03 78.314 69.883 69.895 60.709 C 61.476 51.536 48.336 47.214 48.336 47.214 Z " fill="rgb(46,46,46)"/><path d=" M 35.209 67.103 C 35.209 67.103 31.968 66.69 30.372 67.782 C 31.372 66.165 34.025 66.779 35.209 67.103 Z " fill="rgb(46,46,46)"/><path d=" M 42.322 67.08 C 42.322 67.08 45.344 62.356 53.021 63.544 C 50.472 62.182 43.375 62.588 42.322 67.08 Z " fill="rgb(46,46,46)"/><path d=" M 52.683 98.991 C 52.574 98.991 52.513 98.992 52.513 98.992 C 52.571 98.991 52.625 98.993 52.683 98.991 Z " fill="rgb(46,46,46)"/><path d=" M 40.771 50.517 C 40.771 50.517 36.649 61.693 25.715 70.735 C 21.343 74.35 21.57 80.64 32.099 82.807 C 19.643 83.986 15.841 79.563 18.621 72.671 C 21.4 65.779 34.105 61.312 40.771 50.517 Z " fill="rgb(46,46,46)"/><path d=" M 40.771 50.517 C 40.771 50.517 36.649 61.693 25.715 70.735 C 21.343 74.35 21.57 80.64 32.099 82.807 C 19.643 83.986 15.841 79.563 18.621 72.671 C 21.4 65.779 34.105 61.312 40.771 50.517 Z " fill="rgb(46,46,46)"/><path d=" M 36.317 45.788 C 36.317 45.788 31.899 53.014 23.024 57.812 C 19.474 59.73 18.764 64.149 25.81 67.115 C 16.958 66.217 14.917 62.607 17.808 58.183 C 20.698 53.759 30.177 52.397 36.317 45.788 Z " fill="rgb(46,46,46)"/><path d=" M 40.771 50.517 C 40.771 50.517 56.913 60.63 56.246 70.285 C 55.579 79.941 51.34 82.21 57.874 89.001 C 64.407 95.791 53.132 106.509 45.052 111.767 C 53.092 108.937 67.424 101.31 65.046 92.521 C 62.668 83.732 58.832 83.878 61.627 73.457 C 64.423 63.035 50.027 52.986 40.771 50.517 Z " fill="rgb(46,46,46)"/><path d=" M 31.05 89.205 C 31.05 89.205 22.109 88.589 22.228 99.942 C 22.346 111.294 12.295 113.481 8.02 114.53 C 14.827 109.879 17.913 107.515 16.992 98.99 C 16.071 90.465 22.777 88.945 31.05 89.205 Z " fill="rgb(46,46,46)"/><path d=" M 35.328 43.145 C 35.328 43.145 52.359 34.546 69.359 58.229 C 64.497 45.649 49.11 29.895 35.328 43.145 Z " fill="rgb(46,46,46)"/><circle vector-effect="non-scaling-stroke" cx="32.54869120404305" cy="120.69029643524846" r="1.8616991041688227" fill="rgb(46,46,46)"/><circle vector-effect="non-scaling-stroke" cx="33.515930839302314" cy="133.38350759436048" r="1.8616991041688227" fill="rgb(46,46,46)"/><circle vector-effect="non-scaling-stroke" cx="36.27208941238064" cy="144.8029420667275" r="1.861699104168821" fill="rgb(46,46,46)"/><circle vector-effect="non-scaling-stroke" cx="53.9618727026517" cy="145.08399151338608" r="1.861699104168821" fill="rgb(46,46,46)"/><circle vector-effect="non-scaling-stroke" cx="48.66989430167541" cy="133.38350759436048" r="1.861699104168821" fill="rgb(46,46,46)"/><circle vector-effect="non-scaling-stroke" cx="47.42864945099825" cy="121.02245043823746" r="1.861699104168821" fill="rgb(46,46,46)"/><circle vector-effect="non-scaling-stroke" cx="33.19539264106311" cy="108.83605107024232" r="1.8616991041688227" fill="rgb(46,46,46)"/><circle vector-effect="non-scaling-stroke" cx="48.87649460286616" cy="109.25740327050937" r="1.861699104168821" fill="rgb(46,46,46)"/></g><g><path d=" M 14.543 11.094 C 20.105 2.996 31.035 8.605 31.035 8.605 L 31.095 8.669 C 41.57 -4.635 53.391 3.498 58.107 7.894 L 58.133 7.329 C 58.133 7.329 73.934 6.619 71.173 18.168 C 68.713 28.459 62.427 28.677 57.186 28.131 C 57.186 28.131 58.103 28.575 58.637 28.679 C 58.637 28.679 59.227 44.063 61.825 46.365 C 61.825 46.365 38.966 42.918 26.445 53.014 C 26.169 53.005 26.182 36.212 23.494 33.815 C 23.494 33.815 23.329 33.818 23.666 33.59 C 11.282 28.339 8.798 19.457 14.543 11.094 Z " fill="rgb(255,255,255)"/><path d=" M 60.73 7.4 C 60.576 7.383 60.436 7.37 60.304 7.357 C 59.758 7.313 59.327 7.285 59.032 7.277 C 58.737 7.268 58.58 7.27 58.58 7.27 C 58.58 7.27 58.735 7.245 59.029 7.211 C 59.323 7.18 59.756 7.131 60.31 7.115 C 60.863 7.097 61.539 7.092 62.313 7.152 C 63.086 7.209 63.962 7.316 64.901 7.546 C 64.983 7.566 65.065 7.586 65.15 7.61 C 65.435 7.659 65.73 7.72 66.032 7.794 C 66.97 8.018 67.981 8.356 68.967 8.92 C 69.089 8.991 69.213 9.063 69.338 9.135 C 69.459 9.211 69.577 9.297 69.699 9.379 C 69.946 9.537 70.172 9.731 70.406 9.923 C 70.641 10.113 70.846 10.343 71.067 10.56 C 71.165 10.681 71.264 10.802 71.363 10.923 C 71.463 11.045 71.564 11.166 71.647 11.301 C 72.369 12.345 72.849 13.609 73.009 14.914 C 73.183 16.217 73.076 17.552 72.871 18.82 L 72.792 19.285 L 72.69 19.763 C 72.62 20.083 72.554 20.404 72.463 20.713 C 72.377 21.025 72.299 21.338 72.189 21.643 C 72.089 21.95 71.989 22.257 71.862 22.555 L 71.682 23.003 L 71.473 23.44 C 71.339 23.733 71.169 24.008 71.008 24.285 C 70.932 24.425 70.836 24.555 70.747 24.688 C 70.655 24.819 70.569 24.953 70.472 25.079 C 70.269 25.325 70.083 25.581 69.857 25.803 C 69.003 26.735 67.918 27.386 66.842 27.762 C 66.303 27.956 65.763 28.074 65.241 28.162 C 64.716 28.229 64.21 28.278 63.726 28.279 C 62.758 28.302 61.883 28.213 61.117 28.113 C 60.35 28.015 59.691 27.892 59.149 27.793 C 58.066 27.587 57.447 27.47 57.447 27.47 C 57.447 27.47 57.521 27.473 57.664 27.478 C 56.787 27.312 56.316 27.222 56.316 27.222 C 56.316 27.222 56.473 27.228 56.768 27.239 C 57.063 27.253 57.497 27.267 58.047 27.303 C 58.596 27.335 59.263 27.372 60.023 27.397 C 60.783 27.418 61.639 27.417 62.554 27.329 C 63.468 27.241 64.442 27.048 65.384 26.66 C 66.322 26.268 67.208 25.654 67.928 24.827 C 68.667 24.013 69.197 22.973 69.628 21.876 C 69.742 21.603 69.831 21.318 69.921 21.032 C 70.019 20.75 70.089 20.455 70.166 20.162 C 70.249 19.87 70.305 19.575 70.366 19.281 L 70.457 18.837 L 70.532 18.372 C 70.74 17.165 70.845 15.969 70.705 14.812 C 70.567 13.662 70.217 12.57 69.623 11.655 C 69.558 11.536 69.473 11.43 69.391 11.323 C 69.309 11.215 69.228 11.107 69.147 11 C 69.056 10.902 68.965 10.803 68.875 10.705 C 68.785 10.607 68.699 10.505 68.598 10.419 C 68.402 10.24 68.214 10.056 68 9.903 C 67.896 9.824 67.796 9.741 67.69 9.666 C 67.581 9.595 67.473 9.524 67.366 9.454 C 66.5 8.9 65.584 8.505 64.71 8.22 C 64.329 8.098 63.957 7.993 63.605 7.911 C 62.761 7.744 62.028 7.66 61.435 7.605 C 60.889 7.56 60.458 7.533 60.163 7.525 C 59.869 7.515 59.711 7.518 59.711 7.518 C 59.711 7.518 59.867 7.492 60.161 7.459 C 60.319 7.442 60.517 7.42 60.73 7.4 Z " fill-rule="evenodd" fill="rgb(46,46,46)"/><path d=" M 58.867 8.109 C 59.008 8.271 59.14 8.425 59.262 8.568 C 59.602 8.963 59.847 9.291 60.016 9.512 C 60.182 9.735 60.271 9.854 60.271 9.854 C 60.271 9.854 60.165 9.75 59.967 9.555 C 59.768 9.361 59.468 9.085 59.088 8.736 C 58.322 8.043 57.203 7.082 55.78 6.051 C 55.068 5.536 54.275 5.015 53.419 4.5 C 52.558 3.991 51.624 3.507 50.634 3.075 C 50.14 2.856 49.625 2.666 49.102 2.487 C 48.577 2.313 48.039 2.166 47.495 2.029 C 46.402 1.775 45.27 1.628 44.139 1.642 C 43.009 1.631 41.883 1.794 40.806 2.073 C 39.734 2.373 38.702 2.771 37.757 3.278 C 36.812 3.783 35.937 4.357 35.15 4.964 C 35.051 5.039 34.953 5.114 34.856 5.189 C 34.762 5.267 34.668 5.346 34.575 5.423 C 34.391 5.58 34.203 5.727 34.029 5.886 C 33.853 6.042 33.68 6.196 33.51 6.347 C 33.343 6.501 33.185 6.658 33.026 6.809 C 32.397 7.419 31.849 8.012 31.367 8.542 C 31.133 8.814 30.913 9.068 30.711 9.304 C 30.507 9.539 30.331 9.764 30.166 9.963 C 29.836 10.361 29.589 10.685 29.416 10.902 C 29.243 11.121 29.151 11.238 29.151 11.238 C 29.151 11.238 29.224 11.108 29.36 10.866 C 29.501 10.626 29.685 10.259 29.967 9.822 C 29.979 9.804 29.991 9.785 30.003 9.764 C 29.756 10.066 29.569 10.31 29.43 10.485 C 29.257 10.704 29.166 10.82 29.166 10.82 C 29.166 10.82 29.238 10.691 29.374 10.448 C 29.515 10.208 29.699 9.841 29.981 9.404 C 30.12 9.185 30.267 8.936 30.44 8.674 C 30.614 8.412 30.808 8.132 31.014 7.833 C 31.231 7.541 31.456 7.226 31.706 6.901 C 31.964 6.584 32.226 6.242 32.529 5.908 C 33.112 5.222 33.799 4.521 34.584 3.839 C 35.368 3.155 36.25 2.485 37.248 1.916 C 38.242 1.347 39.333 0.842 40.506 0.514 C 41.678 0.195 42.913 -0.001 44.15 0 C 45.388 -0.001 46.616 0.175 47.788 0.462 C 48.961 0.756 50.067 1.19 51.094 1.678 C 52.126 2.162 53.063 2.735 53.922 3.313 C 54.78 3.892 55.548 4.497 56.228 5.084 C 56.913 5.665 57.503 6.238 58.011 6.759 C 58.522 7.276 58.938 7.754 59.276 8.15 C 59.616 8.545 59.861 8.873 60.03 9.094 C 60.196 9.317 60.285 9.436 60.285 9.436 C 60.285 9.436 60.179 9.333 59.981 9.138 C 59.782 8.944 59.482 8.668 59.102 8.319 C 59.029 8.253 58.954 8.185 58.867 8.109 Z " fill-rule="evenodd" fill="rgb(46,46,46)"/><path d=" M 23.596 6.115 C 24.621 6.193 25.543 6.381 26.348 6.598 C 27.226 6.836 27.965 7.118 28.562 7.369 C 29.16 7.62 29.61 7.858 29.914 8.021 C 30.219 8.186 30.375 8.284 30.375 8.284 C 30.375 8.284 30.208 8.206 29.887 8.081 C 29.566 7.954 29.089 7.787 28.479 7.597 C 28.458 7.591 28.438 7.585 28.413 7.578 C 28.687 7.711 28.921 7.835 29.103 7.932 C 29.407 8.097 29.563 8.195 29.563 8.195 C 29.563 8.195 29.396 8.118 29.075 7.992 C 28.755 7.865 28.278 7.699 27.667 7.509 C 27.055 7.322 26.303 7.128 25.434 6.965 C 25.274 6.936 25.11 6.91 24.943 6.884 C 24.434 6.823 23.883 6.793 23.309 6.794 C 22.773 6.809 22.214 6.835 21.649 6.931 C 21.365 6.967 21.082 7.036 20.793 7.091 C 20.65 7.124 20.508 7.168 20.364 7.205 C 20.22 7.243 20.075 7.283 19.934 7.336 C 19.357 7.514 18.802 7.789 18.252 8.088 C 18.12 8.172 17.986 8.256 17.852 8.341 C 17.715 8.421 17.586 8.514 17.458 8.611 C 17.33 8.707 17.198 8.798 17.071 8.898 C 16.949 9.003 16.827 9.11 16.704 9.216 L 16.519 9.377 L 16.346 9.553 C 16.231 9.67 16.115 9.788 15.999 9.906 C 15.889 10.031 15.784 10.161 15.675 10.288 C 15.569 10.418 15.454 10.54 15.36 10.681 C 15.262 10.819 15.163 10.956 15.064 11.094 C 15.017 11.16 14.956 11.238 14.922 11.295 L 14.778 11.522 L 14.486 11.974 C 14.386 12.126 14.307 12.274 14.217 12.423 C 13.51 13.622 12.897 14.928 12.517 16.281 C 12.307 16.954 12.175 17.644 12.08 18.333 C 11.993 19.025 11.979 19.718 12.014 20.402 C 12.122 21.765 12.44 23.097 13.017 24.282 C 13.582 25.469 14.31 26.541 15.126 27.458 C 15.942 28.375 16.814 29.164 17.67 29.832 C 18.528 30.496 19.35 31.07 20.109 31.534 C 20.298 31.651 20.481 31.764 20.658 31.873 C 20.839 31.977 21.013 32.077 21.18 32.173 C 21.347 32.27 21.507 32.363 21.66 32.452 C 21.817 32.535 21.966 32.615 22.107 32.69 C 22.391 32.839 22.642 32.98 22.864 33.093 C 23.087 33.205 23.277 33.301 23.431 33.378 C 23.74 33.534 23.904 33.616 23.904 33.616 C 23.904 33.616 23.731 33.555 23.405 33.44 C 23.08 33.324 22.598 33.163 22.003 32.91 C 21.853 32.85 21.695 32.786 21.53 32.718 C 21.498 32.704 21.465 32.689 21.432 32.674 C 21.662 32.796 21.867 32.91 22.053 33.005 C 22.276 33.117 22.466 33.212 22.62 33.29 C 22.928 33.445 23.093 33.528 23.093 33.528 C 23.093 33.528 22.919 33.466 22.594 33.351 C 22.268 33.236 21.787 33.074 21.192 32.822 C 21.042 32.761 20.884 32.697 20.718 32.63 C 20.556 32.557 20.385 32.48 20.207 32.4 C 20.029 32.32 19.844 32.236 19.652 32.149 C 19.464 32.054 19.269 31.955 19.067 31.854 C 18.257 31.452 17.369 30.941 16.442 30.311 C 16.214 30.149 15.975 29.991 15.741 29.816 C 15.51 29.637 15.274 29.454 15.034 29.269 C 14.804 29.069 14.571 28.866 14.334 28.66 C 14.104 28.445 13.878 28.218 13.645 27.992 C 12.736 27.065 11.884 25.955 11.235 24.667 C 11.06 24.351 10.932 24.009 10.783 23.674 C 10.714 23.503 10.659 23.327 10.597 23.153 C 10.535 22.979 10.472 22.803 10.427 22.622 C 10.206 21.908 10.093 21.155 10.023 20.397 C 9.974 19.637 9.985 18.867 10.072 18.103 C 10.169 17.343 10.307 16.582 10.531 15.849 C 10.962 14.374 11.623 13.002 12.397 11.717 C 12.59 11.387 12.789 11.088 12.99 10.792 L 13.14 10.57 C 13.202 10.475 13.255 10.415 13.313 10.336 C 13.426 10.188 13.539 10.04 13.652 9.893 C 13.76 9.742 13.891 9.609 14.012 9.469 C 14.136 9.332 14.256 9.192 14.382 9.058 C 14.515 8.931 14.648 8.804 14.78 8.677 L 14.977 8.488 L 15.188 8.314 C 15.329 8.199 15.469 8.085 15.609 7.971 C 15.753 7.864 15.904 7.766 16.05 7.663 C 16.336 7.449 16.657 7.294 16.958 7.117 C 17.586 6.812 18.216 6.541 18.858 6.376 C 20.131 6.008 21.386 5.95 22.514 6.005 C 22.889 6.027 23.252 6.064 23.596 6.115 Z " fill-rule="evenodd" fill="rgb(46,46,46)"/><path d=" M 63.896 9.123 C 63.666 8.964 70.55 10.35 69.765 17.525 C 68.957 24.925 65.579 24.625 64.35 25.142 C 64.35 25.142 72.156 14.84 63.896 9.123 Z " fill="rgb(46,46,46)"/><path d=" M 57.401 10.955 C 57.401 10.955 51.183 -0.909 40.872 3.498 C 40.872 3.498 48.195 1.974 57.401 10.955 Z " fill="rgb(46,46,46)"/><path d=" M 28.81 10.084 C 29.321 10.211 19.447 2.962 13.936 14.336 C 13.936 14.336 20.581 8.035 28.81 10.084 Z " fill="rgb(46,46,46)"/><path d=" M 54.123 21.319 C 54.123 21.319 54.091 21.139 53.994 20.834 C 53.944 20.682 53.881 20.497 53.788 20.292 C 53.697 20.086 53.584 19.855 53.415 19.619 C 53.329 19.501 53.235 19.379 53.108 19.264 C 52.982 19.151 52.821 19.041 52.605 18.988 C 52.391 18.932 52.126 18.978 51.936 19.093 C 51.742 19.204 51.599 19.358 51.48 19.512 C 51.418 19.594 51.373 19.659 51.311 19.761 C 51.269 19.836 51.227 19.911 51.185 19.986 C 51.098 20.131 51.019 20.307 50.941 20.48 C 50.786 20.825 50.666 21.171 50.556 21.526 C 50.452 21.882 50.361 22.24 50.294 22.596 C 50.223 22.951 50.171 23.304 50.137 23.646 C 50.118 23.818 50.103 23.986 50.096 24.152 C 50.086 24.317 50.08 24.479 50.08 24.638 C 50.07 24.953 50.087 25.253 50.109 25.528 C 50.124 25.666 50.134 25.798 50.15 25.922 C 50.173 26.047 50.194 26.165 50.214 26.276 C 50.234 26.386 50.264 26.489 50.289 26.583 C 50.313 26.677 50.341 26.762 50.373 26.838 C 50.402 26.914 50.428 26.981 50.452 27.038 C 50.484 27.093 50.511 27.14 50.533 27.177 C 50.577 27.25 50.6 27.289 50.6 27.289 C 50.6 27.289 50.591 27.245 50.573 27.161 C 50.564 27.12 50.553 27.07 50.54 27.011 C 50.534 26.951 50.527 26.882 50.52 26.804 C 50.509 26.728 50.504 26.643 50.506 26.549 C 50.508 26.454 50.496 26.356 50.502 26.248 C 50.507 26.141 50.511 26.027 50.516 25.906 C 50.524 25.786 50.534 25.659 50.543 25.528 C 50.57 25.264 50.602 24.98 50.644 24.68 C 50.662 24.531 50.687 24.377 50.717 24.221 C 50.744 24.064 50.767 23.904 50.802 23.743 C 50.923 23.095 51.08 22.41 51.281 21.744 C 51.378 21.412 51.493 21.078 51.613 20.772 C 51.677 20.621 51.73 20.472 51.811 20.313 C 51.849 20.235 51.886 20.157 51.923 20.08 C 51.948 20.035 51.99 19.954 52.026 19.899 C 52.1 19.779 52.186 19.685 52.264 19.62 C 52.346 19.558 52.413 19.535 52.501 19.541 C 52.681 19.557 52.911 19.723 53.083 19.897 C 53.437 20.257 53.685 20.64 53.858 20.898 C 54.029 21.162 54.123 21.319 54.123 21.319 Z " fill="rgb(46,46,46)"/><path d=" M 41.186 17.747 C 41.148 17.786 41.114 17.823 41.081 17.859 C 40.926 18.04 40.791 18.205 40.685 18.344 C 40.473 18.624 40.356 18.791 40.356 18.791 C 40.356 18.791 40.362 18.765 40.374 18.72 C 40.213 18.945 40.133 19.072 40.133 19.072 C 40.133 19.072 40.191 18.878 40.333 18.551 C 40.405 18.389 40.496 18.192 40.623 17.976 C 40.693 17.86 40.769 17.735 40.852 17.611 C 40.97 17.407 41.11 17.18 41.338 16.963 C 41.465 16.848 41.618 16.716 41.871 16.666 C 41.997 16.645 42.144 16.656 42.27 16.711 C 42.4 16.762 42.501 16.845 42.583 16.929 C 42.898 17.278 43.018 17.659 43.13 18.045 C 43.236 18.435 43.299 18.822 43.353 19.241 C 43.395 19.634 43.431 20.034 43.467 20.433 C 43.482 20.634 43.5 20.832 43.512 21.034 C 43.518 21.237 43.525 21.439 43.531 21.639 C 43.536 21.84 43.54 22.039 43.545 22.235 C 43.55 22.432 43.551 22.625 43.541 22.816 C 43.53 23.196 43.513 23.563 43.491 23.911 C 43.464 24.26 43.428 24.588 43.393 24.89 C 43.355 25.193 43.306 25.468 43.264 25.712 C 43.221 25.956 43.167 26.167 43.129 26.34 C 43.043 26.686 42.974 26.878 42.974 26.878 C 42.974 26.878 42.969 26.676 42.961 26.322 C 42.96 26.303 42.96 26.283 42.958 26.256 C 42.934 26.389 42.908 26.511 42.887 26.619 C 42.811 26.965 42.751 27.159 42.751 27.159 C 42.751 27.159 42.753 27.108 42.755 27.014 C 42.755 26.919 42.756 26.781 42.757 26.604 C 42.756 26.429 42.755 26.216 42.753 25.971 C 42.746 25.727 42.74 25.452 42.738 25.153 C 42.724 24.853 42.71 24.529 42.704 24.186 C 42.689 23.844 42.662 23.483 42.651 23.11 C 42.646 22.736 42.594 22.355 42.579 21.964 C 42.568 21.769 42.557 21.573 42.546 21.376 C 42.528 21.177 42.51 20.977 42.492 20.778 C 42.462 20.377 42.432 19.977 42.403 19.583 C 42.362 19.211 42.331 18.825 42.259 18.476 C 42.187 18.132 42.095 17.786 41.941 17.583 C 41.862 17.484 41.8 17.448 41.711 17.446 C 41.618 17.444 41.493 17.504 41.386 17.58 C 41.316 17.631 41.249 17.686 41.186 17.747 Z " fill-rule="evenodd" fill="rgb(46,46,46)"/><path d=" M 34.521 23.165 C 34.521 23.165 34.506 23.12 34.476 23.036 C 34.447 22.953 34.409 22.828 34.352 22.672 C 34.24 22.359 34.082 21.912 33.819 21.396 C 33.684 21.138 33.542 20.859 33.29 20.582 C 33.227 20.512 33.151 20.442 33.051 20.376 C 32.948 20.315 32.794 20.239 32.588 20.286 C 32.381 20.344 32.285 20.48 32.211 20.588 C 32.184 20.64 32.155 20.695 32.132 20.747 L 32.077 20.899 L 32.037 21.047 L 32.028 21.083 L 32.023 21.102 L 32.017 21.136 L 32.006 21.202 C 31.991 21.291 31.976 21.38 31.961 21.469 C 31.935 21.652 31.926 21.863 31.915 22.061 C 31.917 22.253 31.912 22.447 31.921 22.64 C 31.933 22.832 31.946 23.025 31.958 23.217 C 31.98 23.408 32.001 23.598 32.022 23.788 C 32.05 23.976 32.078 24.164 32.106 24.35 C 32.168 24.72 32.246 25.081 32.324 25.429 C 32.399 25.777 32.491 26.11 32.582 26.423 C 32.669 26.738 32.769 27.031 32.861 27.301 C 32.957 27.57 33.05 27.815 33.143 28.028 C 33.228 28.243 33.325 28.425 33.398 28.574 C 33.481 28.722 33.542 28.836 33.6 28.908 C 33.654 28.979 33.683 29.017 33.683 29.017 C 33.683 29.017 33.667 28.972 33.637 28.888 C 33.602 28.809 33.58 28.677 33.534 28.523 C 33.499 28.361 33.454 28.169 33.41 27.945 C 33.368 27.721 33.32 27.469 33.267 27.193 C 33.22 26.917 33.169 26.618 33.114 26.302 C 33.06 25.987 33.013 25.652 32.956 25.308 C 32.9 24.964 32.861 24.606 32.808 24.245 C 32.786 24.065 32.764 23.883 32.741 23.7 C 32.723 23.518 32.705 23.334 32.686 23.151 C 32.672 22.969 32.658 22.786 32.644 22.605 C 32.637 22.424 32.63 22.245 32.623 22.066 C 32.63 21.896 32.622 21.738 32.634 21.561 C 32.642 21.471 32.651 21.381 32.66 21.292 L 32.667 21.226 L 32.667 21.217 L 32.668 21.213 C 32.669 21.208 32.663 21.243 32.665 21.227 L 32.668 21.213 L 32.674 21.185 L 32.695 21.074 L 32.722 20.976 L 32.753 20.898 C 32.773 20.865 32.786 20.854 32.749 20.864 C 32.711 20.867 32.726 20.854 32.766 20.871 C 32.807 20.892 32.859 20.925 32.91 20.97 C 33.114 21.152 33.301 21.395 33.463 21.614 C 33.785 22.063 34.039 22.462 34.223 22.736 C 34.313 22.875 34.389 22.982 34.439 23.055 C 34.49 23.129 34.521 23.165 34.521 23.165 Z " fill="rgb(46,46,46)"/><path d=" M 58.612 28.517 C 57.859 28.341 57.107 28.151 56.35 27.986 C 55.59 27.841 54.833 27.664 54.066 27.553 C 53.3 27.434 52.534 27.304 51.762 27.223 C 51.377 27.178 50.992 27.128 50.606 27.087 L 49.445 26.99 L 48.864 26.941 L 48.282 26.912 L 47.117 26.856 L 45.951 26.838 C 45.562 26.831 45.173 26.827 44.784 26.841 L 43.616 26.87 L 42.45 26.94 C 42.061 26.959 41.673 26.997 41.286 27.034 C 40.898 27.075 40.509 27.099 40.123 27.154 L 38.963 27.302 L 37.807 27.486 C 37.421 27.542 37.04 27.624 36.656 27.696 L 36.081 27.809 L 35.51 27.938 C 34.748 28.105 33.992 28.304 33.239 28.512 C 32.865 28.624 32.488 28.728 32.115 28.845 C 31.744 28.967 31.37 29.082 31 29.209 C 30.261 29.465 29.527 29.735 28.802 30.031 C 28.077 30.327 27.358 30.639 26.653 30.982 C 25.948 31.326 25.25 31.685 24.568 32.078 C 23.881 32.474 23.223 32.876 22.556 33.364 C 22.333 33.527 22.284 33.84 22.447 34.063 C 22.467 34.09 22.488 34.114 22.512 34.135 L 22.529 34.151 C 22.74 34.344 22.933 34.671 23.087 35.013 C 23.244 35.359 23.373 35.733 23.486 36.114 C 23.712 36.879 23.878 37.677 24.02 38.481 C 24.296 40.091 24.487 41.728 24.635 43.371 C 24.784 45.014 24.891 46.663 24.98 48.315 L 25.103 50.798 L 25.165 52.044 L 25.204 52.675 L 25.232 53.001 L 25.254 53.18 C 25.259 53.214 25.265 53.248 25.275 53.296 L 25.284 53.333 L 25.3 53.389 C 25.305 53.407 25.324 53.456 25.339 53.486 C 25.356 53.521 25.392 53.577 25.427 53.616 C 25.432 53.621 25.464 53.666 25.566 53.731 C 25.651 53.783 25.755 53.811 25.842 53.814 C 25.977 53.818 26.104 53.775 26.205 53.7 L 26.221 53.688 C 26.83 53.232 27.422 52.754 28.07 52.35 C 28.387 52.138 28.702 51.923 29.036 51.739 C 29.367 51.548 29.693 51.35 30.027 51.166 L 31.048 50.643 C 31.216 50.553 31.389 50.471 31.565 50.395 L 32.089 50.159 L 32.612 49.923 C 32.788 49.847 32.968 49.78 33.146 49.708 C 33.503 49.57 33.856 49.42 34.217 49.29 L 35.305 48.912 C 35.667 48.784 36.039 48.685 36.406 48.569 L 36.958 48.402 L 37.515 48.251 C 37.887 48.155 38.256 48.046 38.632 47.959 L 39.758 47.698 C 40.133 47.612 40.513 47.544 40.891 47.467 C 41.268 47.387 41.648 47.321 42.029 47.259 C 42.411 47.197 42.789 47.122 43.172 47.074 L 44.32 46.911 L 45.471 46.776 C 45.854 46.728 46.241 46.7 46.625 46.662 C 47.01 46.624 47.396 46.592 47.782 46.567 C 48.553 46.506 49.326 46.465 50.1 46.428 L 51.26 46.386 L 52.423 46.365 C 53.197 46.358 53.972 46.36 54.747 46.375 C 55.522 46.39 56.297 46.417 57.071 46.455 C 57.845 46.497 58.62 46.539 59.392 46.602 C 60.163 46.664 60.94 46.735 61.699 46.833 C 61.885 46.857 62.055 46.726 62.08 46.54 C 62.094 46.427 62.05 46.318 61.973 46.246 C 61.743 46.034 61.546 45.733 61.376 45.416 C 61.293 45.254 61.219 45.084 61.142 44.917 C 61.075 44.743 61.004 44.571 60.94 44.395 L 60.761 43.86 L 60.6 43.316 C 60.503 42.949 60.404 42.582 60.319 42.21 C 59.97 40.726 59.72 39.211 59.506 37.692 C 59.293 36.172 59.124 34.645 58.98 33.115 C 58.84 31.584 58.704 30.052 58.612 28.517 Z  M 58.612 28.517 C 58.634 30.055 58.679 31.594 58.768 33.131 C 58.856 34.668 58.97 36.204 59.128 37.738 C 59.288 39.271 59.484 40.804 59.783 42.326 C 59.856 42.707 59.943 43.087 60.035 43.466 L 60.186 44.032 L 60.358 44.595 C 60.421 44.782 60.492 44.968 60.558 45.154 C 60.636 45.338 60.712 45.524 60.8 45.706 C 60.984 46.069 61.194 46.432 61.525 46.751 L 61.799 46.165 C 61.014 46.043 60.241 45.952 59.46 45.868 C 58.68 45.786 57.9 45.717 57.118 45.663 C 56.337 45.61 55.554 45.568 54.771 45.538 C 53.988 45.508 53.205 45.491 52.421 45.483 L 51.245 45.483 L 50.069 45.502 C 49.285 45.526 48.5 45.55 47.717 45.601 C 47.325 45.622 46.933 45.649 46.542 45.684 C 46.151 45.718 45.759 45.742 45.369 45.787 L 44.196 45.91 L 43.027 46.062 C 42.636 46.108 42.249 46.18 41.86 46.238 C 41.471 46.297 41.083 46.36 40.697 46.437 C 40.31 46.512 39.922 46.576 39.537 46.66 L 38.382 46.914 C 37.997 46.998 37.617 47.105 37.234 47.2 L 36.661 47.348 L 36.093 47.517 C 35.716 47.634 35.334 47.735 34.961 47.866 L 33.839 48.251 C 33.466 48.383 33.1 48.536 32.731 48.678 C 32.547 48.751 32.361 48.82 32.179 48.898 L 31.636 49.14 L 31.093 49.382 C 30.911 49.46 30.731 49.545 30.555 49.638 L 29.494 50.177 C 29.145 50.368 28.803 50.572 28.458 50.77 C 28.109 50.961 27.779 51.184 27.447 51.404 C 26.769 51.824 26.144 52.322 25.504 52.799 L 25.883 52.673 C 25.967 52.674 26.068 52.701 26.15 52.751 C 26.249 52.815 26.282 52.859 26.283 52.86 C 26.313 52.893 26.346 52.945 26.359 52.974 C 26.37 52.992 26.383 53.029 26.385 53.035 L 26.39 53.053 L 26.391 53.052 L 26.384 53.014 L 26.369 52.885 L 26.345 52.591 L 26.306 51.98 L 26.24 50.742 L 26.107 48.253 C 26.011 46.592 25.896 44.93 25.74 43.269 C 25.58 41.607 25.393 39.945 25.084 38.288 C 24.928 37.46 24.747 36.632 24.494 35.808 C 24.365 35.397 24.22 34.986 24.03 34.578 C 23.834 34.172 23.614 33.757 23.21 33.387 L 23.183 34.174 C 23.761 33.741 24.418 33.324 25.069 32.941 C 25.723 32.553 26.399 32.196 27.081 31.854 C 27.764 31.512 28.457 31.191 29.16 30.889 C 29.863 30.587 30.576 30.309 31.295 30.044 C 31.654 29.913 32.018 29.794 32.38 29.667 C 32.743 29.546 33.11 29.437 33.475 29.32 C 34.21 29.102 34.948 28.893 35.694 28.715 L 36.252 28.577 L 36.814 28.453 C 37.189 28.372 37.562 28.282 37.94 28.216 L 39.073 28.006 L 40.211 27.83 C 40.59 27.765 40.973 27.732 41.354 27.682 C 41.736 27.634 42.117 27.587 42.501 27.558 L 43.65 27.458 L 44.802 27.395 C 45.186 27.367 45.571 27.357 45.956 27.35 L 47.111 27.326 L 48.266 27.339 L 48.845 27.347 L 49.422 27.374 L 50.578 27.429 C 50.962 27.454 51.347 27.491 51.732 27.521 C 52.502 27.573 53.267 27.675 54.034 27.766 C 54.419 27.806 54.8 27.867 55.182 27.926 L 56.329 28.098 C 57.092 28.225 57.85 28.378 58.612 28.517 Z " fill="rgb(46,46,46)"/></g></g></g></g></svg>