<?xml version="1.0" encoding="UTF-8" standalone="no"?>
<!-- Generator: Gravit.io -->
<svg xmlns="http://www.w3.org/2000/svg" xmlns:xlink="http://www.w3.org/1999/xlink" style="isolation:isolate" viewBox="0 0 150 80.013" width="150pt" height="80.013pt"><defs><clipPath id="_clipPath_cYjXkU8D6VLj4GkqehNrqYKb6QGOaasq"><rect width="150" height="80.013"/></clipPath></defs><g clip-path="url(#_clipPath_cYjXkU8D6VLj4GkqehNrqYKb6QGOaasq)"><rect width="150" height="80.013" style="fill:rgb(0,0,0)" fill-opacity="0"/><g><path d=" M 36.911 28.869 C 40.163 34.977 50.526 41.237 53.595 47.953 C 55.722 52.511 55.449 57.707 50.009 64.18 C 52.167 59.349 51.802 54.365 50.131 50.263 C 45.724 39.657 36.638 36.435 36.911 28.869 L 36.911 28.869 L 36.911 28.869 L 36.911 28.869 Z  M 41.439 40.143 C 48.155 49.016 54.263 59.106 43.961 68.648 C 49.006 53.696 38.826 54 41.439 40.143 L 41.439 40.143 L 41.439 40.143 L 41.439 40.143 Z  M 43.597 60.351 C 42.807 75.941 32.474 73.206 23.814 80.013 C 27.825 68.83 38.704 70.258 43.597 60.351 L 43.597 60.351 L 43.597 60.351 L 43.597 60.351 Z  M 29.162 65.882 C 33.204 67.128 36.729 64.272 42.108 60.078 C 37.367 65.183 32.748 68.708 29.162 65.882 L 29.162 65.882 L 29.162 65.882 L 29.162 65.882 Z  M 28.737 58.923 C 28.433 59.288 28.007 59.561 27.582 59.804 C 27.4 59.835 27.339 59.592 27.491 59.531 C 27.916 59.379 28.342 59.166 28.737 58.923 L 28.737 58.923 L 28.737 58.923 L 28.737 58.923 Z  M 27.035 59.683 C 27.126 59.652 27.217 59.713 27.217 59.804 C 27.248 59.895 27.187 59.987 27.096 59.987 C 27.005 60.017 26.913 59.956 26.883 59.865 C 26.883 59.774 26.943 59.683 27.035 59.683 L 27.035 59.683 L 27.035 59.683 L 27.035 59.683 Z  M 24.421 50.445 C 23.632 51.721 22.112 54.791 25.667 54.122 C 23.085 53.696 24.027 52.299 24.421 50.445 L 24.421 50.445 L 24.421 50.445 L 24.421 50.445 Z  M 27.643 42.027 C 28.737 40.812 32.535 38.289 37.55 37.864 C 34.024 36.922 29.71 38.532 28.007 39.717 C 27.612 40.507 27.552 41.085 27.643 42.027 L 27.643 42.027 L 27.643 42.027 L 27.643 42.027 Z  M 30.013 45.491 C 29.375 45.187 28.767 44.428 28.494 43.759 C 30.925 46.19 35.149 45.431 38.157 42.878 C 37.093 45.856 31.624 49.442 27.431 46.859 C 29.375 46.92 29.952 46.434 30.013 45.491 L 30.013 45.491 L 30.013 45.491 L 30.013 45.491 Z  M 22.872 42.027 C 24.27 43.03 24.543 44.032 24.088 45.431 C 22.355 46.251 21.079 46.099 20.045 45.248 C 22.264 46.19 24.695 44.276 22.872 42.027 L 22.872 42.027 L 22.872 42.027 L 22.872 42.027 Z  M 28.688 25.701 L 28.688 25.701 C 20.187 29.057 17.031 36.88 19.407 43.911 C 21.029 34.24 31.12 40.184 35.564 26.307 C 36.229 26.458 36.902 26.642 37.578 26.858 C 37.797 26.928 38.014 27.001 38.227 27.077 C 40.947 34.716 53.915 40.42 56.33 49.776 C 56.989 42.809 54.693 39.105 51.38 36.29 C 52.087 35.469 52.78 34.665 53.232 34.133 C 53.476 33.847 54.576 34.402 54.727 34.496 C 55.035 34.69 55.414 34.87 55.853 35 C 56.293 35.128 56.795 35.207 57.327 35.199 C 57.859 35.194 58.422 35.108 58.976 34.938 C 59.531 34.771 60.077 34.521 60.589 34.211 C 60.848 34.054 61.087 33.892 61.338 33.699 L 61.523 33.558 L 61.682 33.427 L 61.855 33.279 L 62.023 33.127 C 62.469 32.718 62.87 32.254 63.212 31.754 C 63.552 31.253 63.827 30.711 64.015 30.154 C 64.205 29.598 64.3 29.026 64.311 28.487 C 64.318 27.945 64.242 27.438 64.109 26.996 C 63.974 26.554 63.77 26.19 63.604 25.868 C 63.028 24.753 63.884 23.712 64.24 23.213 C 64.6 22.718 64.918 22.119 65.144 21.443 C 65.377 20.77 65.503 20.023 65.536 19.255 C 65.572 18.486 65.504 17.696 65.363 16.917 C 65.323 16.724 65.282 16.529 65.242 16.334 L 65.093 15.743 C 65.04 15.55 64.984 15.379 64.929 15.196 L 64.887 15.06 L 64.832 14.9 L 64.73 14.61 C 64.434 13.847 64.062 13.111 63.604 12.45 C 63.153 11.784 62.632 11.186 62.074 10.669 C 61.519 10.15 60.943 9.684 60.331 9.362 C 56.988 7.605 54.699 8.23 54.699 8.23 C 54.699 8.23 54.794 8.246 54.971 8.278 C 55.149 8.306 55.4 8.368 55.718 8.445 C 56.348 8.62 57.218 8.932 58.153 9.477 C 58.62 9.747 59.105 10.071 59.58 10.457 C 60.056 10.838 60.527 11.276 60.966 11.767 C 61.41 12.254 61.816 12.799 62.18 13.379 C 62.54 13.961 62.851 14.583 63.099 15.23 L 63.189 15.473 L 63.229 15.58 L 63.272 15.715 C 63.327 15.892 63.392 16.079 63.44 16.248 L 63.584 16.745 C 63.626 16.916 63.669 17.086 63.711 17.255 C 63.87 17.934 63.967 18.606 64.002 19.255 C 64.031 19.903 64.005 20.53 63.891 21.109 C 63.783 21.69 63.608 22.228 63.384 22.705 C 62.941 23.663 62.336 24.378 61.891 24.857 C 61.663 25.093 61.481 25.283 61.351 25.406 C 61.223 25.532 61.154 25.599 61.154 25.599 C 61.154 25.599 61.249 25.574 61.407 25.486 C 61.927 25.199 62.646 25.138 62.948 26.136 C 63.041 26.443 63.061 26.802 63.07 27.175 C 63.079 27.549 63.043 27.946 62.958 28.349 C 62.915 28.551 62.86 28.755 62.788 28.958 C 62.721 29.163 62.636 29.367 62.537 29.569 C 62.444 29.773 62.332 29.974 62.209 30.172 C 62.091 30.372 61.955 30.568 61.81 30.76 C 61.524 31.148 61.188 31.513 60.832 31.863 L 60.696 31.991 L 60.679 32.007 L 60.674 32.011 C 60.674 32.012 60.674 32.011 60.676 32.01 L 60.673 32.013 L 60.634 32.047 L 60.556 32.115 L 60.402 32.252 L 60.264 32.369 C 60.087 32.522 59.878 32.676 59.683 32.816 C 59.286 33.103 58.873 33.341 58.456 33.531 C 58.041 33.725 57.619 33.858 57.207 33.946 C 56.795 34.032 56.393 34.061 56.016 34.053 C 55.64 34.04 55.291 33.988 54.982 33.913 C 54.677 33.834 54.407 33.742 54.193 33.643 C 54.191 33.642 54.19 33.641 54.188 33.64 C 53.975 33.542 53.897 33.277 54.023 33.078 C 54.078 32.99 54.133 32.902 54.186 32.812 L 54.382 32.457 C 54.445 32.337 54.516 32.224 54.568 32.098 C 54.68 31.853 54.795 31.607 54.871 31.35 C 54.794 31.46 54.704 31.561 54.626 31.665 L 54.366 31.964 C 54.193 32.163 54.007 32.351 53.831 32.542 L 53.268 33.088 C 53.146 33.207 52.187 33.996 51.538 34.527 C 51.283 34.736 50.899 34.624 50.798 34.311 C 50.383 33.018 48.744 30.083 42.277 26.633 C 40.59 25.734 39.08 25.058 37.73 24.555 C 37.73 24.549 37.73 24.543 37.729 24.537 L 37.729 24.537 L 37.677 24.537 C 32.898 22.774 30.184 23.23 28.911 23.724 C 28.761 22.644 28.367 20.068 29.26 19.001 C 29.501 18.712 29.791 18.469 30.079 18.229 C 30.654 17.747 31.285 17.346 31.939 17.007 C 32.597 16.673 33.292 16.421 34.005 16.258 C 34.718 16.099 35.445 16.001 36.179 15.999 C 36.912 15.986 37.649 16.048 38.379 16.176 C 39.11 16.297 39.836 16.478 40.549 16.711 C 41.264 16.937 41.969 17.212 42.66 17.523 C 43.353 17.828 44.037 18.173 44.702 18.542 C 44.867 18.636 45.029 18.719 45.2 18.82 L 45.703 19.112 L 46.687 19.72 L 47.654 20.35 L 48.598 21.012 C 48.903 21.243 49.216 21.467 49.517 21.704 C 49.812 21.947 50.117 22.18 50.404 22.432 C 50.996 22.919 51.541 23.452 52.073 23.999 C 52.588 24.558 53.083 25.137 53.53 25.753 C 53.977 26.368 54.361 27.026 54.692 27.712 C 55.017 28.4 55.267 29.127 55.423 29.88 C 55.574 30.634 55.639 31.42 55.51 32.201 C 55.805 31.461 55.887 30.637 55.853 29.829 C 55.83 29.016 55.655 28.21 55.412 27.43 C 55.169 26.646 54.816 25.901 54.411 25.19 C 54.006 24.479 53.543 23.801 53.029 23.167 C 52.957 23.08 52.884 22.994 52.81 22.908 C 53.464 21.708 55.591 18.404 58.383 19.437 L 58.383 19.437 C 58.59 19.514 54.502 14.508 52.688 22.764 C 52.273 22.278 51.841 21.805 51.382 21.364 C 50.804 20.79 50.183 20.269 49.558 19.753 L 48.594 19.018 L 48.572 19.003 C 48.761 15.946 50.047 12.881 53.217 12.224 L 53.217 12.224 L 53.217 12.224 C 53.502 12.165 46.433 10.084 47.611 18.324 L 47.605 18.319 L 46.592 17.661 L 46.079 17.346 C 45.912 17.244 45.728 17.138 45.551 17.037 C 44.84 16.635 44.118 16.264 43.371 15.927 C 42.622 15.597 41.852 15.304 41.063 15.06 C 40.558 14.907 40.044 14.777 39.522 14.678 C 39.151 12.409 39.041 8.433 42.036 5.817 L 42.036 5.817 L 42.036 5.817 C 42.287 5.597 34.86 7.616 38.706 14.532 C 38.681 14.528 38.656 14.524 38.63 14.521 C 37.803 14.408 36.958 14.369 36.116 14.42 C 35.274 14.475 34.433 14.619 33.624 14.87 C 32.816 15.123 32.009 15.427 31.324 15.913 C 30.591 16.434 30.013 16.947 29.381 17.483 C 28.813 17.963 27.511 18.726 26.952 17.045 C 26.893 16.865 26.831 16.679 26.768 16.487 C 26.724 16.291 26.66 16.097 26.618 15.894 C 26.588 15.686 26.524 15.485 26.504 15.271 C 26.443 14.847 26.406 14.408 26.405 13.96 C 26.405 13.736 26.402 13.512 26.424 13.284 C 26.44 13.058 26.447 12.825 26.488 12.613 L 26.529 12.287 C 26.536 12.231 26.539 12.18 26.55 12.121 L 26.589 11.936 C 26.617 11.814 26.641 11.691 26.664 11.567 L 26.7 11.383 L 26.717 11.296 L 26.72 11.283 L 26.732 11.242 C 26.795 11.023 26.851 10.803 26.904 10.584 C 26.973 10.375 27.048 10.172 27.111 9.965 C 27.184 9.766 27.277 9.583 27.349 9.39 C 27.437 9.21 27.535 9.042 27.622 8.869 C 27.825 8.554 28.031 8.253 28.271 8.026 C 28.498 7.778 28.755 7.608 28.994 7.454 C 29.808 6.885 29.79 8.689 29.843 9.113 C 29.901 9.535 29.976 9.93 30.057 10.296 C 30.213 11.03 30.399 11.654 30.57 12.16 C 30.736 12.668 30.894 13.057 31.003 13.32 C 31.113 13.584 31.179 13.721 31.179 13.721 C 31.179 13.721 31.154 13.571 31.106 13.291 C 31.058 13.012 31 12.599 30.93 12.078 C 30.867 11.556 30.802 10.922 30.758 10.2 C 30.723 9.449 30.706 8.593 30.814 7.711 C 30.824 7.646 30.835 7.581 30.845 7.516 C 30.867 7.403 30.889 7.289 30.911 7.175 C 30.951 7 31.018 6.811 31.098 6.617 C 31.269 6.229 31.504 5.835 31.793 5.461 C 32.372 4.713 33.121 4.02 33.995 3.458 C 34.868 2.892 35.865 2.457 36.926 2.171 C 37.457 2.027 38.003 1.916 38.561 1.849 C 39.113 1.782 39.692 1.737 40.242 1.737 C 40.506 1.728 40.823 1.745 41.12 1.753 L 41.531 1.78 C 41.672 1.792 41.814 1.795 41.954 1.815 C 42.517 1.874 43.076 1.963 43.625 2.084 C 43.901 2.136 44.17 2.215 44.442 2.28 C 44.708 2.363 44.979 2.43 45.239 2.525 C 45.767 2.692 46.277 2.896 46.774 3.111 C 47.765 3.544 48.691 4.054 49.526 4.606 C 50.356 5.166 51.118 5.741 51.771 6.333 C 52.423 6.925 52.991 7.506 53.447 8.062 C 53.902 8.619 54.272 9.13 54.531 9.58 C 54.789 10.029 54.97 10.403 55.059 10.667 C 55.113 10.797 55.137 10.905 55.162 10.974 C 55.183 11.044 55.195 11.08 55.195 11.08 C 55.195 11.08 55.192 11.042 55.186 10.969 C 55.176 10.896 55.179 10.787 55.15 10.646 C 55.108 10.36 55.014 9.947 54.825 9.441 C 54.632 8.938 54.359 8.336 53.959 7.696 C 53.56 7.058 53.072 6.353 52.446 5.665 C 51.823 4.975 51.105 4.256 50.259 3.596 C 49.412 2.94 48.467 2.302 47.417 1.761 C 46.365 1.229 45.221 0.769 44.006 0.469 C 43.703 0.391 43.397 0.32 43.086 0.267 C 42.777 0.202 42.462 0.163 42.148 0.118 C 41.991 0.093 41.832 0.084 41.674 0.068 C 41.509 0.054 41.372 0.036 41.184 0.026 C 40.88 0.015 40.594 -0.004 40.255 0.001 C 39.599 -0.004 38.972 0.035 38.334 0.123 C 37.7 0.207 37.07 0.333 36.459 0.516 C 35.848 0.697 35.254 0.923 34.687 1.193 C 34.123 1.468 33.588 1.787 33.092 2.144 C 32.102 2.862 31.207 3.694 30.675 4.691 C 29.969 6.016 28.87 6.493 27.68 7.209 C 27.292 7.411 26.933 7.716 26.584 8.069 C 26.424 8.253 26.267 8.451 26.112 8.657 C 25.976 8.869 25.833 9.09 25.707 9.32 C 25.592 9.551 25.476 9.791 25.369 10.036 C 25.277 10.283 25.186 10.534 25.101 10.79 L 25.085 10.838 L 25.077 10.862 L 25.073 10.874 L 25.061 10.919 L 25.038 11.01 L 24.991 11.192 C 24.959 11.313 24.928 11.434 24.9 11.557 L 24.857 11.741 C 24.844 11.806 24.834 11.88 24.823 11.95 L 24.758 12.374 C 24.71 12.66 24.708 12.934 24.694 13.21 C 24.67 13.485 24.696 13.762 24.712 14.035 C 24.717 14.308 24.769 14.577 24.813 14.842 C 24.847 15.108 24.927 15.364 24.993 15.615 C 25.06 15.867 25.159 16.105 25.246 16.338 C 25.343 16.568 25.452 16.787 25.556 16.998 C 25.679 17.202 25.79 17.402 25.913 17.585 C 26.046 17.762 26.169 17.933 26.295 18.094 C 26.899 18.874 27.794 20.121 27.725 20.755 C 27.682 21.143 27.675 21.534 27.67 21.923 C 27.67 22.313 27.678 22.704 27.728 23.092 C 27.779 23.478 27.851 23.867 28.006 24.221 C 28.089 24.895 28.294 25.342 28.688 25.701 L 28.688 25.701 Z  M 25.698 58.407 C 23.388 55.611 28.099 58.133 31.229 57.312 C 29.587 58.498 28.646 59.926 27.704 60.351 C 26.822 60.807 26.184 60.595 26.002 59.44 C 25.941 59.045 25.941 58.893 26.245 58.832 C 26.579 58.771 26.792 58.741 27.248 58.559 C 26.761 58.619 26.032 58.801 25.698 58.407 L 25.698 58.407 L 25.698 58.407 L 25.698 58.407 Z " fill-rule="evenodd" fill="rgb(46,46,46)"/><path d=" M 124.186 67.902 L 124.186 70.121 L 124.186 70.121 Q 124.186 71.048 124.02 71.457 L 124.02 71.457 L 124.02 71.457 Q 123.853 71.865 123.252 71.865 Q 123.252 71.865 123.252 71.865 L 123.252 71.865 L 119.673 71.865 L 119.673 61.671 L 125.588 61.671 L 127.384 61.671 L 127.384 56.11 L 125.588 56.11 L 119.673 56.11 L 119.673 46.788 L 122.818 46.788 L 122.818 46.788 Q 123.452 46.788 123.619 47.169 L 123.619 47.169 L 123.619 47.169 Q 123.786 47.551 123.786 48.478 L 123.786 48.478 L 123.786 50.658 L 123.938 50.641 L 123.938 50.641 L 123.938 50.641 L 123.938 50.641 L 128.986 49.536 L 128.986 41.227 L 127.191 41.227 L 113.698 41.227 L 111.903 41.227 L 111.903 45.861 L 113.806 46.024 L 113.806 71.375 L 113.806 71.375 Q 113.806 72.738 112.838 72.901 L 112.838 72.901 L 111.736 73.065 L 111.736 77.481 L 113.531 77.481 L 127.591 77.481 L 129.387 77.481 L 129.387 69.04 L 124.186 67.902 Z  M 78.053 68.063 L 78.053 70.502 L 78.053 70.502 Q 78.053 71.32 77.919 71.702 L 77.919 71.702 L 77.919 71.702 Q 77.786 72.084 77.085 72.438 L 77.085 72.438 L 77.085 72.438 Q 76.566 72.7 76.001 72.768 Q 70.335 72.225 70.335 59.326 L 70.335 59.326 L 70.335 59.326 Q 70.335 52.839 71.937 49.404 L 71.937 49.404 L 71.937 49.404 Q 73.331 46.417 75.86 46.028 L 75.86 46.028 L 75.86 46.028 L 75.86 46.028 Q 77.305 46.216 77.586 47.006 L 77.586 47.006 L 77.586 47.006 L 77.586 47.006 Q 77.719 47.387 77.719 48.205 L 77.719 48.205 L 77.719 50.459 L 77.719 50.459 L 82.919 49.321 L 82.919 42.808 L 82.919 42.808 Q 79.982 40.573 76.644 40.573 L 76.644 40.573 L 76.644 40.573 Q 76.21 40.573 75.788 40.618 Q 75.322 40.573 74.849 40.573 L 74.849 40.573 L 74.849 40.573 Q 70.709 40.573 67.705 44.661 L 67.705 44.661 L 67.705 44.661 Q 66.17 46.788 65.269 50.604 L 65.269 50.604 L 65.269 50.604 Q 64.367 54.42 64.367 59.545 L 64.367 59.545 L 64.367 59.545 Q 64.367 68.812 67.055 73.501 L 67.055 73.501 L 67.055 73.501 Q 69.741 78.189 74.849 78.189 L 74.849 78.189 L 74.849 78.189 Q 75.336 78.189 75.803 78.156 Q 76.215 78.189 76.644 78.189 L 76.644 78.189 L 76.644 78.189 Q 80.649 78.189 83.253 75.954 L 83.253 75.954 L 83.253 69.201 L 78.053 68.063 L 78.053 68.063 Z  M 145.236 50.609 L 144.8 50.658 L 144.8 48.478 L 144.8 48.478 Q 144.8 47.551 144.633 47.169 L 144.633 47.169 L 144.633 47.169 Q 144.466 46.788 143.832 46.788 L 143.832 46.788 L 143.832 46.788 L 139.853 46.788 L 139.853 56.437 L 146.269 56.437 L 148.064 56.437 L 148.064 61.998 L 146.269 61.998 L 139.853 61.998 L 139.853 72.683 L 142.823 72.847 L 142.823 77.481 L 142.823 77.481 L 141.028 77.481 L 141.028 77.481 L 133.711 77.481 L 131.916 77.481 L 131.916 73.065 L 133.017 72.901 L 133.017 72.901 Q 133.985 72.738 133.985 71.375 L 133.985 71.375 L 133.985 46.024 L 132.082 45.861 L 132.082 41.227 L 133.878 41.227 L 148.205 41.227 L 150 41.227 L 150 49.567 L 145.236 50.609 L 145.236 50.609 L 145.236 50.609 L 145.236 50.609 L 145.236 50.609 Z  M 101.637 61.671 L 101.637 71.102 L 101.637 71.102 L 101.637 71.102 Q 101.637 72.084 101.403 72.438 L 101.403 72.438 L 101.403 72.438 Q 101.17 72.792 100.669 72.901 L 100.669 72.901 L 99.568 73.065 L 99.568 77.481 L 101.363 77.481 L 107.645 77.481 L 107.645 77.481 L 109.441 77.481 L 109.441 72.847 L 107.538 72.683 L 107.538 47.551 L 107.538 47.551 Q 107.538 45.97 108.506 45.806 L 108.506 45.806 L 109.608 45.643 L 109.608 41.227 L 107.812 41.227 L 101.53 41.227 L 99.734 41.227 L 99.734 45.861 L 101.637 46.024 L 101.637 56.056 L 93.986 56.056 L 93.986 47.605 L 93.986 47.605 Q 93.986 46.624 94.22 46.27 L 94.22 46.27 L 94.22 46.27 Q 94.453 45.915 94.988 45.806 L 94.988 45.806 L 96.089 45.643 L 96.089 41.227 L 94.294 41.227 L 88.011 41.227 L 86.216 41.227 L 86.216 45.861 L 88.118 46.024 L 88.118 71.375 L 88.118 71.375 Q 88.118 72.738 87.151 72.901 L 87.151 72.901 L 86.049 73.065 L 86.049 77.481 L 87.844 77.481 L 94.127 77.481 L 95.922 77.481 L 95.922 72.847 L 93.986 72.683 L 93.986 61.671 L 101.637 61.671 L 101.637 61.671 L 101.637 61.671 L 101.637 61.671 L 101.637 61.671 L 101.637 61.671 Z " fill-rule="evenodd" fill="rgb(46,46,46)"/><path d=" M 75.123 38.095 C 75.102 37.58 75.073 37.064 75.037 36.549 L 75.037 36.549 L 71.399 36.051 L 71.399 31.335 L 73.854 30.317 L 73.854 28.86 C 73.572 27.87 73.23 26.895 72.906 25.923 C 71.461 21.601 69.193 18.095 66.313 15.22 Q 67.307 18.902 65.866 23.092 Q 64.797 23.601 64.73 25.486 Q 67.547 29.565 63.711 34.938 Q 58.352 37.784 54.531 35.67 L 53.595 36.952 Q 59.273 41.493 57.207 52.176 Q 55.813 63.714 49.517 66.599 Q 48.765 69.056 43.086 70.607 Q 42.345 73.018 35.495 76.488 L 35.495 76.488 C 36.002 76.475 36.509 76.45 37.011 76.437 C 38.913 76.387 40.818 76.322 42.71 76.105 C 43.701 75.99 44.655 75.484 45.642 75.247 C 47.202 74.869 48.773 74.555 50.342 74.237 C 53.794 73.537 56.965 71.97 59.931 69.87 C 60.915 69.173 61.896 68.431 62.806 67.603 Q 59.836 49.699 66.123 42.808 Q 68.923 37.626 75.123 38.095 L 75.123 38.095 L 75.123 38.095 L 75.123 38.095 Z  M 25.169 74.27 C 24.799 74.152 24.429 74.031 24.06 73.906 C 21.309 72.976 18.639 71.72 15.933 70.607 C 15.835 70.565 15.728 70.531 15.648 70.461 C 13.948 68.992 12.254 67.52 10.558 66.047 C 9.707 65.31 8.798 64.643 8.025 63.809 C 7.117 62.829 6.186 61.806 5.519 60.611 C 4.52 58.824 3.624 56.931 2.901 54.973 C 2.254 53.22 1.701 51.354 1.453 49.477 C 0.784 44.41 0.694 39.33 1.956 34.332 C 2.999 30.204 4.444 26.281 6.445 22.653 C 6.637 22.304 7.156 22.223 7.418 21.901 C 8.801 20.201 10.115 18.424 11.524 16.756 C 12.215 15.938 13.056 15.289 13.835 14.575 C 17.523 11.195 21.637 8.746 25.976 6.847 Q 19.907 14.25 26.112 20.35 L 26.405 25.19 Q 13.677 31.549 17.79 43.759 L 20.045 49.131 Q 18.484 56.733 21.636 57.312 Q 22.264 60.456 24.06 62.432 L 26.55 66.047 Q 28.214 68.415 31.229 69.003 Q 27.615 71.608 25.169 74.27 L 25.169 74.27 L 25.169 74.27 L 25.169 74.27 L 25.169 74.27 L 25.169 74.27 Z  M 65.827 11.64 C 65.696 11.314 65.515 11.075 65.516 10.837 C 65.527 8.767 65.569 6.697 65.607 4.627 C 65.609 4.505 65.65 4.383 65.707 4.076 C 67.483 4.271 69.245 4.464 71.099 4.668 C 69.307 7.037 67.621 9.267 65.827 11.64 L 65.827 11.64 L 65.827 11.64 Z  M 71.399 1.991 C 71.256 2.407 71.161 2.749 71.022 3.073 C 70.839 3.498 70.459 3.362 70.146 3.308 C 69.106 3.13 68.071 2.927 67.033 2.734 C 66.846 2.7 66.642 2.707 66.475 2.63 C 66.264 2.534 65.944 2.394 65.918 2.233 C 65.858 1.869 66.083 1.58 66.491 1.551 C 67.665 1.467 68.84 1.247 70.006 1.652 C 70.44 1.803 70.903 1.873 71.399 1.991 L 71.399 1.991 Z  M 19.407 76.083 C 19.223 76.378 19.028 76.811 18.718 77.13 C 18.515 77.343 18.074 77.568 17.865 77.486 C 15.706 76.621 13.468 75.879 11.458 74.739 C 8.543 73.087 5.903 70.981 3.867 68.275 C 2.431 66.371 1.217 64.307 0 62.236 C 5.399 68.364 11.97 72.79 19.407 76.083 Z " fill-rule="evenodd" fill="rgb(252,54,58)"/><path d=" M 75.01 31.04 L 75.01 31.04 L 75.01 15.527 L 73.648 15.425 L 73.648 12.559 L 79.431 12.559 L 79.431 15.291 L 78.642 15.392 L 78.642 15.392 Q 77.949 15.493 77.949 16.471 L 77.949 16.471 L 77.949 32.019 L 79.311 32.12 L 79.311 34.986 L 73.529 34.986 L 73.529 32.255 L 74.317 32.153 L 74.317 32.153 Q 74.676 32.086 74.843 31.867 L 74.843 31.867 L 74.843 31.867 Q 75.01 31.648 75.01 31.04 L 75.01 31.04 L 75.01 31.04 L 75.01 31.04 L 75.01 31.04 Z  M 85.37 20.98 L 85.37 20.98 L 85.37 20.98 Q 85.37 31.318 89.48 31.318 L 89.48 31.318 L 89.48 31.318 Q 91.678 31.318 92.562 28.15 L 92.562 28.15 L 92.562 28.15 Q 93.375 25.357 93.375 21.313 L 93.375 21.313 L 93.375 21.313 Q 93.375 17.686 92.658 14.643 L 92.658 14.643 L 92.658 14.643 Q 92.252 12.976 91.427 12.017 L 91.427 12.017 L 91.427 12.017 Q 90.603 11.058 89.289 11.058 L 89.289 11.058 L 89.289 11.058 Q 87.974 11.058 87.031 12.559 L 87.031 12.559 L 87.031 12.559 Q 86.087 14.06 85.728 16.186 L 85.728 16.186 L 85.728 16.186 Q 85.37 18.312 85.37 20.98 L 85.37 20.98 L 85.37 20.98 L 85.37 20.98 L 85.37 20.98 L 85.37 20.98 Z  M 105.694 11.934 L 105.622 11.934 L 103.4 23.814 L 107.844 23.814 L 105.694 11.934 L 105.694 11.934 L 105.694 11.934 L 105.694 11.934 L 105.694 11.934 Z  M 121.668 34.986 L 115.814 34.986 L 115.814 31.61 L 116.674 31.485 L 116.674 31.485 Q 117.296 31.401 117.296 30.317 L 117.296 30.317 L 117.296 10.933 L 115.934 10.808 L 115.934 7.265 L 120.235 7.265 L 126.997 26.399 L 127.045 26.399 L 127.045 10.933 L 125.468 10.808 L 125.468 7.265 L 131.298 7.265 L 131.298 10.641 L 130.438 10.766 L 130.438 10.766 Q 129.864 10.85 129.864 12.059 L 129.864 12.059 L 129.864 34.986 L 127.069 34.986 L 120.163 15.56 L 120.115 15.56 L 120.115 31.318 L 121.668 31.443 L 121.668 34.986 L 121.668 34.986 L 121.668 34.986 Z  M 140.296 11.934 L 140.224 11.934 L 138.002 23.814 L 142.446 23.814 L 140.296 11.934 L 140.296 11.934 L 140.296 11.934 Z  M 89.683 6.764 L 89.683 6.764 L 89.683 6.764 Q 92.514 6.764 94.426 10.266 L 94.426 10.266 L 94.426 10.266 Q 96.338 13.768 96.338 20.959 L 96.338 20.959 L 96.338 20.959 Q 96.338 28.15 94.438 31.839 L 94.438 31.839 L 94.438 31.839 Q 92.538 35.528 89.301 35.528 L 89.301 35.528 L 89.301 35.528 Q 86.063 35.528 84.223 31.86 L 84.223 31.86 L 84.223 31.86 Q 82.383 28.191 82.383 21.188 L 82.383 21.188 L 82.383 21.188 Q 82.383 17.353 83.028 14.456 L 83.028 14.456 L 83.028 14.456 Q 83.673 11.558 84.725 9.974 L 84.725 9.974 L 84.725 9.974 Q 86.851 6.764 89.683 6.764 L 89.683 6.764 L 89.683 6.764 L 89.683 6.764 L 89.683 6.764 L 89.683 6.764 Z  M 99.529 30.317 L 99.529 30.317 L 103.376 10.891 L 101.87 10.641 L 101.87 7.265 L 107.342 7.265 L 112.217 31.318 L 112.241 31.318 L 113.603 31.443 L 113.603 34.986 L 107.438 34.986 L 107.438 31.61 L 108.346 31.485 L 108.346 31.485 Q 108.752 31.401 108.895 31.151 L 108.895 31.151 L 108.895 31.151 Q 109.039 30.901 108.919 30.234 L 108.919 30.234 L 108.418 27.65 L 102.826 27.65 L 102.109 31.318 L 103.543 31.443 L 103.543 34.986 L 98.023 34.986 L 98.023 31.61 L 98.812 31.485 L 98.812 31.485 Q 99.314 31.401 99.529 30.317 L 99.529 30.317 L 99.529 30.317 L 99.529 30.317 L 99.529 30.317 Z  M 134.131 30.317 L 134.131 30.317 L 137.978 10.891 L 136.472 10.641 L 136.472 7.265 L 141.944 7.265 L 146.819 31.318 L 146.843 31.318 L 148.205 31.443 L 148.205 34.986 L 142.04 34.986 L 142.04 31.61 L 142.948 31.485 L 142.948 31.485 Q 143.354 31.401 143.497 31.151 L 143.497 31.151 L 143.497 31.151 Q 143.641 30.901 143.521 30.234 L 143.521 30.234 L 143.02 27.65 L 137.428 27.65 L 136.711 31.318 L 138.145 31.443 L 138.145 34.986 L 132.625 34.986 L 132.625 31.61 L 133.414 31.485 L 133.414 31.485 Q 133.916 31.401 134.131 30.317 L 134.131 30.317 L 134.131 30.317 Z  M 73.698 4.801 L 79.431 4.801 L 79.431 10.086 L 73.698 10.086 L 73.698 4.801 Z " fill-rule="evenodd" fill="rgb(46,46,46)"/></g></g></svg>