<?xml version="1.0" encoding="UTF-8" standalone="no"?>
<!-- Generator: Gravit.io -->
<svg xmlns="http://www.w3.org/2000/svg" xmlns:xlink="http://www.w3.org/1999/xlink" style="isolation:isolate" viewBox="0 0 68.867 69.172" width="68.867pt" height="69.172pt"><defs><clipPath id="_clipPath_J7sOsCAmPYktxjzN39GFMPAM2jHXzqFh"><rect width="68.867" height="69.172"/></clipPath></defs><g clip-path="url(#_clipPath_J7sOsCAmPYktxjzN39GFMPAM2jHXzqFh)"><rect width="68.867" height="69.172" style="fill:rgb(0,0,0)" fill-opacity="0"/><linearGradient id="_lgradient_1" x1="0" y1="0" x2="1" y2="0" gradientTransform="matrix(-51.046,50.335,-50.335,-51.046,64.39,4.955)" gradientUnits="userSpaceOnUse"><stop offset="0%" stop-opacity="1" style="stop-color:rgb(172,132,71)"/><stop offset="100%" stop-opacity="1" style="stop-color:rgb(249,236,56)"/></linearGradient><path d=" M 35.294 33.625 L 35.166 51.6 L 17.235 51.475 L 17.361 33.498 L 35.294 33.625 Z " fill="url(#_lgradient_1)"/><linearGradient id="_lgradient_2" x1="0" y1="0" x2="1" y2="0" gradientTransform="matrix(-51.045,50.334,-50.334,-51.045,67.859,8.474)" gradientUnits="userSpaceOnUse"><stop offset="0%" stop-opacity="1" style="stop-color:rgb(172,132,71)"/><stop offset="100%" stop-opacity="1" style="stop-color:rgb(249,236,56)"/></linearGradient><path d=" M 11.329 28.03 L 40.775 28.235 L 40.569 57.683 L 51.898 69.172 L 52.222 28.277 L 57.397 28.377 L 57.145 55.223 L 68.474 66.712 L 68.867 17.067 L 0 16.541 L 11.329 28.03 Z " fill="url(#_lgradient_2)"/><linearGradient id="_lgradient_3" x1="0" y1="0" x2="1" y2="0" gradientTransform="matrix(-51.045,50.334,-50.334,-51.045,46.641,-13.042)" gradientUnits="userSpaceOnUse"><stop offset="0%" stop-opacity="1" style="stop-color:rgb(172,132,71)"/><stop offset="100%" stop-opacity="1" style="stop-color:rgb(249,236,56)"/></linearGradient><path d=" M 14.02 11.489 L 52.295 11.677 L 52.335 0.309 L 2.691 0 L 14.02 11.489 Z " fill="url(#_lgradient_3)"/></g></svg>