<?xml version="1.0" encoding="UTF-8" standalone="no"?>
<!-- Generator: Gravit.io -->
<svg xmlns="http://www.w3.org/2000/svg" xmlns:xlink="http://www.w3.org/1999/xlink" style="isolation:isolate" viewBox="0 0 163.054 123.581" width="163.054pt" height="123.581pt"><defs><clipPath id="_clipPath_Fe93SnIV8HdL1hxRUVLJCORm2RhKELg3"><rect width="163.054" height="123.581"/></clipPath></defs><g clip-path="url(#_clipPath_Fe93SnIV8HdL1hxRUVLJCORm2RhKELg3)"><rect width="163.054" height="123.581" style="fill:rgb(0,0,0)" fill-opacity="0"/><path d=" M 53.022 52.324 C 52.591 51.759 52.11 51.186 51.575 50.603 C 44.557 42.957 33.604 39.355 33.604 39.355 C 33.604 39.355 51.488 49.984 50.139 60.026 C 49.508 64.722 47.113 69.308 46.36 73.727 L 46.36 73.727 L 46.36 73.727 L 46.36 73.727 L 46.36 73.727 L 46.36 73.727 L 46.36 73.727 L 46.36 73.727 L 46.36 73.727 L 46.36 73.727 L 46.36 73.727 C 44.563 69.541 42.781 68.321 44.683 61.229 C 47.014 52.542 35.015 44.166 27.299 42.108 C 27.299 42.108 40.754 50.537 40.198 58.586 C 39.919 62.623 38.891 65.111 38.669 67.285 C 36.582 70.813 33.821 73.506 29.909 75.859 L 29.909 75.859 L 29.909 75.859 L 29.909 75.859 L 29.909 75.859 L 29.909 75.859 L 29.909 75.859 C 29.909 75.859 35.299 73.98 38.587 68.653 L 38.587 68.653 L 38.587 68.653 L 38.587 68.653 L 38.587 68.653 L 38.587 68.653 L 38.587 68.653 L 38.587 68.653 L 38.587 68.653 C 38.66 70.316 39.413 71.959 41.555 74.185 C 45.895 78.697 40.806 85.288 35.147 89.994 C 34.879 89.695 34.487 89.518 34.055 89.518 C 33.199 89.518 32.503 90.214 32.503 91.07 C 32.503 91.362 32.584 91.635 32.729 91.867 C 32.094 92.341 31.47 92.77 30.867 93.162 C 31.559 92.918 32.306 92.632 33.106 92.288 C 33.364 92.499 33.695 92.622 34.055 92.622 C 34.88 92.622 35.556 91.977 35.601 91.163 L 35.601 91.163 L 35.601 91.163 L 35.601 91.163 C 39.437 89.316 43.555 86.693 45.868 83.631 Q 45.852 83.975 45.845 84.329 L 45.845 84.329 L 45.845 84.329 Q 45.781 89.069 45.75 93.368 L 45.75 93.368 L 45.75 93.368 Q 45.718 97.666 45.75 101.901 L 45.75 101.901 L 45.75 101.901 Q 45.781 106.136 45.845 110.876 L 45.845 110.876 L 45.845 110.876 Q 45.971 117.703 49.226 120.642 L 49.226 120.642 L 49.226 120.642 Q 52.482 123.581 59.814 123.581 L 59.814 123.581 L 59.814 123.581 L 59.814 123.581 L 59.814 123.581 Q 67.146 123.581 70.401 120.642 L 70.401 120.642 L 70.401 120.642 Q 73.656 117.703 73.846 110.876 L 73.846 110.876 L 73.846 110.876 Q 73.909 109.359 73.909 107.432 L 73.909 107.432 L 73.909 107.432 Q 73.909 105.504 73.846 103.987 L 73.846 103.987 L 64.365 103.987 L 64.365 103.987 Q 64.491 106.136 64.491 107.748 L 64.491 107.748 L 64.491 107.748 Q 64.491 109.359 64.365 111.382 L 64.365 111.382 L 64.365 111.382 Q 64.302 113.784 63.259 114.827 L 63.259 114.827 L 63.259 114.827 Q 62.216 115.87 59.814 115.87 L 59.814 115.87 L 59.814 115.87 Q 57.475 115.87 56.432 114.827 L 56.432 114.827 L 56.432 114.827 Q 55.389 113.784 55.326 111.382 L 55.326 111.382 L 55.326 111.382 Q 55.005 99.755 55.228 88.082 C 55.235 88.086 55.243 88.09 55.25 88.093 C 55.243 88.083 55.236 88.072 55.229 88.062 Q 55.269 85.975 55.326 83.886 L 55.326 83.886 L 55.326 83.886 Q 55.389 81.484 56.432 80.473 L 56.432 80.473 L 56.432 80.473 Q 57.475 79.462 59.814 79.462 L 59.814 79.462 L 59.814 79.462 Q 62.026 79.462 63.037 80.473 L 63.037 80.473 L 63.037 80.473 Q 64.049 81.484 64.112 83.886 L 64.112 83.886 L 64.112 83.886 Q 64.175 85.656 64.144 87.616 L 64.144 87.616 L 64.144 87.616 Q 64.112 89.575 64.049 91.345 L 64.049 91.345 L 73.53 91.345 L 73.53 91.345 Q 73.593 89.765 73.625 87.869 L 73.625 87.869 L 73.625 87.869 Q 73.656 85.972 73.593 84.392 L 73.593 84.392 L 73.593 84.392 Q 73.404 77.945 70.085 74.848 L 70.085 74.848 L 70.085 74.848 Q 66.767 71.75 59.814 71.75 L 59.814 71.75 L 59.814 71.75 Q 55.082 71.75 52.015 73.068 C 52.146 72.788 52.286 72.498 52.435 72.199 C 53.453 70.153 54.354 68.239 55.013 66.397 L 59.63 66.397 L 59.63 66.397 L 59.63 34.614 L 53.022 34.614 L 53.022 34.614 L 53.022 34.614 L 53.022 52.324 Z  M 37.228 82.513 C 37.137 82.513 37.086 82.514 37.086 82.514 C 37.134 82.512 37.18 82.514 37.228 82.513 L 37.228 82.513 Z  M 44.826 38.483 L 44.827 38.48 C 44.823 38.479 44.819 38.479 44.816 38.479 C 44.821 38.478 44.823 38.48 44.826 38.483 L 44.826 38.483 L 44.826 38.483 Z  M 12.295 27.687 C 12.09 27.609 11.883 27.529 11.655 27.432 C 11.53 27.381 11.399 27.328 11.261 27.272 C 11.234 27.26 11.207 27.248 11.179 27.235 C 11.371 27.337 11.542 27.432 11.697 27.511 C 11.883 27.604 12.041 27.684 12.169 27.748 C 12.177 27.753 12.186 27.757 12.19 27.759 C 12.225 27.731 12.26 27.706 12.295 27.687 L 12.295 27.687 L 12.295 27.687 L 12.295 27.687 Z  M 43.936 6.168 C 43.807 6.154 43.691 6.143 43.58 6.133 C 43.125 6.095 42.766 6.073 42.52 6.066 C 42.275 6.058 42.143 6.06 42.143 6.06 C 42.143 6.06 42.273 6.039 42.518 6.011 C 42.763 5.985 43.124 5.944 43.585 5.931 C 44.047 5.916 44.61 5.911 45.255 5.961 C 45.9 6.009 46.629 6.098 47.412 6.29 C 47.48 6.306 47.549 6.323 47.62 6.343 C 47.857 6.384 48.103 6.435 48.355 6.496 C 49.137 6.683 49.98 6.965 50.801 7.435 C 50.903 7.494 51.007 7.554 51.11 7.614 C 51.212 7.678 51.31 7.749 51.411 7.818 C 51.617 7.949 51.806 8.111 52.001 8.271 C 52.197 8.429 52.368 8.621 52.552 8.803 C 52.634 8.903 52.716 9.004 52.799 9.105 C 52.882 9.206 52.966 9.307 53.035 9.42 C 53.637 10.29 54.037 11.344 54.17 12.431 C 54.316 13.518 54.226 14.631 54.056 15.687 L 53.99 16.075 L 53.904 16.474 C 53.846 16.74 53.792 17.007 53.715 17.265 C 53.644 17.525 53.579 17.786 53.487 18.04 C 53.403 18.297 53.32 18.552 53.214 18.8 L 53.064 19.174 L 52.89 19.538 C 52.779 19.782 52.637 20.012 52.503 20.243 C 52.439 20.36 52.359 20.468 52.285 20.578 C 52.208 20.687 52.137 20.799 52.056 20.904 C 51.887 21.11 51.731 21.323 51.543 21.508 C 50.831 22.285 49.927 22.828 49.03 23.141 C 48.581 23.302 48.13 23.4 47.695 23.474 C 47.258 23.53 46.836 23.57 46.433 23.572 C 45.626 23.591 44.897 23.517 44.258 23.433 C 43.619 23.352 43.069 23.249 42.617 23.166 C 41.715 22.995 41.199 22.897 41.199 22.897 C 41.199 22.897 41.261 22.9 41.38 22.904 C 40.649 22.765 40.256 22.691 40.256 22.691 C 40.256 22.691 40.387 22.696 40.633 22.705 C 40.879 22.716 41.241 22.728 41.699 22.758 C 42.157 22.785 42.713 22.815 43.346 22.837 C 43.98 22.854 44.693 22.853 45.456 22.78 C 46.218 22.706 47.03 22.545 47.815 22.222 C 48.597 21.896 49.335 21.384 49.936 20.694 C 50.552 20.016 50.993 19.149 51.353 18.234 C 51.448 18.007 51.521 17.769 51.597 17.531 C 51.678 17.296 51.736 17.05 51.801 16.806 C 51.87 16.562 51.917 16.317 51.967 16.071 L 52.043 15.702 L 52.106 15.314 C 52.279 14.308 52.367 13.311 52.25 12.346 C 52.135 11.388 51.843 10.478 51.349 9.715 C 51.294 9.616 51.223 9.527 51.155 9.438 C 51.087 9.348 51.019 9.258 50.951 9.169 C 50.875 9.087 50.8 9.005 50.724 8.923 C 50.65 8.841 50.578 8.756 50.494 8.685 C 50.331 8.536 50.174 8.382 49.996 8.255 C 49.909 8.189 49.825 8.12 49.737 8.057 C 49.646 7.998 49.557 7.939 49.467 7.88 C 48.745 7.418 47.982 7.089 47.253 6.852 C 46.935 6.75 46.626 6.662 46.332 6.594 C 45.629 6.455 45.017 6.385 44.523 6.339 C 44.068 6.302 43.709 6.279 43.463 6.272 C 43.218 6.264 43.086 6.266 43.086 6.266 C 43.086 6.266 43.216 6.245 43.461 6.217 C 43.593 6.203 43.758 6.185 43.936 6.168 L 43.936 6.168 L 43.936 6.168 L 43.936 6.168 L 43.936 6.168 L 43.936 6.168 L 43.936 6.168 L 43.936 6.168 L 43.936 6.168 L 43.936 6.168 L 43.936 6.168 L 43.936 6.168 Z  M 42.383 6.759 C 42.5 6.894 42.61 7.022 42.712 7.142 C 42.995 7.471 43.199 7.744 43.341 7.928 C 43.479 8.115 43.553 8.214 43.553 8.214 C 43.553 8.214 43.465 8.127 43.299 7.965 C 43.134 7.803 42.884 7.573 42.567 7.282 C 41.928 6.704 40.995 5.903 39.809 5.044 C 39.216 4.615 38.555 4.18 37.841 3.751 C 37.124 3.327 36.345 2.924 35.52 2.563 C 35.108 2.381 34.679 2.222 34.243 2.073 C 33.806 1.928 33.357 1.805 32.903 1.691 C 31.993 1.48 31.049 1.357 30.107 1.369 C 29.164 1.359 28.226 1.495 27.328 1.728 C 26.435 1.978 25.574 2.31 24.786 2.732 C 23.999 3.153 23.27 3.632 22.614 4.138 C 22.531 4.2 22.45 4.263 22.368 4.325 C 22.29 4.391 22.212 4.456 22.134 4.52 C 21.981 4.651 21.824 4.774 21.679 4.906 C 21.533 5.037 21.388 5.164 21.247 5.29 C 21.108 5.419 20.975 5.55 20.843 5.676 C 20.319 6.184 19.862 6.678 19.46 7.12 C 19.265 7.347 19.082 7.559 18.913 7.755 C 18.744 7.951 18.597 8.139 18.459 8.305 C 18.184 8.636 17.978 8.906 17.834 9.088 C 17.69 9.27 17.614 9.367 17.614 9.367 C 17.614 9.367 17.674 9.259 17.787 9.057 C 17.905 8.857 18.058 8.551 18.294 8.187 C 18.303 8.172 18.313 8.156 18.323 8.139 C 18.118 8.39 17.962 8.594 17.846 8.74 C 17.702 8.922 17.625 9.019 17.625 9.019 C 17.625 9.019 17.686 8.911 17.799 8.709 C 17.917 8.509 18.07 8.203 18.305 7.839 C 18.421 7.656 18.544 7.448 18.688 7.23 C 18.833 7.011 18.994 6.779 19.166 6.529 C 19.347 6.286 19.535 6.023 19.743 5.752 C 19.958 5.488 20.177 5.203 20.429 4.925 C 20.915 4.353 21.488 3.768 22.142 3.2 C 22.795 2.63 23.531 2.071 24.362 1.597 C 25.191 1.123 26.101 0.702 27.078 0.429 C 28.055 0.162 29.084 0 30.115 0 C 31.147 -0.001 32.171 0.146 33.148 0.385 C 34.125 0.63 35.047 0.992 35.904 1.399 C 36.764 1.802 37.545 2.28 38.26 2.761 C 38.976 3.244 39.616 3.748 40.183 4.237 C 40.754 4.722 41.246 5.2 41.669 5.634 C 42.095 6.065 42.442 6.463 42.724 6.793 C 43.007 7.123 43.211 7.396 43.352 7.58 C 43.491 7.766 43.565 7.866 43.565 7.866 C 43.565 7.866 43.476 7.779 43.311 7.617 C 43.146 7.455 42.896 7.225 42.578 6.934 C 42.518 6.879 42.455 6.822 42.383 6.759 L 42.383 6.759 L 42.383 6.759 L 42.383 6.759 L 42.383 6.759 L 42.383 6.759 L 42.383 6.759 L 42.383 6.759 L 42.383 6.759 L 42.383 6.759 L 42.383 6.759 L 42.383 6.759 Z  M 46.574 7.604 C 46.383 7.472 52.121 8.627 51.467 14.608 C 50.793 20.776 47.978 20.526 46.953 20.957 C 46.953 20.957 53.459 12.37 46.574 7.604 L 46.574 7.604 L 46.574 7.604 L 46.574 7.604 L 46.574 7.604 L 46.574 7.604 L 46.574 7.604 L 46.574 7.604 L 46.574 7.604 L 46.574 7.604 Z  M 41.161 9.131 C 41.161 9.131 35.977 -0.757 27.383 2.916 C 27.383 2.916 33.487 1.645 41.161 9.131 L 41.161 9.131 L 41.161 9.131 L 41.161 9.131 L 41.161 9.131 L 41.161 9.131 L 41.161 9.131 L 41.161 9.131 L 41.161 9.131 Z  M 17.329 8.405 C 17.755 8.511 9.525 2.469 4.931 11.95 C 4.931 11.95 10.47 6.697 17.329 8.405 L 17.329 8.405 L 17.329 8.405 L 17.329 8.405 L 17.329 8.405 L 17.329 8.405 L 17.329 8.405 L 17.329 8.405 Z  M 22.308 55.89 L 22.308 55.89 C 23.476 56.02 26.456 56.755 26.893 60.431 C 27.102 62.194 26.966 64.964 27.901 65.951 C 26.294 65.455 26.424 64.359 26.352 60.638 C 26.29 57.454 23.438 56.176 22.209 55.891 C 22.019 55.849 21.86 55.83 21.77 55.836 L 21.77 55.836 L 21.77 55.836 C 21.77 55.836 21.962 55.834 22.308 55.89 L 22.308 55.89 L 22.308 55.89 L 22.308 55.89 L 22.308 55.89 L 22.308 55.89 L 22.308 55.89 L 22.308 55.89 L 22.308 55.89 L 22.308 55.89 L 22.308 55.89 Z  M 18.291 56.262 C 18.291 56.262 19.347 59.818 19.377 63.42 C 19.418 68.334 22.162 72.423 28.481 76.103 C 26.289 73.894 20.732 70 20.47 65.509 C 20.122 59.535 18.291 56.262 18.291 56.262 L 18.291 56.262 L 18.291 56.262 L 18.291 56.262 L 18.291 56.262 L 18.291 56.262 L 18.291 56.262 L 18.291 56.262 L 18.291 56.262 L 18.291 56.262 L 18.291 56.262 L 18.291 56.262 L 18.291 56.262 L 18.291 56.262 L 18.291 56.262 Z  M 30.788 58.364 C 30.788 58.364 35.368 60.837 36.637 56.116 C 35.28 57.472 32.961 58.307 30.788 58.364 L 30.788 58.364 L 30.788 58.364 L 30.788 58.364 L 30.788 58.364 L 30.788 58.364 L 30.788 58.364 L 30.788 58.364 L 30.788 58.364 L 30.788 58.364 L 30.788 58.364 L 30.788 58.364 L 30.788 58.364 Z  M 20.156 59.729 C 20.156 59.729 22.84 62.435 24.802 58.849 C 23.536 59.722 21.707 60.026 20.156 59.729 L 20.156 59.729 L 20.156 59.729 L 20.156 59.729 L 20.156 59.729 L 20.156 59.729 L 20.156 59.729 L 20.156 59.729 L 20.156 59.729 L 20.156 59.729 L 20.156 59.729 L 20.156 59.729 Z  M 22.663 55.933 C 22.663 55.933 22.489 55.911 22.308 55.89 C 22.186 55.891 22.163 55.89 22.209 55.891 C 21.286 55.838 19.597 55.838 18.631 56.499 C 19.464 55.151 21.676 55.663 22.663 55.933 L 22.663 55.933 L 22.663 55.933 L 22.663 55.933 L 22.663 55.933 L 22.663 55.933 L 22.663 55.933 L 22.663 55.933 L 22.663 55.933 L 22.663 55.933 L 22.663 55.933 Z  M 28.592 55.914 C 28.592 55.914 31.111 51.977 37.51 52.966 C 35.385 51.831 29.47 52.17 28.592 55.914 L 28.592 55.914 L 28.592 55.914 L 28.592 55.914 L 28.592 55.914 L 28.592 55.914 L 28.592 55.914 L 28.592 55.914 L 28.592 55.914 L 28.592 55.914 Z  M 14.935 75.64 C 17.541 78.113 21.507 78.138 22.71 77.315 C 23.951 76.468 24.652 73.973 24.652 73.973 L 24.652 73.973 C 24.652 73.973 25.163 77.314 23.156 78.5 C 20.54 80.047 16.146 77.627 14.86 75.696 C 13.24 76.874 11.799 79.108 11.843 83.305 C 11.941 92.768 3.563 94.591 0 95.465 C 5.674 91.589 8.246 89.618 7.478 82.512 C 6.71 75.406 12.301 74.139 19.196 74.356 C 19.196 74.356 16.945 74.201 14.935 75.64 L 14.935 75.64 L 14.935 75.64 L 14.935 75.64 L 14.935 75.64 L 14.935 75.64 L 14.935 75.64 L 14.935 75.64 L 14.935 75.64 L 14.935 75.64 Z  M 18.894 100.6 C 18.894 99.743 19.589 99.048 20.445 99.048 C 21.302 99.048 21.997 99.743 21.997 100.6 C 21.997 101.456 21.302 102.152 20.445 102.152 C 19.589 102.152 18.894 101.456 18.894 100.6 L 18.894 100.6 L 18.894 100.6 L 18.894 100.6 L 18.894 100.6 L 18.894 100.6 L 18.894 100.6 L 18.894 100.6 L 18.894 100.6 L 18.894 100.6 L 18.894 100.6 L 18.894 100.6 L 18.894 100.6 L 18.894 100.6 L 18.894 100.6 L 18.894 100.6 L 18.894 100.6 L 18.894 100.6 L 18.894 100.6 Z  M 19.7 111.18 C 19.7 110.324 20.395 109.628 21.252 109.628 C 22.108 109.628 22.803 110.324 22.803 111.18 C 22.803 112.037 22.108 112.732 21.252 112.732 C 20.395 112.732 19.7 112.037 19.7 111.18 L 19.7 111.18 L 19.7 111.18 L 19.7 111.18 L 19.7 111.18 L 19.7 111.18 L 19.7 111.18 L 19.7 111.18 L 19.7 111.18 L 19.7 111.18 L 19.7 111.18 L 19.7 111.18 L 19.7 111.18 L 19.7 111.18 L 19.7 111.18 L 19.7 111.18 L 19.7 111.18 L 19.7 111.18 Z  M 21.997 120.699 C 21.997 119.842 22.693 119.147 23.549 119.147 C 24.405 119.147 25.101 119.842 25.101 120.699 C 25.101 121.555 24.405 122.25 23.549 122.25 C 22.693 122.25 21.997 121.555 21.997 120.699 L 21.997 120.699 L 21.997 120.699 L 21.997 120.699 L 21.997 120.699 L 21.997 120.699 L 21.997 120.699 L 21.997 120.699 L 21.997 120.699 L 21.997 120.699 L 21.997 120.699 L 21.997 120.699 L 21.997 120.699 L 21.997 120.699 L 21.997 120.699 L 21.997 120.699 L 21.997 120.699 Z  M 36.742 120.933 C 36.742 120.076 37.438 119.381 38.294 119.381 C 39.151 119.381 39.846 120.076 39.846 120.933 C 39.846 121.789 39.151 122.485 38.294 122.485 C 37.438 122.485 36.742 121.789 36.742 120.933 L 36.742 120.933 L 36.742 120.933 L 36.742 120.933 L 36.742 120.933 L 36.742 120.933 L 36.742 120.933 L 36.742 120.933 L 36.742 120.933 L 36.742 120.933 L 36.742 120.933 L 36.742 120.933 L 36.742 120.933 L 36.742 120.933 L 36.742 120.933 L 36.742 120.933 Z  M 32.331 111.18 C 32.331 110.324 33.026 109.628 33.883 109.628 C 34.74 109.628 35.435 110.324 35.435 111.18 C 35.435 112.037 34.74 112.732 33.883 112.732 C 33.026 112.732 32.331 112.037 32.331 111.18 L 32.331 111.18 L 32.331 111.18 L 32.331 111.18 L 32.331 111.18 L 32.331 111.18 L 32.331 111.18 L 32.331 111.18 L 32.331 111.18 L 32.331 111.18 L 32.331 111.18 L 32.331 111.18 L 32.331 111.18 L 32.331 111.18 L 32.331 111.18 Z  M 31.297 100.877 C 31.297 100.02 31.992 99.325 32.848 99.325 C 33.705 99.325 34.4 100.02 34.4 100.877 C 34.4 101.733 33.705 102.429 32.848 102.429 C 31.992 102.429 31.297 101.733 31.297 100.877 L 31.297 100.877 L 31.297 100.877 L 31.297 100.877 L 31.297 100.877 L 31.297 100.877 L 31.297 100.877 L 31.297 100.877 L 31.297 100.877 L 31.297 100.877 L 31.297 100.877 L 31.297 100.877 L 31.297 100.877 L 31.297 100.877 Z  M 19.433 90.719 C 19.433 89.862 20.128 89.167 20.984 89.167 C 21.841 89.167 22.536 89.862 22.536 90.719 C 22.536 91.575 21.841 92.271 20.984 92.271 C 20.128 92.271 19.433 91.575 19.433 90.719 L 19.433 90.719 L 19.433 90.719 L 19.433 90.719 L 19.433 90.719 L 19.433 90.719 L 19.433 90.719 L 19.433 90.719 L 19.433 90.719 L 19.433 90.719 L 19.433 90.719 L 19.433 90.719 L 19.433 90.719 Z  M 26.293 69.435 C 26.293 69.435 28.626 69.788 31.297 68.435 C 31.285 69.591 27.694 71.338 26.293 69.435 L 26.293 69.435 L 26.293 69.435 L 26.293 69.435 L 26.293 69.435 L 26.293 69.435 L 26.293 69.435 L 26.293 69.435 Z  M 27.835 71.024 C 27.835 71.024 29.65 70.953 30.354 70.392 C 29.665 71.955 28.631 71.665 27.835 71.024 L 27.835 71.024 L 27.835 71.024 L 27.835 71.024 L 27.835 71.024 L 27.835 71.024 L 27.835 71.024 Z  M 14.357 44.26 L 14.347 44.178 L 14.323 43.906 L 14.291 43.381 L 14.239 42.342 L 14.136 40.273 C 14.062 38.895 13.973 37.521 13.849 36.151 C 13.726 34.782 13.566 33.417 13.336 32.075 C 13.218 31.405 13.08 30.74 12.892 30.102 C 12.797 29.784 12.689 29.473 12.559 29.184 C 12.43 28.899 12.269 28.627 12.093 28.466 L 12.079 28.453 C 12.06 28.435 12.042 28.415 12.026 28.393 C 11.89 28.207 11.93 27.946 12.116 27.81 C 12.123 27.805 12.13 27.8 12.137 27.796 C 11.867 27.7 11.469 27.566 10.979 27.358 C 10.854 27.308 10.723 27.254 10.584 27.198 C 10.449 27.137 10.306 27.074 10.158 27.007 C 10.01 26.94 9.856 26.87 9.696 26.797 C 9.539 26.718 9.376 26.636 9.208 26.551 C 8.533 26.217 7.792 25.791 7.02 25.265 C 6.83 25.13 6.63 24.999 6.436 24.852 C 6.243 24.703 6.046 24.551 5.846 24.397 C 5.655 24.23 5.46 24.061 5.262 23.889 C 5.071 23.71 4.883 23.521 4.688 23.333 C 3.93 22.56 3.22 21.635 2.68 20.56 C 2.534 20.297 2.427 20.012 2.303 19.733 C 2.246 19.591 2.2 19.444 2.147 19.299 C 2.096 19.154 2.043 19.007 2.006 18.856 C 1.822 18.261 1.728 17.634 1.669 17.002 C 1.629 16.368 1.637 15.726 1.71 15.09 C 1.791 14.456 1.906 13.822 2.092 13.211 C 2.452 11.981 3.003 10.837 3.648 9.767 C 3.809 9.491 3.975 9.242 4.142 8.996 L 4.268 8.81 C 4.319 8.732 4.364 8.682 4.411 8.616 C 4.506 8.492 4.6 8.369 4.694 8.246 C 4.784 8.12 4.893 8.009 4.995 7.893 C 5.098 7.778 5.198 7.662 5.303 7.55 C 5.414 7.444 5.524 7.338 5.634 7.233 L 5.799 7.075 L 5.975 6.93 C 6.092 6.835 6.209 6.739 6.325 6.644 C 6.446 6.555 6.571 6.473 6.693 6.388 C 6.932 6.209 7.199 6.08 7.45 5.932 C 7.974 5.678 8.499 5.452 9.033 5.315 C 10.095 5.008 11.141 4.959 12.081 5.006 C 12.394 5.024 12.697 5.055 12.983 5.097 L 12.983 5.097 L 12.983 5.097 L 12.983 5.097 L 12.983 5.097 L 12.983 5.097 L 12.983 5.097 L 12.983 5.097 C 13.837 5.162 14.606 5.319 15.277 5.5 C 16.009 5.698 16.625 5.933 17.122 6.143 C 17.62 6.351 17.996 6.55 18.25 6.686 C 18.503 6.823 18.633 6.905 18.633 6.905 C 18.633 6.905 18.494 6.84 18.227 6.736 C 17.96 6.63 17.562 6.491 17.053 6.333 C 17.036 6.327 17.019 6.322 16.998 6.317 C 17.227 6.427 17.422 6.531 17.573 6.612 C 17.827 6.75 17.957 6.831 17.957 6.831 C 17.957 6.831 17.818 6.766 17.55 6.662 C 17.283 6.556 16.886 6.417 16.376 6.259 C 15.867 6.103 15.24 5.942 14.515 5.805 C 14.382 5.782 14.245 5.76 14.106 5.738 C 13.682 5.687 13.222 5.662 12.744 5.663 C 12.297 5.676 11.831 5.697 11.36 5.778 C 11.123 5.807 10.887 5.865 10.647 5.911 C 10.527 5.938 10.409 5.975 10.289 6.006 C 10.169 6.037 10.048 6.07 9.931 6.115 C 9.45 6.263 8.987 6.492 8.529 6.742 C 8.418 6.812 8.307 6.882 8.195 6.953 C 8.081 7.019 7.974 7.097 7.867 7.177 C 7.76 7.257 7.65 7.334 7.544 7.417 C 7.443 7.505 7.34 7.593 7.238 7.682 L 7.084 7.816 L 6.94 7.963 C 6.844 8.061 6.747 8.159 6.65 8.257 C 6.559 8.361 6.471 8.469 6.381 8.576 C 6.292 8.684 6.197 8.785 6.118 8.903 C 6.036 9.018 5.954 9.132 5.871 9.247 C 5.832 9.303 5.781 9.368 5.753 9.415 L 5.633 9.604 L 5.389 9.981 C 5.306 10.107 5.241 10.23 5.165 10.355 C 4.576 11.355 4.065 12.443 3.749 13.571 C 3.573 14.132 3.463 14.707 3.384 15.282 C 3.312 15.858 3.3 16.436 3.329 17.006 C 3.419 18.142 3.684 19.252 4.165 20.24 C 4.636 21.229 5.243 22.123 5.923 22.887 C 6.603 23.652 7.33 24.31 8.043 24.866 C 8.759 25.419 9.444 25.898 10.076 26.284 C 10.234 26.382 10.387 26.476 10.534 26.567 C 10.685 26.654 10.83 26.737 10.969 26.817 C 11.108 26.898 11.242 26.976 11.37 27.05 C 11.5 27.119 11.624 27.186 11.742 27.248 C 11.979 27.372 12.187 27.49 12.373 27.584 C 12.387 27.591 12.401 27.599 12.413 27.605 L 12.413 27.605 C 12.869 27.284 13.323 27.009 13.793 26.738 C 14.361 26.41 14.943 26.111 15.531 25.825 C 16.119 25.539 16.718 25.279 17.322 25.032 C 17.927 24.785 18.539 24.56 19.155 24.347 C 19.463 24.241 19.774 24.145 20.084 24.043 C 20.395 23.946 20.709 23.859 21.021 23.766 C 21.052 23.758 21.083 23.749 21.114 23.741 C 21.062 23.634 20.998 23.507 20.941 23.362 C 20.863 23.185 20.785 22.981 20.706 22.756 C 20.629 22.532 20.545 22.287 20.473 22.025 C 20.397 21.763 20.321 21.486 20.258 21.196 C 20.193 20.906 20.128 20.605 20.077 20.296 C 20.053 20.141 20.03 19.985 20.006 19.828 C 19.989 19.67 19.971 19.511 19.953 19.352 C 19.943 19.192 19.932 19.031 19.922 18.872 C 19.915 18.711 19.919 18.548 19.917 18.389 C 19.926 18.224 19.934 18.048 19.956 17.895 C 19.968 17.821 19.981 17.746 19.993 17.673 L 20.002 17.618 L 20.007 17.589 L 20.011 17.574 L 20.019 17.543 L 20.052 17.42 L 20.098 17.294 C 20.117 17.25 20.141 17.204 20.164 17.161 C 20.226 17.071 20.306 16.958 20.478 16.91 C 20.65 16.87 20.778 16.933 20.864 16.984 C 20.947 17.039 21.011 17.097 21.063 17.155 C 21.273 17.387 21.392 17.619 21.504 17.835 C 21.723 18.265 21.855 18.637 21.949 18.898 C 21.996 19.028 22.027 19.132 22.052 19.202 C 22.077 19.272 22.09 19.309 22.09 19.309 L 22.09 19.309 C 22.09 19.309 22.064 19.279 22.021 19.217 C 21.979 19.156 21.916 19.067 21.841 18.952 C 21.688 18.723 21.476 18.39 21.207 18.016 C 21.072 17.834 20.916 17.631 20.746 17.479 C 20.704 17.442 20.661 17.414 20.626 17.397 C 20.593 17.382 20.581 17.394 20.612 17.391 C 20.643 17.382 20.632 17.392 20.615 17.42 L 20.59 17.484 L 20.567 17.566 L 20.55 17.658 L 20.545 17.681 L 20.543 17.693 C 20.54 17.707 20.545 17.677 20.545 17.682 L 20.544 17.685 L 20.544 17.692 L 20.538 17.748 C 20.531 17.822 20.524 17.897 20.516 17.972 C 20.507 18.12 20.513 18.251 20.507 18.393 C 20.513 18.542 20.519 18.692 20.525 18.842 C 20.537 18.993 20.548 19.145 20.56 19.297 C 20.575 19.45 20.591 19.603 20.606 19.755 C 20.625 19.907 20.643 20.059 20.661 20.21 C 20.705 20.51 20.738 20.808 20.785 21.095 C 20.832 21.382 20.872 21.661 20.917 21.924 C 20.962 22.187 21.005 22.437 21.044 22.667 C 21.088 22.896 21.128 23.107 21.163 23.293 C 21.194 23.449 21.225 23.586 21.251 23.704 C 21.802 23.553 22.356 23.41 22.914 23.288 L 23.39 23.18 L 23.869 23.086 C 24.189 23.026 24.507 22.958 24.829 22.91 L 25.792 22.758 L 26.759 22.634 C 27.08 22.588 27.405 22.568 27.728 22.534 C 28.051 22.503 28.375 22.471 28.699 22.456 L 28.953 22.44 C 28.953 22.369 28.954 22.281 28.954 22.176 C 28.953 22.029 28.952 21.852 28.951 21.648 C 28.945 21.444 28.941 21.215 28.938 20.966 C 28.927 20.716 28.916 20.445 28.911 20.16 C 28.898 19.875 28.875 19.574 28.866 19.263 C 28.862 18.951 28.818 18.633 28.806 18.308 C 28.797 18.146 28.788 17.982 28.779 17.817 C 28.764 17.652 28.749 17.485 28.734 17.319 C 28.709 16.985 28.684 16.652 28.659 16.323 C 28.625 16.013 28.599 15.691 28.539 15.4 C 28.479 15.113 28.403 14.825 28.275 14.656 C 28.208 14.574 28.156 14.544 28.083 14.542 C 28.005 14.54 27.901 14.59 27.812 14.654 C 27.753 14.696 27.697 14.742 27.645 14.792 L 27.645 14.792 L 27.645 14.792 C 27.613 14.825 27.585 14.856 27.558 14.886 C 27.428 15.037 27.316 15.174 27.228 15.291 C 27.05 15.523 26.953 15.663 26.953 15.663 C 26.953 15.663 26.958 15.642 26.968 15.603 C 26.834 15.792 26.767 15.897 26.767 15.897 C 26.767 15.897 26.816 15.736 26.934 15.463 C 26.994 15.328 27.069 15.163 27.176 14.983 C 27.234 14.887 27.297 14.783 27.367 14.679 C 27.465 14.509 27.582 14.32 27.772 14.14 C 27.878 14.044 28.005 13.934 28.216 13.892 C 28.321 13.875 28.443 13.883 28.549 13.929 C 28.656 13.972 28.741 14.041 28.81 14.111 C 29.072 14.402 29.172 14.72 29.265 15.041 C 29.353 15.367 29.406 15.689 29.451 16.038 C 29.487 16.365 29.516 16.699 29.546 17.032 C 29.559 17.199 29.574 17.365 29.583 17.532 C 29.589 17.702 29.595 17.87 29.6 18.037 C 29.604 18.204 29.607 18.37 29.611 18.534 C 29.616 18.698 29.616 18.859 29.608 19.018 C 29.599 19.335 29.585 19.641 29.566 19.931 C 29.544 20.221 29.514 20.495 29.485 20.747 C 29.453 20.999 29.412 21.229 29.377 21.432 C 29.341 21.635 29.297 21.811 29.265 21.955 C 29.193 22.244 29.135 22.404 29.135 22.404 C 29.135 22.404 29.131 22.235 29.124 21.94 C 29.124 21.924 29.123 21.908 29.122 21.886 C 29.102 21.997 29.08 22.098 29.063 22.188 C 29.041 22.286 29.021 22.37 29.004 22.437 L 29.671 22.397 L 30.644 22.373 C 30.968 22.362 31.292 22.365 31.617 22.371 L 32.589 22.386 L 33.56 22.433 L 34.045 22.457 L 34.529 22.497 L 35.387 22.569 C 35.381 22.559 35.375 22.548 35.369 22.538 C 35.349 22.49 35.327 22.434 35.303 22.371 C 35.276 22.307 35.252 22.236 35.233 22.158 C 35.212 22.08 35.187 21.994 35.17 21.902 C 35.154 21.809 35.136 21.711 35.117 21.607 C 35.103 21.503 35.095 21.393 35.083 21.278 C 35.064 21.049 35.05 20.799 35.059 20.537 C 35.059 20.404 35.064 20.269 35.072 20.132 C 35.077 19.993 35.09 19.853 35.106 19.71 C 35.134 19.424 35.178 19.131 35.237 18.834 C 35.293 18.538 35.368 18.239 35.455 17.943 C 35.547 17.647 35.646 17.358 35.776 17.071 C 35.841 16.927 35.907 16.78 35.979 16.659 C 36.014 16.597 36.049 16.534 36.084 16.472 C 36.136 16.387 36.174 16.333 36.225 16.264 C 36.325 16.135 36.444 16.008 36.605 15.915 C 36.764 15.819 36.984 15.78 37.163 15.827 C 37.343 15.872 37.477 15.963 37.582 16.058 C 37.688 16.153 37.767 16.255 37.838 16.353 C 37.979 16.55 38.073 16.742 38.149 16.914 C 38.227 17.085 38.279 17.239 38.321 17.366 C 38.402 17.62 38.428 17.77 38.428 17.77 L 38.428 17.77 L 38.428 17.77 L 38.428 17.77 C 38.428 17.77 38.35 17.639 38.208 17.419 C 38.063 17.204 37.857 16.885 37.562 16.585 C 37.418 16.44 37.227 16.301 37.076 16.289 C 37.003 16.283 36.947 16.302 36.879 16.354 C 36.814 16.408 36.742 16.486 36.68 16.587 C 36.651 16.632 36.615 16.7 36.595 16.737 C 36.564 16.802 36.533 16.866 36.502 16.931 C 36.433 17.064 36.39 17.189 36.337 17.315 C 36.236 17.57 36.141 17.848 36.059 18.125 C 35.892 18.68 35.761 19.251 35.66 19.79 C 35.631 19.925 35.612 20.059 35.589 20.189 C 35.564 20.319 35.544 20.447 35.528 20.572 C 35.493 20.822 35.467 21.059 35.445 21.278 C 35.437 21.388 35.429 21.493 35.422 21.594 C 35.418 21.694 35.414 21.789 35.411 21.879 C 35.405 21.969 35.415 22.051 35.414 22.129 C 35.412 22.208 35.416 22.279 35.425 22.342 C 35.431 22.407 35.437 22.465 35.442 22.515 C 35.446 22.536 35.451 22.556 35.455 22.575 L 35.496 22.578 C 35.818 22.612 36.139 22.654 36.461 22.691 C 37.104 22.759 37.742 22.867 38.381 22.967 C 39.02 23.059 39.651 23.207 40.285 23.328 C 40.916 23.465 41.542 23.623 42.17 23.77 C 41.535 23.654 40.903 23.527 40.267 23.421 L 39.311 23.278 C 38.993 23.228 38.675 23.177 38.354 23.144 C 37.715 23.068 37.077 22.983 36.435 22.94 C 36.114 22.915 35.794 22.884 35.473 22.863 L 34.51 22.817 L 34.029 22.795 L 33.547 22.788 L 32.583 22.777 L 31.621 22.797 C 31.3 22.803 30.979 22.812 30.659 22.835 L 29.699 22.888 L 28.741 22.971 C 28.421 22.995 28.103 23.034 27.785 23.074 C 27.468 23.116 27.148 23.143 26.833 23.197 L 25.883 23.344 L 24.94 23.519 C 24.625 23.574 24.313 23.649 24.001 23.717 L 23.532 23.82 L 23.067 23.935 C 22.445 24.084 21.83 24.258 21.218 24.44 C 20.913 24.536 20.607 24.627 20.305 24.729 C 20.003 24.834 19.7 24.934 19.4 25.043 C 18.801 25.264 18.207 25.495 17.621 25.748 C 17.035 25.999 16.457 26.267 15.887 26.551 C 15.319 26.837 14.756 27.134 14.211 27.457 C 13.668 27.777 13.12 28.125 12.639 28.485 L 12.661 27.829 C 12.998 28.138 13.181 28.484 13.345 28.822 C 13.503 29.162 13.624 29.504 13.731 29.848 C 13.942 30.534 14.093 31.224 14.223 31.914 C 14.481 33.295 14.637 34.681 14.771 36.066 C 14.901 37.451 14.996 38.836 15.076 40.22 L 15.187 42.295 L 15.242 43.327 L 15.272 43.81 C 15.195 43.848 15.118 43.887 15.03 43.931 C 14.983 43.915 14.933 43.906 14.889 43.905 L 14.574 44.01 C 15.107 43.613 15.628 43.197 16.193 42.847 C 16.47 42.664 16.745 42.478 17.036 42.318 C 17.324 42.154 17.608 41.983 17.899 41.824 L 18.784 41.375 C 18.93 41.297 19.08 41.227 19.232 41.162 L 19.684 40.96 L 20.137 40.758 C 20.289 40.693 20.444 40.636 20.597 40.575 C 20.905 40.457 21.21 40.329 21.521 40.219 L 22.456 39.898 C 22.767 39.789 23.085 39.705 23.4 39.607 L 23.873 39.466 L 24.351 39.343 C 24.67 39.264 24.987 39.175 25.308 39.104 L 26.27 38.893 C 26.591 38.823 26.915 38.769 27.237 38.707 C 27.559 38.643 27.883 38.59 28.207 38.541 C 28.531 38.492 28.854 38.433 29.179 38.395 L 30.154 38.268 L 31.131 38.165 C 31.457 38.128 31.783 38.108 32.109 38.079 C 32.436 38.05 32.762 38.028 33.089 38.01 C 33.742 37.968 34.395 37.948 35.049 37.928 L 36.029 37.911 L 37.01 37.912 C 37.663 37.919 38.316 37.933 38.969 37.957 C 39.621 37.983 40.274 38.018 40.925 38.062 C 41.577 38.107 42.227 38.165 42.877 38.233 C 43.416 38.291 43.95 38.353 44.489 38.43 L 44.598 38.699 L 44.349 38.686 L 44.349 38.686 C 44.206 38.497 44.095 38.297 43.994 38.098 C 43.92 37.946 43.857 37.791 43.792 37.638 C 43.737 37.482 43.678 37.327 43.626 37.171 L 43.482 36.702 L 43.356 36.23 C 43.28 35.914 43.207 35.598 43.146 35.281 C 42.897 34.011 42.733 32.734 42.6 31.456 C 42.468 30.177 42.373 28.897 42.3 27.616 C 42.226 26.335 42.188 25.052 42.17 23.77 L 42.17 23.77 C 42.246 25.05 42.36 26.327 42.477 27.602 C 42.597 28.878 42.738 30.151 42.915 31.418 C 43.093 32.684 43.302 33.946 43.593 35.184 C 43.664 35.494 43.746 35.8 43.827 36.105 L 43.961 36.559 L 44.111 37.005 C 44.164 37.152 44.223 37.295 44.279 37.44 C 44.343 37.58 44.405 37.721 44.474 37.856 C 44.615 38.121 44.78 38.371 44.971 38.548 C 45.023 38.596 45.057 38.664 45.058 38.738 C 47.733 41.715 49.86 45.255 51.128 48.536 C 47.858 43.98 44.586 40.858 41.489 38.755 C 41.288 38.744 41.087 38.733 40.886 38.722 C 40.24 38.69 39.595 38.668 38.949 38.655 C 38.302 38.643 37.657 38.641 37.011 38.647 L 36.042 38.664 L 35.075 38.699 C 34.43 38.73 33.786 38.764 33.143 38.815 C 32.821 38.836 32.5 38.863 32.179 38.894 C 31.858 38.927 31.536 38.949 31.217 38.99 L 30.257 39.102 L 29.301 39.238 C 28.981 39.278 28.666 39.341 28.348 39.392 C 28.03 39.444 27.714 39.499 27.399 39.565 C 27.084 39.63 26.767 39.687 26.454 39.758 L 25.516 39.976 C 25.203 40.048 24.895 40.139 24.585 40.219 L 24.12 40.345 L 23.66 40.484 C 23.355 40.58 23.045 40.663 22.743 40.77 L 21.836 41.085 C 21.592 41.173 21.352 41.272 21.111 41.366 C 19.254 43.428 16.393 46.087 12.506 48.188 C 9.816 49.642 9.082 52.82 13.413 55.24 C 17.643 51.767 23.591 48.112 27.299 42.108 L 27.299 42.108 C 27.299 42.108 23.863 51.423 14.75 58.96 C 11.105 61.974 11.294 67.217 20.071 69.023 C 9.688 70.005 6.519 66.319 8.836 60.574 C 9.545 58.815 11.03 57.246 12.901 55.658 L 12.901 55.658 L 12.901 55.658 L 12.901 55.658 L 12.901 55.658 L 12.901 55.658 L 12.901 55.658 L 12.901 55.658 L 12.901 55.658 L 12.901 55.658 L 12.901 55.658 L 12.901 55.658 L 12.901 55.658 L 12.901 55.658 L 12.901 55.658 C 7.163 54.614 5.979 51.834 8.158 48.498 C 9.293 46.76 11.648 45.589 14.357 44.26 L 14.357 44.26 L 14.357 44.26 L 14.357 44.26 Z  M 87.675 122.949 L 78.193 122.949 L 78.193 72.382 L 87.675 72.382 L 87.675 93.052 L 95.576 93.052 L 95.576 72.382 L 105.057 72.382 L 105.057 122.949 L 95.576 122.949 L 95.576 101.395 L 87.675 101.395 L 87.675 122.949 L 87.675 122.949 L 87.675 122.949 Z  M 135.004 122.949 L 111.87 122.949 L 111.87 72.382 L 135.004 72.382 L 135.004 80.726 L 121.351 80.726 L 121.351 93.052 L 134.372 93.052 L 134.372 101.395 L 121.351 101.395 L 121.351 114.606 L 135.004 114.606 L 135.004 122.949 L 135.004 122.949 L 135.004 122.949 Z  M 149.401 122.949 L 139.92 122.949 L 139.92 72.382 L 163.054 72.382 L 163.054 80.726 L 149.401 80.726 L 149.401 93.052 L 162.422 93.052 L 162.422 101.395 L 149.401 101.395 L 149.401 122.949 L 149.401 122.949 L 149.401 122.949 Z  M 53.022 27.522 L 53.022 20.559 L 59.63 20.559 L 59.63 27.522 L 53.022 27.522 L 53.022 27.522 L 53.022 27.522 Z  M 74.983 59.98 L 74.983 59.98 L 74.983 59.98 Q 76.613 59.98 77.317 59.034 L 77.317 59.034 L 77.317 59.034 Q 78.022 58.089 78.066 55.912 L 78.066 55.912 L 78.066 55.912 Q 78.507 43.421 78.066 30.987 L 78.066 30.987 L 78.066 30.987 Q 78.022 28.81 77.317 27.893 L 77.317 27.893 L 77.317 27.893 Q 76.613 26.976 74.983 26.976 L 74.983 26.976 L 74.983 26.976 Q 73.353 26.976 72.626 27.893 L 72.626 27.893 L 72.626 27.893 Q 71.899 28.81 71.855 30.987 L 71.855 30.987 L 71.855 30.987 Q 71.415 43.421 71.855 55.912 L 71.855 55.912 L 71.855 55.912 Q 71.899 58.089 72.626 59.034 L 72.626 59.034 L 72.626 59.034 Q 73.353 59.98 74.983 59.98 L 74.983 59.98 L 74.983 59.98 L 74.983 59.98 Z  M 98 39.123 L 97.207 49.265 L 101.964 49.265 L 101.172 39.123 L 100.643 28.122 L 98.529 28.122 L 98 39.123 L 98 39.123 L 98 39.123 L 98 39.123 Z  M 120.93 66.397 L 114.322 66.397 L 114.322 20.559 L 125.202 20.559 L 127.845 35.17 L 130.268 58.834 L 132.294 58.834 L 131.061 40.212 L 130.532 20.559 L 137.183 20.559 L 137.183 66.397 L 125.775 66.397 L 123.132 51.385 L 121.326 28.065 L 119.212 28.065 L 120.357 48.807 L 120.93 66.397 L 120.93 66.397 L 120.93 66.397 L 120.93 66.397 Z  M 150.334 39.123 L 149.541 49.265 L 154.298 49.265 L 153.505 39.123 L 152.977 28.122 L 150.862 28.122 L 150.334 39.123 L 150.334 39.123 L 150.334 39.123 L 150.334 39.123 Z  M 74.983 66.97 L 74.983 66.97 L 74.983 66.97 Q 69.873 66.97 67.605 64.306 L 67.605 64.306 L 67.605 64.306 Q 65.336 61.641 65.248 55.453 L 65.248 55.453 L 65.248 55.453 Q 65.204 51.156 65.182 47.288 L 65.182 47.288 L 65.182 47.288 Q 65.16 43.421 65.182 39.582 L 65.182 39.582 L 65.182 39.582 Q 65.204 35.743 65.248 31.445 L 65.248 31.445 L 65.248 31.445 Q 65.336 25.315 67.605 22.65 L 67.605 22.65 L 67.605 22.65 Q 69.873 19.986 74.983 19.986 L 74.983 19.986 L 74.983 19.986 Q 80.004 19.986 82.251 22.65 L 82.251 22.65 L 82.251 22.65 Q 84.497 25.315 84.673 31.445 L 84.673 31.445 L 84.673 31.445 Q 84.805 35.743 84.849 39.61 L 84.849 39.61 L 84.849 39.61 Q 84.894 43.478 84.849 47.317 L 84.849 47.317 L 84.849 47.317 Q 84.805 51.156 84.673 55.453 L 84.673 55.453 L 84.673 55.453 Q 84.497 61.641 82.251 64.306 L 82.251 64.306 L 82.251 64.306 Q 80.004 66.97 74.983 66.97 L 74.983 66.97 L 74.983 66.97 L 74.983 66.97 Z  M 95.842 66.397 L 89.058 66.397 L 93.948 20.559 L 105.224 20.559 L 110.113 66.397 L 103.33 66.397 L 102.581 56.828 L 96.591 56.828 L 95.842 66.397 L 95.842 66.397 L 95.842 66.397 L 95.842 66.397 Z  M 148.176 66.397 L 141.392 66.397 L 146.281 20.559 L 157.558 20.559 L 162.447 66.397 L 155.664 66.397 L 154.915 56.828 L 148.924 56.828 L 148.176 66.397 L 148.176 66.397 L 148.176 66.397 L 148.176 66.397 Z " fill-rule="evenodd" fill="rgb(252,54,58)"/></g></svg>