<?xml version="1.0" encoding="UTF-8" standalone="no"?>
<!-- Generator: Gravit.io -->
<svg xmlns="http://www.w3.org/2000/svg" xmlns:xlink="http://www.w3.org/1999/xlink" style="isolation:isolate" viewBox="0 0 85.552 100" width="85.552pt" height="100pt"><defs><clipPath id="_clipPath_ZDM04clAwz4hmA7DQx5l4K0BRCqeFV3b"><rect width="85.552" height="100"/></clipPath></defs><g clip-path="url(#_clipPath_ZDM04clAwz4hmA7DQx5l4K0BRCqeFV3b)"><rect width="85.552" height="100" style="fill:rgb(0,0,0)" fill-opacity="0"/><g><path d=" M 3.586 16.31 C 14.956 4.048 30.556 16.834 30.556 16.834 C 30.556 16.834 19.819 4.384 45.098 0.485 C 69.556 -3.288 67.573 16.205 67.573 16.205 C 75.505 11.07 82.115 20.083 82.115 20.083 C 95.908 39.367 63.739 41.464 63.739 41.464 L 65.325 57.603 C 65.325 57.603 57.579 55.407 48.139 59.07 C 38.347 62.87 24.078 56.765 24.078 56.765 C 24.078 56.765 23.152 51.525 23.946 46.704 C 24.659 42.366 25.159 38.624 25.251 37.917 C 25.087 37.971 25.003 38.005 25.003 38.005 C 22.095 37.481 -10.696 31.714 3.586 16.31 Z " fill="rgb(255,93,34)"/><mask id="_mask_GEXOY1CpTjhAHkLP8WutxTfwgDvaWmTp"><path d=" M 47.561 27.688 C 47.542 27.956 47.529 28.227 47.528 28.503" fill="white" stroke="none"/></mask><path d=" M 47.561 27.688 C 47.542 27.956 47.529 28.227 47.528 28.503" fill="none"/><path d=" M 47.561 27.688 C 47.542 27.956 47.529 28.227 47.528 28.503" fill="none" mask="url(#_mask_GEXOY1CpTjhAHkLP8WutxTfwgDvaWmTp)" vector-effect="non-scaling-stroke" stroke-width="6" stroke="rgb(0,0,0)" stroke-linejoin="miter" stroke-linecap="square" stroke-miterlimit="3"/><path d=" M 44.525 74.725 C 44.366 74.879 44.208 75.033 44.052 75.189 C 44.036 75.177 44.021 75.165 44.005 75.154 C 41.477 73.237 38.008 71.479 37.438 67.926 C 37.241 66.701 37.494 65.223 38.53 64.634 C 39.545 64.057 40.814 64.604 41.716 65.361 C 42.489 66.01 43.145 66.813 43.639 67.716 C 44.061 66.946 44.487 66.169 45.061 65.519 C 45.636 64.87 46.381 64.35 47.215 64.229 C 47.778 64.148 48.387 64.266 48.823 64.651 C 49.1 64.895 49.294 65.233 49.424 65.589 C 49.745 66.469 49.692 67.466 49.418 68.363 C 49.145 69.261 48.664 70.072 48.137 70.833 C 47.126 72.294 45.792 73.497 44.525 74.725 Z " fill="rgb(255,74,63)"/><path d=" M 64.947 49.628 Q 67.481 64.741 66.712 80.318 L 65.349 93.187 Q 64.923 99.321 59.897 100 Q 55.892 99.95 54.444 95.416 Q 53.848 95.047 53.763 91.516 L 55.094 79.07 Q 51.448 82.58 44.006 86.699 L 44.005 86.745 Q 43.985 86.733 43.965 86.722 Q 43.945 86.733 43.924 86.745 L 43.924 86.699 Q 36.482 82.58 32.836 79.07 L 32.836 79.07 L 32.836 79.07 L 34.167 91.516 Q 34.082 95.047 33.486 95.416 Q 32.038 99.95 28.033 100 Q 23.007 99.321 22.581 93.187 L 21.218 80.318 Q 20.476 65.278 22.812 50.671 C 17.288 48.468 13.598 39.871 14.3 29.924 L 14.3 29.924 C 15.095 18.659 21.224 9.901 27.978 10.377 C 34.732 10.854 39.57 20.387 38.775 31.651 C 37.98 42.916 31.851 51.675 25.097 51.198 C 24.963 51.189 24.829 51.176 24.697 51.159 L 24.697 51.159 C 22.351 65.435 22.282 79.556 24.503 93.534 Q 25.272 98.373 28.924 97.866 Q 32.115 96.757 32.123 92.864 L 30.905 80.318 Q 30.794 77.336 30.078 76.91 Q 24.711 68.731 24.255 67.368 Q 22.095 63.279 26.219 60.841 Q 30.623 60.619 31.441 66.033 L 32.54 76.301 Q 39.581 82.209 43.965 84.359 L 43.965 84.359 Q 48.349 82.209 55.39 76.301 L 56.489 66.033 Q 57.307 60.619 61.711 60.841 Q 65.835 63.279 63.675 67.368 Q 63.219 68.731 57.852 76.91 Q 57.136 77.336 57.025 80.318 L 55.807 92.864 Q 55.815 96.757 59.006 97.866 Q 62.658 98.373 63.427 93.534 C 65.682 79.343 65.576 65.004 63.118 50.504 C 62.519 50.702 61.9 50.827 61.264 50.872 C 54.933 51.319 49.15 43.649 47.797 33.408 L 47.85 33.403 Q 46.714 27.408 47.152 10.359 L 48.957 10.359 Q 48.798 25.959 49.631 33.453 Q 49.67 33.81 49.702 34.133 C 51.093 42.631 55.804 48.874 60.922 48.512 C 61.535 48.469 62.128 48.333 62.697 48.102 C 62.395 46.501 62.067 44.899 61.711 43.295 L 61.711 43.295 L 61.711 43.295 L 63.675 43.01 Q 64.116 45.042 64.497 47.083 C 67.44 44.809 69.494 40.059 69.93 34.34 L 69.93 34.34 Q 69.844 33.433 69.854 31.888 Q 69.901 24.321 67.639 8.884 L 69.889 8.584 Q 72.589 24.803 72.108 31.085 L 72.134 31.083 C 72.366 39.538 69.422 46.8 64.947 49.628 Z  M 25.11 48.806 C 25.219 48.82 25.329 48.831 25.439 48.839 C 31.115 49.239 36.292 41.515 36.992 31.601 C 37.691 21.686 33.651 13.312 27.975 12.911 C 22.299 12.51 17.122 20.235 16.423 30.149 L 16.423 30.149 C 15.818 38.714 18.751 46.13 23.221 48.249 Q 23.688 45.622 24.255 43.01 L 26.219 43.295 L 26.219 43.295 C 25.81 45.134 25.439 46.972 25.11 48.806 L 25.11 48.806 Z  M 57.11 74.836 Q 57.306 75.421 61.795 67.574 Q 63.695 63.366 61.071 62.574 L 61.071 62.574 L 61.071 62.574 C 59.543 62.35 58.595 63.377 58.207 65.675 Q 56.914 74.251 57.11 74.836 Q 57.11 74.836 57.11 74.836 L 57.11 74.836 L 57.11 74.836 L 57.11 74.836 Z  M 26.859 62.574 Q 24.235 63.366 26.134 67.574 Q 30.625 75.421 30.82 74.836 L 30.82 74.836 Q 31.016 74.252 29.723 65.675 C 29.335 63.377 28.387 62.35 26.859 62.574 L 26.859 62.574 L 26.859 62.574 L 26.859 62.574 L 26.859 62.574 L 26.859 62.574 Z  M 54.446 8.484 L 55.428 8.424 C 55.721 8.407 55.974 8.63 55.992 8.924 L 57.375 31.607 C 57.393 31.9 57.169 32.153 56.876 32.171 L 55.893 32.231 C 55.6 32.249 55.347 32.025 55.329 31.731 L 53.946 9.049 C 53.928 8.755 54.152 8.502 54.446 8.484 L 54.446 8.484 L 54.446 8.484 Z  M 62.072 8.039 L 63.054 7.98 C 63.347 7.962 63.6 8.185 63.618 8.479 L 65.001 31.162 C 65.019 31.455 64.795 31.708 64.502 31.726 L 63.519 31.786 C 63.226 31.804 62.973 31.58 62.955 31.286 L 61.572 8.604 C 61.554 8.31 61.778 8.057 62.072 8.039 L 62.072 8.039 L 62.072 8.039 Z " fill-rule="evenodd" fill="rgb(23,23,23)"/></g></g></svg>